<?xml version="1.0" encoding="UTF-8" standalone="no"?>
<!DOCTYPE svg PUBLIC "-//W3C//DTD SVG 1.1//EN" "http://www.w3.org/Graphics/SVG/1.1/DTD/svg11.dtd">
<svg xmlns="http://www.w3.org/2000/svg" version="1.1" viewBox="0.00 0.00 1024.00 1024.00">
<g stroke-width="2.00" fill="none" stroke-linecap="butt">
<path stroke="#3bb197" vector-effect="non-scaling-stroke" d="
  M 614.58 46.46
  L 613.85 47.36
  A 1.25 1.24 -27.8 0 0 613.57 48.25
  Q 615.78 74.34 603.16 96.70
  Q 590.19 119.69 566.40 133.41
  C 560.92 136.57 552.74 140.89 545.43 143.85
  C 528.87 150.54 512.12 158.13 497.19 168.46
  C 476.07 183.07 460.15 202.35 448.82 225.35
  C 447.59 227.84 446.75 230.66 445.46 233.60
  Q 444.25 236.36 443.22 239.91
  Q 435.99 264.71 438.81 291.27
  C 440.62 308.22 445.95 323.58 453.66 339.11
  Q 463.60 359.15 477.96 375.52"
/>
<path stroke="#a7c783" vector-effect="non-scaling-stroke" d="
  M 477.96 375.52
  L 446.30 346.21"
/>
<path stroke="#a7b17d" vector-effect="non-scaling-stroke" d="
  M 446.30 346.21
  L 434.18 332.48"
/>
<path stroke="#9a856e" vector-effect="non-scaling-stroke" d="
  M 434.18 332.48
  Q 421.57 315.34 414.24 295.53
  Q 411.89 289.18 410.26 283.55"
/>
<path stroke="#ffa554" vector-effect="non-scaling-stroke" d="
  M 520.22 395.01
  Q 519.04 398.01 516.67 400.20
  C 511.03 405.43 507.88 412.63 504.38 420.39
  C 502.46 424.65 500.98 430.90 500.62 434.39
  C 499.74 443.09 499.70 454.44 499.87 463.89
  Q 500.34 491.22 500.43 499.25
  Q 500.81 535.08 499.64 568.25
  Q 499.56 570.34 499.74 572.52"
/>
<path stroke="#ffce79" vector-effect="non-scaling-stroke" d="
  M 499.74 572.52
  Q 496.83 572.99 491.99 572.68
  Q 473.16 571.47 458.60 560.66
  Q 451.34 555.27 443.96 550.04
  Q 436.55 544.80 423.48 541.66"
/>
<path stroke="#96724c" vector-effect="non-scaling-stroke" d="
  M 423.48 541.66
  Q 424.38 534.99 424.28 530.00
  Q 423.86 509.40 417.19 487.82
  C 412.01 471.09 402.10 454.11 386.31 446.44
  C 362.20 434.74 338.62 450.15 327.08 471.64
  C 316.81 490.78 315.44 513.85 321.09 534.78"
/>
<path stroke="#ffce79" vector-effect="non-scaling-stroke" d="
  M 321.09 534.78
  C 319.65 536.38 321.05 537.31 321.10 538.70
  Q 321.19 540.81 319.15 541.66
  Q 309.38 545.72 304.76 554.43
  C 300.63 562.24 302.03 572.55 304.97 580.76
  Q 308.26 589.96 312.00 597.47"
/>
<path stroke="#ffb555" vector-effect="non-scaling-stroke" d="
  M 312.00 597.47
  Q 305.81 594.85 298.88 594.56"
/>
<path stroke="#27897f" vector-effect="non-scaling-stroke" d="
  M 623.57 68.12
  Q 618.75 78.63 611.87 91.41
  Q 594.25 124.13 564.79 145.80
  Q 547.67 158.39 530.52 171.03
  C 514.53 182.81 499.23 197.38 488.71 213.71
  C 465.85 249.22 461.55 292.06 478.76 331.02
  Q 480.73 335.48 491.73 358.07
  Q 494.14 363.01 499.79 377.89
  A 3.09 2.91 -58.2 0 1 499.98 378.83
  L 500.13 385.04"
/>
<path stroke="#207570" vector-effect="non-scaling-stroke" d="
  M 500.13 385.04
  C 499.85 391.58 500.21 397.48 501.94 403.30"
/>
<path stroke="#94a46e" vector-effect="non-scaling-stroke" d="
  M 501.94 403.30
  Q 495.95 395.91 490.12 388.51
  Q 487.52 385.19 484.19 381.90
  Q 480.95 378.70 477.96 375.52"
/>
<path stroke="#f2633f" vector-effect="non-scaling-stroke" d="
  M 434.18 332.48
  Q 434.80 334.28 433.48 335.14"
/>
<path stroke="#f27845" vector-effect="non-scaling-stroke" d="
  M 433.48 335.14
  Q 430.71 338.29 427.97 341.23
  Q 420.61 349.12 410.43 352.68
  C 395.52 357.89 377.52 357.44 364.48 348.69"
/>
<path stroke="#eb4234" vector-effect="non-scaling-stroke" d="
  M 364.48 348.69
  C 373.16 344.06 383.46 342.46 391.37 339.81
  C 395.93 338.28 403.66 335.09 399.50 328.84
  Q 397.76 326.22 396.91 325.48
  Q 389.07 318.62 382.15 310.99"
/>
<path stroke="#f24b36" vector-effect="non-scaling-stroke" d="
  M 382.15 310.99
  L 372.97 300.71"
/>
<path stroke="#f25339" vector-effect="non-scaling-stroke" d="
  M 372.97 300.71
  Q 350.07 271.39 338.25 236.08
  Q 327.34 203.45 325.66 169.07
  Q 324.06 136.18 329.12 108.10
  Q 332.65 88.49 342.19 64.27"
/>
<path stroke="#ffa554" vector-effect="non-scaling-stroke" d="
  M 446.30 346.21
  C 440.73 344.38 436.88 339.96 433.48 335.14"
/>
<path stroke="#1e706d" vector-effect="non-scaling-stroke" d="
  M 693.72 155.52
  L 693.59 171.35"
/>
<path stroke="#8b5e4d" vector-effect="non-scaling-stroke" d="
  M 596.45 288.65
  L 587.36 300.43"
/>
<path stroke="#84554b" vector-effect="non-scaling-stroke" d="
  M 587.36 300.43
  Q 585.05 303.81 582.66 307.16
  Q 581.57 308.69 579.14 309.51"
/>
<path stroke="#8b5e4d" vector-effect="non-scaling-stroke" d="
  M 579.14 309.51
  Q 567.53 315.26 557.35 324.10
  Q 545.27 334.60 535.87 344.62
  Q 516.04 365.77 507.44 393.49
  Q 505.76 398.90 504.54 406.52"
/>
<path stroke="#8b8b5c" vector-effect="non-scaling-stroke" d="
  M 504.54 406.52
  L 501.94 403.30"
/>
<path stroke="#1a6666" vector-effect="non-scaling-stroke" d="
  M 498.91 303.55
  Q 503.24 289.12 507.61 274.69
  Q 510.65 264.67 514.06 258.80
  Q 516.98 253.79 520.07 251.07
  Q 532.78 239.88 540.86 232.91
  Q 551.44 223.79 564.08 217.68
  Q 570.08 214.78 583.44 210.90
  C 594.84 207.59 607.40 204.01 618.82 199.08"
/>
<path stroke="#f88449" vector-effect="non-scaling-stroke" d="
  M 364.48 348.69
  L 361.09 346.69"
/>
<path stroke="#ff9f50" vector-effect="non-scaling-stroke" d="
  M 322.45 613.05
  Q 317.56 614.78 314.71 619.62"
/>
<path stroke="#f8573a" vector-effect="non-scaling-stroke" d="
  M 592.29 678.47
  C 595.09 677.43 600.64 675.87 602.14 673.26
  A 2.43 2.42 30.6 0 0 601.29 669.98
  Q 598.94 668.55 595.35 668.44"
/>
<path stroke="#ff9c63" vector-effect="non-scaling-stroke" d="
  M 595.35 668.44
  Q 602.72 666.37 609.74 664.00
  C 638.07 654.44 666.60 637.23 685.31 614.56"
/>
<path stroke="#ff8d4b" vector-effect="non-scaling-stroke" d="
  M 685.31 614.56
  C 695.50 602.28 710.53 579.93 704.16 562.94
  C 701.39 555.54 692.17 548.31 684.85 544.23"
/>
<path stroke="#96453d" vector-effect="non-scaling-stroke" d="
  M 684.85 544.23
  Q 687.71 537.83 688.71 530.75
  C 692.88 501.30 682.31 472.99 660.88 452.88
  C 649.53 442.23 634.95 437.11 619.17 439.83"
/>
<path stroke="#ff683f" vector-effect="non-scaling-stroke" d="
  M 619.17 439.83
  C 623.60 422.78 618.69 404.58 602.95 395.25
  Q 598.59 392.66 593.93 390.25"
/>
<path stroke="#ff7845" vector-effect="non-scaling-stroke" d="
  M 593.93 390.25
  Q 580.23 384.25 567.72 383.50
  Q 554.00 382.68 537.84 387.08
  Q 530.62 389.04 523.96 392.45
  Q 521.86 393.52 520.22 395.01"
/>
<path stroke="#ff8d4b" vector-effect="non-scaling-stroke" d="
  M 520.22 395.01
  Q 513.26 399.56 511.47 402.22
  Q 509.62 404.97 507.52 407.62
  A 1.86 1.86 0.0 0 1 505.02 408.01
  Q 503.97 407.30 504.54 406.52"
/>
<path stroke="#ffdc92" vector-effect="non-scaling-stroke" d="
  M 646.86 575.92
  C 642.07 587.81 637.67 599.84 630.53 611.00
  C 621.99 624.36 609.19 633.02 594.23 637.99
  C 577.80 643.45 560.15 647.22 545.55 651.21
  C 531.25 655.12 518.91 660.04 504.35 666.28
  Q 485.92 674.17 464.50 677.07"
/>
<path stroke="#ffa16b" vector-effect="non-scaling-stroke" d="
  M 464.50 677.07
  Q 430.39 671.09 397.32 660.66"
/>
<path stroke="#fea96d" vector-effect="non-scaling-stroke" d="
  M 397.32 660.66
  Q 372.70 652.49 351.05 638.40"
/>
<path stroke="#ffb874" vector-effect="non-scaling-stroke" d="
  M 351.05 638.40
  Q 334.70 627.94 322.45 613.05"
/>
<path stroke="#fec875" vector-effect="non-scaling-stroke" d="
  M 322.45 613.05
  L 312.00 597.47"
/>
<path stroke="#95856c" vector-effect="non-scaling-stroke" d="
  M 423.48 541.66
  C 421.27 555.30 415.76 567.57 402.94 574.21"
/>
<path stroke="#948f8e" vector-effect="non-scaling-stroke" d="
  M 402.94 574.21
  Q 394.74 577.30 386.58 575.17
  C 359.48 568.12 346.03 535.00 346.26 509.78
  Q 346.51 482.78 365.28 464.08
  A 0.28 0.28 0.0 0 0 365.09 463.60
  C 358.17 463.53 352.60 466.75 347.42 471.42
  C 327.55 489.31 321.19 517.47 326.66 543.02
  Q 328.66 552.35 335.65 561.21"
/>
<path stroke="#95856c" vector-effect="non-scaling-stroke" d="
  M 335.65 561.21
  C 328.51 554.77 323.77 543.85 321.09 534.78"
/>
<path stroke="#f85f3d" vector-effect="non-scaling-stroke" d="
  M 283.76 361.90
  Q 290.54 373.47 297.49 385.00
  Q 300.65 390.24 304.62 395.36"
/>
<path stroke="#f8573a" vector-effect="non-scaling-stroke" d="
  M 304.62 395.36
  L 311.14 403.65
  A 0.21 0.20 26.5 0 0 311.51 403.53
  L 313.25 338.87"
/>
<path stroke="#f88449" vector-effect="non-scaling-stroke" d="
  M 337.78 374.25
  Q 316.85 406.40 307.65 443.94
  Q 307.46 444.71 306.79 445.15"
/>
<path stroke="#f8573a" vector-effect="non-scaling-stroke" d="
  M 302.98 446.99
  Q 305.07 434.70 305.72 422.38
  A 0.39 0.39 0.0 0 0 305.27 421.97
  L 289.48 424.59"
/>
<path stroke="#ff8048" vector-effect="non-scaling-stroke" d="
  M 593.93 390.25
  C 597.89 397.67 599.97 404.84 596.98 412.92
  C 594.14 420.60 589.04 428.11 588.37 436.93
  Q 588.15 439.79 589.64 447.72
  Q 590.66 453.10 591.48 458.46"
/>
<path stroke="#965c46" vector-effect="non-scaling-stroke" d="
  M 591.48 458.46
  Q 587.44 463.80 585.06 468.55
  Q 572.78 493.02 572.90 521.00
  Q 572.94 529.50 576.20 539.78"
/>
<path stroke="#ffb874" vector-effect="non-scaling-stroke" d="
  M 576.20 539.78
  Q 557.37 541.78 543.13 553.42
  Q 534.60 560.38 531.95 562.45
  Q 518.37 573.06 499.74 572.52"
/>
<path stroke="#237f79" vector-effect="non-scaling-stroke" d="
  M 626.61 86.70
  Q 620.80 98.93 616.48 106.61
  Q 601.78 132.81 576.98 153.31
  Q 565.01 163.20 546.01 177.60
  C 527.80 191.38 511.23 206.60 500.05 226.88
  Q 483.46 256.95 487.98 291.84
  Q 489.00 299.74 491.32 309.25
  Q 495.02 324.47 498.72 339.71"
/>
<path stroke="#1e706d" vector-effect="non-scaling-stroke" d="
  M 498.72 339.71
  C 498.82 346.40 499.90 353.76 500.09 359.58
  Q 500.51 372.31 500.13 385.04"
/>
<path stroke="#ff683f" vector-effect="non-scaling-stroke" d="
  M 372.97 300.71
  Q 354.85 308.32 337.67 318.07"
/>
<path stroke="#f8573a" vector-effect="non-scaling-stroke" d="
  M 382.15 310.99
  Q 363.56 319.60 345.80 329.54"
/>
<path stroke="#36a18d" vector-effect="non-scaling-stroke" d="
  M 550.11 211.94
  Q 549.95 211.73 549.72 211.70
  Q 549.47 211.68 549.27 211.83
  Q 546.72 213.85 544.34 216.30
  A 0.21 0.21 0.0 0 0 544.33 216.58
  L 544.34 216.59
  A 0.36 0.36 0.0 0 0 544.83 216.65
  Q 548.66 213.72 550.03 212.56
  Q 550.24 212.38 550.11 211.94"
/>
<path stroke="#1c6b6a" vector-effect="non-scaling-stroke" d="
  M 670.98 99.79
  C 671.32 106.45 674.23 113.01 675.46 117.95
  Q 676.52 122.23 676.28 133.55
  C 675.76 158.32 657.54 178.69 636.96 190.17
  Q 628.02 195.16 618.82 199.08"
/>
<path stroke="#1f7571" vector-effect="non-scaling-stroke" d="
  M 618.82 199.08
  Q 614.52 198.71 612.34 197.79
  C 607.22 195.63 615.07 190.24 617.10 189.03
  C 628.79 182.11 640.22 176.80 650.86 166.49"
/>
<path stroke="#ff683f" vector-effect="non-scaling-stroke" d="
  M 636.08 307.23
  Q 614.97 300.70 596.45 288.65"
/>
<path stroke="#8b6650" vector-effect="non-scaling-stroke" d="
  M 596.45 288.65
  Q 608.92 275.33 624.37 265.11
  Q 635.70 257.62 643.69 251.47
  Q 669.76 231.43 684.15 202.70
  Q 687.40 196.20 689.39 190.07
  Q 691.69 182.98 692.59 176.77
  Q 692.69 176.12 693.16 176.00"
/>
<path stroke="#1f7571" vector-effect="non-scaling-stroke" d="
  M 622.34 131.52
  C 610.11 142.99 597.23 156.07 584.80 165.57
  C 563.97 181.49 544.15 197.39 527.17 218.13
  Q 508.03 241.52 502.25 271.86
  Q 499.68 285.37 498.91 303.55"
/>
<path stroke="#1c6b6a" vector-effect="non-scaling-stroke" d="
  M 498.91 303.55
  Q 497.79 314.62 498.23 325.74
  Q 498.51 332.73 498.72 339.71"
/>
<path stroke="#f8573a" vector-effect="non-scaling-stroke" d="
  M 622.55 317.43
  L 587.36 300.43"
/>
<path stroke="#f8573a" vector-effect="non-scaling-stroke" d="
  M 584.20 331.74
  Q 579.23 324.78 578.09 316.49
  A 8.79 8.76 47.8 0 1 578.24 313.30
  L 579.14 309.51"
/>
<path stroke="#ff8048" vector-effect="non-scaling-stroke" d="
  M 351.05 638.40
  Q 344.86 639.01 338.99 641.17"
/>
<path stroke="#a1a87a" vector-effect="non-scaling-stroke" d="
  M 338.99 641.17
  Q 331.56 636.59 325.37 631.09"
/>
<path stroke="#f8573a" vector-effect="non-scaling-stroke" d="
  M 708.24 448.84
  Q 706.50 447.45 706.22 446.46
  Q 701.71 430.54 694.63 415.59
  Q 694.02 414.31 694.49 412.08"
/>
<path stroke="#f85f3d" vector-effect="non-scaling-stroke" d="
  M 694.49 412.08
  Q 706.28 397.16 716.66 381.20"
/>
<path stroke="#eb4234" vector-effect="non-scaling-stroke" d="
  M 716.66 381.20
  Q 716.69 383.17 717.95 384.06
  A 0.67 0.66 41.8 0 0 718.77 384.02
  C 740.66 364.72 767.39 350.94 796.80 347.80
  A 0.67 0.67 0.0 0 1 797.51 348.26
  C 800.89 358.30 797.11 366.02 790.55 373.52
  Q 785.65 379.12 778.73 385.35
  Q 757.55 404.39 738.45 424.72
  A 0.24 0.24 0.0 0 0 738.62 425.13
  Q 759.53 425.71 778.43 416.88
  C 795.08 409.10 811.18 396.43 822.13 381.64
  C 838.22 359.90 848.11 334.57 856.54 308.26
  Q 856.80 307.45 856.89 306.48
  A 0.82 0.81 86.4 0 0 855.90 305.60
  L 822.97 312.79"
/>
<path stroke="#f85f3d" vector-effect="non-scaling-stroke" d="
  M 822.97 312.79
  Q 830.78 298.45 833.92 282.44"
/>
<path stroke="#f8573a" vector-effect="non-scaling-stroke" d="
  M 588.15 679.50
  L 568.81 683.49"
/>
<path stroke="#f88449" vector-effect="non-scaling-stroke" d="
  M 568.81 683.49
  Q 546.30 687.87 524.32 689.37"
/>
<path stroke="#f89361" vector-effect="non-scaling-stroke" d="
  M 524.32 689.37
  L 507.06 689.71"
/>
<path stroke="#f89361" vector-effect="non-scaling-stroke" d="
  M 595.35 668.44
  Q 587.38 670.19 579.20 672.08
  Q 560.47 676.40 541.45 679.19
  Q 524.81 681.63 503.21 681.70"
/>
<path stroke="#ff9c63" vector-effect="non-scaling-stroke" d="
  M 503.21 681.70
  Q 483.84 681.13 464.50 677.07"
/>
<path stroke="#954d40" vector-effect="non-scaling-stroke" d="
  M 619.17 439.83
  Q 606.76 442.60 597.29 451.79
  Q 595.83 453.21 591.48 458.46"
/>
<path stroke="#ffc972" vector-effect="non-scaling-stroke" d="
  M 685.31 614.56
  Q 687.15 603.15 688.31 589.44
  Q 690.15 567.68 682.87 547.77"
/>
<path stroke="#96724c" vector-effect="non-scaling-stroke" d="
  M 684.85 544.23
  Q 683.56 545.69 682.87 547.77"
/>
<path stroke="#968064" vector-effect="non-scaling-stroke" d="
  M 682.87 547.77
  Q 682.15 549.54 681.82 548.74"
/>
<path stroke="#948f8e" vector-effect="non-scaling-stroke" d="
  M 681.82 548.74
  Q 683.76 544.69 684.31 540.31
  C 687.18 517.53 679.11 495.07 664.01 478.01
  Q 657.22 470.33 647.82 465.75
  A 0.36 0.36 0.0 0 0 647.36 466.26
  C 648.70 468.37 650.64 470.66 651.85 472.61
  C 669.98 501.90 662.97 548.14 633.00 567.49
  Q 622.29 574.41 609.43 573.38"
/>
<path stroke="#95856c" vector-effect="non-scaling-stroke" d="
  M 609.43 573.38
  C 595.62 571.26 584.57 559.39 579.10 547.07
  Q 577.36 543.13 576.20 539.78"
/>
<path stroke="#f24b36" vector-effect="non-scaling-stroke" d="
  M 650.91 348.78
  L 650.45 348.81
  A 2.17 2.01 25.9 0 0 649.60 349.07
  C 636.88 356.36 623.43 358.42 609.65 352.88
  Q 594.14 346.63 584.20 331.74"
/>
<path stroke="#eb4234" vector-effect="non-scaling-stroke" d="
  M 584.20 331.74
  Q 596.83 330.43 602.00 328.75
  Q 610.95 325.84 622.55 317.43"
/>
<path stroke="#f24b36" vector-effect="non-scaling-stroke" d="
  M 622.55 317.43
  L 636.08 307.23"
/>
<path stroke="#f25339" vector-effect="non-scaling-stroke" d="
  M 636.08 307.23
  Q 656.42 289.00 671.45 269.20
  C 683.88 252.83 694.94 232.30 700.99 211.80
  C 705.53 196.43 708.63 183.65 709.95 168.25
  Q 712.05 143.77 708.92 119.32
  Q 706.56 100.93 698.22 78.48
  Q 694.81 69.30 690.41 63.37"
/>
<path stroke="#f25339" vector-effect="non-scaling-stroke" d="
  M 822.97 312.79
  Q 815.42 314.30 787.40 320.68
  Q 774.62 323.58 766.63 328.02
  C 764.01 329.47 761.61 331.37 759.51 332.44
  Q 757.25 333.58 754.33 335.99
  C 744.65 343.94 737.74 349.97 732.32 357.56
  Q 724.23 368.88 718.83 377.89
  Q 717.80 379.62 716.66 381.20"
/>
<path stroke="#ff683f" vector-effect="non-scaling-stroke" d="
  M 694.49 412.08
  Q 692.76 411.17 691.42 408.82
  Q 685.43 398.33 671.39 375.13"
/>
<path stroke="#fdebbb" vector-effect="non-scaling-stroke" d="
  M 402.94 574.21
  Q 401.10 575.94 399.42 576.77
  Q 385.91 583.48 371.08 580.94
  C 368.24 580.45 365.57 579.16 362.87 578.63
  C 356.43 577.35 347.09 571.61 343.49 568.26
  Q 339.66 564.69 335.65 561.21"
/>
<path stroke="#ff683f" vector-effect="non-scaling-stroke" d="
  M 397.32 660.66
  Q 394.42 663.62 394.80 667.51"
/>
<path stroke="#937f62" vector-effect="non-scaling-stroke" d="
  M 394.80 667.51
  L 378.48 661.39"
/>
<path stroke="#9a886a" vector-effect="non-scaling-stroke" d="
  M 378.48 661.39
  L 372.06 658.89"
/>
<path stroke="#fde6b4" vector-effect="non-scaling-stroke" d="
  M 681.82 548.74
  Q 678.26 555.39 675.52 558.52
  Q 673.94 560.33 669.49 564.33
  C 662.98 570.18 655.37 573.85 646.86 575.92"
/>
<path stroke="#fdebbb" vector-effect="non-scaling-stroke" d="
  M 646.86 575.92
  Q 634.87 578.70 622.54 577.74
  C 617.36 577.34 612.97 575.83 608.21 574.38
  A 0.49 0.49 0.0 0 1 608.21 573.44
  Q 608.70 573.29 609.43 573.38"
/>
<path stroke="#f8573a" vector-effect="non-scaling-stroke" d="
  M 503.21 681.70
  Q 494.69 682.63 486.91 681.64
  A 0.31 0.31 0.0 0 0 486.57 682.04
  Q 487.42 684.65 487.18 687.20
  A 0.55 0.55 0.0 0 0 487.68 687.80
  L 507.06 689.71"
/>
<path stroke="#ff9c63" vector-effect="non-scaling-stroke" d="
  M 507.06 689.71
  Q 481.43 689.62 456.27 684.56"
/>
<path stroke="#ff7845" vector-effect="non-scaling-stroke" d="
  M 456.27 684.56
  Q 447.59 684.47 439.46 681.06"
/>
<path stroke="#a79a74" vector-effect="non-scaling-stroke" d="
  M 439.46 681.06
  L 423.22 675.97"
/>
<path stroke="#8e6855" vector-effect="non-scaling-stroke" d="
  M 423.22 675.97
  L 417.51 674.36"
/>
<path stroke="#906d59" vector-effect="non-scaling-stroke" d="
  M 417.51 674.36
  L 410.17 672.52"
/>
<path stroke="#92725c" vector-effect="non-scaling-stroke" d="
  M 410.17 672.52
  L 399.89 669.34"
/>
<path stroke="#94775f" vector-effect="non-scaling-stroke" d="
  M 399.89 669.34
  L 394.80 667.51"
/>
<path stroke="#ff683f" vector-effect="non-scaling-stroke" d="
  M 307.49 330.39
  Q 304.22 362.91 304.62 395.36"
/>
<path stroke="#ff8048" vector-effect="non-scaling-stroke" d="
  M 283.69 314.49
  L 283.76 361.90"
/>
<path stroke="#f86f43" vector-effect="non-scaling-stroke" d="
  M 283.76 361.90
  Q 267.53 337.84 240.60 326.88
  Q 211.89 315.20 182.28 303.00
  Q 177.13 300.88 173.63 299.80
  A 0.73 0.73 0.0 0 0 172.69 300.47
  Q 172.61 302.54 173.01 305.25
  Q 174.55 315.50 177.18 327.57
  C 179.49 338.13 183.36 349.11 186.90 357.86
  Q 191.30 368.74 198.70 380.05
  Q 215.76 406.12 244.90 417.09
  Q 266.45 425.20 289.48 424.59"
/>
<path stroke="#ff7845" vector-effect="non-scaling-stroke" d="
  M 289.48 424.59
  Q 287.12 439.10 283.25 453.94"
/>
<path stroke="#a19874" vector-effect="non-scaling-stroke" d="
  M 338.99 641.17
  Q 355.10 651.53 372.06 658.89"
/>
<path stroke="#3cb09c" vector-effect="non-scaling-stroke" d="
  M 372.06 658.89
  Q 371.74 662.66 371.45 666.57
  C 370.83 674.94 372.81 682.15 377.36 689.02
  C 382.02 696.06 388.17 701.49 393.40 708.06"
/>
<path stroke="#36a794" vector-effect="non-scaling-stroke" d="
  M 393.40 708.06
  C 399.91 717.97 404.41 726.12 407.54 737.31"
/>
<path stroke="#3cb09c" vector-effect="non-scaling-stroke" d="
  M 407.54 737.31
  Q 383.14 743.05 364.63 748.25
  Q 343.50 754.20 323.61 765.62"
/>
<path stroke="#329d8e" vector-effect="non-scaling-stroke" d="
  M 323.61 765.62
  Q 319.75 760.11 317.58 754.32"
/>
<path stroke="#92725c" vector-effect="non-scaling-stroke" d="
  M 593.30 741.78
  Q 593.08 742.55 593.28 743.23
  Q 596.24 753.31 600.78 762.78"
/>
<path stroke="#906d59" vector-effect="non-scaling-stroke" d="
  M 600.78 762.78
  Q 611.80 785.97 629.41 804.46"
/>
<path stroke="#8e6855" vector-effect="non-scaling-stroke" d="
  M 629.41 804.46
  L 642.65 820.08"
/>
<path stroke="#94775f" vector-effect="non-scaling-stroke" d="
  M 642.65 820.08
  Q 654.99 836.36 663.42 854.98"
/>
<path stroke="#92725c" vector-effect="non-scaling-stroke" d="
  M 663.42 854.98
  L 664.06 856.51"
/>
<path stroke="#906d59" vector-effect="non-scaling-stroke" d="
  M 664.06 856.51
  L 666.91 864.04"
/>
<path stroke="#8e6855" vector-effect="non-scaling-stroke" d="
  M 666.91 864.04
  Q 672.81 881.59 675.64 900.00"
/>
<path stroke="#ff683f" vector-effect="non-scaling-stroke" d="
  M 642.99 973.36
  C 646.38 947.80 646.58 921.28 634.33 897.89
  Q 629.82 889.29 622.72 879.96
  A 0.30 0.29 -52.4 0 0 622.21 880.03
  L 615.34 897.38"
/>
<path stroke="#ff7845" vector-effect="non-scaling-stroke" d="
  M 615.34 897.38
  L 608.04 916.51"
/>
<path stroke="#ff8847" vector-effect="non-scaling-stroke" d="
  M 608.04 916.51
  Q 601.17 936.43 592.37 955.57
  Q 589.63 961.54 587.58 966.70
  Q 585.34 972.34 583.05 977.94"
/>
<path stroke="#ff8d4b" vector-effect="non-scaling-stroke" d="
  M 565.87 978.60
  Q 567.83 968.80 570.86 962.37
  Q 578.58 945.97 587.01 927.73
  Q 594.38 911.79 595.60 897.55
  Q 596.88 882.74 595.99 872.52
  Q 595.26 864.14 591.82 851.01"
/>
<path stroke="#ff9c63" vector-effect="non-scaling-stroke" d="
  M 591.82 851.01
  L 581.00 811.50"
/>
<path stroke="#ff8d4b" vector-effect="non-scaling-stroke" d="
  M 581.00 811.50
  Q 577.24 794.55 573.62 777.67
  Q 569.99 760.66 569.54 735.50
  Q 569.14 712.78 571.02 692.75
  Q 571.41 688.62 572.22 684.32
  A 0.80 0.80 0.0 0 0 571.39 683.37
  L 568.81 683.49"
/>
<path stroke="#ffc972" vector-effect="non-scaling-stroke" d="
  M 581.00 811.50
  Q 571.89 792.17 558.97 775.30
  Q 555.38 770.62 545.69 760.29
  Q 533.23 747.01 517.19 741.47
  C 510.28 739.08 499.69 736.52 490.95 734.58"
/>
<path stroke="#ffce79" vector-effect="non-scaling-stroke" d="
  M 490.95 734.58
  Q 478.25 733.21 469.53 727.99
  Q 462.45 723.75 460.00 722.53"
/>
<path stroke="#ffb555" vector-effect="non-scaling-stroke" d="
  M 460.00 722.53
  Q 460.61 719.33 459.56 714.94"
/>
<path stroke="#ffce79" vector-effect="non-scaling-stroke" d="
  M 459.56 714.94
  C 462.19 724.68 479.92 730.01 488.42 731.76
  Q 515.55 737.33 542.45 731.22"
/>
<path stroke="#ffc972" vector-effect="non-scaling-stroke" d="
  M 542.45 731.22
  C 551.31 729.38 558.47 727.80 565.68 724.35
  A 0.60 0.59 68.7 0 0 565.99 723.64
  C 563.05 713.90 559.67 706.84 550.67 701.00
  Q 538.12 692.85 524.32 689.37"
/>
<path stroke="#ffdc92" vector-effect="non-scaling-stroke" d="
  M 542.45 731.22
  Q 505.14 703.45 458.45 698.34"
/>
<path stroke="#ffc36e" vector-effect="non-scaling-stroke" d="
  M 458.45 698.34
  L 457.86 695.37"
/>
<path stroke="#27897f" vector-effect="non-scaling-stroke" d="
  M 399.89 669.34
  Q 420.67 707.35 409.89 748.63"
/>
<path stroke="#2f978a" vector-effect="non-scaling-stroke" d="
  M 409.89 748.63
  L 407.54 737.31"
/>
<path stroke="#2f978a" vector-effect="non-scaling-stroke" d="
  M 378.48 661.39
  Q 388.62 683.92 393.40 708.06"
/>
<path stroke="#36a18d" vector-effect="non-scaling-stroke" d="
  M 423.22 675.97
  Q 432.99 681.85 440.49 689.46"
/>
<path stroke="#8e7f5e" vector-effect="non-scaling-stroke" d="
  M 440.49 689.46
  L 441.39 700.56"
/>
<path stroke="#8e8f5f" vector-effect="non-scaling-stroke" d="
  M 441.39 700.56
  C 441.49 720.23 437.04 740.35 429.59 758.35
  C 424.09 771.65 416.63 781.57 406.35 794.55"
/>
<path stroke="#217a75" vector-effect="non-scaling-stroke" d="
  M 406.35 794.55
  Q 405.13 792.43 405.02 790.01"
/>
<path stroke="#1f7571" vector-effect="non-scaling-stroke" d="
  M 417.51 674.36
  Q 440.96 720.10 417.39 766.30
  Q 411.31 778.23 405.02 790.01"
/>
<path stroke="#237f79" vector-effect="non-scaling-stroke" d="
  M 405.02 790.01
  L 405.72 787.52"
/>
<path stroke="#24847c" vector-effect="non-scaling-stroke" d="
  M 405.72 787.52
  Q 410.54 777.61 410.93 766.55"
/>
<path stroke="#237f79" vector-effect="non-scaling-stroke" d="
  M 410.17 672.52
  C 415.75 689.65 420.27 707.50 419.73 725.88
  Q 419.29 740.76 413.27 759.71
  Q 412.19 763.12 410.93 766.55"
/>
<path stroke="#27897f" vector-effect="non-scaling-stroke" d="
  M 410.93 766.55
  L 410.93 765.18"
/>
<path stroke="#2d9287" vector-effect="non-scaling-stroke" d="
  M 410.93 765.18
  Q 411.14 757.02 409.89 748.63"
/>
<path stroke="#a7b17d" vector-effect="non-scaling-stroke" d="
  M 439.46 681.06
  Q 439.34 683.14 440.11 685.06
  A 3.00 2.77 -59.8 0 1 440.30 685.92
  L 440.49 689.46"
/>
<path stroke="#ffb36c" vector-effect="non-scaling-stroke" d="
  M 456.27 684.56
  L 457.86 695.37"
/>
<path stroke="#ff9f50" vector-effect="non-scaling-stroke" d="
  M 457.86 695.37
  L 442.05 694.67
  A 0.48 0.48 0.0 0 0 441.55 695.14
  L 441.39 700.56"
/>
<path stroke="#2f978a" vector-effect="non-scaling-stroke" d="
  M 410.93 765.18
  Q 397.09 769.50 387.81 771.35
  Q 360.90 776.69 338.69 784.29"
/>
<path stroke="#2b8d84" vector-effect="non-scaling-stroke" d="
  M 338.69 784.29
  Q 330.17 775.69 323.61 765.62"
/>
<path stroke="#24847c" vector-effect="non-scaling-stroke" d="
  M 338.69 784.29
  L 340.97 786.66"
/>
<path stroke="#1f7571" vector-effect="non-scaling-stroke" d="
  M 340.97 786.66
  C 332.35 808.25 326.98 822.59 319.94 837.29"
/>
<path stroke="#237f79" vector-effect="non-scaling-stroke" d="
  M 319.94 837.29
  L 312.20 829.96"
/>
<path stroke="#24847c" vector-effect="non-scaling-stroke" d="
  M 312.20 829.96
  L 302.97 818.68"
/>
<path stroke="#2b8d84" vector-effect="non-scaling-stroke" d="
  M 302.97 818.68
  Q 296.45 809.87 291.96 799.79"
/>
<path stroke="#ff9f50" vector-effect="non-scaling-stroke" d="
  M 610.47 976.42
  C 610.92 954.99 611.31 936.57 608.04 916.51"
/>
<path stroke="#ff8048" vector-effect="non-scaling-stroke" d="
  M 628.48 974.96
  Q 629.96 960.16 629.70 945.44
  Q 629.24 919.36 615.34 897.38"
/>
<path stroke="#2f978a" vector-effect="non-scaling-stroke" d="
  M 645.37 818.42
  C 654.65 823.12 663.54 826.19 674.08 824.71
  Q 678.38 824.11 682.93 823.11
  A 1.06 1.04 7.7 0 0 683.66 822.56
  Q 689.79 810.94 689.31 798.08
  A 2.27 2.21 30.2 0 0 689.03 797.08
  L 681.88 784.53"
/>
<path stroke="#298880" vector-effect="non-scaling-stroke" d="
  M 663.02 803.45
  Q 657.99 807.66 652.99 812.73
  Q 651.02 814.72 645.37 818.42"
/>
<path stroke="#237f78" vector-effect="non-scaling-stroke" d="
  M 645.37 818.42
  Q 644.30 819.47 642.65 820.08"
/>
<path stroke="#1f7571" vector-effect="non-scaling-stroke" d="
  M 629.41 804.46
  C 658.09 785.91 668.83 755.08 673.59 723.00
  A 1.44 1.43 -17.5 0 1 674.04 722.14
  Q 677.55 718.81 679.91 714.59"
/>
<path stroke="#237f79" vector-effect="non-scaling-stroke" d="
  M 600.78 762.78
  Q 610.40 773.06 615.89 777.46
  C 629.41 788.29 639.18 786.06 651.08 774.34
  A 3.45 3.24 83.0 0 0 651.68 773.52
  Q 657.06 763.20 659.00 751.68"
/>
<path stroke="#24847c" vector-effect="non-scaling-stroke" d="
  M 659.00 751.68
  C 659.80 745.06 659.19 741.34 657.98 736.13
  A 1.70 1.69 55.2 0 1 658.21 734.83
  L 659.95 732.12"
/>
<path stroke="#ff8d4b" vector-effect="non-scaling-stroke" d="
  M 462.89 978.75
  L 459.62 970.25"
/>
<path stroke="#27897f" vector-effect="non-scaling-stroke" d="
  M 663.42 854.98
  L 671.99 848.97
  A 1.70 1.54 89.9 0 0 672.45 848.46
  Q 676.18 842.10 678.80 834.53
  A 4.69 4.49 72.3 0 1 679.27 833.57
  Q 683.39 827.07 686.84 819.89
  C 693.90 805.19 694.97 789.82 693.62 772.93"
/>
<path stroke="#ffc972" vector-effect="non-scaling-stroke" d="
  M 591.82 851.01
  Q 585.42 876.75 581.67 889.46
  C 576.63 906.57 567.72 921.55 554.04 931.82
  Q 541.01 941.62 524.22 948.54
  Q 492.80 961.50 459.62 970.25"
/>
<path stroke="#ff9c63" vector-effect="non-scaling-stroke" d="
  M 459.62 970.25
  Q 452.60 951.47 440.14 935.59
  Q 437.47 932.19 434.58 928.49"
/>
<path stroke="#ffdc92" vector-effect="non-scaling-stroke" d="
  M 434.58 928.49
  Q 470.36 924.15 500.11 904.34
  C 510.22 897.61 518.43 890.26 523.94 879.33"
/>
<path stroke="#ffc972" vector-effect="non-scaling-stroke" d="
  M 523.94 879.33
  Q 535.31 878.18 544.42 873.35"
/>
<path stroke="#ffdc92" vector-effect="non-scaling-stroke" d="
  M 544.42 873.35
  L 562.16 866.74
  A 0.65 0.65 0.0 0 0 562.57 866.07
  L 555.14 804.12
  A 0.46 0.45 -8.5 0 0 554.61 803.73
  Q 540.39 805.97 525.96 806.39"
/>
<path stroke="#237f79" vector-effect="non-scaling-stroke" d="
  M 664.06 856.51
  Q 670.94 853.21 675.95 849.84
  C 695.95 836.42 703.89 810.84 704.42 787.98
  Q 704.68 776.62 703.93 765.32"
/>
<path stroke="#1f7571" vector-effect="non-scaling-stroke" d="
  M 666.91 864.04
  Q 674.87 860.10 678.65 857.66
  C 711.15 836.74 713.88 796.56 709.80 761.99"
/>
<path stroke="#fec875" vector-effect="non-scaling-stroke" d="
  M 458.45 698.34
  L 459.56 714.94"
/>
<path stroke="#fec875" vector-effect="non-scaling-stroke" d="
  M 460.00 722.53
  Q 459.92 742.75 458.21 754.75
  Q 456.14 769.41 452.42 785.19
  Q 451.87 787.51 453.29 788.75
  Q 461.53 795.99 474.31 799.97
  Q 474.83 800.13 475.77 800.16
  A 2.57 2.44 54.6 0 1 476.59 800.32
  Q 483.34 802.83 489.00 803.67
  Q 498.74 805.11 511.45 805.89"
/>
<path stroke="#ffc36e" vector-effect="non-scaling-stroke" d="
  M 511.45 805.89
  L 525.96 806.39"
/>
<path stroke="#fec875" vector-effect="non-scaling-stroke" d="
  M 525.96 806.39
  Q 506.73 808.00 487.73 805.29
  C 481.39 804.38 476.10 802.83 469.05 800.94
  Q 459.57 798.39 452.51 791.40
  A 1.07 1.07 0.0 0 0 450.93 791.49
  Q 450.76 791.69 450.58 792.31
  Q 444.71 812.81 435.67 841.33
  Q 435.24 842.70 435.17 843.51
  Q 435.08 844.62 434.63 845.66
  Q 433.66 847.92 433.44 848.78
  Q 433.18 849.78 431.44 856.39
  Q 427.87 869.92 427.97 883.97
  C 428.03 892.57 428.50 902.88 430.24 910.98
  Q 432.10 919.62 432.73 925.80"
/>
<path stroke="#ff8847" vector-effect="non-scaling-stroke" d="
  M 432.73 925.80
  Q 421.89 915.01 412.07 903.93
  Q 405.34 896.34 400.87 892.18
  Q 396.89 888.48 389.06 880.83
  A 0.25 0.25 0.0 0 0 388.67 881.13
  Q 391.82 886.94 394.76 893.98
  C 397.43 900.39 400.92 906.79 404.27 913.06"
/>
<path stroke="#ff9f50" vector-effect="non-scaling-stroke" d="
  M 404.27 913.06
  Q 402.35 923.58 401.69 932.65
  C 400.62 947.35 403.37 961.76 407.50 975.98"
/>
<path stroke="#8e8f5f" vector-effect="non-scaling-stroke" d="
  M 347.28 906.60
  Q 350.66 876.82 361.94 852.20
  Q 367.11 840.92 376.57 827.13"
/>
<path stroke="#8f9563" vector-effect="non-scaling-stroke" d="
  M 376.57 827.13
  Q 385.73 815.03 396.66 804.07"
/>
<path stroke="#929a67" vector-effect="non-scaling-stroke" d="
  M 396.66 804.07
  L 406.35 794.55"
/>
<path stroke="#ffdc92" vector-effect="non-scaling-stroke" d="
  M 490.95 734.58
  Q 505.55 737.44 517.92 745.50
  A 1.67 1.65 4.3 0 1 518.52 746.19
  C 523.56 757.11 527.52 768.75 527.82 780.77
  C 528.05 790.11 524.93 798.18 519.14 805.22
  A 1.19 1.19 0.0 0 1 518.26 805.66
  L 511.45 805.89"
/>
<path stroke="#237f79" vector-effect="non-scaling-stroke" d="
  M 396.66 804.07
  C 384.67 803.65 373.45 806.08 362.01 809.29"
/>
<path stroke="#27897f" vector-effect="non-scaling-stroke" d="
  M 405.72 787.52
  Q 380.16 794.04 354.30 799.15"
/>
<path stroke="#237f78" vector-effect="non-scaling-stroke" d="
  M 354.30 799.15
  L 340.97 786.66"
/>
<path stroke="#237f79" vector-effect="non-scaling-stroke" d="
  M 314.78 748.00
  C 307.25 767.55 301.42 783.04 291.96 799.79"
/>
<path stroke="#2d9287" vector-effect="non-scaling-stroke" d="
  M 291.96 799.79
  Q 286.04 787.12 283.71 773.46
  Q 283.22 770.63 282.53 767.68"
/>
<path stroke="#34a291" vector-effect="non-scaling-stroke" d="
  M 282.53 767.68
  Q 281.06 753.30 282.04 742.01
  Q 283.57 724.45 291.07 706.30
  Q 292.02 703.99 295.05 698.47"
/>
<path stroke="#27897f" vector-effect="non-scaling-stroke" d="
  M 312.20 829.96
  C 299.29 841.66 285.98 850.05 269.37 855.47"
/>
<path stroke="#237f79" vector-effect="non-scaling-stroke" d="
  M 323.09 840.21
  Q 317.24 846.40 312.35 850.55
  C 302.60 858.83 291.53 863.44 279.40 867.68"
/>
<path stroke="#217a75" vector-effect="non-scaling-stroke" d="
  M 354.30 799.15
  L 362.01 809.29"
/>
<path stroke="#1f7571" vector-effect="non-scaling-stroke" d="
  M 362.01 809.29
  Q 364.70 814.37 368.15 818.93
  C 370.51 822.05 373.64 824.40 376.57 827.13"
/>
<path stroke="#1f7571" vector-effect="non-scaling-stroke" d="
  M 294.05 880.55
  C 309.82 871.71 320.85 861.95 331.53 847.53
  A 0.51 0.50 -52.9 0 0 331.44 846.83
  L 323.09 840.21"
/>
<path stroke="#217a75" vector-effect="non-scaling-stroke" d="
  M 323.09 840.21
  L 319.94 837.29"
/>
<path stroke="#2f978a" vector-effect="non-scaling-stroke" d="
  M 302.97 818.68
  Q 284.45 834.44 261.29 842.49"
/>
<path stroke="#27897f" vector-effect="non-scaling-stroke" d="
  M 659.00 751.68
  Q 651.50 754.38 644.82 755.76
  C 629.64 758.90 617.53 753.78 605.21 745.26"
/>
<path stroke="#ff7845" vector-effect="non-scaling-stroke" d="
  M 437.35 977.89
  L 404.27 913.06"
/>
<path stroke="#ffce79" vector-effect="non-scaling-stroke" d="
  M 544.42 873.35
  Q 519.58 879.32 494.54 876.32
  Q 483.30 874.97 474.53 871.67
  Q 461.53 866.77 456.33 863.67
  C 448.06 858.72 442.01 853.61 436.20 846.85
  A 0.33 0.32 48.1 0 0 435.74 846.82
  L 435.67 846.88
  A 0.29 0.28 51.4 0 0 435.63 847.26
  Q 438.13 850.63 441.91 854.08
  Q 452.47 863.73 464.66 869.76
  Q 479.10 876.91 496.76 879.53
  Q 507.64 881.14 523.94 879.33"
/>
<path stroke="#ffa16b" vector-effect="non-scaling-stroke" d="
  M 434.58 928.49
  L 432.73 925.80"
/>
<path stroke="#3cb09c" vector-effect="non-scaling-stroke" d="
  M 282.53 767.68
  Q 265.36 775.45 246.86 778.90"
/>
<path stroke="#f8573a" vector-effect="non-scaling-stroke" d="
  M 273.17 369.16
  C 266.98 366.24 207.68 338.60 212.10 361.14
  C 214.08 371.20 226.73 381.72 235.40 386.97
  A 1.48 1.44 54.6 0 0 236.42 387.16
  Q 257.28 383.63 273.24 369.61
  A 0.28 0.27 36.9 0 0 273.17 369.16"
/>
<path stroke="#948f8e" vector-effect="non-scaling-stroke" d="
  M 624.24 485.00
  A 17.03 17.03 0.0 0 0 607.21 467.97
  A 17.03 17.03 0.0 0 0 590.18 485.00
  A 17.03 17.03 0.0 0 0 607.21 502.03
  A 17.03 17.03 0.0 0 0 624.24 485.00"
/>
<path stroke="#948f8e" vector-effect="non-scaling-stroke" d="
  M 379.3642 501.0692
  A 17.02 16.84 71.7 0 0 390.0083 479.6224
  A 17.02 16.84 71.7 0 0 368.6758 468.7508
  A 17.02 16.84 71.7 0 0 358.0317 490.1976
  A 17.02 16.84 71.7 0 0 379.3642 501.0692"
/>
<path stroke="#fdebbb" vector-effect="non-scaling-stroke" d="
  M 336.7659 575.7534
  A 2.82 2.32 27.3 0 0 335.3241 572.3984
  A 2.82 2.32 27.3 0 0 331.7541 573.1666
  A 2.82 2.32 27.3 0 0 333.1959 576.5216
  A 2.82 2.32 27.3 0 0 336.7659 575.7534"
/>
<path stroke="#95856c" vector-effect="non-scaling-stroke" d="
  M 438.88 584.31
  C 437.69 587.49 439.95 590.82 441.90 593.36
  Q 449.48 603.25 460.01 609.24
  C 479.84 620.53 501.76 620.77 522.26 610.87
  Q 536.64 603.92 546.72 591.48
  Q 549.69 587.81 551.21 584.38
  A 3.65 3.64 -64.7 0 0 549.53 579.66
  L 549.27 579.53
  A 3.75 3.74 28.0 0 0 544.30 581.04
  C 538.79 590.91 528.51 599.10 518.34 603.92
  C 492.95 615.95 462.01 610.08 446.57 585.74
  C 444.54 582.54 442.97 581.17 439.54 583.47
  A 1.83 1.81 -7.1 0 0 438.88 584.31"
/>
<path stroke="#fde6b4" vector-effect="non-scaling-stroke" d="
  M 677.5385 576.2974
  A 1.96 1.79 113.5 0 0 679.9615 575.2138
  A 1.96 1.79 113.5 0 0 679.1015 572.7026
  A 1.96 1.79 113.5 0 0 676.6785 573.7862
  A 1.96 1.79 113.5 0 0 677.5385 576.2974"
/>
</g>
<path fill="#4ed3ac" d="
  M 614.58 46.46
  L 613.85 47.36
  A 1.25 1.24 -27.8 0 0 613.57 48.25
  Q 615.78 74.34 603.16 96.70
  Q 590.19 119.69 566.40 133.41
  C 560.92 136.57 552.74 140.89 545.43 143.85
  C 528.87 150.54 512.12 158.13 497.19 168.46
  C 476.07 183.07 460.15 202.35 448.82 225.35
  C 447.59 227.84 446.75 230.66 445.46 233.60
  Q 444.25 236.36 443.22 239.91
  Q 435.99 264.71 438.81 291.27
  C 440.62 308.22 445.95 323.58 453.66 339.11
  Q 463.60 359.15 477.96 375.52
  L 446.30 346.21
  L 434.18 332.48
  Q 421.57 315.34 414.24 295.53
  Q 411.89 289.18 410.26 283.55
  Q 404.60 257.14 408.80 232.28
  Q 412.32 211.48 423.59 192.83
  C 434.04 175.54 447.96 161.15 465.32 148.56
  Q 491.41 129.64 520.39 117.64
  C 530.65 113.40 551.21 105.87 570.34 96.83
  C 588.90 88.07 611.86 73.44 612.06 50.03
  Q 612.08 47.33 612.19 45.50
  A 0.38 0.37 19.2 0 1 612.78 45.22
  L 614.58 46.46
  Z"
/>
<path fill="#288e82" d="
  M 623.57 68.12
  Q 618.75 78.63 611.87 91.41
  Q 594.25 124.13 564.79 145.80
  Q 547.67 158.39 530.52 171.03
  C 514.53 182.81 499.23 197.38 488.71 213.71
  C 465.85 249.22 461.55 292.06 478.76 331.02
  Q 480.73 335.48 491.73 358.07
  Q 494.14 363.01 499.79 377.89
  A 3.09 2.91 -58.2 0 1 499.98 378.83
  L 500.13 385.04
  C 499.85 391.58 500.21 397.48 501.94 403.30
  Q 495.95 395.91 490.12 388.51
  Q 487.52 385.19 484.19 381.90
  Q 480.95 378.70 477.96 375.52
  Q 463.60 359.15 453.66 339.11
  C 445.95 323.58 440.62 308.22 438.81 291.27
  Q 435.99 264.71 443.22 239.91
  Q 444.25 236.36 445.46 233.60
  C 446.75 230.66 447.59 227.84 448.82 225.35
  C 460.15 202.35 476.07 183.07 497.19 168.46
  C 512.12 158.13 528.87 150.54 545.43 143.85
  C 552.74 140.89 560.92 136.57 566.40 133.41
  Q 590.19 119.69 603.16 96.70
  Q 615.78 74.34 613.57 48.25
  A 1.25 1.24 -27.8 0 1 613.85 47.36
  L 614.58 46.46
  Q 621.64 56.26 623.57 68.12
  Z"
/>
<path fill="#e53630" d="
  M 650.91 348.78
  L 650.45 348.81
  A 2.17 2.01 25.9 0 0 649.60 349.07
  C 636.88 356.36 623.43 358.42 609.65 352.88
  Q 594.14 346.63 584.20 331.74
  Q 596.83 330.43 602.00 328.75
  Q 610.95 325.84 622.55 317.43
  L 636.08 307.23
  Q 656.42 289.00 671.45 269.20
  C 683.88 252.83 694.94 232.30 700.99 211.80
  C 705.53 196.43 708.63 183.65 709.95 168.25
  Q 712.05 143.77 708.92 119.32
  Q 706.56 100.93 698.22 78.48
  Q 694.81 69.30 690.41 63.37
  Q 689.89 62.10 690.00 60.02
  A 0.76 0.75 84.2 0 1 690.56 59.33
  C 697.01 57.59 700.43 61.11 704.06 66.22
  Q 714.78 81.29 723.52 101.21
  C 732.04 120.60 738.01 142.20 738.90 163.56
  C 739.41 176.03 739.41 189.04 737.52 201.50
  C 732.91 231.76 722.04 259.14 705.66 285.41
  Q 691.01 308.90 674.68 326.98
  Q 668.81 333.49 663.55 338.25
  Q 657.73 343.52 651.30 348.31
  Q 651.05 348.49 650.91 348.78
  Z"
/>
<path fill="#e53630" d="
  M 410.26 283.55
  Q 411.89 289.18 414.24 295.53
  Q 421.57 315.34 434.18 332.48
  Q 434.80 334.28 433.48 335.14
  Q 430.71 338.29 427.97 341.23
  Q 420.61 349.12 410.43 352.68
  C 395.52 357.89 377.52 357.44 364.48 348.69
  C 373.16 344.06 383.46 342.46 391.37 339.81
  C 395.93 338.28 403.66 335.09 399.50 328.84
  Q 397.76 326.22 396.91 325.48
  Q 389.07 318.62 382.15 310.99
  L 372.97 300.71
  Q 350.07 271.39 338.25 236.08
  Q 327.34 203.45 325.66 169.07
  Q 324.06 136.18 329.12 108.10
  Q 332.65 88.49 342.19 64.27
  Q 343.67 62.33 346.44 60.91
  A 1.14 1.13 -48.1 0 1 347.34 60.86
  L 350.09 61.86
  A 1.64 1.63 -75.4 0 1 351.14 63.66
  Q 347.46 85.15 345.88 104.75
  Q 343.25 137.46 348.12 168.94
  Q 354.78 212.07 378.87 247.63
  Q 391.57 266.38 410.26 283.55
  Z"
/>
<path fill="#fe7041" d="
  M 636.08 307.23
  Q 614.97 300.70 596.45 288.65
  Q 608.92 275.33 624.37 265.11
  Q 635.70 257.62 643.69 251.47
  Q 669.76 231.43 684.15 202.70
  Q 687.40 196.20 689.39 190.07
  Q 691.69 182.98 692.59 176.77
  Q 692.69 176.12 693.16 176.00
  Q 693.00 176.83 693.16 177.28
  A 0.26 0.26 0.0 0 0 693.66 177.26
  Q 700.72 151.29 700.02 122.01
  Q 699.66 106.70 698.23 96.00
  Q 696.07 79.81 690.41 63.37
  Q 694.81 69.30 698.22 78.48
  Q 706.56 100.93 708.92 119.32
  Q 712.05 143.77 709.95 168.25
  C 708.63 183.65 705.53 196.43 700.99 211.80
  C 694.94 232.30 683.88 252.83 671.45 269.20
  Q 656.42 289.00 636.08 307.23
  Z"
/>
<path fill="#fe7041" d="
  M 342.19 64.27
  Q 332.65 88.49 329.12 108.10
  Q 324.06 136.18 325.66 169.07
  Q 327.34 203.45 338.25 236.08
  Q 350.07 271.39 372.97 300.71
  Q 354.85 308.32 337.67 318.07
  Q 308.10 272.17 301.01 218.82
  C 297.81 194.75 298.57 169.57 301.92 145.44
  C 306.26 114.22 319.40 86.42 342.19 64.27
  Z"
/>
<path fill="#25847c" d="
  M 623.57 68.12
  Q 625.93 77.38 626.61 86.70
  Q 620.80 98.93 616.48 106.61
  Q 601.78 132.81 576.98 153.31
  Q 565.01 163.20 546.01 177.60
  C 527.80 191.38 511.23 206.60 500.05 226.88
  Q 483.46 256.95 487.98 291.84
  Q 489.00 299.74 491.32 309.25
  Q 495.02 324.47 498.72 339.71
  C 498.82 346.40 499.90 353.76 500.09 359.58
  Q 500.51 372.31 500.13 385.04
  L 499.98 378.83
  A 3.09 2.91 -58.2 0 0 499.79 377.89
  Q 494.14 363.01 491.73 358.07
  Q 480.73 335.48 478.76 331.02
  C 461.55 292.06 465.85 249.22 488.71 213.71
  C 499.23 197.38 514.53 182.81 530.52 171.03
  Q 547.67 158.39 564.79 145.80
  Q 594.25 124.13 611.87 91.41
  Q 618.75 78.63 623.57 68.12
  Z"
/>
<path fill="#207a75" d="
  M 622.34 131.52
  C 610.11 142.99 597.23 156.07 584.80 165.57
  C 563.97 181.49 544.15 197.39 527.17 218.13
  Q 508.03 241.52 502.25 271.86
  Q 499.68 285.37 498.91 303.55
  Q 497.79 314.62 498.23 325.74
  Q 498.51 332.73 498.72 339.71
  Q 495.02 324.47 491.32 309.25
  Q 489.00 299.74 487.98 291.84
  Q 483.46 256.95 500.05 226.88
  C 511.23 206.60 527.80 191.38 546.01 177.60
  Q 565.01 163.20 576.98 153.31
  Q 601.78 132.81 616.48 106.61
  Q 620.80 98.93 626.61 86.70
  Q 628.02 102.62 625.11 118.27
  Q 623.87 124.93 622.34 131.52
  Z"
/>
<path fill="#207a75" d="
  M 670.98 99.79
  C 671.32 106.45 674.23 113.01 675.46 117.95
  Q 676.52 122.23 676.28 133.55
  C 675.76 158.32 657.54 178.69 636.96 190.17
  Q 628.02 195.16 618.82 199.08
  Q 614.52 198.71 612.34 197.79
  C 607.22 195.63 615.07 190.24 617.10 189.03
  C 628.79 182.11 640.22 176.80 650.86 166.49
  Q 659.19 158.87 664.11 149.04
  C 670.47 136.37 671.14 122.14 669.51 107.75
  Q 668.76 101.11 665.98 94.66
  A 0.40 0.40 0.0 0 1 666.59 94.18
  Q 669.35 96.28 670.98 99.79
  Z"
/>
<path fill="#175c5e" d="
  M 670.98 99.79
  Q 683.40 117.36 690.09 136.66
  Q 693.11 145.36 693.72 155.52
  L 693.59 171.35
  L 693.16 176.00
  Q 692.69 176.12 692.59 176.77
  Q 691.69 182.98 689.39 190.07
  Q 687.40 196.20 684.15 202.70
  Q 669.76 231.43 643.69 251.47
  Q 635.70 257.62 624.37 265.11
  Q 608.92 275.33 596.45 288.65
  L 587.36 300.43
  Q 585.05 303.81 582.66 307.16
  Q 581.57 308.69 579.14 309.51
  Q 567.53 315.26 557.35 324.10
  Q 545.27 334.60 535.87 344.62
  Q 516.04 365.77 507.44 393.49
  Q 505.76 398.90 504.54 406.52
  L 501.94 403.30
  C 500.21 397.48 499.85 391.58 500.13 385.04
  Q 500.51 372.31 500.09 359.58
  C 499.90 353.76 498.82 346.40 498.72 339.71
  Q 498.51 332.73 498.23 325.74
  Q 497.79 314.62 498.91 303.55
  Q 503.24 289.12 507.61 274.69
  Q 510.65 264.67 514.06 258.80
  Q 516.98 253.79 520.07 251.07
  Q 532.78 239.88 540.86 232.91
  Q 551.44 223.79 564.08 217.68
  Q 570.08 214.78 583.44 210.90
  C 594.84 207.59 607.40 204.01 618.82 199.08
  Q 628.02 195.16 636.96 190.17
  C 657.54 178.69 675.76 158.32 676.28 133.55
  Q 676.52 122.23 675.46 117.95
  C 674.23 113.01 671.32 106.45 670.98 99.79
  Z"
/>
<path fill="#1d6f6d" d="
  M 622.34 131.52
  Q 621.14 135.72 619.85 139.88
  Q 613.89 158.97 600.28 173.03
  C 591.98 181.61 581.54 188.47 572.17 194.58
  C 565.57 198.88 557.21 205.06 552.15 209.14
  Q 551.17 209.93 550.11 211.94
  Q 549.95 211.73 549.72 211.70
  Q 549.47 211.68 549.27 211.83
  Q 546.72 213.85 544.34 216.30
  A 0.21 0.21 0.0 0 0 544.33 216.58
  L 544.34 216.59
  A 0.36 0.36 0.0 0 0 544.83 216.65
  Q 548.66 213.72 550.03 212.56
  Q 550.24 212.38 550.11 211.94
  C 551.57 211.87 552.82 210.65 553.81 210.15
  C 565.73 204.08 571.17 201.10 581.72 198.04
  C 605.98 191.00 631.02 182.96 650.86 166.49
  C 640.22 176.80 628.79 182.11 617.10 189.03
  C 615.07 190.24 607.22 195.63 612.34 197.79
  Q 614.52 198.71 618.82 199.08
  C 607.40 204.01 594.84 207.59 583.44 210.90
  Q 570.08 214.78 564.08 217.68
  Q 551.44 223.79 540.86 232.91
  Q 532.78 239.88 520.07 251.07
  Q 516.98 253.79 514.06 258.80
  Q 510.65 264.67 507.61 274.69
  Q 503.24 289.12 498.91 303.55
  Q 499.68 285.37 502.25 271.86
  Q 508.03 241.52 527.17 218.13
  C 544.15 197.39 563.97 181.49 584.80 165.57
  C 597.23 156.07 610.11 142.99 622.34 131.52
  Z"
/>
<path fill="#25847c" d="
  M 693.72 155.52
  Q 694.61 163.43 693.59 171.35
  L 693.72 155.52
  Z"
/>
<path fill="#4ed3ac" d="
  M 550.11 211.94
  Q 550.24 212.38 550.03 212.56
  Q 548.66 213.72 544.83 216.65
  A 0.36 0.36 0.0 0 1 544.34 216.59
  L 544.33 216.58
  A 0.21 0.21 0.0 0 1 544.34 216.30
  Q 546.72 213.85 549.27 211.83
  Q 549.47 211.68 549.72 211.70
  Q 549.95 211.73 550.11 211.94
  Z"
/>
<path fill="#ff8f4e" d="
  M 283.69 314.49
  L 283.76 361.90
  Q 267.53 337.84 240.60 326.88
  Q 211.89 315.20 182.28 303.00
  Q 177.13 300.88 173.63 299.80
  A 0.73 0.73 0.0 0 0 172.69 300.47
  Q 172.61 302.54 173.01 305.25
  Q 174.55 315.50 177.18 327.57
  C 179.49 338.13 183.36 349.11 186.90 357.86
  Q 191.30 368.74 198.70 380.05
  Q 215.76 406.12 244.90 417.09
  Q 266.45 425.20 289.48 424.59
  Q 287.12 439.10 283.25 453.94
  Q 266.69 456.61 253.00 454.26
  Q 217.23 448.11 192.53 421.96
  C 168.01 396.00 154.47 362.32 149.88 326.77
  C 147.67 309.71 147.40 294.57 150.55 278.52
  Q 151.38 274.25 153.15 270.42
  A 0.75 0.75 0.0 0 1 154.09 270.03
  C 157.98 271.45 161.94 273.41 166.29 274.90
  C 179.85 279.52 192.37 283.27 204.13 287.18
  Q 262.60 306.61 272.51 309.97
  Q 276.63 311.37 283.69 314.49
  Z"
/>
<path fill="#f14e38" d="
  M 708.24 448.84
  Q 706.50 447.45 706.22 446.46
  Q 701.71 430.54 694.63 415.59
  Q 694.02 414.31 694.49 412.08
  Q 706.28 397.16 716.66 381.20
  Q 716.69 383.17 717.95 384.06
  A 0.67 0.66 41.8 0 0 718.77 384.02
  C 740.66 364.72 767.39 350.94 796.80 347.80
  A 0.67 0.67 0.0 0 1 797.51 348.26
  C 800.89 358.30 797.11 366.02 790.55 373.52
  Q 785.65 379.12 778.73 385.35
  Q 757.55 404.39 738.45 424.72
  A 0.24 0.24 0.0 0 0 738.62 425.13
  Q 759.53 425.71 778.43 416.88
  C 795.08 409.10 811.18 396.43 822.13 381.64
  C 838.22 359.90 848.11 334.57 856.54 308.26
  Q 856.80 307.45 856.89 306.48
  A 0.82 0.81 86.4 0 0 855.90 305.60
  L 822.97 312.79
  Q 830.78 298.45 833.92 282.44
  Q 845.87 279.87 857.83 277.39
  C 864.12 276.09 870.82 274.24 876.21 271.48
  A 0.78 0.78 0.0 0 1 877.31 271.94
  Q 880.23 280.98 880.64 290.50
  Q 881.52 310.68 876.42 331.24
  C 869.21 360.31 854.75 389.25 835.41 411.59
  C 819.11 430.42 796.51 445.92 772.58 451.94
  C 752.05 457.11 728.22 456.58 708.24 448.84
  Z"
/>
<path fill="#fe7041" d="
  M 833.92 282.44
  Q 830.78 298.45 822.97 312.79
  Q 815.42 314.30 787.40 320.68
  Q 774.62 323.58 766.63 328.02
  C 764.01 329.47 761.61 331.37 759.51 332.44
  Q 757.25 333.58 754.33 335.99
  C 744.65 343.94 737.74 349.97 732.32 357.56
  Q 724.23 368.88 718.83 377.89
  Q 717.80 379.62 716.66 381.20
  Q 706.28 397.16 694.49 412.08
  Q 692.76 411.17 691.42 408.82
  Q 685.43 398.33 671.39 375.13
  Q 681.93 367.47 688.55 359.54
  C 693.72 353.35 698.54 342.81 702.10 336.32
  C 710.72 320.60 726.14 311.45 742.82 305.57
  Q 757.71 300.31 773.15 296.45
  Q 803.42 288.86 833.92 282.44
  Z"
/>
<path fill="#ff603c" d="
  M 596.45 288.65
  Q 614.97 300.70 636.08 307.23
  L 622.55 317.43
  L 587.36 300.43
  L 596.45 288.65
  Z"
/>
<path fill="#f14e38" d="
  M 283.76 361.90
  Q 290.54 373.47 297.49 385.00
  Q 300.65 390.24 304.62 395.36
  L 311.14 403.65
  A 0.21 0.20 26.5 0 0 311.51 403.53
  L 313.25 338.87
  C 317.15 346.03 319.87 353.92 324.79 360.52
  C 328.39 365.35 333.32 369.86 337.78 374.25
  Q 316.85 406.40 307.65 443.94
  Q 307.46 444.71 306.79 445.15
  L 302.98 446.99
  Q 305.07 434.70 305.72 422.38
  A 0.39 0.39 0.0 0 0 305.27 421.97
  L 289.48 424.59
  Q 266.45 425.20 244.90 417.09
  Q 215.76 406.12 198.70 380.05
  Q 191.30 368.74 186.90 357.86
  C 183.36 349.11 179.49 338.13 177.18 327.57
  Q 174.55 315.50 173.01 305.25
  Q 172.61 302.54 172.69 300.47
  A 0.73 0.73 0.0 0 1 173.63 299.80
  Q 177.13 300.88 182.28 303.00
  Q 211.89 315.20 240.60 326.88
  Q 267.53 337.84 283.76 361.90
  Z
  M 273.17 369.16
  C 266.98 366.24 207.68 338.60 212.10 361.14
  C 214.08 371.20 226.73 381.72 235.40 386.97
  A 1.48 1.44 54.6 0 0 236.42 387.16
  Q 257.28 383.63 273.24 369.61
  A 0.28 0.27 36.9 0 0 273.17 369.16
  Z"
/>
<path fill="#f14e38" d="
  M 622.55 317.43
  Q 610.95 325.84 602.00 328.75
  Q 596.83 330.43 584.20 331.74
  Q 579.23 324.78 578.09 316.49
  A 8.79 8.76 47.8 0 1 578.24 313.30
  L 579.14 309.51
  Q 581.57 308.69 582.66 307.16
  Q 585.05 303.81 587.36 300.43
  L 622.55 317.43
  Z"
/>
<path fill="#ff603c" d="
  M 372.97 300.71
  L 382.15 310.99
  Q 363.56 319.60 345.80 329.54
  L 337.67 318.07
  Q 354.85 308.32 372.97 300.71
  Z"
/>
<path fill="#e53630" d="
  M 716.66 381.20
  Q 717.80 379.62 718.83 377.89
  Q 724.23 368.88 732.32 357.56
  C 737.74 349.97 744.65 343.94 754.33 335.99
  Q 757.25 333.58 759.51 332.44
  C 761.61 331.37 764.01 329.47 766.63 328.02
  Q 774.62 323.58 787.40 320.68
  Q 815.42 314.30 822.97 312.79
  L 855.90 305.60
  A 0.82 0.81 86.4 0 1 856.89 306.48
  Q 856.80 307.45 856.54 308.26
  C 848.11 334.57 838.22 359.90 822.13 381.64
  C 811.18 396.43 795.08 409.10 778.43 416.88
  Q 759.53 425.71 738.62 425.13
  A 0.24 0.24 0.0 0 1 738.45 424.72
  Q 757.55 404.39 778.73 385.35
  Q 785.65 379.12 790.55 373.52
  C 797.11 366.02 800.89 358.30 797.51 348.26
  A 0.67 0.67 0.0 0 0 796.80 347.80
  C 767.39 350.94 740.66 364.72 718.77 384.02
  A 0.67 0.66 41.8 0 1 717.95 384.06
  Q 716.69 383.17 716.66 381.20
  Z"
/>
<path fill="#ff603c" d="
  M 579.14 309.51
  L 578.24 313.30
  A 8.79 8.76 47.8 0 0 578.09 316.49
  Q 579.23 324.78 584.20 331.74
  Q 594.14 346.63 609.65 352.88
  C 623.43 358.42 636.88 356.36 649.60 349.07
  A 2.17 2.01 25.9 0 1 650.45 348.81
  L 650.91 348.78
  Q 650.88 348.95 650.91 349.11
  Q 650.93 349.24 651.05 349.37
  Q 662.09 361.21 671.39 375.13
  Q 685.43 398.33 691.42 408.82
  Q 692.76 411.17 694.49 412.08
  Q 694.02 414.31 694.63 415.59
  Q 701.71 430.54 706.22 446.46
  Q 706.50 447.45 708.24 448.84
  L 707.45 449.24
  A 0.63 0.62 -20.8 0 0 707.12 449.96
  Q 718.68 492.89 723.26 536.00
  C 725.11 553.34 724.24 570.71 719.41 587.44
  C 709.01 623.47 675.36 648.20 642.62 662.36
  C 627.08 669.08 609.48 675.15 592.29 678.47
  C 595.09 677.43 600.64 675.87 602.14 673.26
  A 2.43 2.42 30.6 0 0 601.29 669.98
  Q 598.94 668.55 595.35 668.44
  Q 602.72 666.37 609.74 664.00
  C 638.07 654.44 666.60 637.23 685.31 614.56
  C 695.50 602.28 710.53 579.93 704.16 562.94
  C 701.39 555.54 692.17 548.31 684.85 544.23
  Q 687.71 537.83 688.71 530.75
  C 692.88 501.30 682.31 472.99 660.88 452.88
  C 649.53 442.23 634.95 437.11 619.17 439.83
  C 623.60 422.78 618.69 404.58 602.95 395.25
  Q 598.59 392.66 593.93 390.25
  Q 580.23 384.25 567.72 383.50
  Q 554.00 382.68 537.84 387.08
  Q 530.62 389.04 523.96 392.45
  Q 521.86 393.52 520.22 395.01
  Q 513.26 399.56 511.47 402.22
  Q 509.62 404.97 507.52 407.62
  A 1.86 1.86 0.0 0 1 505.02 408.01
  Q 503.97 407.30 504.54 406.52
  Q 505.76 398.90 507.44 393.49
  Q 516.04 365.77 535.87 344.62
  Q 545.27 334.60 557.35 324.10
  Q 567.53 315.26 579.14 309.51
  Z"
/>
<path fill="#f14e38" d="
  M 364.48 348.69
  L 361.09 346.69
  Q 352.81 338.64 345.80 329.54
  Q 363.56 319.60 382.15 310.99
  Q 389.07 318.62 396.91 325.48
  Q 397.76 326.22 399.50 328.84
  C 403.66 335.09 395.93 338.28 391.37 339.81
  C 383.46 342.46 373.16 344.06 364.48 348.69
  Z"
/>
<path fill="#fe7041" d="
  M 307.49 330.39
  Q 304.22 362.91 304.62 395.36
  Q 300.65 390.24 297.49 385.00
  Q 290.54 373.47 283.76 361.90
  L 283.69 314.49
  Q 297.68 320.15 307.49 330.39
  Z"
/>
<path fill="#ff603c" d="
  M 307.49 330.39
  L 313.25 338.87
  L 311.51 403.53
  A 0.21 0.20 26.5 0 1 311.14 403.65
  L 304.62 395.36
  Q 304.22 362.91 307.49 330.39
  Z"
/>
<path fill="#ff8f4e" d="
  M 446.30 346.21
  C 440.73 344.38 436.88 339.96 433.48 335.14
  Q 434.80 334.28 434.18 332.48
  L 446.30 346.21
  Z"
/>
<path fill="#ffba59" d="
  M 433.48 335.14
  C 436.88 339.96 440.73 344.38 446.30 346.21
  L 477.96 375.52
  Q 480.95 378.70 484.19 381.90
  Q 487.52 385.19 490.12 388.51
  Q 495.95 395.91 501.94 403.30
  L 504.54 406.52
  Q 503.97 407.30 505.02 408.01
  A 1.86 1.86 0.0 0 0 507.52 407.62
  Q 509.62 404.97 511.47 402.22
  Q 513.26 399.56 520.22 395.01
  Q 519.04 398.01 516.67 400.20
  C 511.03 405.43 507.88 412.63 504.38 420.39
  C 502.46 424.65 500.98 430.90 500.62 434.39
  C 499.74 443.09 499.70 454.44 499.87 463.89
  Q 500.34 491.22 500.43 499.25
  Q 500.81 535.08 499.64 568.25
  Q 499.56 570.34 499.74 572.52
  Q 496.83 572.99 491.99 572.68
  Q 473.16 571.47 458.60 560.66
  Q 451.34 555.27 443.96 550.04
  Q 436.55 544.80 423.48 541.66
  Q 424.38 534.99 424.28 530.00
  Q 423.86 509.40 417.19 487.82
  C 412.01 471.09 402.10 454.11 386.31 446.44
  C 362.20 434.74 338.62 450.15 327.08 471.64
  C 316.81 490.78 315.44 513.85 321.09 534.78
  C 319.65 536.38 321.05 537.31 321.10 538.70
  Q 321.19 540.81 319.15 541.66
  Q 309.38 545.72 304.76 554.43
  C 300.63 562.24 302.03 572.55 304.97 580.76
  Q 308.26 589.96 312.00 597.47
  Q 305.81 594.85 298.88 594.56
  Q 291.99 577.80 291.13 561.27
  Q 290.68 552.56 291.06 536.50
  Q 291.31 526.32 294.65 508.08
  Q 297.77 491.06 300.99 474.07
  C 302.75 464.80 305.38 455.85 307.50 446.72
  Q 307.64 446.11 307.49 445.80
  Q 307.28 445.38 306.79 445.15
  Q 307.46 444.71 307.65 443.94
  Q 316.85 406.40 337.78 374.25
  Q 339.70 371.99 345.30 364.06
  Q 350.29 357.01 361.09 346.69
  L 364.48 348.69
  C 377.52 357.44 395.52 357.89 410.43 352.68
  Q 420.61 349.12 427.97 341.23
  Q 430.71 338.29 433.48 335.14
  Z"
/>
<path fill="#ff603c" d="
  M 273.24 369.61
  Q 257.28 383.63 236.42 387.16
  A 1.48 1.44 54.6 0 1 235.40 386.97
  C 226.73 381.72 214.08 371.20 212.10 361.14
  C 207.68 338.60 266.98 366.24 273.17 369.16
  A 0.28 0.27 36.9 0 1 273.24 369.61
  Z"
/>
<path fill="#ff8f4e" d="
  M 593.93 390.25
  C 597.89 397.67 599.97 404.84 596.98 412.92
  C 594.14 420.60 589.04 428.11 588.37 436.93
  Q 588.15 439.79 589.64 447.72
  Q 590.66 453.10 591.48 458.46
  Q 587.44 463.80 585.06 468.55
  Q 572.78 493.02 572.90 521.00
  Q 572.94 529.50 576.20 539.78
  Q 557.37 541.78 543.13 553.42
  Q 534.60 560.38 531.95 562.45
  Q 518.37 573.06 499.74 572.52
  Q 499.56 570.34 499.64 568.25
  Q 500.81 535.08 500.43 499.25
  Q 500.34 491.22 499.87 463.89
  C 499.70 454.44 499.74 443.09 500.62 434.39
  C 500.98 430.90 502.46 424.65 504.38 420.39
  C 507.88 412.63 511.03 405.43 516.67 400.20
  Q 519.04 398.01 520.22 395.01
  Q 521.86 393.52 523.96 392.45
  Q 530.62 389.04 537.84 387.08
  Q 554.00 382.68 567.72 383.50
  Q 580.23 384.25 593.93 390.25
  Z"
/>
<path fill="#fe7041" d="
  M 619.17 439.83
  Q 606.76 442.60 597.29 451.79
  Q 595.83 453.21 591.48 458.46
  Q 590.66 453.10 589.64 447.72
  Q 588.15 439.79 588.37 436.93
  C 589.04 428.11 594.14 420.60 596.98 412.92
  C 599.97 404.84 597.89 397.67 593.93 390.25
  Q 598.59 392.66 602.95 395.25
  C 618.69 404.58 623.60 422.78 619.17 439.83
  Z"
/>
<path fill="#ff603c" d="
  M 302.98 446.99
  Q 293.89 451.86 283.25 453.94
  Q 287.12 439.10 289.48 424.59
  L 305.27 421.97
  A 0.39 0.39 0.0 0 1 305.72 422.38
  Q 305.07 434.70 302.98 446.99
  Z"
/>
<path fill="#2c293e" d="
  M 684.85 544.23
  Q 683.56 545.69 682.87 547.77
  Q 682.15 549.54 681.82 548.74
  Q 683.76 544.69 684.31 540.31
  C 687.18 517.53 679.11 495.07 664.01 478.01
  Q 657.22 470.33 647.82 465.75
  A 0.36 0.36 0.0 0 0 647.36 466.26
  C 648.70 468.37 650.64 470.66 651.85 472.61
  C 669.98 501.90 662.97 548.14 633.00 567.49
  Q 622.29 574.41 609.43 573.38
  C 595.62 571.26 584.57 559.39 579.10 547.07
  Q 577.36 543.13 576.20 539.78
  Q 572.94 529.50 572.90 521.00
  Q 572.78 493.02 585.06 468.55
  Q 587.44 463.80 591.48 458.46
  Q 595.83 453.21 597.29 451.79
  Q 606.76 442.60 619.17 439.83
  C 634.95 437.11 649.53 442.23 660.88 452.88
  C 682.31 472.99 692.88 501.30 688.71 530.75
  Q 687.71 537.83 684.85 544.23
  Z
  M 624.24 485.00
  A 17.03 17.03 0.0 0 0 607.21 467.97
  A 17.03 17.03 0.0 0 0 590.18 485.00
  A 17.03 17.03 0.0 0 0 607.21 502.03
  A 17.03 17.03 0.0 0 0 624.24 485.00
  Z"
/>
<path fill="#2c293e" d="
  M 423.48 541.66
  C 421.27 555.30 415.76 567.57 402.94 574.21
  Q 394.74 577.30 386.58 575.17
  C 359.48 568.12 346.03 535.00 346.26 509.78
  Q 346.51 482.78 365.28 464.08
  A 0.28 0.28 0.0 0 0 365.09 463.60
  C 358.17 463.53 352.60 466.75 347.42 471.42
  C 327.55 489.31 321.19 517.47 326.66 543.02
  Q 328.66 552.35 335.65 561.21
  C 328.51 554.77 323.77 543.85 321.09 534.78
  C 315.44 513.85 316.81 490.78 327.08 471.64
  C 338.62 450.15 362.20 434.74 386.31 446.44
  C 402.10 454.11 412.01 471.09 417.19 487.82
  Q 423.86 509.40 424.28 530.00
  Q 424.38 534.99 423.48 541.66
  Z
  M 379.3642 501.0692
  A 17.02 16.84 71.7 0 0 390.0083 479.6224
  A 17.02 16.84 71.7 0 0 368.6758 468.7508
  A 17.02 16.84 71.7 0 0 358.0317 490.1976
  A 17.02 16.84 71.7 0 0 379.3642 501.0692
  Z"
/>
<path fill="#fbf4dd" d="
  M 402.94 574.21
  Q 401.10 575.94 399.42 576.77
  Q 385.91 583.48 371.08 580.94
  C 368.24 580.45 365.57 579.16 362.87 578.63
  C 356.43 577.35 347.09 571.61 343.49 568.26
  Q 339.66 564.69 335.65 561.21
  Q 328.66 552.35 326.66 543.02
  C 321.19 517.47 327.55 489.31 347.42 471.42
  C 352.60 466.75 358.17 463.53 365.09 463.60
  A 0.28 0.28 0.0 0 1 365.28 464.08
  Q 346.51 482.78 346.26 509.78
  C 346.03 535.00 359.48 568.12 386.58 575.17
  Q 394.74 577.30 402.94 574.21
  Z"
/>
<path fill="#fbf4dd" d="
  M 681.82 548.74
  Q 678.26 555.39 675.52 558.52
  Q 673.94 560.33 669.49 564.33
  C 662.98 570.18 655.37 573.85 646.86 575.92
  Q 634.87 578.70 622.54 577.74
  C 617.36 577.34 612.97 575.83 608.21 574.38
  A 0.49 0.49 0.0 0 1 608.21 573.44
  Q 608.70 573.29 609.43 573.38
  Q 622.29 574.41 633.00 567.49
  C 662.97 548.14 669.98 501.90 651.85 472.61
  C 650.64 470.66 648.70 468.37 647.36 466.26
  A 0.36 0.36 0.0 0 1 647.82 465.75
  Q 657.22 470.33 664.01 478.01
  C 679.11 495.07 687.18 517.53 684.31 540.31
  Q 683.76 544.69 681.82 548.74
  Z"
/>
<ellipse fill="#fbf4dd" cx="0.00" cy="0.00" transform="translate(374.02,484.91) rotate(71.7)" rx="17.02" ry="16.84"/>
<circle fill="#fbf4dd" cx="607.21" cy="485.00" r="17.03"/>
<path fill="#fee199" d="
  M 321.09 534.78
  C 323.77 543.85 328.51 554.77 335.65 561.21
  Q 339.66 564.69 343.49 568.26
  C 347.09 571.61 356.43 577.35 362.87 578.63
  C 365.57 579.16 368.24 580.45 371.08 580.94
  Q 385.91 583.48 399.42 576.77
  Q 401.10 575.94 402.94 574.21
  C 415.76 567.57 421.27 555.30 423.48 541.66
  Q 436.55 544.80 443.96 550.04
  Q 451.34 555.27 458.60 560.66
  Q 473.16 571.47 491.99 572.68
  Q 496.83 572.99 499.74 572.52
  Q 518.37 573.06 531.95 562.45
  Q 534.60 560.38 543.13 553.42
  Q 557.37 541.78 576.20 539.78
  Q 577.36 543.13 579.10 547.07
  C 584.57 559.39 595.62 571.26 609.43 573.38
  Q 608.70 573.29 608.21 573.44
  A 0.49 0.49 0.0 0 0 608.21 574.38
  C 612.97 575.83 617.36 577.34 622.54 577.74
  Q 634.87 578.70 646.86 575.92
  C 642.07 587.81 637.67 599.84 630.53 611.00
  C 621.99 624.36 609.19 633.02 594.23 637.99
  C 577.80 643.45 560.15 647.22 545.55 651.21
  C 531.25 655.12 518.91 660.04 504.35 666.28
  Q 485.92 674.17 464.50 677.07
  Q 430.39 671.09 397.32 660.66
  Q 372.70 652.49 351.05 638.40
  Q 334.70 627.94 322.45 613.05
  L 312.00 597.47
  Q 308.26 589.96 304.97 580.76
  C 302.03 572.55 300.63 562.24 304.76 554.43
  Q 309.38 545.72 319.15 541.66
  Q 321.19 540.81 321.10 538.70
  C 321.05 537.31 319.65 536.38 321.09 534.78
  Z
  M 336.7659 575.7534
  A 2.82 2.32 27.3 0 0 335.3241 572.3984
  A 2.82 2.32 27.3 0 0 331.7541 573.1666
  A 2.82 2.32 27.3 0 0 333.1959 576.5216
  A 2.82 2.32 27.3 0 0 336.7659 575.7534
  Z
  M 438.88 584.31
  C 437.69 587.49 439.95 590.82 441.90 593.36
  Q 449.48 603.25 460.01 609.24
  C 479.84 620.53 501.76 620.77 522.26 610.87
  Q 536.64 603.92 546.72 591.48
  Q 549.69 587.81 551.21 584.38
  A 3.65 3.64 -64.7 0 0 549.53 579.66
  L 549.27 579.53
  A 3.75 3.74 28.0 0 0 544.30 581.04
  C 538.79 590.91 528.51 599.10 518.34 603.92
  C 492.95 615.95 462.01 610.08 446.57 585.74
  C 444.54 582.54 442.97 581.17 439.54 583.47
  A 1.83 1.81 -7.1 0 0 438.88 584.31
  Z"
/>
<path fill="#ffba59" d="
  M 685.31 614.56
  Q 687.15 603.15 688.31 589.44
  Q 690.15 567.68 682.87 547.77
  Q 683.56 545.69 684.85 544.23
  C 692.17 548.31 701.39 555.54 704.16 562.94
  C 710.53 579.93 695.50 602.28 685.31 614.56
  Z"
/>
<path fill="#ffd78a" d="
  M 685.31 614.56
  C 666.60 637.23 638.07 654.44 609.74 664.00
  Q 602.72 666.37 595.35 668.44
  Q 587.38 670.19 579.20 672.08
  Q 560.47 676.40 541.45 679.19
  Q 524.81 681.63 503.21 681.70
  Q 483.84 681.13 464.50 677.07
  Q 485.92 674.17 504.35 666.28
  C 518.91 660.04 531.25 655.12 545.55 651.21
  C 560.15 647.22 577.80 643.45 594.23 637.99
  C 609.19 633.02 621.99 624.36 630.53 611.00
  C 637.67 599.84 642.07 587.81 646.86 575.92
  C 655.37 573.85 662.98 570.18 669.49 564.33
  Q 673.94 560.33 675.52 558.52
  Q 678.26 555.39 681.82 548.74
  Q 682.15 549.54 682.87 547.77
  Q 690.15 567.68 688.31 589.44
  Q 687.15 603.15 685.31 614.56
  Z
  M 677.5385 576.2974
  A 1.96 1.79 113.5 0 0 679.9615 575.2138
  A 1.96 1.79 113.5 0 0 679.1015 572.7026
  A 1.96 1.79 113.5 0 0 676.6785 573.7862
  A 1.96 1.79 113.5 0 0 677.5385 576.2974
  Z"
/>
<ellipse fill="#fbf4dd" cx="0.00" cy="0.00" transform="translate(334.26,574.46) rotate(27.3)" rx="2.82" ry="2.32"/>
<ellipse fill="#fbf4dd" cx="0.00" cy="0.00" transform="translate(678.32,574.50) rotate(113.5)" rx="1.96" ry="1.79"/>
<path fill="#2c293e" d="
  M 439.54 583.47
  C 442.97 581.17 444.54 582.54 446.57 585.74
  C 462.01 610.08 492.95 615.95 518.34 603.92
  C 528.51 599.10 538.79 590.91 544.30 581.04
  A 3.75 3.74 28.0 0 1 549.27 579.53
  L 549.53 579.66
  A 3.65 3.64 -64.7 0 1 551.21 584.38
  Q 549.69 587.81 546.72 591.48
  Q 536.64 603.92 522.26 610.87
  C 501.76 620.77 479.84 620.53 460.01 609.24
  Q 449.48 603.25 441.90 593.36
  C 439.95 590.82 437.69 587.49 438.88 584.31
  A 1.83 1.81 -7.1 0 1 439.54 583.47
  Z"
/>
<path fill="#feaf51" d="
  M 312.00 597.47
  L 322.45 613.05
  Q 317.56 614.78 314.71 619.62
  Q 304.77 608.29 298.88 594.56
  Q 305.81 594.85 312.00 597.47
  Z"
/>
<path fill="#ff8f4e" d="
  M 322.45 613.05
  Q 334.70 627.94 351.05 638.40
  Q 344.86 639.01 338.99 641.17
  Q 331.56 636.59 325.37 631.09
  L 314.71 619.62
  Q 317.56 614.78 322.45 613.05
  Z"
/>
<path fill="#43c0a6" d="
  M 325.37 631.09
  Q 331.56 636.59 338.99 641.17
  Q 355.10 651.53 372.06 658.89
  Q 371.74 662.66 371.45 666.57
  C 370.83 674.94 372.81 682.15 377.36 689.02
  C 382.02 696.06 388.17 701.49 393.40 708.06
  C 399.91 717.97 404.41 726.12 407.54 737.31
  Q 383.14 743.05 364.63 748.25
  Q 343.50 754.20 323.61 765.62
  Q 319.75 760.11 317.58 754.32
  Q 318.50 754.13 318.74 753.21
  C 320.15 747.57 321.93 742.84 325.00 737.48
  Q 327.52 733.10 330.03 728.78
  Q 343.21 706.14 335.13 680.55
  Q 331.98 670.54 328.49 664.77
  Q 323.27 656.12 321.26 652.27
  Q 316.22 642.59 316.93 630.61
  A 0.91 0.91 0.0 0 1 318.00 629.77
  L 325.37 631.09
  Z"
/>
<path fill="#fe7041" d="
  M 351.05 638.40
  Q 372.70 652.49 397.32 660.66
  Q 394.42 663.62 394.80 667.51
  L 378.48 661.39
  L 372.06 658.89
  Q 355.10 651.53 338.99 641.17
  Q 344.86 639.01 351.05 638.40
  Z"
/>
<path fill="#35a092" d="
  M 372.06 658.89
  L 378.48 661.39
  Q 388.62 683.92 393.40 708.06
  C 388.17 701.49 382.02 696.06 377.36 689.02
  C 372.81 682.15 370.83 674.94 371.45 666.57
  Q 371.74 662.66 372.06 658.89
  Z"
/>
<path fill="#ff603c" d="
  M 397.32 660.66
  Q 430.39 671.09 464.50 677.07
  Q 483.84 681.13 503.21 681.70
  Q 494.69 682.63 486.91 681.64
  A 0.31 0.31 0.0 0 0 486.57 682.04
  Q 487.42 684.65 487.18 687.20
  A 0.55 0.55 0.0 0 0 487.68 687.80
  L 507.06 689.71
  Q 481.43 689.62 456.27 684.56
  Q 447.59 684.47 439.46 681.06
  L 423.22 675.97
  L 417.51 674.36
  L 410.17 672.52
  L 399.89 669.34
  L 394.80 667.51
  Q 394.42 663.62 397.32 660.66
  Z"
/>
<path fill="#288e82" d="
  M 378.48 661.39
  L 394.80 667.51
  L 399.89 669.34
  Q 420.67 707.35 409.89 748.63
  L 407.54 737.31
  C 404.41 726.12 399.91 717.97 393.40 708.06
  Q 388.62 683.92 378.48 661.39
  Z"
/>
<path fill="#f14e38" d="
  M 592.29 678.47
  Q 589.83 678.68 588.15 679.50
  L 568.81 683.49
  Q 546.30 687.87 524.32 689.37
  L 507.06 689.71
  L 487.68 687.80
  A 0.55 0.55 0.0 0 1 487.18 687.20
  Q 487.42 684.65 486.57 682.04
  A 0.31 0.31 0.0 0 1 486.91 681.64
  Q 494.69 682.63 503.21 681.70
  Q 524.81 681.63 541.45 679.19
  Q 560.47 676.40 579.20 672.08
  Q 587.38 670.19 595.35 668.44
  Q 598.94 668.55 601.29 669.98
  A 2.43 2.42 30.6 0 1 602.14 673.26
  C 600.64 675.87 595.09 677.43 592.29 678.47
  Z"
/>
<path fill="#25847c" d="
  M 399.89 669.34
  L 410.17 672.52
  C 415.75 689.65 420.27 707.50 419.73 725.88
  Q 419.29 740.76 413.27 759.71
  Q 412.19 763.12 410.93 766.55
  L 410.93 765.18
  Q 411.14 757.02 409.89 748.63
  Q 420.67 707.35 399.89 669.34
  Z"
/>
<path fill="#207a75" d="
  M 417.51 674.36
  Q 440.96 720.10 417.39 766.30
  Q 411.31 778.23 405.02 790.01
  L 405.72 787.52
  Q 410.54 777.61 410.93 766.55
  Q 412.19 763.12 413.27 759.71
  Q 419.29 740.76 419.73 725.88
  C 420.27 707.50 415.75 689.65 410.17 672.52
  L 417.51 674.36
  Z"
/>
<path fill="#1d6f6d" d="
  M 417.51 674.36
  L 423.22 675.97
  Q 432.99 681.85 440.49 689.46
  L 441.39 700.56
  C 441.49 720.23 437.04 740.35 429.59 758.35
  C 424.09 771.65 416.63 781.57 406.35 794.55
  Q 405.13 792.43 405.02 790.01
  Q 411.31 778.23 417.39 766.30
  Q 440.96 720.10 417.51 674.36
  Z"
/>
<path fill="#4ed3ac" d="
  M 439.46 681.06
  Q 439.34 683.14 440.11 685.06
  A 3.00 2.77 -59.8 0 1 440.30 685.92
  L 440.49 689.46
  Q 432.99 681.85 423.22 675.97
  L 439.46 681.06
  Z"
/>
<path fill="#ff603c" d="
  M 588.15 679.50
  C 587.78 682.97 587.08 686.48 587.04 689.84
  Q 586.72 715.66 592.37 740.87
  Q 592.50 741.44 593.30 741.78
  Q 593.08 742.55 593.28 743.23
  Q 596.24 753.31 600.78 762.78
  Q 611.80 785.97 629.41 804.46
  L 642.65 820.08
  Q 654.99 836.36 663.42 854.98
  L 664.06 856.51
  L 666.91 864.04
  Q 672.81 881.59 675.64 900.00
  Q 676.00 904.21 676.44 908.52
  Q 678.82 932.09 676.51 958.48
  Q 676.19 962.17 675.30 965.69
  A 2.89 2.87 -89.5 0 1 673.17 967.79
  Q 658.44 971.27 642.99 973.36
  C 646.38 947.80 646.58 921.28 634.33 897.89
  Q 629.82 889.29 622.72 879.96
  A 0.30 0.29 -52.4 0 0 622.21 880.03
  L 615.34 897.38
  L 608.04 916.51
  Q 601.17 936.43 592.37 955.57
  Q 589.63 961.54 587.58 966.70
  Q 585.34 972.34 583.05 977.94
  L 565.87 978.60
  Q 567.83 968.80 570.86 962.37
  Q 578.58 945.97 587.01 927.73
  Q 594.38 911.79 595.60 897.55
  Q 596.88 882.74 595.99 872.52
  Q 595.26 864.14 591.82 851.01
  L 581.00 811.50
  Q 577.24 794.55 573.62 777.67
  Q 569.99 760.66 569.54 735.50
  Q 569.14 712.78 571.02 692.75
  Q 571.41 688.62 572.22 684.32
  A 0.80 0.80 0.0 0 0 571.39 683.37
  L 568.81 683.49
  L 588.15 679.50
  Z"
/>
<path fill="#ff8f4e" d="
  M 456.27 684.56
  L 457.86 695.37
  L 442.05 694.67
  A 0.48 0.48 0.0 0 0 441.55 695.14
  L 441.39 700.56
  L 440.49 689.46
  L 440.30 685.92
  A 3.00 2.77 -59.8 0 0 440.11 685.06
  Q 439.34 683.14 439.46 681.06
  Q 447.59 684.47 456.27 684.56
  Z"
/>
<path fill="#ffba59" d="
  M 581.00 811.50
  Q 571.89 792.17 558.97 775.30
  Q 555.38 770.62 545.69 760.29
  Q 533.23 747.01 517.19 741.47
  C 510.28 739.08 499.69 736.52 490.95 734.58
  Q 478.25 733.21 469.53 727.99
  Q 462.45 723.75 460.00 722.53
  Q 460.61 719.33 459.56 714.94
  C 462.19 724.68 479.92 730.01 488.42 731.76
  Q 515.55 737.33 542.45 731.22
  C 551.31 729.38 558.47 727.80 565.68 724.35
  A 0.60 0.59 68.7 0 0 565.99 723.64
  C 563.05 713.90 559.67 706.84 550.67 701.00
  Q 538.12 692.85 524.32 689.37
  Q 546.30 687.87 568.81 683.49
  L 571.39 683.37
  A 0.80 0.80 0.0 0 1 572.22 684.32
  Q 571.41 688.62 571.02 692.75
  Q 569.14 712.78 569.54 735.50
  Q 569.99 760.66 573.62 777.67
  Q 577.24 794.55 581.00 811.50
  Z"
/>
<path fill="#ffd78a" d="
  M 507.06 689.71
  L 524.32 689.37
  Q 538.12 692.85 550.67 701.00
  C 559.67 706.84 563.05 713.90 565.99 723.64
  A 0.60 0.59 68.7 0 1 565.68 724.35
  C 558.47 727.80 551.31 729.38 542.45 731.22
  Q 505.14 703.45 458.45 698.34
  L 457.86 695.37
  L 456.27 684.56
  Q 481.43 689.62 507.06 689.71
  Z"
/>
<path fill="#25847c" d="
  M 314.78 748.00
  C 307.25 767.55 301.42 783.04 291.96 799.79
  Q 286.04 787.12 283.71 773.46
  Q 283.22 770.63 282.53 767.68
  Q 281.06 753.30 282.04 742.01
  Q 283.57 724.45 291.07 706.30
  Q 292.02 703.99 295.05 698.47
  C 298.08 695.12 301.88 690.98 305.99 688.82
  A 0.59 0.59 0.0 0 1 306.84 689.42
  Q 305.37 700.84 306.56 711.78
  Q 308.61 730.54 314.78 748.00
  Z"
/>
<path fill="#feaf51" d="
  M 457.86 695.37
  L 458.45 698.34
  L 459.56 714.94
  Q 460.61 719.33 460.00 722.53
  Q 459.92 742.75 458.21 754.75
  Q 456.14 769.41 452.42 785.19
  Q 451.87 787.51 453.29 788.75
  Q 461.53 795.99 474.31 799.97
  Q 474.83 800.13 475.77 800.16
  A 2.57 2.44 54.6 0 1 476.59 800.32
  Q 483.34 802.83 489.00 803.67
  Q 498.74 805.11 511.45 805.89
  L 525.96 806.39
  Q 506.73 808.00 487.73 805.29
  C 481.39 804.38 476.10 802.83 469.05 800.94
  Q 459.57 798.39 452.51 791.40
  A 1.07 1.07 0.0 0 0 450.93 791.49
  Q 450.76 791.69 450.58 792.31
  Q 444.71 812.81 435.67 841.33
  Q 435.24 842.70 435.17 843.51
  Q 435.08 844.62 434.63 845.66
  Q 433.66 847.92 433.44 848.78
  Q 433.18 849.78 431.44 856.39
  Q 427.87 869.92 427.97 883.97
  C 428.03 892.57 428.50 902.88 430.24 910.98
  Q 432.10 919.62 432.73 925.80
  Q 421.89 915.01 412.07 903.93
  Q 405.34 896.34 400.87 892.18
  Q 396.89 888.48 389.06 880.83
  A 0.25 0.25 0.0 0 0 388.67 881.13
  Q 391.82 886.94 394.76 893.98
  C 397.43 900.39 400.92 906.79 404.27 913.06
  Q 402.35 923.58 401.69 932.65
  C 400.62 947.35 403.37 961.76 407.50 975.98
  Q 380.44 973.65 353.98 968.12
  Q 349.75 967.23 348.86 966.96
  A 1.31 1.30 -88.1 0 1 347.98 966.01
  Q 347.12 962.10 346.75 956.75
  Q 345.55 939.29 346.11 923.88
  Q 346.33 917.97 347.28 906.60
  Q 350.66 876.82 361.94 852.20
  Q 367.11 840.92 376.57 827.13
  Q 385.73 815.03 396.66 804.07
  L 406.35 794.55
  C 416.63 781.57 424.09 771.65 429.59 758.35
  C 437.04 740.35 441.49 720.23 441.39 700.56
  L 441.55 695.14
  A 0.48 0.48 0.0 0 1 442.05 694.67
  L 457.86 695.37
  Z"
/>
<path fill="#fee199" d="
  M 542.45 731.22
  Q 515.55 737.33 488.42 731.76
  C 479.92 730.01 462.19 724.68 459.56 714.94
  L 458.45 698.34
  Q 505.14 703.45 542.45 731.22
  Z"
/>
<path fill="#1d6f6d" d="
  M 663.02 803.45
  Q 657.99 807.66 652.99 812.73
  Q 651.02 814.72 645.37 818.42
  Q 644.30 819.47 642.65 820.08
  L 629.41 804.46
  C 658.09 785.91 668.83 755.08 673.59 723.00
  A 1.44 1.43 -17.5 0 1 674.04 722.14
  Q 677.55 718.81 679.91 714.59
  Q 686.24 708.33 688.12 704.86
  Q 690.19 701.04 692.57 697.24
  A 0.18 0.18 0.0 0 1 692.90 697.32
  Q 693.05 699.31 692.43 701.45
  Q 691.71 703.94 688.91 717.87
  C 686.58 729.50 685.67 739.91 683.95 752.38
  Q 681.74 768.31 676.27 781.30
  Q 673.59 787.65 667.66 796.88
  Q 667.01 797.89 665.19 800.06
  Q 663.89 801.61 663.02 803.45
  Z"
/>
<path fill="#43c0a6" d="
  M 295.05 698.47
  Q 292.02 703.99 291.07 706.30
  Q 283.57 724.45 282.04 742.01
  Q 281.06 753.30 282.53 767.68
  Q 265.36 775.45 246.86 778.90
  Q 249.12 765.48 254.80 754.54
  Q 270.43 724.44 295.05 698.47
  Z"
/>
<path fill="#207a75" d="
  M 679.91 714.59
  Q 677.55 718.81 674.04 722.14
  A 1.44 1.43 -17.5 0 0 673.59 723.00
  C 668.83 755.08 658.09 785.91 629.41 804.46
  Q 611.80 785.97 600.78 762.78
  Q 610.40 773.06 615.89 777.46
  C 629.41 788.29 639.18 786.06 651.08 774.34
  A 3.45 3.24 83.0 0 0 651.68 773.52
  Q 657.06 763.20 659.00 751.68
  C 659.80 745.06 659.19 741.34 657.98 736.13
  A 1.70 1.69 55.2 0 1 658.21 734.83
  L 659.95 732.12
  Q 670.78 724.60 679.91 714.59
  Z"
/>
<path fill="#fee199" d="
  M 490.95 734.58
  Q 505.55 737.44 517.92 745.50
  A 1.67 1.65 4.3 0 1 518.52 746.19
  C 523.56 757.11 527.52 768.75 527.82 780.77
  C 528.05 790.11 524.93 798.18 519.14 805.22
  A 1.19 1.19 0.0 0 1 518.26 805.66
  L 511.45 805.89
  Q 498.74 805.11 489.00 803.67
  Q 483.34 802.83 476.59 800.32
  A 2.57 2.44 54.6 0 0 475.77 800.16
  Q 474.83 800.13 474.31 799.97
  Q 461.53 795.99 453.29 788.75
  Q 451.87 787.51 452.42 785.19
  Q 456.14 769.41 458.21 754.75
  Q 459.92 742.75 460.00 722.53
  Q 462.45 723.75 469.53 727.99
  Q 478.25 733.21 490.95 734.58
  Z"
/>
<path fill="#288e82" d="
  M 659.95 732.12
  L 658.21 734.83
  A 1.70 1.69 55.2 0 0 657.98 736.13
  C 659.19 741.34 659.80 745.06 659.00 751.68
  Q 651.50 754.38 644.82 755.76
  C 629.64 758.90 617.53 753.78 605.21 745.26
  Q 613.61 746.40 622.07 746.07
  C 636.43 745.49 648.29 740.10 659.95 732.12
  Z"
/>
<path fill="#ffd78a" d="
  M 581.00 811.50
  L 591.82 851.01
  Q 585.42 876.75 581.67 889.46
  C 576.63 906.57 567.72 921.55 554.04 931.82
  Q 541.01 941.62 524.22 948.54
  Q 492.80 961.50 459.62 970.25
  Q 452.60 951.47 440.14 935.59
  Q 437.47 932.19 434.58 928.49
  Q 470.36 924.15 500.11 904.34
  C 510.22 897.61 518.43 890.26 523.94 879.33
  Q 535.31 878.18 544.42 873.35
  L 562.16 866.74
  A 0.65 0.65 0.0 0 0 562.57 866.07
  L 555.14 804.12
  A 0.46 0.45 -8.5 0 0 554.61 803.73
  Q 540.39 805.97 525.96 806.39
  L 511.45 805.89
  L 518.26 805.66
  A 1.19 1.19 0.0 0 0 519.14 805.22
  C 524.93 798.18 528.05 790.11 527.82 780.77
  C 527.52 768.75 523.56 757.11 518.52 746.19
  A 1.67 1.65 4.3 0 0 517.92 745.50
  Q 505.55 737.44 490.95 734.58
  C 499.69 736.52 510.28 739.08 517.19 741.47
  Q 533.23 747.01 545.69 760.29
  Q 555.38 770.62 558.97 775.30
  Q 571.89 792.17 581.00 811.50
  Z"
/>
<path fill="#35a092" d="
  M 409.89 748.63
  Q 411.14 757.02 410.93 765.18
  Q 397.09 769.50 387.81 771.35
  Q 360.90 776.69 338.69 784.29
  Q 330.17 775.69 323.61 765.62
  Q 343.50 754.20 364.63 748.25
  Q 383.14 743.05 407.54 737.31
  L 409.89 748.63
  Z"
/>
<path fill="#25847c" d="
  M 605.21 745.26
  C 617.53 753.78 629.64 758.90 644.82 755.76
  Q 651.50 754.38 659.00 751.68
  Q 657.06 763.20 651.68 773.52
  A 3.45 3.24 83.0 0 1 651.08 774.34
  C 639.18 786.06 629.41 788.29 615.89 777.46
  Q 610.40 773.06 600.78 762.78
  Q 596.24 753.31 593.28 743.23
  Q 593.08 742.55 593.30 741.78
  L 605.21 745.26
  Z"
/>
<path fill="#207a75" d="
  M 314.78 748.00
  L 317.58 754.32
  Q 319.75 760.11 323.61 765.62
  Q 330.17 775.69 338.69 784.29
  L 340.97 786.66
  C 332.35 808.25 326.98 822.59 319.94 837.29
  L 312.20 829.96
  L 302.97 818.68
  Q 296.45 809.87 291.96 799.79
  C 301.42 783.04 307.25 767.55 314.78 748.00
  Z"
/>
<path fill="#1d6f6d" d="
  M 675.64 900.00
  Q 672.81 881.59 666.91 864.04
  Q 674.87 860.10 678.65 857.66
  C 711.15 836.74 713.88 796.56 709.80 761.99
  Q 715.51 758.82 724.33 756.11
  Q 736.64 752.32 749.74 751.86
  A 0.35 0.34 -69.5 0 1 750.00 752.44
  C 747.95 754.65 744.27 757.92 741.99 760.90
  Q 733.54 771.96 734.27 786.81
  Q 734.91 799.74 735.91 815.24
  Q 736.23 820.10 735.37 828.74
  Q 730.95 873.43 692.08 893.55
  Q 686.78 896.29 675.64 900.00
  Z"
/>
<path fill="#207a75" d="
  M 709.80 761.99
  C 713.88 796.56 711.15 836.74 678.65 857.66
  Q 674.87 860.10 666.91 864.04
  L 664.06 856.51
  Q 670.94 853.21 675.95 849.84
  C 695.95 836.42 703.89 810.84 704.42 787.98
  Q 704.68 776.62 703.93 765.32
  L 709.80 761.99
  Z"
/>
<path fill="#288e82" d="
  M 410.93 765.18
  L 410.93 766.55
  Q 410.54 777.61 405.72 787.52
  Q 380.16 794.04 354.30 799.15
  L 340.97 786.66
  L 338.69 784.29
  Q 360.90 776.69 387.81 771.35
  Q 397.09 769.50 410.93 765.18
  Z"
/>
<path fill="#25847c" d="
  M 703.93 765.32
  Q 704.68 776.62 704.42 787.98
  C 703.89 810.84 695.95 836.42 675.95 849.84
  Q 670.94 853.21 664.06 856.51
  L 663.42 854.98
  L 671.99 848.97
  A 1.70 1.54 89.9 0 0 672.45 848.46
  Q 676.18 842.10 678.80 834.53
  A 4.69 4.49 72.3 0 1 679.27 833.57
  Q 683.39 827.07 686.84 819.89
  C 693.90 805.19 694.97 789.82 693.62 772.93
  L 703.93 765.32
  Z"
/>
<path fill="#35a092" d="
  M 291.96 799.79
  Q 296.45 809.87 302.97 818.68
  Q 284.45 834.44 261.29 842.49
  Q 254.44 830.02 250.18 816.10
  C 246.54 804.22 245.02 791.26 246.86 778.90
  Q 265.36 775.45 282.53 767.68
  Q 283.22 770.63 283.71 773.46
  Q 286.04 787.12 291.96 799.79
  Z"
/>
<path fill="#288e82" d="
  M 693.62 772.93
  C 694.97 789.82 693.90 805.19 686.84 819.89
  Q 683.39 827.07 679.27 833.57
  A 4.69 4.49 72.3 0 0 678.80 834.53
  Q 676.18 842.10 672.45 848.46
  A 1.70 1.54 89.9 0 1 671.99 848.97
  L 663.42 854.98
  Q 654.99 836.36 642.65 820.08
  Q 644.30 819.47 645.37 818.42
  C 654.65 823.12 663.54 826.19 674.08 824.71
  Q 678.38 824.11 682.93 823.11
  A 1.06 1.04 7.7 0 0 683.66 822.56
  Q 689.79 810.94 689.31 798.08
  A 2.27 2.21 30.2 0 0 689.03 797.08
  L 681.88 784.53
  L 693.62 772.93
  Z"
/>
<path fill="#35a092" d="
  M 681.88 784.53
  L 689.03 797.08
  A 2.27 2.21 30.2 0 1 689.31 798.08
  Q 689.79 810.94 683.66 822.56
  A 1.06 1.04 7.7 0 1 682.93 823.11
  Q 678.38 824.11 674.08 824.71
  C 663.54 826.19 654.65 823.12 645.37 818.42
  Q 651.02 814.72 652.99 812.73
  Q 657.99 807.66 663.02 803.45
  Q 673.56 795.32 681.88 784.53
  Z"
/>
<path fill="#1d6f6d" d="
  M 340.97 786.66
  L 354.30 799.15
  L 362.01 809.29
  Q 364.70 814.37 368.15 818.93
  C 370.51 822.05 373.64 824.40 376.57 827.13
  Q 367.11 840.92 361.94 852.20
  Q 350.66 876.82 347.28 906.60
  Q 342.02 904.82 331.44 900.82
  Q 311.06 893.12 294.05 880.55
  C 309.82 871.71 320.85 861.95 331.53 847.53
  A 0.51 0.50 -52.9 0 0 331.44 846.83
  L 323.09 840.21
  L 319.94 837.29
  C 326.98 822.59 332.35 808.25 340.97 786.66
  Z"
/>
<path fill="#25847c" d="
  M 405.72 787.52
  L 405.02 790.01
  Q 405.13 792.43 406.35 794.55
  L 396.66 804.07
  C 384.67 803.65 373.45 806.08 362.01 809.29
  L 354.30 799.15
  Q 380.16 794.04 405.72 787.52
  Z"
/>
<path fill="#fee199" d="
  M 525.96 806.39
  Q 540.39 805.97 554.61 803.73
  A 0.46 0.45 -8.5 0 1 555.14 804.12
  L 562.57 866.07
  A 0.65 0.65 0.0 0 1 562.16 866.74
  L 544.42 873.35
  Q 519.58 879.32 494.54 876.32
  Q 483.30 874.97 474.53 871.67
  Q 461.53 866.77 456.33 863.67
  C 448.06 858.72 442.01 853.61 436.20 846.85
  A 0.33 0.32 48.1 0 0 435.74 846.82
  L 435.67 846.88
  A 0.29 0.28 51.4 0 0 435.63 847.26
  Q 438.13 850.63 441.91 854.08
  Q 452.47 863.73 464.66 869.76
  Q 479.10 876.91 496.76 879.53
  Q 507.64 881.14 523.94 879.33
  C 518.43 890.26 510.22 897.61 500.11 904.34
  Q 470.36 924.15 434.58 928.49
  L 432.73 925.80
  Q 432.10 919.62 430.24 910.98
  C 428.50 902.88 428.03 892.57 427.97 883.97
  Q 427.87 869.92 431.44 856.39
  Q 433.18 849.78 433.44 848.78
  Q 433.66 847.92 434.63 845.66
  Q 435.08 844.62 435.17 843.51
  Q 435.24 842.70 435.67 841.33
  Q 444.71 812.81 450.58 792.31
  Q 450.76 791.69 450.93 791.49
  A 1.07 1.07 0.0 0 1 452.51 791.40
  Q 459.57 798.39 469.05 800.94
  C 476.10 802.83 481.39 804.38 487.73 805.29
  Q 506.73 808.00 525.96 806.39
  Z"
/>
<path fill="#207a75" d="
  M 396.66 804.07
  Q 385.73 815.03 376.57 827.13
  C 373.64 824.40 370.51 822.05 368.15 818.93
  Q 364.70 814.37 362.01 809.29
  C 373.45 806.08 384.67 803.65 396.66 804.07
  Z"
/>
<path fill="#288e82" d="
  M 312.20 829.96
  C 299.29 841.66 285.98 850.05 269.37 855.47
  L 261.29 842.49
  Q 284.45 834.44 302.97 818.68
  L 312.20 829.96
  Z"
/>
<path fill="#25847c" d="
  M 319.94 837.29
  L 323.09 840.21
  Q 317.24 846.40 312.35 850.55
  C 302.60 858.83 291.53 863.44 279.40 867.68
  L 269.37 855.47
  C 285.98 850.05 299.29 841.66 312.20 829.96
  L 319.94 837.29
  Z"
/>
<path fill="#207a75" d="
  M 294.05 880.55
  Q 286.16 874.92 279.40 867.68
  C 291.53 863.44 302.60 858.83 312.35 850.55
  Q 317.24 846.40 323.09 840.21
  L 331.44 846.83
  A 0.51 0.50 -52.9 0 1 331.53 847.53
  C 320.85 861.95 309.82 871.71 294.05 880.55
  Z"
/>
<path fill="#ffba59" d="
  M 544.42 873.35
  Q 535.31 878.18 523.94 879.33
  Q 507.64 881.14 496.76 879.53
  Q 479.10 876.91 464.66 869.76
  Q 452.47 863.73 441.91 854.08
  Q 438.13 850.63 435.63 847.26
  A 0.29 0.28 51.4 0 1 435.67 846.88
  L 435.74 846.82
  A 0.33 0.32 48.1 0 1 436.20 846.85
  C 442.01 853.61 448.06 858.72 456.33 863.67
  Q 461.53 866.77 474.53 871.67
  Q 483.30 874.97 494.54 876.32
  Q 519.58 879.32 544.42 873.35
  Z"
/>
<path fill="#ffba59" d="
  M 565.87 978.60
  Q 562.83 978.35 559.27 978.65
  Q 554.60 979.05 552.70 979.02
  Q 537.70 978.82 522.71 979.19
  Q 509.39 979.52 492.80 979.18
  Q 477.79 978.86 462.89 978.75
  L 459.62 970.25
  Q 492.80 961.50 524.22 948.54
  Q 541.01 941.62 554.04 931.82
  C 567.72 921.55 576.63 906.57 581.67 889.46
  Q 585.42 876.75 591.82 851.01
  Q 595.26 864.14 595.99 872.52
  Q 596.88 882.74 595.60 897.55
  Q 594.38 911.79 587.01 927.73
  Q 578.58 945.97 570.86 962.37
  Q 567.83 968.80 565.87 978.60
  Z"
/>
<path fill="#fe7041" d="
  M 642.99 973.36
  L 628.48 974.96
  Q 629.96 960.16 629.70 945.44
  Q 629.24 919.36 615.34 897.38
  L 622.21 880.03
  A 0.30 0.29 -52.4 0 1 622.72 879.96
  Q 629.82 889.29 634.33 897.89
  C 646.58 921.28 646.38 947.80 642.99 973.36
  Z"
/>
<path fill="#ff603c" d="
  M 432.73 925.80
  L 434.58 928.49
  Q 437.47 932.19 440.14 935.59
  Q 452.60 951.47 459.62 970.25
  L 462.89 978.75
  Q 450.16 979.05 437.35 977.89
  L 404.27 913.06
  C 400.92 906.79 397.43 900.39 394.76 893.98
  Q 391.82 886.94 388.67 881.13
  A 0.25 0.25 0.0 0 1 389.06 880.83
  Q 396.89 888.48 400.87 892.18
  Q 405.34 896.34 412.07 903.93
  Q 421.89 915.01 432.73 925.80
  Z"
/>
<path fill="#ff8f4e" d="
  M 628.48 974.96
  L 610.47 976.42
  C 610.92 954.99 611.31 936.57 608.04 916.51
  L 615.34 897.38
  Q 629.24 919.36 629.70 945.44
  Q 629.96 960.16 628.48 974.96
  Z"
/>
<path fill="#ff8f4e" d="
  M 437.35 977.89
  L 407.50 975.98
  C 403.37 961.76 400.62 947.35 401.69 932.65
  Q 402.35 923.58 404.27 913.06
  L 437.35 977.89
  Z"
/>
<path fill="#feaf51" d="
  M 610.47 976.42
  L 583.05 977.94
  Q 585.34 972.34 587.58 966.70
  Q 589.63 961.54 592.37 955.57
  Q 601.17 936.43 608.04 916.51
  C 611.31 936.57 610.92 954.99 610.47 976.42
  Z"
/>
</svg>
