<?xml version="1.0" encoding="UTF-8" standalone="no"?>
<!DOCTYPE svg PUBLIC "-//W3C//DTD SVG 1.1//EN" "http://www.w3.org/Graphics/SVG/1.1/DTD/svg11.dtd">
<svg xmlns="http://www.w3.org/2000/svg" version="1.1" viewBox="0.00 0.00 1024.00 1024.00">
<g stroke-width="2.00" fill="none" stroke-linecap="butt">
<path stroke="#6eb5cb" vector-effect="non-scaling-stroke" d="
  M 1024.00 8.38
  L 1023.76 0.89
  A 0.02 0.02 0.0 0 0 1023.74 0.87
  L 1023.48 0.87
  A 0.26 0.25 -90.0 0 0 1023.23 1.13
  L 1023.28 1024.00"
/>
<path stroke="#6eb5cb" vector-effect="non-scaling-stroke" d="
  M 419.34 621.85
  Q 409.62 635.40 409.07 650.00
  Q 408.44 666.67 413.57 684.18
  Q 418.88 702.29 428.07 718.20
  Q 429.92 721.41 431.32 723.04
  A 3.27 3.27 0.0 0 0 433.81 724.19
  L 444.53 724.19
  A 1.07 1.07 0.0 0 0 445.41 722.50
  Q 440.13 715.01 436.99 706.29
  C 433.10 695.49 433.96 683.66 437.53 672.80
  Q 440.33 664.28 443.27 656.87
  Q 446.14 649.62 447.81 644.40
  Q 451.47 632.93 451.76 631.73
  Q 454.97 618.18 454.51 598.76"
/>
<path stroke="#a4ccd2" vector-effect="non-scaling-stroke" d="
  M 454.51 598.76
  C 480.71 611.23 513.41 610.32 540.47 601.49
  A 0.89 0.89 0.0 0 1 541.64 602.36
  Q 541.09 626.32 544.67 650.27
  Q 549.06 679.59 556.49 706.78
  C 558.03 712.42 559.51 716.35 561.69 722.98
  A 1.29 1.28 80.9 0 0 562.91 723.87
  L 571.88 723.87
  A 0.67 0.67 0.0 0 0 572.55 723.19
  Q 572.00 677.28 581.39 631.57
  Q 585.91 609.55 590.70 591.28
  A 6.68 6.67 76.5 0 1 592.73 587.96
  C 600.40 581.15 607.74 573.77 613.81 564.73
  Q 618.92 557.13 621.85 551.86
  C 633.86 530.33 637.15 506.91 633.72 483.02
  C 629.81 455.75 614.50 433.46 593.70 415.08
  Q 587.98 410.03 585.62 407.24
  C 578.16 398.41 572.13 390.01 567.06 379.46
  Q 566.79 378.88 567.40 378.54
  Q 567.46 378.50 567.68 378.53
  A 0.22 0.21 -28.2 0 1 567.79 378.56
  Q 576.46 383.41 586.57 383.89
  Q 611.89 385.09 636.50 381.77
  C 647.55 380.28 658.26 376.81 666.36 368.86
  Q 677.22 358.21 676.86 342.73
  A 0.87 0.86 85.3 0 0 675.88 341.89
  Q 659.65 344.13 646.21 334.73
  C 638.01 328.99 633.14 319.35 631.33 309.95
  Q 629.66 301.30 627.53 295.22
  C 622.34 280.36 609.23 268.23 594.63 262.09
  A 0.47 0.47 0.0 0 1 594.50 261.30
  Q 610.13 247.31 614.18 226.80
  Q 616.44 215.31 612.65 204.18
  Q 609.69 195.47 602.60 190.08
  A 0.44 0.44 0.0 0 0 601.91 190.58
  Q 603.45 194.88 604.80 201.19
  C 608.05 216.32 602.47 233.13 592.67 245.01
  A 1.55 1.55 0.0 0 1 590.28 245.01
  Q 587.57 241.71 586.07 238.72
  C 579.58 225.73 574.35 212.05 559.88 205.80
  A 0.65 0.64 -68.0 0 0 559.02 206.17
  Q 558.95 206.38 559.07 206.74
  Q 560.53 210.98 561.10 216.13
  Q 562.60 229.70 564.39 236.87
  C 565.84 242.66 568.36 249.53 572.74 253.48
  A 0.41 0.41 0.0 0 1 572.38 254.19
  C 565.86 252.78 558.38 243.90 555.00 238.13
  Q 545.86 222.53 538.84 212.52
  Q 524.17 191.60 498.04 193.75
  A 0.12 0.12 0.0 0 0 497.97 193.96
  Q 507.51 201.58 513.56 212.95
  C 520.79 226.55 527.19 244.04 531.47 254.28
  Q 534.30 261.05 538.26 266.35
  A 0.37 0.37 0.0 0 1 538.00 266.94
  C 524.63 268.26 509.72 269.71 497.97 265.80
  C 478.71 259.39 467.25 241.08 461.99 222.33
  A 0.16 0.15 -48.2 0 0 461.69 222.35
  Q 459.61 234.86 461.90 247.34
  Q 465.34 266.11 478.56 279.13
  A 0.26 0.26 0.0 0 1 478.39 279.58
  C 474.29 279.77 470.85 280.25 466.52 279.76
  C 421.80 274.74 394.80 237.10 395.72 193.57
  A 0.46 0.46 0.0 0 0 394.85 193.34
  C 382.55 215.82 384.46 243.33 395.37 266.19
  Q 403.83 283.91 416.85 294.30
  Q 430.96 305.58 449.06 308.93
  Q 468.20 312.48 489.14 309.09
  A 3.57 3.56 65.1 0 1 492.44 310.30
  Q 500.30 319.50 510.71 325.03
  A 1.03 1.03 0.0 0 1 511.17 326.36
  C 504.04 342.51 504.09 360.33 509.45 377.06
  Q 512.98 388.09 516.71 394.93
  Q 520.40 401.72 529.74 416.58
  Q 535.55 425.81 542.68 442.27
  C 553.72 467.74 553.59 501.26 529.02 519.34
  Q 517.47 527.83 504.61 528.68
  Q 490.51 529.62 478.26 519.51
  C 471.79 514.16 464.46 507.75 455.53 503.92
  Q 441.27 497.81 426.37 503.34
  C 414.90 507.59 409.20 512.99 396.96 522.44
  Q 394.10 524.65 390.42 526.29
  A 4.00 3.94 34.3 0 1 388.55 526.63
  C 365.57 525.15 347.56 509.42 341.43 487.60
  Q 340.03 482.63 339.90 478.33
  Q 339.73 472.56 339.97 468.89
  C 341.27 449.42 354.28 432.09 371.31 423.00
  C 385.88 415.23 403.64 413.99 419.74 417.78
  A 0.17 0.17 0.0 0 0 419.89 417.48
  Q 396.97 398.30 367.08 398.54
  Q 334.25 398.79 309.64 421.16
  Q 289.57 439.42 284.82 466.78
  A 0.25 0.24 -50.8 0 1 284.35 466.83
  C 279.06 452.55 276.38 438.25 277.25 423.42
  Q 279.09 391.96 301.06 367.79
  Q 311.60 356.22 324.16 348.67
  Q 327.57 346.62 331.47 344.07
  A 0.29 0.29 0.0 0 0 331.27 343.54
  Q 308.80 346.82 287.78 357.27
  C 263.13 369.53 242.02 391.16 230.21 415.68
  Q 224.76 426.99 221.46 437.45
  C 212.15 466.97 214.70 499.56 229.95 526.50
  Q 246.35 555.46 276.82 570.66
  C 302.05 583.25 333.75 584.17 359.60 572.85
  Q 373.99 566.56 385.32 555.32
  Q 387.58 553.09 389.24 550.37
  A 0.32 0.31 68.4 0 1 389.81 550.62
  Q 383.14 575.39 371.46 598.46
  Q 363.76 613.66 359.59 622.32
  Q 355.13 631.59 349.74 647.25
  Q 346.82 655.73 344.25 671.28
  C 341.36 688.80 340.14 706.25 342.18 723.18
  A 0.77 0.76 86.6 0 0 342.94 723.86
  L 353.97 723.86
  A 0.59 0.59 0.0 0 0 354.56 723.30
  C 355.11 712.53 356.08 702.88 359.12 692.95
  Q 364.58 675.10 373.26 660.97
  Q 377.23 654.50 381.17 650.66
  Q 391.31 640.76 404.56 631.83
  Q 411.30 627.29 419.34 621.85"
/>
<path stroke="#c9e3e1" vector-effect="non-scaling-stroke" d="
  M 454.51 598.76
  L 444.03 593.03
  A 0.84 0.83 30.6 0 0 442.92 593.31
  C 437.42 601.86 431.48 609.59 424.09 616.42
  Q 421.11 619.18 419.34 621.85"
/>
<path stroke="#a4ccd2" vector-effect="non-scaling-stroke" d="
  M 730.90 517.93
  A 0.76 0.75 -82.5 0 1 731.63 517.36
  Q 735.43 517.35 791.48 517.27
  Q 803.42 517.26 810.06 508.10
  C 814.24 502.32 814.51 494.31 811.34 488.29
  C 806.39 478.88 797.80 476.29 787.75 476.31
  Q 770.03 476.36 769.69 476.37
  A 1.13 1.12 -8.9 0 1 768.57 475.56
  C 763.41 457.95 749.69 445.62 731.44 444.20
  Q 718.22 443.16 706.78 450.01
  Q 690.75 459.62 686.75 477.83
  A 1.21 1.20 -2.6 0 1 685.93 478.72
  C 651.41 489.39 658.25 538.85 692.80 542.63
  Q 713.87 544.94 726.28 527.93
  Q 729.39 523.68 730.90 517.93"
/>
<path stroke="#6eb5cb" vector-effect="non-scaling-stroke" d="
  M 620.05 565.88
  Q 619.55 567.19 618.71 567.99
  A 2.12 2.09 -8.6 0 0 618.26 568.59
  Q 616.86 571.40 615.79 574.37
  C 613.64 580.39 609.17 588.24 607.79 591.40
  C 604.09 599.89 597.97 608.96 593.72 615.49
  Q 593.46 615.89 593.01 616.25
  A 1.67 1.60 82.0 0 0 592.50 616.96
  Q 590.24 622.95 589.37 627.14
  Q 585.42 645.96 581.50 671.22
  Q 580.50 677.64 580.45 678.57
  Q 580.20 683.73 579.84 685.97
  Q 579.21 689.85 579.02 697.04
  Q 578.73 708.06 578.16 717.00
  Q 577.97 719.87 578.08 722.89
  A 1.25 1.24 -0.9 0 0 579.33 724.09
  L 592.53 724.09
  A 1.27 1.27 0.0 0 0 593.78 723.05
  Q 596.47 707.89 602.38 690.82
  Q 611.18 665.43 615.14 652.15
  Q 622.32 628.04 624.31 612.53
  Q 627.78 585.45 625.03 558.76
  A 0.53 0.53 0.0 0 0 624.07 558.50
  Q 621.59 561.90 620.05 565.88"
/>
<path stroke="#a4ccd2" vector-effect="non-scaling-stroke" d="
  M 696.77 669.78
  A 1.31 1.30 -79.5 0 1 698.01 668.92
  Q 723.99 669.08 760.04 669.06
  Q 769.68 669.06 772.82 667.83
  C 779.50 665.21 784.51 658.64 784.41 651.22
  C 784.31 643.05 778.79 636.74 771.18 634.47
  Q 768.16 633.57 757.11 633.78
  Q 753.39 633.85 737.85 633.93
  A 0.97 0.97 0.0 0 1 736.90 633.14
  Q 735.03 622.76 727.76 614.47
  Q 712.64 597.24 689.57 600.25
  C 671.83 602.57 660.78 613.21 654.55 629.55
  A 1.47 1.45 2.3 0 1 653.57 630.44
  C 645.35 632.64 638.37 635.86 633.47 643.14
  Q 625.41 655.12 628.83 669.36
  C 630.72 677.24 635.60 684.28 642.24 688.49
  C 663.09 701.71 688.29 692.65 696.77 669.78"
/>
<path stroke="#6eb5cb" vector-effect="non-scaling-stroke" d="
  M 1024.00 9.25
  L 1024.00 16.86"
/>
<path stroke="#6eb5cb" vector-effect="non-scaling-stroke" d="
  M 1024.00 18.25
  L 1024.00 19.88"
/>
<path stroke="#6eb5cb" vector-effect="non-scaling-stroke" d="
  M 1024.00 32.75
  L 1024.00 33.88"
/>
<path stroke="#6eb5cb" vector-effect="non-scaling-stroke" d="
  M 1024.00 51.25
  L 1024.00 52.88"
/>
<path stroke="#6eb5cb" vector-effect="non-scaling-stroke" d="
  M 1024.00 67.25
  L 1024.00 68.88"
/>
<path stroke="#6eb5cb" vector-effect="non-scaling-stroke" d="
  M 1024.00 70.50
  L 1024.00 71.88"
/>
<path stroke="#6eb5cb" vector-effect="non-scaling-stroke" d="
  M 1024.00 290.25
  L 1024.00 292.88"
/>
<path stroke="#6eb5cb" vector-effect="non-scaling-stroke" d="
  M 1024.00 307.25
  L 1024.00 308.88"
/>
<path stroke="#6eb5cb" vector-effect="non-scaling-stroke" d="
  M 1024.00 370.75
  L 1024.00 373.38"
/>
<path stroke="#6eb5cb" vector-effect="non-scaling-stroke" d="
  M 1024.00 463.75
  L 1024.00 465.63"
/>
<path stroke="#6eb5cb" vector-effect="non-scaling-stroke" d="
  M 1024.00 527.75
  L 1024.00 529.88"
/>
<path stroke="#6eb5cb" vector-effect="non-scaling-stroke" d="
  M 1024.00 544.25
  Q 1023.89 544.83 1024.00 545.38"
/>
<path stroke="#6eb5cb" vector-effect="non-scaling-stroke" d="
  M 1024.00 550.75
  L 1024.00 552.88"
/>
<path stroke="#6eb5cb" vector-effect="non-scaling-stroke" d="
  M 1024.00 606.75
  L 1024.00 609.38"
/>
<path stroke="#6eb5cb" vector-effect="non-scaling-stroke" d="
  M 1024.00 610.25
  L 1024.00 611.88"
/>
<path stroke="#6eb5cb" vector-effect="non-scaling-stroke" d="
  M 1024.00 691.75
  L 1024.00 693.38"
/>
<path stroke="#6eb5cb" vector-effect="non-scaling-stroke" d="
  M 1024.00 694.25
  L 1024.00 695.88"
/>
<path stroke="#6eb5cb" vector-effect="non-scaling-stroke" d="
  M 1024.00 698.25
  L 1024.00 701.88"
/>
<path stroke="#6eb5cb" vector-effect="non-scaling-stroke" d="
  M 1024.00 702.25
  Q 1023.88 702.83 1024.00 703.38"
/>
<path stroke="#6eb5cb" vector-effect="non-scaling-stroke" d="
  M 1024.00 892.26
  L 1024.00 896.36"
/>
<path stroke="#6eb5cb" vector-effect="non-scaling-stroke" d="
  M 1024.00 900.25
  Q 1023.87 901.06 1024.00 901.88"
/>
<path stroke="#6eb5cb" vector-effect="non-scaling-stroke" d="
  M 1024.00 902.25
  Q 1023.87 902.83 1024.00 903.38"
/>
<path stroke="#6eb5cb" vector-effect="non-scaling-stroke" d="
  M 1024.00 922.25
  L 1024.00 925.88"
/>
<path stroke="#6eb5cb" vector-effect="non-scaling-stroke" d="
  M 1024.00 926.25
  L 1024.00 928.38"
/>
<path stroke="#6eb5cb" vector-effect="non-scaling-stroke" d="
  M 1024.00 930.27
  L 1024.00 945.86"
/>
<path stroke="#6eb5cb" vector-effect="non-scaling-stroke" d="
  M 1024.00 946.25
  L 1024.00 949.88"
/>
<path stroke="#6eb5cb" vector-effect="non-scaling-stroke" d="
  M 1024.00 966.25
  Q 1023.89 966.83 1024.00 967.38"
/>
<path stroke="#6eb5cb" vector-effect="non-scaling-stroke" d="
  M 1024.00 979.75
  L 1024.00 981.38"
/>
<path stroke="#6eb5cb" vector-effect="non-scaling-stroke" d="
  M 1024.00 1006.27
  L 1024.00 1013.37"
/>
<path stroke="#6eb5cb" vector-effect="non-scaling-stroke" d="
  M 1024.00 1014.75
  Q 1023.82 1015.38 1024.00 1015.89"
/>
<path stroke="#6eb5cb" vector-effect="non-scaling-stroke" d="
  M 1024.00 1016.26
  L 1023.75 1024.00"
/>
<path stroke="#c9e3e1" vector-effect="non-scaling-stroke" d="
  M 487.97 290.51
  C 488.89 291.18 490.78 291.55 492.15 292.36
  Q 500.83 297.50 515.74 305.91
  C 522.74 309.85 537.73 313.61 542.96 305.24
  Q 546.40 299.76 545.33 292.00
  Q 545.01 289.67 543.62 288.70
  C 539.27 285.66 531.84 285.43 526.51 285.48
  Q 513.57 285.58 504.02 286.72
  C 498.62 287.36 492.65 288.84 488.09 289.93
  A 0.33 0.33 0.0 0 0 487.97 290.51"
/>
<path stroke="#a4ccd2" vector-effect="non-scaling-stroke" d="
  M 555.83 342.14
  C 560.18 343.98 563.59 342.29 567.59 341.51
  A 1.05 1.05 0.0 0 1 568.83 342.39
  C 569.77 348.74 573.08 353.60 580.02 354.29
  Q 587.14 355.00 592.84 350.81
  Q 598.45 346.69 600.16 345.71
  C 604.09 343.46 609.22 343.13 612.21 346.74
  Q 613.46 348.26 613.79 348.53
  A 0.28 0.28 0.0 0 0 614.24 348.32
  Q 614.49 338.58 611.35 330.16
  C 607.18 318.96 594.61 313.30 583.85 320.50
  Q 580.12 322.99 577.96 325.22
  Q 568.18 335.32 567.13 336.40
  Q 562.56 341.13 555.90 341.73
  A 0.22 0.21 -35.6 0 0 555.83 342.14"
/>
<path stroke="#a4ccd2" vector-effect="non-scaling-stroke" d="
  M 663.11 354.21
  L 663.72 357.21
  A 0.92 0.92 0.0 0 0 664.80 357.93
  L 665.06 357.88
  A 4.84 2.36 -11.5 0 0 669.33 354.60
  L 669.29 354.42
  A 4.84 2.36 -11.5 0 0 664.08 353.07
  L 663.82 353.13
  A 0.92 0.92 0.0 0 0 663.11 354.21"
/>
<path stroke="#a4ccd2" vector-effect="non-scaling-stroke" d="
  M 586.7269 337.9076
  A 5.01 4.07 -9.1 0 0 581.1363 334.6812
  A 5.01 4.07 -9.1 0 0 576.8331 339.4924
  A 5.01 4.07 -9.1 0 0 582.4237 342.7188
  A 5.01 4.07 -9.1 0 0 586.7269 337.9076"
/>
</g>
<path fill="#489ebb" d="
  M 1024.00 0.00
  L 1024.00 8.38
  L 1023.76 0.89
  A 0.02 0.02 0.0 0 0 1023.74 0.87
  L 1023.48 0.87
  A 0.26 0.25 -90.0 0 0 1023.23 1.13
  L 1023.28 1024.00
  L 0.00 1024.00
  L 0.00 0.00
  L 1024.00 0.00
  Z
  M 419.34 621.85
  Q 409.62 635.40 409.07 650.00
  Q 408.44 666.67 413.57 684.18
  Q 418.88 702.29 428.07 718.20
  Q 429.92 721.41 431.32 723.04
  A 3.27 3.27 0.0 0 0 433.81 724.19
  L 444.53 724.19
  A 1.07 1.07 0.0 0 0 445.41 722.50
  Q 440.13 715.01 436.99 706.29
  C 433.10 695.49 433.96 683.66 437.53 672.80
  Q 440.33 664.28 443.27 656.87
  Q 446.14 649.62 447.81 644.40
  Q 451.47 632.93 451.76 631.73
  Q 454.97 618.18 454.51 598.76
  C 480.71 611.23 513.41 610.32 540.47 601.49
  A 0.89 0.89 0.0 0 1 541.64 602.36
  Q 541.09 626.32 544.67 650.27
  Q 549.06 679.59 556.49 706.78
  C 558.03 712.42 559.51 716.35 561.69 722.98
  A 1.29 1.28 80.9 0 0 562.91 723.87
  L 571.88 723.87
  A 0.67 0.67 0.0 0 0 572.55 723.19
  Q 572.00 677.28 581.39 631.57
  Q 585.91 609.55 590.70 591.28
  A 6.68 6.67 76.5 0 1 592.73 587.96
  C 600.40 581.15 607.74 573.77 613.81 564.73
  Q 618.92 557.13 621.85 551.86
  C 633.86 530.33 637.15 506.91 633.72 483.02
  C 629.81 455.75 614.50 433.46 593.70 415.08
  Q 587.98 410.03 585.62 407.24
  C 578.16 398.41 572.13 390.01 567.06 379.46
  Q 566.79 378.88 567.40 378.54
  Q 567.46 378.50 567.68 378.53
  A 0.22 0.21 -28.2 0 1 567.79 378.56
  Q 576.46 383.41 586.57 383.89
  Q 611.89 385.09 636.50 381.77
  C 647.55 380.28 658.26 376.81 666.36 368.86
  Q 677.22 358.21 676.86 342.73
  A 0.87 0.86 85.3 0 0 675.88 341.89
  Q 659.65 344.13 646.21 334.73
  C 638.01 328.99 633.14 319.35 631.33 309.95
  Q 629.66 301.30 627.53 295.22
  C 622.34 280.36 609.23 268.23 594.63 262.09
  A 0.47 0.47 0.0 0 1 594.50 261.30
  Q 610.13 247.31 614.18 226.80
  Q 616.44 215.31 612.65 204.18
  Q 609.69 195.47 602.60 190.08
  A 0.44 0.44 0.0 0 0 601.91 190.58
  Q 603.45 194.88 604.80 201.19
  C 608.05 216.32 602.47 233.13 592.67 245.01
  A 1.55 1.55 0.0 0 1 590.28 245.01
  Q 587.57 241.71 586.07 238.72
  C 579.58 225.73 574.35 212.05 559.88 205.80
  A 0.65 0.64 -68.0 0 0 559.02 206.17
  Q 558.95 206.38 559.07 206.74
  Q 560.53 210.98 561.10 216.13
  Q 562.60 229.70 564.39 236.87
  C 565.84 242.66 568.36 249.53 572.74 253.48
  A 0.41 0.41 0.0 0 1 572.38 254.19
  C 565.86 252.78 558.38 243.90 555.00 238.13
  Q 545.86 222.53 538.84 212.52
  Q 524.17 191.60 498.04 193.75
  A 0.12 0.12 0.0 0 0 497.97 193.96
  Q 507.51 201.58 513.56 212.95
  C 520.79 226.55 527.19 244.04 531.47 254.28
  Q 534.30 261.05 538.26 266.35
  A 0.37 0.37 0.0 0 1 538.00 266.94
  C 524.63 268.26 509.72 269.71 497.97 265.80
  C 478.71 259.39 467.25 241.08 461.99 222.33
  A 0.16 0.15 -48.2 0 0 461.69 222.35
  Q 459.61 234.86 461.90 247.34
  Q 465.34 266.11 478.56 279.13
  A 0.26 0.26 0.0 0 1 478.39 279.58
  C 474.29 279.77 470.85 280.25 466.52 279.76
  C 421.80 274.74 394.80 237.10 395.72 193.57
  A 0.46 0.46 0.0 0 0 394.85 193.34
  C 382.55 215.82 384.46 243.33 395.37 266.19
  Q 403.83 283.91 416.85 294.30
  Q 430.96 305.58 449.06 308.93
  Q 468.20 312.48 489.14 309.09
  A 3.57 3.56 65.1 0 1 492.44 310.30
  Q 500.30 319.50 510.71 325.03
  A 1.03 1.03 0.0 0 1 511.17 326.36
  C 504.04 342.51 504.09 360.33 509.45 377.06
  Q 512.98 388.09 516.71 394.93
  Q 520.40 401.72 529.74 416.58
  Q 535.55 425.81 542.68 442.27
  C 553.72 467.74 553.59 501.26 529.02 519.34
  Q 517.47 527.83 504.61 528.68
  Q 490.51 529.62 478.26 519.51
  C 471.79 514.16 464.46 507.75 455.53 503.92
  Q 441.27 497.81 426.37 503.34
  C 414.90 507.59 409.20 512.99 396.96 522.44
  Q 394.10 524.65 390.42 526.29
  A 4.00 3.94 34.3 0 1 388.55 526.63
  C 365.57 525.15 347.56 509.42 341.43 487.60
  Q 340.03 482.63 339.90 478.33
  Q 339.73 472.56 339.97 468.89
  C 341.27 449.42 354.28 432.09 371.31 423.00
  C 385.88 415.23 403.64 413.99 419.74 417.78
  A 0.17 0.17 0.0 0 0 419.89 417.48
  Q 396.97 398.30 367.08 398.54
  Q 334.25 398.79 309.64 421.16
  Q 289.57 439.42 284.82 466.78
  A 0.25 0.24 -50.8 0 1 284.35 466.83
  C 279.06 452.55 276.38 438.25 277.25 423.42
  Q 279.09 391.96 301.06 367.79
  Q 311.60 356.22 324.16 348.67
  Q 327.57 346.62 331.47 344.07
  A 0.29 0.29 0.0 0 0 331.27 343.54
  Q 308.80 346.82 287.78 357.27
  C 263.13 369.53 242.02 391.16 230.21 415.68
  Q 224.76 426.99 221.46 437.45
  C 212.15 466.97 214.70 499.56 229.95 526.50
  Q 246.35 555.46 276.82 570.66
  C 302.05 583.25 333.75 584.17 359.60 572.85
  Q 373.99 566.56 385.32 555.32
  Q 387.58 553.09 389.24 550.37
  A 0.32 0.31 68.4 0 1 389.81 550.62
  Q 383.14 575.39 371.46 598.46
  Q 363.76 613.66 359.59 622.32
  Q 355.13 631.59 349.74 647.25
  Q 346.82 655.73 344.25 671.28
  C 341.36 688.80 340.14 706.25 342.18 723.18
  A 0.77 0.76 86.6 0 0 342.94 723.86
  L 353.97 723.86
  A 0.59 0.59 0.0 0 0 354.56 723.30
  C 355.11 712.53 356.08 702.88 359.12 692.95
  Q 364.58 675.10 373.26 660.97
  Q 377.23 654.50 381.17 650.66
  Q 391.31 640.76 404.56 631.83
  Q 411.30 627.29 419.34 621.85
  Z
  M 730.90 517.93
  A 0.76 0.75 -82.5 0 1 731.63 517.36
  Q 735.43 517.35 791.48 517.27
  Q 803.42 517.26 810.06 508.10
  C 814.24 502.32 814.51 494.31 811.34 488.29
  C 806.39 478.88 797.80 476.29 787.75 476.31
  Q 770.03 476.36 769.69 476.37
  A 1.13 1.12 -8.9 0 1 768.57 475.56
  C 763.41 457.95 749.69 445.62 731.44 444.20
  Q 718.22 443.16 706.78 450.01
  Q 690.75 459.62 686.75 477.83
  A 1.21 1.20 -2.6 0 1 685.93 478.72
  C 651.41 489.39 658.25 538.85 692.80 542.63
  Q 713.87 544.94 726.28 527.93
  Q 729.39 523.68 730.90 517.93
  Z
  M 620.05 565.88
  Q 619.55 567.19 618.71 567.99
  A 2.12 2.09 -8.6 0 0 618.26 568.59
  Q 616.86 571.40 615.79 574.37
  C 613.64 580.39 609.17 588.24 607.79 591.40
  C 604.09 599.89 597.97 608.96 593.72 615.49
  Q 593.46 615.89 593.01 616.25
  A 1.67 1.60 82.0 0 0 592.50 616.96
  Q 590.24 622.95 589.37 627.14
  Q 585.42 645.96 581.50 671.22
  Q 580.50 677.64 580.45 678.57
  Q 580.20 683.73 579.84 685.97
  Q 579.21 689.85 579.02 697.04
  Q 578.73 708.06 578.16 717.00
  Q 577.97 719.87 578.08 722.89
  A 1.25 1.24 -0.9 0 0 579.33 724.09
  L 592.53 724.09
  A 1.27 1.27 0.0 0 0 593.78 723.05
  Q 596.47 707.89 602.38 690.82
  Q 611.18 665.43 615.14 652.15
  Q 622.32 628.04 624.31 612.53
  Q 627.78 585.45 625.03 558.76
  A 0.53 0.53 0.0 0 0 624.07 558.50
  Q 621.59 561.90 620.05 565.88
  Z
  M 696.77 669.78
  A 1.31 1.30 -79.5 0 1 698.01 668.92
  Q 723.99 669.08 760.04 669.06
  Q 769.68 669.06 772.82 667.83
  C 779.50 665.21 784.51 658.64 784.41 651.22
  C 784.31 643.05 778.79 636.74 771.18 634.47
  Q 768.16 633.57 757.11 633.78
  Q 753.39 633.85 737.85 633.93
  A 0.97 0.97 0.0 0 1 736.90 633.14
  Q 735.03 622.76 727.76 614.47
  Q 712.64 597.24 689.57 600.25
  C 671.83 602.57 660.78 613.21 654.55 629.55
  A 1.47 1.45 2.3 0 1 653.57 630.44
  C 645.35 632.64 638.37 635.86 633.47 643.14
  Q 625.41 655.12 628.83 669.36
  C 630.72 677.24 635.60 684.28 642.24 688.49
  C 663.09 701.71 688.29 692.65 696.77 669.78
  Z"
/>
<path fill="#93ccda" d="
  M 1024.00 8.38
  L 1024.00 9.25
  L 1024.00 16.86
  L 1024.00 18.25
  L 1024.00 19.88
  L 1024.00 32.75
  L 1024.00 33.88
  L 1024.00 51.25
  L 1024.00 52.88
  L 1024.00 67.25
  L 1024.00 68.88
  L 1024.00 70.50
  L 1024.00 71.88
  L 1024.00 290.25
  L 1024.00 292.88
  L 1024.00 307.25
  L 1024.00 308.88
  L 1024.00 370.75
  L 1024.00 373.38
  L 1024.00 463.75
  L 1024.00 465.63
  L 1024.00 527.75
  L 1024.00 529.88
  L 1024.00 544.25
  Q 1023.89 544.83 1024.00 545.38
  L 1024.00 550.75
  L 1024.00 552.88
  L 1024.00 606.75
  L 1024.00 609.38
  L 1024.00 610.25
  L 1024.00 611.88
  L 1024.00 691.75
  L 1024.00 693.38
  L 1024.00 694.25
  L 1024.00 695.88
  L 1024.00 698.25
  L 1024.00 701.88
  Q 1024.00 702.06 1024.00 702.25
  Q 1023.88 702.83 1024.00 703.38
  L 1024.00 892.26
  L 1024.00 896.36
  L 1024.00 900.25
  Q 1023.87 901.06 1024.00 901.88
  Q 1024.00 902.06 1024.00 902.25
  Q 1023.87 902.83 1024.00 903.38
  L 1024.00 922.25
  L 1024.00 925.88
  Q 1024.00 926.06 1024.00 926.25
  L 1024.00 928.38
  L 1024.00 930.27
  L 1024.00 945.86
  Q 1023.98 946.05 1024.00 946.25
  L 1024.00 949.88
  L 1024.00 966.25
  Q 1023.89 966.83 1024.00 967.38
  L 1024.00 979.75
  L 1024.00 981.38
  L 1024.00 1006.27
  L 1024.00 1013.37
  L 1024.00 1014.75
  Q 1023.82 1015.38 1024.00 1015.89
  Q 1023.99 1016.07 1024.00 1016.26
  L 1023.75 1024.00
  L 1023.28 1024.00
  L 1023.23 1.13
  A 0.26 0.25 -90.0 0 1 1023.48 0.87
  L 1023.74 0.87
  A 0.02 0.02 0.0 0 1 1023.76 0.89
  L 1024.00 8.38
  Z"
/>
<path fill="#489ebb" d="
  M 1024.00 9.25
  L 1024.00 16.86
  L 1024.00 9.25
  Z"
/>
<path fill="#489ebb" d="
  M 1024.00 18.25
  L 1024.00 19.88
  L 1024.00 18.25
  Z"
/>
<path fill="#489ebb" d="
  M 1024.00 32.75
  L 1024.00 33.88
  L 1024.00 32.75
  Z"
/>
<path fill="#489ebb" d="
  M 1024.00 51.25
  L 1024.00 52.88
  L 1024.00 51.25
  Z"
/>
<path fill="#489ebb" d="
  M 1024.00 67.25
  L 1024.00 68.88
  L 1024.00 67.25
  Z"
/>
<path fill="#489ebb" d="
  M 1024.00 70.50
  L 1024.00 71.88
  L 1024.00 70.50
  Z"
/>
<path fill="#fff9e8" d="
  M 454.51 598.76
  L 444.03 593.03
  A 0.84 0.83 30.6 0 0 442.92 593.31
  C 437.42 601.86 431.48 609.59 424.09 616.42
  Q 421.11 619.18 419.34 621.85
  Q 411.30 627.29 404.56 631.83
  Q 391.31 640.76 381.17 650.66
  Q 377.23 654.50 373.26 660.97
  Q 364.58 675.10 359.12 692.95
  C 356.08 702.88 355.11 712.53 354.56 723.30
  A 0.59 0.59 0.0 0 1 353.97 723.86
  L 342.94 723.86
  A 0.77 0.76 86.6 0 1 342.18 723.18
  C 340.14 706.25 341.36 688.80 344.25 671.28
  Q 346.82 655.73 349.74 647.25
  Q 355.13 631.59 359.59 622.32
  Q 363.76 613.66 371.46 598.46
  Q 383.14 575.39 389.81 550.62
  A 0.32 0.31 68.4 0 0 389.24 550.37
  Q 387.58 553.09 385.32 555.32
  Q 373.99 566.56 359.60 572.85
  C 333.75 584.17 302.05 583.25 276.82 570.66
  Q 246.35 555.46 229.95 526.50
  C 214.70 499.56 212.15 466.97 221.46 437.45
  Q 224.76 426.99 230.21 415.68
  C 242.02 391.16 263.13 369.53 287.78 357.27
  Q 308.80 346.82 331.27 343.54
  A 0.29 0.29 0.0 0 1 331.47 344.07
  Q 327.57 346.62 324.16 348.67
  Q 311.60 356.22 301.06 367.79
  Q 279.09 391.96 277.25 423.42
  C 276.38 438.25 279.06 452.55 284.35 466.83
  A 0.25 0.24 -50.8 0 0 284.82 466.78
  Q 289.57 439.42 309.64 421.16
  Q 334.25 398.79 367.08 398.54
  Q 396.97 398.30 419.89 417.48
  A 0.17 0.17 0.0 0 1 419.74 417.78
  C 403.64 413.99 385.88 415.23 371.31 423.00
  C 354.28 432.09 341.27 449.42 339.97 468.89
  Q 339.73 472.56 339.90 478.33
  Q 340.03 482.63 341.43 487.60
  C 347.56 509.42 365.57 525.15 388.55 526.63
  A 4.00 3.94 34.3 0 0 390.42 526.29
  Q 394.10 524.65 396.96 522.44
  C 409.20 512.99 414.90 507.59 426.37 503.34
  Q 441.27 497.81 455.53 503.92
  C 464.46 507.75 471.79 514.16 478.26 519.51
  Q 490.51 529.62 504.61 528.68
  Q 517.47 527.83 529.02 519.34
  C 553.59 501.26 553.72 467.74 542.68 442.27
  Q 535.55 425.81 529.74 416.58
  Q 520.40 401.72 516.71 394.93
  Q 512.98 388.09 509.45 377.06
  C 504.09 360.33 504.04 342.51 511.17 326.36
  A 1.03 1.03 0.0 0 0 510.71 325.03
  Q 500.30 319.50 492.44 310.30
  A 3.57 3.56 65.1 0 0 489.14 309.09
  Q 468.20 312.48 449.06 308.93
  Q 430.96 305.58 416.85 294.30
  Q 403.83 283.91 395.37 266.19
  C 384.46 243.33 382.55 215.82 394.85 193.34
  A 0.46 0.46 0.0 0 1 395.72 193.57
  C 394.80 237.10 421.80 274.74 466.52 279.76
  C 470.85 280.25 474.29 279.77 478.39 279.58
  A 0.26 0.26 0.0 0 0 478.56 279.13
  Q 465.34 266.11 461.90 247.34
  Q 459.61 234.86 461.69 222.35
  A 0.16 0.15 -48.2 0 1 461.99 222.33
  C 467.25 241.08 478.71 259.39 497.97 265.80
  C 509.72 269.71 524.63 268.26 538.00 266.94
  A 0.37 0.37 0.0 0 0 538.26 266.35
  Q 534.30 261.05 531.47 254.28
  C 527.19 244.04 520.79 226.55 513.56 212.95
  Q 507.51 201.58 497.97 193.96
  A 0.12 0.12 0.0 0 1 498.04 193.75
  Q 524.17 191.60 538.84 212.52
  Q 545.86 222.53 555.00 238.13
  C 558.38 243.90 565.86 252.78 572.38 254.19
  A 0.41 0.41 0.0 0 0 572.74 253.48
  C 568.36 249.53 565.84 242.66 564.39 236.87
  Q 562.60 229.70 561.10 216.13
  Q 560.53 210.98 559.07 206.74
  Q 558.95 206.38 559.02 206.17
  A 0.65 0.64 -68.0 0 1 559.88 205.80
  C 574.35 212.05 579.58 225.73 586.07 238.72
  Q 587.57 241.71 590.28 245.01
  A 1.55 1.55 0.0 0 0 592.67 245.01
  C 602.47 233.13 608.05 216.32 604.80 201.19
  Q 603.45 194.88 601.91 190.58
  A 0.44 0.44 0.0 0 1 602.60 190.08
  Q 609.69 195.47 612.65 204.18
  Q 616.44 215.31 614.18 226.80
  Q 610.13 247.31 594.50 261.30
  A 0.47 0.47 0.0 0 0 594.63 262.09
  C 609.23 268.23 622.34 280.36 627.53 295.22
  Q 629.66 301.30 631.33 309.95
  C 633.14 319.35 638.01 328.99 646.21 334.73
  Q 659.65 344.13 675.88 341.89
  A 0.87 0.86 85.3 0 1 676.86 342.73
  Q 677.22 358.21 666.36 368.86
  C 658.26 376.81 647.55 380.28 636.50 381.77
  Q 611.89 385.09 586.57 383.89
  Q 576.46 383.41 567.79 378.56
  A 0.22 0.21 -28.2 0 0 567.68 378.53
  Q 567.46 378.50 567.40 378.54
  Q 566.79 378.88 567.06 379.46
  C 572.13 390.01 578.16 398.41 585.62 407.24
  Q 587.98 410.03 593.70 415.08
  C 614.50 433.46 629.81 455.75 633.72 483.02
  C 637.15 506.91 633.86 530.33 621.85 551.86
  Q 618.92 557.13 613.81 564.73
  C 607.74 573.77 600.40 581.15 592.73 587.96
  A 6.68 6.67 76.5 0 0 590.70 591.28
  Q 585.91 609.55 581.39 631.57
  Q 572.00 677.28 572.55 723.19
  A 0.67 0.67 0.0 0 1 571.88 723.87
  L 562.91 723.87
  A 1.29 1.28 80.9 0 1 561.69 722.98
  C 559.51 716.35 558.03 712.42 556.49 706.78
  Q 549.06 679.59 544.67 650.27
  Q 541.09 626.32 541.64 602.36
  A 0.89 0.89 0.0 0 0 540.47 601.49
  C 513.41 610.32 480.71 611.23 454.51 598.76
  Z
  M 487.97 290.51
  C 488.89 291.18 490.78 291.55 492.15 292.36
  Q 500.83 297.50 515.74 305.91
  C 522.74 309.85 537.73 313.61 542.96 305.24
  Q 546.40 299.76 545.33 292.00
  Q 545.01 289.67 543.62 288.70
  C 539.27 285.66 531.84 285.43 526.51 285.48
  Q 513.57 285.58 504.02 286.72
  C 498.62 287.36 492.65 288.84 488.09 289.93
  A 0.33 0.33 0.0 0 0 487.97 290.51
  Z
  M 555.83 342.14
  C 560.18 343.98 563.59 342.29 567.59 341.51
  A 1.05 1.05 0.0 0 1 568.83 342.39
  C 569.77 348.74 573.08 353.60 580.02 354.29
  Q 587.14 355.00 592.84 350.81
  Q 598.45 346.69 600.16 345.71
  C 604.09 343.46 609.22 343.13 612.21 346.74
  Q 613.46 348.26 613.79 348.53
  A 0.28 0.28 0.0 0 0 614.24 348.32
  Q 614.49 338.58 611.35 330.16
  C 607.18 318.96 594.61 313.30 583.85 320.50
  Q 580.12 322.99 577.96 325.22
  Q 568.18 335.32 567.13 336.40
  Q 562.56 341.13 555.90 341.73
  A 0.22 0.21 -35.6 0 0 555.83 342.14
  Z
  M 663.11 354.21
  L 663.72 357.21
  A 0.92 0.92 0.0 0 0 664.80 357.93
  L 665.06 357.88
  A 4.84 2.36 -11.5 0 0 669.33 354.60
  L 669.29 354.42
  A 4.84 2.36 -11.5 0 0 664.08 353.07
  L 663.82 353.13
  A 0.92 0.92 0.0 0 0 663.11 354.21
  Z"
/>
<path fill="#93ccda" d="
  M 487.97 290.51
  A 0.33 0.33 0.0 0 1 488.09 289.93
  C 492.65 288.84 498.62 287.36 504.02 286.72
  Q 513.57 285.58 526.51 285.48
  C 531.84 285.43 539.27 285.66 543.62 288.70
  Q 545.01 289.67 545.33 292.00
  Q 546.40 299.76 542.96 305.24
  C 537.73 313.61 522.74 309.85 515.74 305.91
  Q 500.83 297.50 492.15 292.36
  C 490.78 291.55 488.89 291.18 487.97 290.51
  Z"
/>
<path fill="#489ebb" d="
  M 1024.00 290.25
  L 1024.00 292.88
  L 1024.00 290.25
  Z"
/>
<path fill="#489ebb" d="
  M 1024.00 307.25
  L 1024.00 308.88
  L 1024.00 307.25
  Z"
/>
<path fill="#489ebb" d="
  M 555.90 341.73
  Q 562.56 341.13 567.13 336.40
  Q 568.18 335.32 577.96 325.22
  Q 580.12 322.99 583.85 320.50
  C 594.61 313.30 607.18 318.96 611.35 330.16
  Q 614.49 338.58 614.24 348.32
  A 0.28 0.28 0.0 0 1 613.79 348.53
  Q 613.46 348.26 612.21 346.74
  C 609.22 343.13 604.09 343.46 600.16 345.71
  Q 598.45 346.69 592.84 350.81
  Q 587.14 355.00 580.02 354.29
  C 573.08 353.60 569.77 348.74 568.83 342.39
  A 1.05 1.05 0.0 0 0 567.59 341.51
  C 563.59 342.29 560.18 343.98 555.83 342.14
  A 0.22 0.21 -35.6 0 1 555.90 341.73
  Z
  M 586.7269 337.9076
  A 5.01 4.07 -9.1 0 0 581.1363 334.6812
  A 5.01 4.07 -9.1 0 0 576.8331 339.4924
  A 5.01 4.07 -9.1 0 0 582.4237 342.7188
  A 5.01 4.07 -9.1 0 0 586.7269 337.9076
  Z"
/>
<ellipse fill="#fff9e8" cx="0.00" cy="0.00" transform="translate(581.78,338.70) rotate(-9.1)" rx="5.01" ry="4.07"/>
<path fill="#489ebb" d="
  M 663.11 354.21
  A 0.92 0.92 0.0 0 1 663.82 353.13
  L 664.08 353.07
  A 4.84 2.36 -11.5 0 1 669.29 354.42
  L 669.33 354.60
  A 4.84 2.36 -11.5 0 1 665.06 357.88
  L 664.80 357.93
  A 0.92 0.92 0.0 0 1 663.72 357.21
  L 663.11 354.21
  Z"
/>
<path fill="#489ebb" d="
  M 1024.00 370.75
  L 1024.00 373.38
  L 1024.00 370.75
  Z"
/>
<path fill="#fff9e8" d="
  M 730.90 517.93
  Q 729.39 523.68 726.28 527.93
  Q 713.87 544.94 692.80 542.63
  C 658.25 538.85 651.41 489.39 685.93 478.72
  A 1.21 1.20 -2.6 0 0 686.75 477.83
  Q 690.75 459.62 706.78 450.01
  Q 718.22 443.16 731.44 444.20
  C 749.69 445.62 763.41 457.95 768.57 475.56
  A 1.13 1.12 -8.9 0 0 769.69 476.37
  Q 770.03 476.36 787.75 476.31
  C 797.80 476.29 806.39 478.88 811.34 488.29
  C 814.51 494.31 814.24 502.32 810.06 508.10
  Q 803.42 517.26 791.48 517.27
  Q 735.43 517.35 731.63 517.36
  A 0.76 0.75 -82.5 0 0 730.90 517.93
  Z"
/>
<path fill="#489ebb" d="
  M 1024.00 463.75
  L 1024.00 465.63
  L 1024.00 463.75
  Z"
/>
<path fill="#489ebb" d="
  M 1024.00 527.75
  L 1024.00 529.88
  L 1024.00 527.75
  Z"
/>
<path fill="#489ebb" d="
  M 1024.00 544.25
  L 1024.00 545.38
  Q 1023.89 544.83 1024.00 544.25
  Z"
/>
<path fill="#489ebb" d="
  M 1024.00 550.75
  L 1024.00 552.88
  L 1024.00 550.75
  Z"
/>
<path fill="#93ccda" d="
  M 620.05 565.88
  Q 621.59 561.90 624.07 558.50
  A 0.53 0.53 0.0 0 1 625.03 558.76
  Q 627.78 585.45 624.31 612.53
  Q 622.32 628.04 615.14 652.15
  Q 611.18 665.43 602.38 690.82
  Q 596.47 707.89 593.78 723.05
  A 1.27 1.27 0.0 0 1 592.53 724.09
  L 579.33 724.09
  A 1.25 1.24 -0.9 0 1 578.08 722.89
  Q 577.97 719.87 578.16 717.00
  Q 578.73 708.06 579.02 697.04
  Q 579.21 689.85 579.84 685.97
  Q 580.20 683.73 580.45 678.57
  Q 580.50 677.64 581.50 671.22
  Q 585.42 645.96 589.37 627.14
  Q 590.24 622.95 592.50 616.96
  A 1.67 1.60 82.0 0 1 593.01 616.25
  Q 593.46 615.89 593.72 615.49
  C 597.97 608.96 604.09 599.89 607.79 591.40
  C 609.17 588.24 613.64 580.39 615.79 574.37
  Q 616.86 571.40 618.26 568.59
  A 2.12 2.09 -8.6 0 1 618.71 567.99
  Q 619.55 567.19 620.05 565.88
  Z"
/>
<path fill="#93ccda" d="
  M 454.51 598.76
  Q 454.97 618.18 451.76 631.73
  Q 451.47 632.93 447.81 644.40
  Q 446.14 649.62 443.27 656.87
  Q 440.33 664.28 437.53 672.80
  C 433.96 683.66 433.10 695.49 436.99 706.29
  Q 440.13 715.01 445.41 722.50
  A 1.07 1.07 0.0 0 1 444.53 724.19
  L 433.81 724.19
  A 3.27 3.27 0.0 0 1 431.32 723.04
  Q 429.92 721.41 428.07 718.20
  Q 418.88 702.29 413.57 684.18
  Q 408.44 666.67 409.07 650.00
  Q 409.62 635.40 419.34 621.85
  Q 421.11 619.18 424.09 616.42
  C 431.48 609.59 437.42 601.86 442.92 593.31
  A 0.84 0.83 30.6 0 1 444.03 593.03
  L 454.51 598.76
  Z"
/>
<path fill="#fff9e8" d="
  M 696.77 669.78
  C 688.29 692.65 663.09 701.71 642.24 688.49
  C 635.60 684.28 630.72 677.24 628.83 669.36
  Q 625.41 655.12 633.47 643.14
  C 638.37 635.86 645.35 632.64 653.57 630.44
  A 1.47 1.45 2.3 0 0 654.55 629.55
  C 660.78 613.21 671.83 602.57 689.57 600.25
  Q 712.64 597.24 727.76 614.47
  Q 735.03 622.76 736.90 633.14
  A 0.97 0.97 0.0 0 0 737.85 633.93
  Q 753.39 633.85 757.11 633.78
  Q 768.16 633.57 771.18 634.47
  C 778.79 636.74 784.31 643.05 784.41 651.22
  C 784.51 658.64 779.50 665.21 772.82 667.83
  Q 769.68 669.06 760.04 669.06
  Q 723.99 669.08 698.01 668.92
  A 1.31 1.30 -79.5 0 0 696.77 669.78
  Z"
/>
<path fill="#489ebb" d="
  M 1024.00 606.75
  L 1024.00 609.38
  L 1024.00 606.75
  Z"
/>
<path fill="#489ebb" d="
  M 1024.00 610.25
  L 1024.00 611.88
  L 1024.00 610.25
  Z"
/>
<path fill="#489ebb" d="
  M 1024.00 691.75
  L 1024.00 693.38
  L 1024.00 691.75
  Z"
/>
<path fill="#489ebb" d="
  M 1024.00 694.25
  L 1024.00 695.88
  L 1024.00 694.25
  Z"
/>
<path fill="#489ebb" d="
  M 1024.00 698.25
  L 1024.00 701.88
  L 1024.00 698.25
  Z"
/>
<path fill="#489ebb" d="
  M 1024.00 702.25
  L 1024.00 703.38
  Q 1023.88 702.83 1024.00 702.25
  Z"
/>
<path fill="#489ebb" d="
  M 1024.00 892.26
  L 1024.00 896.36
  L 1024.00 892.26
  Z"
/>
<path fill="#489ebb" d="
  M 1024.00 900.25
  L 1024.00 901.88
  Q 1023.87 901.06 1024.00 900.25
  Z"
/>
<path fill="#489ebb" d="
  M 1024.00 902.25
  L 1024.00 903.38
  Q 1023.87 902.83 1024.00 902.25
  Z"
/>
<path fill="#489ebb" d="
  M 1024.00 922.25
  L 1024.00 925.88
  L 1024.00 922.25
  Z"
/>
<path fill="#489ebb" d="
  M 1024.00 926.25
  L 1024.00 928.38
  L 1024.00 926.25
  Z"
/>
<path fill="#489ebb" d="
  M 1024.00 930.27
  L 1024.00 945.86
  L 1024.00 930.27
  Z"
/>
<path fill="#489ebb" d="
  M 1024.00 946.25
  L 1024.00 949.88
  L 1024.00 946.25
  Z"
/>
<path fill="#489ebb" d="
  M 1024.00 966.25
  L 1024.00 967.38
  Q 1023.89 966.83 1024.00 966.25
  Z"
/>
<path fill="#489ebb" d="
  M 1024.00 979.75
  L 1024.00 981.38
  L 1024.00 979.75
  Z"
/>
<path fill="#489ebb" d="
  M 1024.00 1006.27
  L 1024.00 1013.37
  L 1024.00 1006.27
  Z"
/>
<path fill="#489ebb" d="
  M 1024.00 1014.75
  L 1024.00 1015.89
  Q 1023.82 1015.38 1024.00 1014.75
  Z"
/>
<path fill="#489ebb" d="
  M 1024.00 1016.26
  L 1024.00 1024.00
  L 1023.75 1024.00
  L 1024.00 1016.26
  Z"
/>
</svg>
