<?xml version="1.0" encoding="UTF-8" standalone="no"?>
<!DOCTYPE svg PUBLIC "-//W3C//DTD SVG 1.1//EN" "http://www.w3.org/Graphics/SVG/1.1/DTD/svg11.dtd">
<svg xmlns="http://www.w3.org/2000/svg" version="1.1" viewBox="0.00 0.00 1024.00 1024.00">
<g stroke-width="2.00" fill="none" stroke-linecap="butt">
<path stroke="#8c8e7e" vector-effect="non-scaling-stroke" d="
  M 687.36 702.43
  Q 687.35 708.52 687.32 714.50
  Q 687.31 716.85 688.30 716.03"
/>
<path stroke="#0f6974" vector-effect="non-scaling-stroke" d="
  M 621.35 928.57
  Q 619.16 928.35 617.08 929.40"
/>
<path stroke="#8c7640" vector-effect="non-scaling-stroke" d="
  M 616.76 929.50
  L 595.78 932.46"
/>
<path stroke="#8c8e7e" vector-effect="non-scaling-stroke" d="
  M 595.78 932.46
  L 576.81 932.55"
/>
<path stroke="#0f6974" vector-effect="non-scaling-stroke" d="
  M 325.08 502.48
  Q 323.43 502.12 322.04 503.06"
/>
<path stroke="#fdd680" vector-effect="non-scaling-stroke" d="
  M 598.92 932.62
  Q 597.21 932.25 595.78 932.46"
/>
<path stroke="#8c7640" vector-effect="non-scaling-stroke" d="
  M 463.20 121.90
  Q 433.35 142.46 417.47 174.26
  C 403.56 202.14 398.25 234.01 400.55 264.93
  Q 402.12 286.06 410.14 308.10
  Q 424.14 346.61 455.22 372.26
  Q 467.13 382.09 481.06 387.91
  Q 493.51 393.11 507.81 391.89"
/>
<path stroke="#8a3d39" vector-effect="non-scaling-stroke" d="
  M 507.81 391.89
  L 512.76 391.93"
/>
<path stroke="#8c5c29" vector-effect="non-scaling-stroke" d="
  M 512.76 391.93
  L 501.27 398.95"
/>
<path stroke="#8c8e7e" vector-effect="non-scaling-stroke" d="
  M 501.27 398.95
  C 490.33 402.93 479.59 405.13 468.44 400.47
  Q 465.81 399.38 463.31 398.29"
/>
<path stroke="#8c5c29" vector-effect="non-scaling-stroke" d="
  M 463.31 398.29
  Q 442.76 385.55 426.76 368.16
  A 1.29 1.28 -51.1 0 0 424.71 368.38
  Q 417.81 380.09 414.80 392.90
  Q 409.45 415.66 417.75 436.96"
/>
<path stroke="#8c8e7e" vector-effect="non-scaling-stroke" d="
  M 417.75 436.96
  L 422.09 446.86"
/>
<path stroke="#8c5c29" vector-effect="non-scaling-stroke" d="
  M 422.09 446.86
  Q 426.47 458.04 430.78 468.90
  Q 434.55 478.39 435.23 482.08
  C 437.39 493.89 435.41 505.41 427.91 514.89
  Q 418.77 526.44 404.61 526.25
  C 387.98 526.03 383.35 507.92 391.86 496.12
  A 0.23 0.22 -55.2 0 1 392.17 496.06
  L 392.18 496.07
  A 0.26 0.25 34.9 0 1 392.25 496.43
  C 389.05 501.25 387.34 509.41 391.33 514.22
  C 395.88 519.70 403.67 519.58 409.18 515.72
  Q 419.11 508.78 416.46 496.45
  Q 414.93 489.37 407.98 486.03
  C 400.70 482.53 391.71 483.40 383.79 485.56
  Q 378.84 486.91 353.29 494.42
  A 2.68 2.65 0.6 0 0 351.50 496.16
  Q 344.86 516.65 353.89 534.61
  C 361.23 549.21 376.12 560.80 392.50 561.99
  Q 422.64 564.18 439.60 539.80
  Q 444.69 532.49 448.09 522.10
  Q 452.20 509.57 453.01 498.56
  C 453.16 496.56 452.89 494.74 453.17 493.33
  A 0.52 0.51 42.0 0 1 454.17 493.28
  Q 456.59 501.17 458.50 509.17
  C 462.14 524.47 461.22 543.08 454.14 557.52
  A 2.80 2.79 -50.2 0 0 454.40 560.40
  Q 463.07 572.27 471.86 585.59
  Q 475.09 590.49 478.10 595.84
  C 487.16 611.94 495.87 629.82 497.69 648.31
  C 500.31 674.96 494.75 701.07 480.42 723.77
  C 471.74 737.54 458.48 750.18 443.66 757.10
  A 0.76 0.75 71.9 0 0 443.24 757.94
  Q 446.21 772.48 444.78 787.03
  C 442.09 814.55 418.71 840.34 389.04 829.98
  Q 386.27 829.01 380.54 825.53"
/>
<path stroke="#8a3d39" vector-effect="non-scaling-stroke" d="
  M 380.54 825.53
  Q 370.14 817.90 367.16 806.25"
/>
<path stroke="#8c7640" vector-effect="non-scaling-stroke" d="
  M 367.16 806.25
  Q 370.51 813.04 375.50 816.00
  C 385.02 821.67 399.13 819.63 407.33 812.34
  Q 418.59 802.34 420.29 786.97
  Q 423.33 759.39 407.29 737.37
  Q 394.32 719.57 373.32 710.66
  Q 362.21 705.94 351.96 706.36
  Q 328.01 707.35 310.98 725.27
  C 307.23 729.22 303.05 733.86 299.27 738.79
  C 293.37 746.50 290.62 750.56 285.32 755.87
  Q 281.44 759.76 273.55 768.29
  Q 271.88 770.10 272.42 772.18"
/>
<path stroke="#8a3d39" vector-effect="non-scaling-stroke" d="
  M 272.42 772.18
  Q 278.18 805.51 299.59 834.95
  Q 315.12 856.31 333.98 870.97"
/>
<path stroke="#8c7640" vector-effect="non-scaling-stroke" d="
  M 333.98 870.97
  L 341.74 876.87"
/>
<path stroke="#8a3d39" vector-effect="non-scaling-stroke" d="
  M 341.74 876.87
  Q 367.42 894.44 398.11 905.00"
/>
<path stroke="#8c5c29" vector-effect="non-scaling-stroke" d="
  M 398.11 905.00
  L 413.58 910.28"
/>
<path stroke="#8c8e7e" vector-effect="non-scaling-stroke" d="
  M 413.58 910.28
  Q 454.73 922.79 497.00 923.25
  Q 513.53 923.44 534.75 923.03
  Q 548.77 922.77 553.55 921.78
  C 574.41 917.49 594.34 904.04 609.37 888.78
  C 638.42 859.30 653.05 816.01 651.42 775.03
  C 650.11 742.24 640.38 710.58 624.63 681.84
  Q 613.43 661.40 603.42 648.07
  C 585.12 623.70 573.25 609.24 562.71 586.82
  C 562.14 585.62 561.71 583.90 561.16 582.56
  A 1.13 1.13 0.0 0 0 560.29 581.87
  Q 543.35 578.98 527.20 573.11"
/>
<path stroke="#8c5c29" vector-effect="non-scaling-stroke" d="
  M 527.20 573.11
  Q 497.08 561.76 473.74 540.76
  Q 469.43 536.89 463.80 530.18
  A 1.97 1.94 -71.2 0 1 463.38 529.31
  Q 462.86 526.84 463.08 524.30
  Q 464.00 513.33 464.36 505.66
  A 0.39 0.39 0.0 0 1 465.11 505.53
  Q 467.15 510.36 471.18 515.08"
/>
<path stroke="#8c8e7e" vector-effect="non-scaling-stroke" d="
  M 471.18 515.08
  Q 494.15 542.51 527.13 557.00
  Q 536.06 560.92 546.25 563.55
  C 560.45 567.22 574.23 569.52 588.87 571.45
  A 4.44 4.43 -22.7 0 1 590.98 572.31
  Q 603.94 582.13 619.10 591.07
  C 635.53 600.76 650.23 608.44 667.35 612.85
  C 684.48 617.26 704.65 616.54 719.61 606.58
  C 737.21 594.85 747.64 573.49 749.95 552.49
  Q 750.84 544.37 749.15 536.91"
/>
<path stroke="#8c5c29" vector-effect="non-scaling-stroke" d="
  M 749.15 536.91
  Q 745.11 534.25 737.28 527.71
  C 727.09 519.19 717.79 509.35 713.47 497.78
  C 709.58 487.37 709.55 476.42 710.02 464.78
  C 710.22 459.74 709.63 453.65 708.34 448.81
  A 0.32 0.32 0.0 0 0 707.76 448.71
  Q 707.41 449.21 707.37 449.39
  Q 704.21 461.50 700.40 475.43
  Q 700.22 476.12 699.95 476.23
  A 0.66 0.61 -18.0 0 1 699.07 475.82
  Q 697.32 468.04 697.00 460.86
  C 696.66 453.27 698.71 445.35 700.84 437.56
  Q 703.29 428.56 706.51 417.24
  Q 708.98 408.54 706.60 399.19
  C 703.62 387.53 698.34 377.29 692.59 367.39
  Q 691.66 365.79 691.47 362.52"
/>
<path stroke="#8a3d39" vector-effect="non-scaling-stroke" d="
  M 691.47 362.52
  Q 692.31 355.16 691.88 345.77
  Q 691.12 329.50 689.37 319.09
  Q 685.23 294.57 681.00 270.76
  Q 678.43 256.29 677.65 241.32
  Q 674.83 187.60 703.57 143.21
  C 706.40 138.83 709.23 135.50 712.11 131.97
  A 0.24 0.24 0.0 0 0 711.79 131.61
  L 701.48 138.42"
/>
<path stroke="#8c7640" vector-effect="non-scaling-stroke" d="
  M 701.48 138.42
  C 674.89 155.45 653.26 179.86 641.01 208.85
  Q 635.58 221.70 632.36 235.29
  A 1.67 1.66 32.4 0 0 632.68 236.70
  L 650.97 259.24"
/>
<path stroke="#8a3d39" vector-effect="non-scaling-stroke" d="
  M 650.97 259.24
  Q 658.84 271.16 665.08 283.49"
/>
<path stroke="#8c7640" vector-effect="non-scaling-stroke" d="
  M 665.08 283.49
  L 666.41 286.04"
/>
<path stroke="#8a3d39" vector-effect="non-scaling-stroke" d="
  M 666.41 286.04
  Q 684.07 322.49 688.60 362.78"
/>
<path stroke="#8c5c29" vector-effect="non-scaling-stroke" d="
  M 688.60 362.78
  C 691.15 386.78 691.76 411.84 688.54 435.28
  C 685.74 455.69 682.06 475.63 675.68 494.98
  A 0.50 0.50 0.0 0 1 674.84 495.17
  Q 672.18 492.32 671.03 490.97
  C 663.30 481.78 651.63 468.85 643.47 459.47
  C 632.09 446.37 620.29 435.01 607.78 422.85
  C 587.49 403.11 565.59 385.57 542.69 369.41
  A 1.48 1.48 0.0 0 0 540.62 369.78
  Q 538.21 373.23 535.49 372.99"
/>
<path stroke="#8a3d39" vector-effect="non-scaling-stroke" d="
  M 535.49 372.99
  Q 531.96 370.43 528.31 368.00
  C 517.26 360.66 507.64 350.82 498.77 340.42
  Q 470.11 306.85 457.47 265.55
  Q 451.27 245.29 449.17 229.39
  C 448.81 226.72 448.89 224.27 448.17 221.81
  A 3.83 3.65 37.3 0 1 448.04 221.00
  Q 446.99 201.05 448.30 190.00
  Q 453.40 147.13 478.31 112.29
  A 0.13 0.13 0.0 0 0 478.14 112.11
  L 463.20 121.90"
/>
<path stroke="#fc6b25" vector-effect="non-scaling-stroke" d="
  M 535.49 372.99
  Q 534.11 376.06 532.71 377.46
  Q 526.18 384.00 517.08 389.84
  Q 515.85 390.63 512.76 391.93"
/>
<path stroke="#fc853c" vector-effect="non-scaling-stroke" d="
  M 507.81 391.89
  Q 504.16 389.92 500.82 388.34
  Q 495.61 385.87 493.81 384.86
  Q 470.64 371.78 453.24 352.77
  Q 451.95 351.36 451.29 350.12
  A 1.31 1.30 60.8 0 1 451.77 348.40
  Q 468.11 338.38 482.78 325.52
  A 0.24 0.23 -33.8 0 0 482.84 325.24
  L 482.80 325.16
  A 0.27 0.26 -29.9 0 0 482.41 325.06
  Q 465.79 336.64 446.76 342.78
  A 1.83 1.75 -49.5 0 1 445.97 342.86
  Q 444.43 342.68 443.43 341.34
  Q 431.13 324.71 423.69 304.34
  Q 418.74 290.78 416.99 277.33
  A 1.55 1.54 -13.6 0 1 418.01 275.68
  C 429.64 271.53 440.66 264.88 451.04 258.78
  A 0.18 0.17 62.7 0 0 451.11 258.54
  L 451.11 258.53
  A 0.20 0.19 63.4 0 0 450.86 258.44
  Q 434.35 265.54 416.96 268.73
  A 1.22 1.22 0.0 0 1 415.53 267.71
  Q 413.09 251.40 414.38 234.50
  Q 415.57 218.85 418.86 204.22
  A 2.65 2.63 -5.7 0 1 420.38 202.38
  Q 426.23 199.81 430.34 197.84
  Q 432.59 196.76 433.29 195.71
  A 0.40 0.40 0.0 0 0 432.92 195.09
  L 422.17 196.10
  A 0.64 0.63 -84.7 0 1 421.50 195.29
  Q 425.19 182.49 431.96 168.15
  Q 434.89 161.97 439.69 154.73
  Q 447.48 143.00 448.37 141.86
  Q 455.76 132.46 459.64 127.28
  C 460.90 125.59 462.47 124.20 463.76 122.68
  A 0.47 0.47 0.0 0 0 463.73 122.03
  Q 463.48 121.78 463.20 121.90"
/>
<path stroke="#fdbb69" vector-effect="non-scaling-stroke" d="
  M 749.15 536.91
  C 728.74 542.15 709.26 542.14 693.82 526.20
  Q 689.68 521.93 687.65 519.35
  Q 671.08 498.22 656.05 479.05
  C 654.28 476.78 652.03 474.48 649.78 472.39
  Q 641.08 464.30 633.22 456.74
  Q 627.50 451.24 622.60 447.61
  C 616.26 442.92 610.86 438.05 604.34 433.67
  C 594.09 426.79 584.63 420.54 573.85 415.26
  Q 564.04 410.46 558.45 408.29
  Q 531.54 397.86 501.27 398.95"
/>
<path stroke="#fc6b25" vector-effect="non-scaling-stroke" d="
  M 691.47 362.52
  Q 689.96 362.35 688.60 362.78"
/>
<path stroke="#fc853c" vector-effect="non-scaling-stroke" d="
  M 666.41 286.04
  Q 670.15 284.63 673.35 282.69
  A 0.31 0.31 0.0 0 0 673.14 282.12
  L 665.08 283.49"
/>
<path stroke="#fc853c" vector-effect="non-scaling-stroke" d="
  M 650.97 259.24
  Q 649.72 247.01 650.18 234.75
  Q 650.28 231.97 652.01 230.92
  Q 659.32 226.46 665.40 221.77
  A 0.43 0.43 0.0 0 0 664.98 221.02
  L 652.54 225.74
  A 0.81 0.81 0.0 0 1 651.45 224.82
  Q 655.10 206.89 662.93 190.43
  Q 663.77 188.65 664.37 187.90
  C 665.82 186.09 666.36 183.64 667.70 181.47
  Q 678.38 164.26 691.52 149.23
  Q 692.07 148.61 696.73 144.05
  Q 699.40 141.44 701.48 138.42"
/>
<path stroke="#fdbb69" vector-effect="non-scaling-stroke" d="
  M 471.18 515.08
  Q 470.45 500.49 467.94 486.64
  A 1.29 1.28 4.7 0 0 467.10 485.65
  Q 444.23 477.64 430.01 458.02
  Q 426.21 452.78 422.09 446.86"
/>
<path stroke="#fdbb69" vector-effect="non-scaling-stroke" d="
  M 463.31 398.29
  Q 446.61 402.26 433.24 412.20
  Q 424.00 419.08 419.67 429.17
  Q 418.37 432.22 417.75 436.96"
/>
<path stroke="#fdbb69" vector-effect="non-scaling-stroke" d="
  M 527.20 573.11
  Q 526.78 573.07 526.69 573.14
  Q 526.07 573.60 526.51 574.30
  C 527.65 576.11 529.08 577.57 530.19 579.51
  C 550.39 614.66 559.68 654.52 561.36 694.73
  C 562.28 716.74 561.65 738.85 556.57 759.33
  Q 550.41 784.14 541.14 803.66
  C 524.34 839.02 496.98 870.67 463.00 891.02
  Q 445.59 901.44 426.30 906.64
  Q 420.16 908.29 413.58 910.28"
/>
<path stroke="#fc6b25" vector-effect="non-scaling-stroke" d="
  M 398.11 905.00
  Q 394.06 898.04 392.33 893.67
  Q 386.63 879.22 384.38 861.97
  Q 381.23 837.94 380.54 825.53"
/>
<path stroke="#fc853c" vector-effect="non-scaling-stroke" d="
  M 367.16 806.25
  L 365.57 797.51
  A 0.61 0.60 -88.6 0 0 365.11 797.02
  C 356.70 795.07 347.31 798.17 345.98 807.67
  Q 344.83 815.86 347.41 821.87
  C 351.74 831.93 360.31 843.86 370.11 850.44
  A 0.10 0.10 0.0 0 1 370.02 850.61
  C 364.96 848.69 359.78 844.85 355.31 841.88
  A 2.40 2.39 -20.7 0 0 354.62 841.57
  Q 353.12 841.19 351.59 841.80
  Q 336.25 847.81 337.81 864.77
  Q 338.27 869.86 341.74 876.87"
/>
<path stroke="#fc853c" vector-effect="non-scaling-stroke" d="
  M 333.98 870.97
  Q 332.08 861.95 332.67 858.25
  Q 335.11 842.86 349.45 837.38
  A 0.48 0.48 0.0 0 0 349.63 836.60
  C 340.80 827.22 333.97 804.40 347.12 795.19
  Q 355.75 789.15 364.97 793.76
  A 0.65 0.65 0.0 0 0 365.89 793.32
  Q 367.11 787.82 370.96 783.81"
/>
<path stroke="#fda42b" vector-effect="non-scaling-stroke" d="
  M 370.96 783.81
  L 376.37 781.79
  A 2.39 2.35 31.4 0 1 376.80 781.69
  Q 380.66 781.17 383.70 783.64
  A 0.32 0.31 55.0 0 1 383.61 784.18
  Q 383.25 784.30 381.12 783.68
  Q 374.73 781.83 371.25 787.15
  C 365.28 796.26 367.97 806.34 375.88 813.25
  C 381.04 817.77 391.10 818.09 397.00 814.48
  C 403.51 810.49 407.75 804.42 409.59 796.61
  Q 412.44 784.47 410.78 773.28
  Q 408.05 754.88 395.81 737.90
  C 378.65 714.10 347.67 704.42 321.01 718.54
  A 3.88 3.71 -78.8 0 0 320.20 719.11
  C 318.64 720.54 316.91 721.63 315.49 723.07
  Q 304.18 734.54 295.40 746.78
  A 0.62 0.62 0.0 0 0 295.86 747.76
  Q 306.21 748.53 313.23 755.22"
/>
<path stroke="#fc853c" vector-effect="non-scaling-stroke" d="
  M 313.23 755.22
  Q 313.59 756.69 313.47 756.87
  A 1.78 1.78 0.0 0 1 311.27 757.46
  Q 307.52 755.73 304.75 755.02
  C 298.21 753.34 293.77 753.95 287.94 758.06
  Q 279.54 763.98 272.42 772.18"
/>
<path stroke="#fc6b25" vector-effect="non-scaling-stroke" d="
  M 370.96 783.81
  C 370.67 782.37 369.38 781.46 368.80 780.58
  C 367.97 779.31 366.96 777.87 366.30 776.58
  Q 359.47 763.11 353.73 754.79
  Q 352.27 752.67 348.70 750.38"
/>
<path stroke="#fda42b" vector-effect="non-scaling-stroke" d="
  M 348.70 750.38
  Q 349.53 750.19 349.63 750.07
  A 0.92 0.92 0.0 0 0 349.49 748.77
  C 338.16 739.91 324.18 743.51 316.73 755.34"
/>
<path stroke="#fc6b25" vector-effect="non-scaling-stroke" d="
  M 316.73 755.34
  Q 315.66 753.70 313.23 755.22"
/>
<path stroke="#fc853c" vector-effect="non-scaling-stroke" d="
  M 348.70 750.38
  Q 340.51 746.01 331.65 748.38
  C 316.97 752.30 318.90 771.03 324.01 781.59
  Q 326.75 787.26 332.64 795.40
  Q 334.13 797.46 335.40 800.12
  Q 335.76 800.85 335.74 801.07
  A 1.06 1.06 0.0 0 1 334.19 801.92
  Q 325.28 797.33 316.20 798.69
  A 0.25 0.24 27.0 0 1 316.05 798.23
  C 319.21 796.59 322.47 796.42 326.53 796.04
  A 0.60 0.60 0.0 0 0 326.93 795.05
  C 322.42 789.76 318.53 784.16 316.77 777.19
  Q 314.01 766.31 316.73 755.34"
/>
<path stroke="#0f6974" vector-effect="non-scaling-stroke" d="
  M 559.00 243.99
  Q 562.20 250.77 565.14 257.64
  C 567.51 263.17 568.84 268.13 569.86 273.62
  A 4.47 4.43 16.8 0 0 571.17 276.04
  L 590.31 294.15"
/>
<path stroke="#0f7d7e" vector-effect="non-scaling-stroke" d="
  M 590.31 294.15
  C 596.97 302.63 604.69 312.01 609.97 320.13
  Q 624.44 342.36 630.85 368.56
  A 0.14 0.13 -16.3 0 1 630.76 368.72
  A 0.14 0.14 0.0 0 1 630.59 368.63
  C 624.59 352.13 615.08 338.08 603.15 324.57
  C 596.23 316.71 589.26 309.19 581.59 302.15
  C 557.28 279.85 530.13 258.54 504.63 238.12
  Q 483.01 220.79 465.29 202.47
  A 0.21 0.20 -69.1 0 0 464.94 202.63
  Q 465.87 219.60 470.58 241.96
  Q 479.16 282.75 502.78 315.45
  Q 516.54 334.49 534.72 351.62
  A 6.93 6.55 79.5 0 0 536.05 352.59
  C 539.53 354.53 545.58 357.83 550.62 360.96
  Q 569.10 372.45 592.21 392.04
  Q 631.89 425.67 666.13 463.38
  A 0.58 0.58 0.0 0 0 667.13 463.12
  Q 680.00 408.00 671.45 352.01
  Q 667.28 324.78 657.67 301.56
  Q 641.20 261.83 608.47 232.29
  Q 598.40 223.20 591.38 218.11
  Q 572.74 204.59 550.19 193.82
  C 537.71 187.86 528.35 183.86 518.97 178.55
  A 0.24 0.24 0.0 0 0 518.63 178.85
  C 525.93 196.51 537.57 212.79 549.40 229.15
  Q 554.59 236.32 559.00 243.99"
/>
<path stroke="#04b8b5" vector-effect="non-scaling-stroke" d="
  M 590.31 294.15
  Q 590.42 288.91 586.98 283.29
  Q 573.19 260.83 561.18 243.95
  A 0.75 0.74 65.5 0 0 560.41 243.66
  L 559.00 243.99"
/>
<path stroke="#0f6974" vector-effect="non-scaling-stroke" d="
  M 301.20 258.98
  Q 302.23 264.33 303.29 267.71
  Q 319.75 320.17 366.80 348.32
  A 3.78 3.77 -31.6 0 0 369.03 348.85
  L 378.55 348.16"
/>
<path stroke="#0f7d7e" vector-effect="non-scaling-stroke" d="
  M 378.55 348.16
  L 406.85 345.02
  A 0.72 0.71 83.0 0 0 407.48 344.21
  Q 407.37 343.38 406.98 342.79
  Q 403.28 337.21 400.49 331.03
  C 393.20 314.85 387.89 298.59 385.44 279.80
  A 0.84 0.84 0.0 0 0 384.79 279.08
  Q 354.57 272.55 329.51 259.26
  C 318.52 253.43 307.97 245.62 298.06 236.56
  A 0.36 0.36 0.0 0 0 297.46 236.86
  Q 298.62 248.21 301.20 258.98"
/>
<path stroke="#04b8b5" vector-effect="non-scaling-stroke" d="
  M 378.55 348.16
  C 375.12 346.47 371.68 344.93 368.55 342.76
  Q 362.13 338.31 357.04 334.47
  Q 350.16 329.29 341.96 320.30
  Q 324.11 300.75 311.42 276.59
  Q 308.62 271.25 303.84 263.06
  Q 302.66 261.04 301.20 258.98"
/>
<path stroke="#0f7d7e" vector-effect="non-scaling-stroke" d="
  M 294.71 426.08
  Q 309.84 423.90 323.44 417.43
  A 0.17 0.17 0.0 0 1 323.62 417.72
  Q 290.10 444.68 247.27 452.28
  Q 234.62 454.52 221.88 454.35
  A 0.34 0.34 0.0 0 0 221.60 454.88
  Q 234.26 473.58 253.71 485.01
  Q 258.53 487.85 263.05 489.37"
/>
<path stroke="#0f6974" vector-effect="non-scaling-stroke" d="
  M 263.05 489.37
  Q 281.58 496.17 298.76 495.49
  Q 313.56 494.90 328.12 490.36
  Q 342.50 485.87 346.42 484.41
  Q 365.80 477.19 382.68 472.41
  Q 395.24 468.85 408.03 469.92
  Q 409.75 470.06 411.74 470.78
  A 0.47 0.47 0.0 0 0 412.35 470.19
  Q 405.82 449.80 400.00 431.75
  Q 396.90 422.11 395.54 413.50
  C 392.13 391.95 399.14 369.65 414.20 353.81
  A 0.62 0.62 0.0 0 0 413.92 352.79
  Q 412.63 352.43 411.06 352.61
  Q 408.32 352.94 391.26 355.52
  Q 387.21 356.13 384.40 356.98"
/>
<path stroke="#0f7d7e" vector-effect="non-scaling-stroke" d="
  M 384.40 356.98
  Q 359.26 361.00 335.24 364.95
  Q 320.51 367.38 303.76 368.98
  Q 295.85 369.73 280.74 369.39
  Q 243.88 368.58 211.20 353.81
  Q 202.22 349.76 189.97 341.67"
/>
<path stroke="#0f6974" vector-effect="non-scaling-stroke" d="
  M 189.97 341.67
  L 186.49 339.02
  A 0.39 0.39 0.0 0 0 185.88 339.41
  Q 190.56 360.89 201.73 381.27
  C 212.51 400.92 230.63 417.65 252.09 424.31
  C 266.04 428.64 280.44 428.79 294.71 426.08"
/>
<path stroke="#04b8b5" vector-effect="non-scaling-stroke" d="
  M 189.97 341.67
  Q 190.45 347.37 192.93 352.07
  C 202.35 369.93 214.44 386.88 229.73 400.51
  Q 257.38 425.16 294.71 426.08"
/>
<path stroke="#04b8b5" vector-effect="non-scaling-stroke" d="
  M 384.40 356.98
  Q 379.45 363.24 376.59 369.62
  Q 370.83 382.42 369.38 396.59
  C 368.74 402.86 369.26 411.12 368.01 417.24
  C 362.87 442.36 348.15 465.49 325.36 477.61
  Q 313.15 484.10 301.68 486.75
  Q 283.82 490.87 263.05 489.37"
/>
<path stroke="#0f7d7e" vector-effect="non-scaling-stroke" d="
  M 438.32 576.65
  L 427.28 583.46"
/>
<path stroke="#0f6974" vector-effect="non-scaling-stroke" d="
  M 427.28 583.46
  Q 420.04 587.21 413.24 588.81
  A 0.25 0.25 0.0 0 0 413.07 589.16
  Q 425.59 615.81 415.12 643.53"
/>
<path stroke="#0f7d7e" vector-effect="non-scaling-stroke" d="
  M 415.12 643.53
  Q 410.05 656.29 400.93 666.63
  A 0.74 0.72 47.5 0 0 400.90 667.55
  Q 408.01 676.91 408.47 688.99"
/>
<path stroke="#0f6974" vector-effect="non-scaling-stroke" d="
  M 408.47 688.99
  Q 408.45 696.08 406.45 702.63
  A 1.71 1.71 0.0 0 0 407.05 704.49
  Q 425.02 718.09 435.96 737.30
  A 0.90 0.89 60.5 0 0 437.17 737.64
  C 466.17 721.61 484.46 689.55 481.31 656.19
  Q 480.35 645.96 477.57 636.42
  Q 474.05 624.35 470.88 617.59
  Q 459.79 593.93 444.17 571.66
  A 0.34 0.34 0.0 0 0 443.66 571.60
  L 438.32 576.65"
/>
<path stroke="#04b8b5" vector-effect="non-scaling-stroke" d="
  M 408.47 688.99
  Q 412.56 686.64 416.60 684.28
  C 437.69 671.96 449.09 650.38 449.54 626.00
  C 449.80 612.23 447.14 599.28 442.07 586.40
  Q 440.18 581.58 438.32 576.65"
/>
<path stroke="#04b8b5" vector-effect="non-scaling-stroke" d="
  M 415.12 643.53
  Q 427.49 628.09 428.76 608.25
  Q 429.56 595.91 427.28 583.46"
/>
<path stroke="#0f7d7e" vector-effect="non-scaling-stroke" d="
  M 304.42 700.37
  A 0.18 0.18 0.0 0 0 304.68 700.60
  Q 324.46 686.29 349.11 684.33
  C 363.64 683.18 380.45 684.97 393.77 691.94
  A 0.47 0.46 -75.9 0 0 394.45 691.53
  Q 394.50 683.29 389.61 676.64
  C 380.50 664.25 361.43 661.85 347.39 665.21
  Q 317.83 672.30 304.42 700.37"
/>
<path stroke="#0f6974" vector-effect="non-scaling-stroke" d="
  M 673.19 705.57
  Q 664.57 710.55 653.74 710.03
  A 0.45 0.44 78.9 0 0 653.32 710.66
  C 666.07 738.60 670.10 770.89 666.58 801.36
  A 0.55 0.55 0.0 0 0 667.32 801.94
  L 688.40 793.94
  A 0.54 0.54 0.0 0 0 688.70 793.21
  Q 681.70 777.63 678.54 760.74
  Q 676.00 747.17 675.80 744.25
  Q 674.74 729.50 673.69 705.84
  A 0.33 0.33 0.0 0 0 673.19 705.57"
/>
<path stroke="#8c7640" vector-effect="non-scaling-stroke" d="
  M 695.56 763.28
  L 698.25 770.72"
/>
<path stroke="#8a3d39" vector-effect="non-scaling-stroke" d="
  M 698.25 770.72
  Q 703.39 783.74 711.98 794.81
  Q 712.78 795.84 713.63 796.73
  A 1.10 1.10 0.0 0 1 713.48 798.39
  L 711.47 799.83"
/>
<path stroke="#8c7640" vector-effect="non-scaling-stroke" d="
  M 711.47 799.83
  L 692.91 808.75"
/>
<path stroke="#8a3d39" vector-effect="non-scaling-stroke" d="
  M 692.91 808.75
  Q 679.09 814.89 664.54 819.27
  A 1.28 1.26 88.5 0 0 663.67 820.20
  Q 657.14 847.79 642.41 872.15
  Q 632.58 888.41 616.39 904.23
  C 609.03 911.42 599.36 917.97 590.26 923.09
  A 0.19 0.19 0.0 0 0 590.38 923.44
  C 609.11 919.91 627.54 915.73 645.03 909.01
  Q 675.64 897.25 698.17 875.05"
/>
<path stroke="#8c7640" vector-effect="non-scaling-stroke" d="
  M 698.17 875.05
  L 706.03 866.48"
/>
<path stroke="#8a3d39" vector-effect="non-scaling-stroke" d="
  M 706.03 866.48
  Q 707.64 865.04 709.08 863.34
  C 720.32 849.98 729.13 835.58 735.81 819.19
  Q 746.22 793.67 749.74 766.03"
/>
<path stroke="#8c7640" vector-effect="non-scaling-stroke" d="
  M 749.74 766.03
  L 750.60 758.47"
/>
<path stroke="#8c5c29" vector-effect="non-scaling-stroke" d="
  M 750.60 758.47
  Q 752.21 733.02 749.17 707.43
  A 0.39 0.38 -19.3 0 0 748.58 707.15
  C 730.26 718.87 711.24 729.65 690.12 735.23
  A 0.75 0.75 0.0 0 0 689.56 736.05
  Q 691.32 750.05 695.56 763.28"
/>
<path stroke="#fda42b" vector-effect="non-scaling-stroke" d="
  M 750.60 758.47
  L 750.36 757.09
  A 0.91 0.89 2.1 0 0 749.68 756.37
  Q 746.69 755.63 743.04 754.21
  C 735.68 751.33 727.57 750.89 720.20 753.37
  C 717.21 754.38 714.00 756.30 710.94 757.60
  A 0.98 0.98 0.0 0 0 710.35 758.38
  Q 710.23 759.26 710.74 760.10"
/>
<path stroke="#fc6b25" vector-effect="non-scaling-stroke" d="
  M 710.74 760.10
  L 709.25 761.89"
/>
<path stroke="#fda42b" vector-effect="non-scaling-stroke" d="
  M 709.25 761.89
  Q 704.47 762.11 699.66 763.41
  Q 698.60 763.70 695.56 763.28"
/>
<path stroke="#fc853c" vector-effect="non-scaling-stroke" d="
  M 706.03 866.48
  C 707.40 855.40 703.06 844.15 692.82 838.94
  Q 691.48 838.26 690.08 838.03
  A 0.49 0.49 0.0 0 1 689.81 837.20
  Q 701.99 824.94 698.86 808.33
  A 0.56 0.55 10.6 0 1 699.70 807.76
  C 700.52 808.28 701.40 808.39 702.45 807.94
  C 709.08 805.16 713.98 803.31 720.99 805.46
  A 0.33 0.32 -77.4 0 0 721.41 805.19
  L 721.45 804.86
  A 0.13 0.12 -72.6 0 0 721.38 804.72
  L 711.47 799.83"
/>
<path stroke="#fc853c" vector-effect="non-scaling-stroke" d="
  M 698.25 770.72
  Q 706.04 763.71 716.46 766.97
  Q 721.10 768.42 723.92 771.85
  Q 726.57 775.05 727.58 776.33
  A 0.29 0.29 0.0 0 0 728.08 776.05
  C 725.46 768.80 721.74 763.82 713.72 762.61
  Q 711.54 762.28 709.25 761.89"
/>
<path stroke="#fc853c" vector-effect="non-scaling-stroke" d="
  M 749.74 766.03
  L 749.15 766.72
  A 0.30 0.29 52.4 0 1 748.66 766.65
  Q 748.14 765.53 746.19 763.68
  Q 736.87 754.90 724.38 756.48
  Q 717.34 757.36 710.74 760.10"
/>
<path stroke="#fc853c" vector-effect="non-scaling-stroke" d="
  M 698.17 875.05
  Q 698.71 872.24 700.67 864.97
  Q 702.40 858.56 699.09 851.66
  Q 696.15 845.53 687.89 842.15
  Q 685.59 841.21 683.78 842.30
  Q 680.09 844.52 671.38 850.19
  A 0.33 0.33 0.0 0 1 670.93 850.10
  L 670.92 850.09
  A 0.39 0.38 54.2 0 1 671.00 849.56
  Q 679.50 843.28 687.13 832.88
  Q 693.53 824.18 694.40 814.26
  Q 694.56 812.44 692.91 808.75"
/>
<path stroke="#fdf5da" vector-effect="non-scaling-stroke" d="
  M 523.43 484.36
  Q 524.49 485.90 527.25 491.76
  Q 531.84 501.52 543.68 510.85
  Q 546.97 513.45 556.42 518.32
  C 559.07 519.68 561.59 520.13 564.29 521.34
  Q 566.89 522.51 570.30 523.40
  Q 596.82 530.30 622.71 520.95"
/>
<path stroke="#8c8e7e" vector-effect="non-scaling-stroke" d="
  M 622.71 520.95
  L 625.94 524.90
  A 0.48 0.48 0.0 0 0 626.79 524.60
  C 626.96 509.50 620.89 494.27 613.40 480.84
  Q 603.94 463.88 590.72 449.54
  C 570.38 427.49 541.05 416.42 511.00 418.30
  C 497.91 419.12 485.36 422.18 472.35 425.40
  A 0.85 0.84 67.7 0 0 471.83 426.65
  C 479.19 438.83 490.45 445.32 504.51 447.34
  A 0.75 0.75 0.0 0 1 505.14 448.00
  Q 505.30 449.59 506.15 453.68
  Q 509.90 471.65 523.43 484.36"
/>
<path stroke="#8c9599" vector-effect="non-scaling-stroke" d="
  M 622.71 520.95
  Q 614.26 504.92 606.41 490.11
  Q 605.59 488.56 602.27 484.24
  A 0.20 0.20 0.0 0 0 601.91 484.35
  Q 601.33 495.94 595.63 504.83
  C 585.28 520.97 566.39 519.30 554.51 506.32
  C 541.08 491.64 540.05 472.51 545.84 453.86
  A 0.43 0.42 -78.0 0 0 545.49 453.31
  L 521.97 450.14
  A 0.35 0.35 0.0 0 0 521.59 450.39
  Q 517.46 466.92 523.43 484.36"
/>
<path stroke="#8c8e7e" vector-effect="non-scaling-stroke" d="
  M 708.78 576.24
  Q 708.27 561.62 696.21 554.08
  Q 694.81 553.20 692.73 553.36
  A 1.30 1.29 18.0 0 0 691.84 553.81
  Q 690.93 554.83 690.49 556.77
  Q 688.76 564.37 694.85 568.95
  Q 700.90 573.50 708.23 576.62
  A 0.40 0.40 0.0 0 0 708.78 576.24"
/>
<path stroke="#8c9599" vector-effect="non-scaling-stroke" d="
  M 591.3420 485.6466
  A 7.11 6.25 -42.5 0 0 581.8776 485.8420
  A 7.11 6.25 -42.5 0 0 580.8580 495.2534
  A 7.11 6.25 -42.5 0 0 590.3224 495.0580
  A 7.11 6.25 -42.5 0 0 591.3420 485.6466"
/>
</g>
<path fill="#1a2e3d" d="
  M 687.36 702.43
  Q 687.35 708.52 687.32 714.50
  Q 687.31 716.85 688.30 716.03
  C 689.99 716.20 690.60 715.56 691.84 715.21
  Q 703.80 711.76 705.06 711.32
  C 711.25 709.15 717.58 706.26 724.62 702.73
  C 741.73 694.14 755.94 682.35 765.37 665.48
  A 0.31 0.30 -46.8 0 1 765.89 665.46
  Q 766.84 666.98 766.86 668.26
  Q 766.93 673.15 767.07 721.10
  Q 767.15 751.20 765.55 762.83
  C 758.57 813.38 735.96 863.28 694.75 894.97
  C 673.26 911.49 647.97 923.44 621.35 928.57
  Q 619.16 928.35 617.08 929.40
  Q 616.92 929.45 616.76 929.50
  L 595.78 932.46
  L 576.81 932.55
  C 574.13 932.34 571.33 932.00 568.72 932.00
  Q 476.58 931.98 448.50 932.00
  C 440.42 932.01 433.96 930.96 424.99 929.36
  Q 397.79 924.50 372.23 914.30
  Q 334.36 899.19 305.48 871.84
  Q 297.05 863.86 287.66 851.36
  Q 273.84 832.94 265.94 812.09
  Q 264.18 807.43 260.55 795.99
  Q 257.38 785.95 255.32 768.74
  A 3.81 3.69 50.4 0 1 255.43 767.33
  Q 256.23 764.47 256.65 763.38
  Q 265.95 739.10 282.65 717.14
  Q 283.72 715.72 284.50 712.74
  Q 289.47 693.83 301.03 678.48
  C 312.36 663.44 330.64 652.15 349.25 650.20
  C 355.72 649.52 364.82 649.37 371.23 650.63
  Q 380.20 652.39 388.61 656.83
  A 1.13 1.13 0.0 0 0 390.07 656.47
  C 394.78 649.65 398.78 642.91 401.45 634.94
  C 402.77 630.99 402.83 626.96 403.67 622.91
  Q 404.08 620.91 403.85 618.01
  Q 403.02 607.86 401.45 603.02
  Q 399.51 596.99 397.81 591.65
  A 0.72 0.71 81.0 0 0 397.13 591.15
  Q 380.46 591.01 368.06 583.91
  Q 343.92 570.09 332.23 546.17
  Q 326.07 533.56 325.05 515.46
  C 324.82 511.33 326.32 507.00 325.98 502.44
  A 0.38 0.37 64.4 0 0 325.33 502.21
  L 325.08 502.48
  Q 323.43 502.12 322.04 503.06
  Q 306.74 506.27 293.75 505.94
  Q 283.64 505.68 271.65 502.76
  C 244.79 496.21 223.31 479.23 210.18 454.56
  Q 207.45 449.43 205.97 444.19
  A 0.82 0.81 -7.9 0 1 206.75 443.16
  Q 217.97 443.09 228.49 442.65
  Q 245.75 441.94 261.61 438.07
  A 0.31 0.31 0.0 0 0 261.59 437.47
  C 250.26 435.46 237.88 430.88 227.95 424.38
  C 219.68 418.95 211.48 412.82 204.97 404.86
  C 187.23 383.15 177.97 357.75 175.23 329.76
  Q 174.79 325.25 175.19 321.60
  A 0.99 0.99 0.0 0 1 176.76 320.91
  Q 194.69 333.96 215.17 342.61
  C 236.18 351.48 260.24 356.20 282.76 356.89
  Q 303.90 357.54 330.15 354.44
  C 333.76 354.02 336.42 354.00 340.39 354.05
  A 0.38 0.38 0.0 0 0 340.74 353.51
  Q 340.26 352.45 339.45 351.79
  C 333.95 347.33 327.61 342.44 322.74 337.26
  Q 293.88 306.59 285.07 265.75
  C 282.93 255.81 282.56 245.89 282.72 235.50
  C 282.88 225.90 284.77 214.58 289.10 205.51
  A 0.53 0.53 0.0 0 1 290.01 205.43
  Q 296.76 214.84 304.98 222.26
  Q 325.69 240.96 351.28 251.49
  Q 363.69 256.59 375.06 260.18
  C 377.09 260.82 378.67 260.80 380.35 261.70
  Q 381.24 262.18 382.33 262.03
  A 0.90 0.89 -5.2 0 0 383.11 261.10
  Q 382.66 249.70 383.34 237.68
  Q 384.08 224.73 386.09 214.42
  Q 393.10 178.44 413.45 148.41
  C 430.08 123.87 453.11 106.59 480.40 95.44
  Q 487.28 92.63 497.64 90.16
  Q 509.51 87.33 521.64 88.02
  A 0.46 0.46 0.0 0 1 521.87 88.87
  Q 500.89 102.77 487.42 123.62
  Q 472.71 146.38 467.26 176.29
  C 466.86 178.50 467.11 180.96 466.56 183.12
  A 4.06 4.05 30.7 0 0 467.53 186.91
  Q 472.58 192.27 474.47 194.03
  Q 495.20 213.26 517.66 229.32
  Q 518.56 229.97 535.99 242.16
  A 0.51 0.51 0.0 0 0 536.79 241.81
  L 536.83 241.53
  A 0.30 0.30 0.0 0 0 536.70 241.25
  Q 535.98 240.72 534.98 239.02
  Q 532.14 234.19 527.65 227.53
  C 522.23 219.49 517.17 209.95 513.79 202.46
  C 504.56 181.99 501.03 159.37 517.17 141.29
  A 0.44 0.44 0.0 0 1 517.93 141.55
  Q 518.11 143.46 517.48 145.28
  A 3.88 3.81 50.4 0 0 517.32 147.17
  Q 518.14 151.87 518.21 152.27
  C 519.75 161.29 525.43 165.96 533.50 169.52
  Q 554.54 178.79 564.36 183.68
  C 584.01 193.46 603.35 206.05 619.50 220.94
  A 0.74 0.74 0.0 0 0 620.72 220.59
  Q 622.77 213.02 625.53 206.52
  Q 640.67 170.87 666.82 146.55
  Q 690.73 124.31 721.12 113.13
  Q 739.43 106.41 758.87 108.10
  A 0.33 0.33 0.0 0 1 759.01 108.71
  Q 734.91 122.42 719.42 144.62
  Q 714.10 152.26 707.77 165.78
  Q 703.03 175.89 699.85 188.56
  Q 694.22 210.94 695.57 235.42
  Q 696.63 254.82 699.99 273.02
  C 702.97 289.13 708.37 310.62 709.75 328.27
  Q 710.19 333.96 709.90 354.43
  A 9.64 9.63 51.7 0 1 709.69 356.23
  Q 708.97 359.63 709.04 361.40
  C 709.14 363.82 707.07 365.85 708.86 368.64
  Q 713.99 376.59 717.71 386.34
  Q 721.63 396.61 721.90 405.59
  Q 722.25 416.96 718.60 427.84
  Q 717.67 430.60 718.25 433.51
  C 719.68 440.73 722.81 450.04 723.64 457.96
  Q 724.56 466.86 724.80 472.81
  Q 725.20 482.88 726.36 487.38
  Q 731.67 507.98 749.85 519.08
  Q 755.80 522.71 762.14 525.26
  A 1.90 1.83 -7.1 0 1 762.93 525.85
  C 766.22 530.17 767.06 541.31 766.86 546.52
  Q 766.20 564.15 759.47 579.07
  C 753.43 592.45 746.52 602.95 735.84 612.88
  C 720.04 627.56 697.81 633.40 676.36 630.11
  Q 668.60 628.92 664.02 627.72
  Q 649.82 623.99 634.43 616.33
  C 624.60 611.44 614.05 605.51 605.11 599.44
  Q 592.34 590.77 585.87 586.67
  Q 583.63 585.25 579.41 584.89
  C 577.30 584.71 575.93 583.98 573.87 583.94
  A 0.92 0.91 -12.6 0 0 573.03 585.26
  C 581.45 602.38 594.11 617.92 605.80 632.14
  C 612.29 640.05 618.46 648.71 623.75 656.27
  Q 636.57 674.59 645.79 694.75
  C 647.42 698.32 649.17 696.58 651.74 696.19
  Q 674.90 692.71 684.45 671.09
  A 0.64 0.64 0.0 0 1 685.55 670.97
  Q 685.63 671.08 685.66 671.32
  Q 687.22 686.88 687.36 702.43
  Z
  M 463.20 121.90
  Q 433.35 142.46 417.47 174.26
  C 403.56 202.14 398.25 234.01 400.55 264.93
  Q 402.12 286.06 410.14 308.10
  Q 424.14 346.61 455.22 372.26
  Q 467.13 382.09 481.06 387.91
  Q 493.51 393.11 507.81 391.89
  L 512.76 391.93
  L 501.27 398.95
  C 490.33 402.93 479.59 405.13 468.44 400.47
  Q 465.81 399.38 463.31 398.29
  Q 442.76 385.55 426.76 368.16
  A 1.29 1.28 -51.1 0 0 424.71 368.38
  Q 417.81 380.09 414.80 392.90
  Q 409.45 415.66 417.75 436.96
  L 422.09 446.86
  Q 426.47 458.04 430.78 468.90
  Q 434.55 478.39 435.23 482.08
  C 437.39 493.89 435.41 505.41 427.91 514.89
  Q 418.77 526.44 404.61 526.25
  C 387.98 526.03 383.35 507.92 391.86 496.12
  A 0.23 0.22 -55.2 0 1 392.17 496.06
  L 392.18 496.07
  A 0.26 0.25 34.9 0 1 392.25 496.43
  C 389.05 501.25 387.34 509.41 391.33 514.22
  C 395.88 519.70 403.67 519.58 409.18 515.72
  Q 419.11 508.78 416.46 496.45
  Q 414.93 489.37 407.98 486.03
  C 400.70 482.53 391.71 483.40 383.79 485.56
  Q 378.84 486.91 353.29 494.42
  A 2.68 2.65 0.6 0 0 351.50 496.16
  Q 344.86 516.65 353.89 534.61
  C 361.23 549.21 376.12 560.80 392.50 561.99
  Q 422.64 564.18 439.60 539.80
  Q 444.69 532.49 448.09 522.10
  Q 452.20 509.57 453.01 498.56
  C 453.16 496.56 452.89 494.74 453.17 493.33
  A 0.52 0.51 42.0 0 1 454.17 493.28
  Q 456.59 501.17 458.50 509.17
  C 462.14 524.47 461.22 543.08 454.14 557.52
  A 2.80 2.79 -50.2 0 0 454.40 560.40
  Q 463.07 572.27 471.86 585.59
  Q 475.09 590.49 478.10 595.84
  C 487.16 611.94 495.87 629.82 497.69 648.31
  C 500.31 674.96 494.75 701.07 480.42 723.77
  C 471.74 737.54 458.48 750.18 443.66 757.10
  A 0.76 0.75 71.9 0 0 443.24 757.94
  Q 446.21 772.48 444.78 787.03
  C 442.09 814.55 418.71 840.34 389.04 829.98
  Q 386.27 829.01 380.54 825.53
  Q 370.14 817.90 367.16 806.25
  Q 370.51 813.04 375.50 816.00
  C 385.02 821.67 399.13 819.63 407.33 812.34
  Q 418.59 802.34 420.29 786.97
  Q 423.33 759.39 407.29 737.37
  Q 394.32 719.57 373.32 710.66
  Q 362.21 705.94 351.96 706.36
  Q 328.01 707.35 310.98 725.27
  C 307.23 729.22 303.05 733.86 299.27 738.79
  C 293.37 746.50 290.62 750.56 285.32 755.87
  Q 281.44 759.76 273.55 768.29
  Q 271.88 770.10 272.42 772.18
  Q 278.18 805.51 299.59 834.95
  Q 315.12 856.31 333.98 870.97
  L 341.74 876.87
  Q 367.42 894.44 398.11 905.00
  L 413.58 910.28
  Q 454.73 922.79 497.00 923.25
  Q 513.53 923.44 534.75 923.03
  Q 548.77 922.77 553.55 921.78
  C 574.41 917.49 594.34 904.04 609.37 888.78
  C 638.42 859.30 653.05 816.01 651.42 775.03
  C 650.11 742.24 640.38 710.58 624.63 681.84
  Q 613.43 661.40 603.42 648.07
  C 585.12 623.70 573.25 609.24 562.71 586.82
  C 562.14 585.62 561.71 583.90 561.16 582.56
  A 1.13 1.13 0.0 0 0 560.29 581.87
  Q 543.35 578.98 527.20 573.11
  Q 497.08 561.76 473.74 540.76
  Q 469.43 536.89 463.80 530.18
  A 1.97 1.94 -71.2 0 1 463.38 529.31
  Q 462.86 526.84 463.08 524.30
  Q 464.00 513.33 464.36 505.66
  A 0.39 0.39 0.0 0 1 465.11 505.53
  Q 467.15 510.36 471.18 515.08
  Q 494.15 542.51 527.13 557.00
  Q 536.06 560.92 546.25 563.55
  C 560.45 567.22 574.23 569.52 588.87 571.45
  A 4.44 4.43 -22.7 0 1 590.98 572.31
  Q 603.94 582.13 619.10 591.07
  C 635.53 600.76 650.23 608.44 667.35 612.85
  C 684.48 617.26 704.65 616.54 719.61 606.58
  C 737.21 594.85 747.64 573.49 749.95 552.49
  Q 750.84 544.37 749.15 536.91
  Q 745.11 534.25 737.28 527.71
  C 727.09 519.19 717.79 509.35 713.47 497.78
  C 709.58 487.37 709.55 476.42 710.02 464.78
  C 710.22 459.74 709.63 453.65 708.34 448.81
  A 0.32 0.32 0.0 0 0 707.76 448.71
  Q 707.41 449.21 707.37 449.39
  Q 704.21 461.50 700.40 475.43
  Q 700.22 476.12 699.95 476.23
  A 0.66 0.61 -18.0 0 1 699.07 475.82
  Q 697.32 468.04 697.00 460.86
  C 696.66 453.27 698.71 445.35 700.84 437.56
  Q 703.29 428.56 706.51 417.24
  Q 708.98 408.54 706.60 399.19
  C 703.62 387.53 698.34 377.29 692.59 367.39
  Q 691.66 365.79 691.47 362.52
  Q 692.31 355.16 691.88 345.77
  Q 691.12 329.50 689.37 319.09
  Q 685.23 294.57 681.00 270.76
  Q 678.43 256.29 677.65 241.32
  Q 674.83 187.60 703.57 143.21
  C 706.40 138.83 709.23 135.50 712.11 131.97
  A 0.24 0.24 0.0 0 0 711.79 131.61
  L 701.48 138.42
  C 674.89 155.45 653.26 179.86 641.01 208.85
  Q 635.58 221.70 632.36 235.29
  A 1.67 1.66 32.4 0 0 632.68 236.70
  L 650.97 259.24
  Q 658.84 271.16 665.08 283.49
  L 666.41 286.04
  Q 684.07 322.49 688.60 362.78
  C 691.15 386.78 691.76 411.84 688.54 435.28
  C 685.74 455.69 682.06 475.63 675.68 494.98
  A 0.50 0.50 0.0 0 1 674.84 495.17
  Q 672.18 492.32 671.03 490.97
  C 663.30 481.78 651.63 468.85 643.47 459.47
  C 632.09 446.37 620.29 435.01 607.78 422.85
  C 587.49 403.11 565.59 385.57 542.69 369.41
  A 1.48 1.48 0.0 0 0 540.62 369.78
  Q 538.21 373.23 535.49 372.99
  Q 531.96 370.43 528.31 368.00
  C 517.26 360.66 507.64 350.82 498.77 340.42
  Q 470.11 306.85 457.47 265.55
  Q 451.27 245.29 449.17 229.39
  C 448.81 226.72 448.89 224.27 448.17 221.81
  A 3.83 3.65 37.3 0 1 448.04 221.00
  Q 446.99 201.05 448.30 190.00
  Q 453.40 147.13 478.31 112.29
  A 0.13 0.13 0.0 0 0 478.14 112.11
  L 463.20 121.90
  Z
  M 559.00 243.99
  Q 562.20 250.77 565.14 257.64
  C 567.51 263.17 568.84 268.13 569.86 273.62
  A 4.47 4.43 16.8 0 0 571.17 276.04
  L 590.31 294.15
  C 596.97 302.63 604.69 312.01 609.97 320.13
  Q 624.44 342.36 630.85 368.56
  A 0.14 0.13 -16.3 0 1 630.76 368.72
  A 0.14 0.14 0.0 0 1 630.59 368.63
  C 624.59 352.13 615.08 338.08 603.15 324.57
  C 596.23 316.71 589.26 309.19 581.59 302.15
  C 557.28 279.85 530.13 258.54 504.63 238.12
  Q 483.01 220.79 465.29 202.47
  A 0.21 0.20 -69.1 0 0 464.94 202.63
  Q 465.87 219.60 470.58 241.96
  Q 479.16 282.75 502.78 315.45
  Q 516.54 334.49 534.72 351.62
  A 6.93 6.55 79.5 0 0 536.05 352.59
  C 539.53 354.53 545.58 357.83 550.62 360.96
  Q 569.10 372.45 592.21 392.04
  Q 631.89 425.67 666.13 463.38
  A 0.58 0.58 0.0 0 0 667.13 463.12
  Q 680.00 408.00 671.45 352.01
  Q 667.28 324.78 657.67 301.56
  Q 641.20 261.83 608.47 232.29
  Q 598.40 223.20 591.38 218.11
  Q 572.74 204.59 550.19 193.82
  C 537.71 187.86 528.35 183.86 518.97 178.55
  A 0.24 0.24 0.0 0 0 518.63 178.85
  C 525.93 196.51 537.57 212.79 549.40 229.15
  Q 554.59 236.32 559.00 243.99
  Z
  M 301.20 258.98
  Q 302.23 264.33 303.29 267.71
  Q 319.75 320.17 366.80 348.32
  A 3.78 3.77 -31.6 0 0 369.03 348.85
  L 378.55 348.16
  L 406.85 345.02
  A 0.72 0.71 83.0 0 0 407.48 344.21
  Q 407.37 343.38 406.98 342.79
  Q 403.28 337.21 400.49 331.03
  C 393.20 314.85 387.89 298.59 385.44 279.80
  A 0.84 0.84 0.0 0 0 384.79 279.08
  Q 354.57 272.55 329.51 259.26
  C 318.52 253.43 307.97 245.62 298.06 236.56
  A 0.36 0.36 0.0 0 0 297.46 236.86
  Q 298.62 248.21 301.20 258.98
  Z
  M 294.71 426.08
  Q 309.84 423.90 323.44 417.43
  A 0.17 0.17 0.0 0 1 323.62 417.72
  Q 290.10 444.68 247.27 452.28
  Q 234.62 454.52 221.88 454.35
  A 0.34 0.34 0.0 0 0 221.60 454.88
  Q 234.26 473.58 253.71 485.01
  Q 258.53 487.85 263.05 489.37
  Q 281.58 496.17 298.76 495.49
  Q 313.56 494.90 328.12 490.36
  Q 342.50 485.87 346.42 484.41
  Q 365.80 477.19 382.68 472.41
  Q 395.24 468.85 408.03 469.92
  Q 409.75 470.06 411.74 470.78
  A 0.47 0.47 0.0 0 0 412.35 470.19
  Q 405.82 449.80 400.00 431.75
  Q 396.90 422.11 395.54 413.50
  C 392.13 391.95 399.14 369.65 414.20 353.81
  A 0.62 0.62 0.0 0 0 413.92 352.79
  Q 412.63 352.43 411.06 352.61
  Q 408.32 352.94 391.26 355.52
  Q 387.21 356.13 384.40 356.98
  Q 359.26 361.00 335.24 364.95
  Q 320.51 367.38 303.76 368.98
  Q 295.85 369.73 280.74 369.39
  Q 243.88 368.58 211.20 353.81
  Q 202.22 349.76 189.97 341.67
  L 186.49 339.02
  A 0.39 0.39 0.0 0 0 185.88 339.41
  Q 190.56 360.89 201.73 381.27
  C 212.51 400.92 230.63 417.65 252.09 424.31
  C 266.04 428.64 280.44 428.79 294.71 426.08
  Z
  M 438.32 576.65
  L 427.28 583.46
  Q 420.04 587.21 413.24 588.81
  A 0.25 0.25 0.0 0 0 413.07 589.16
  Q 425.59 615.81 415.12 643.53
  Q 410.05 656.29 400.93 666.63
  A 0.74 0.72 47.5 0 0 400.90 667.55
  Q 408.01 676.91 408.47 688.99
  Q 408.45 696.08 406.45 702.63
  A 1.71 1.71 0.0 0 0 407.05 704.49
  Q 425.02 718.09 435.96 737.30
  A 0.90 0.89 60.5 0 0 437.17 737.64
  C 466.17 721.61 484.46 689.55 481.31 656.19
  Q 480.35 645.96 477.57 636.42
  Q 474.05 624.35 470.88 617.59
  Q 459.79 593.93 444.17 571.66
  A 0.34 0.34 0.0 0 0 443.66 571.60
  L 438.32 576.65
  Z
  M 304.42 700.37
  A 0.18 0.18 0.0 0 0 304.68 700.60
  Q 324.46 686.29 349.11 684.33
  C 363.64 683.18 380.45 684.97 393.77 691.94
  A 0.47 0.46 -75.9 0 0 394.45 691.53
  Q 394.50 683.29 389.61 676.64
  C 380.50 664.25 361.43 661.85 347.39 665.21
  Q 317.83 672.30 304.42 700.37
  Z
  M 673.19 705.57
  Q 664.57 710.55 653.74 710.03
  A 0.45 0.44 78.9 0 0 653.32 710.66
  C 666.07 738.60 670.10 770.89 666.58 801.36
  A 0.55 0.55 0.0 0 0 667.32 801.94
  L 688.40 793.94
  A 0.54 0.54 0.0 0 0 688.70 793.21
  Q 681.70 777.63 678.54 760.74
  Q 676.00 747.17 675.80 744.25
  Q 674.74 729.50 673.69 705.84
  A 0.33 0.33 0.0 0 0 673.19 705.57
  Z
  M 695.56 763.28
  L 698.25 770.72
  Q 703.39 783.74 711.98 794.81
  Q 712.78 795.84 713.63 796.73
  A 1.10 1.10 0.0 0 1 713.48 798.39
  L 711.47 799.83
  L 692.91 808.75
  Q 679.09 814.89 664.54 819.27
  A 1.28 1.26 88.5 0 0 663.67 820.20
  Q 657.14 847.79 642.41 872.15
  Q 632.58 888.41 616.39 904.23
  C 609.03 911.42 599.36 917.97 590.26 923.09
  A 0.19 0.19 0.0 0 0 590.38 923.44
  C 609.11 919.91 627.54 915.73 645.03 909.01
  Q 675.64 897.25 698.17 875.05
  L 706.03 866.48
  Q 707.64 865.04 709.08 863.34
  C 720.32 849.98 729.13 835.58 735.81 819.19
  Q 746.22 793.67 749.74 766.03
  L 750.60 758.47
  Q 752.21 733.02 749.17 707.43
  A 0.39 0.38 -19.3 0 0 748.58 707.15
  C 730.26 718.87 711.24 729.65 690.12 735.23
  A 0.75 0.75 0.0 0 0 689.56 736.05
  Q 691.32 750.05 695.56 763.28
  Z"
/>
<path fill="#fa4c35" d="
  M 535.49 372.99
  Q 534.11 376.06 532.71 377.46
  Q 526.18 384.00 517.08 389.84
  Q 515.85 390.63 512.76 391.93
  L 507.81 391.89
  Q 504.16 389.92 500.82 388.34
  Q 495.61 385.87 493.81 384.86
  Q 470.64 371.78 453.24 352.77
  Q 451.95 351.36 451.29 350.12
  A 1.31 1.30 60.8 0 1 451.77 348.40
  Q 468.11 338.38 482.78 325.52
  A 0.24 0.23 -33.8 0 0 482.84 325.24
  L 482.80 325.16
  A 0.27 0.26 -29.9 0 0 482.41 325.06
  Q 465.79 336.64 446.76 342.78
  A 1.83 1.75 -49.5 0 1 445.97 342.86
  Q 444.43 342.68 443.43 341.34
  Q 431.13 324.71 423.69 304.34
  Q 418.74 290.78 416.99 277.33
  A 1.55 1.54 -13.6 0 1 418.01 275.68
  C 429.64 271.53 440.66 264.88 451.04 258.78
  A 0.18 0.17 62.7 0 0 451.11 258.54
  L 451.11 258.53
  A 0.20 0.19 63.4 0 0 450.86 258.44
  Q 434.35 265.54 416.96 268.73
  A 1.22 1.22 0.0 0 1 415.53 267.71
  Q 413.09 251.40 414.38 234.50
  Q 415.57 218.85 418.86 204.22
  A 2.65 2.63 -5.7 0 1 420.38 202.38
  Q 426.23 199.81 430.34 197.84
  Q 432.59 196.76 433.29 195.71
  A 0.40 0.40 0.0 0 0 432.92 195.09
  L 422.17 196.10
  A 0.64 0.63 -84.7 0 1 421.50 195.29
  Q 425.19 182.49 431.96 168.15
  Q 434.89 161.97 439.69 154.73
  Q 447.48 143.00 448.37 141.86
  Q 455.76 132.46 459.64 127.28
  C 460.90 125.59 462.47 124.20 463.76 122.68
  A 0.47 0.47 0.0 0 0 463.73 122.03
  Q 463.48 121.78 463.20 121.90
  L 478.14 112.11
  A 0.13 0.13 0.0 0 1 478.31 112.29
  Q 453.40 147.13 448.30 190.00
  Q 446.99 201.05 448.04 221.00
  A 3.83 3.65 37.3 0 0 448.17 221.81
  C 448.89 224.27 448.81 226.72 449.17 229.39
  Q 451.27 245.29 457.47 265.55
  Q 470.11 306.85 498.77 340.42
  C 507.64 350.82 517.26 360.66 528.31 368.00
  Q 531.96 370.43 535.49 372.99
  Z"
/>
<path fill="#fdbe42" d="
  M 463.20 121.90
  Q 463.48 121.78 463.73 122.03
  A 0.47 0.47 0.0 0 1 463.76 122.68
  C 462.47 124.20 460.90 125.59 459.64 127.28
  Q 455.76 132.46 448.37 141.86
  Q 447.48 143.00 439.69 154.73
  Q 434.89 161.97 431.96 168.15
  Q 425.19 182.49 421.50 195.29
  A 0.64 0.63 -84.7 0 0 422.17 196.10
  L 432.92 195.09
  A 0.40 0.40 0.0 0 1 433.29 195.71
  Q 432.59 196.76 430.34 197.84
  Q 426.23 199.81 420.38 202.38
  A 2.65 2.63 -5.7 0 0 418.86 204.22
  Q 415.57 218.85 414.38 234.50
  Q 413.09 251.40 415.53 267.71
  A 1.22 1.22 0.0 0 0 416.96 268.73
  Q 434.35 265.54 450.86 258.44
  A 0.20 0.19 63.4 0 1 451.11 258.53
  L 451.11 258.54
  A 0.18 0.17 62.7 0 1 451.04 258.78
  C 440.66 264.88 429.64 271.53 418.01 275.68
  A 1.55 1.54 -13.6 0 0 416.99 277.33
  Q 418.74 290.78 423.69 304.34
  Q 431.13 324.71 443.43 341.34
  Q 444.43 342.68 445.97 342.86
  A 1.83 1.75 -49.5 0 0 446.76 342.78
  Q 465.79 336.64 482.41 325.06
  A 0.27 0.26 -29.9 0 1 482.80 325.16
  L 482.84 325.24
  A 0.24 0.23 -33.8 0 1 482.78 325.52
  Q 468.11 338.38 451.77 348.40
  A 1.31 1.30 60.8 0 0 451.29 350.12
  Q 451.95 351.36 453.24 352.77
  Q 470.64 371.78 493.81 384.86
  Q 495.61 385.87 500.82 388.34
  Q 504.16 389.92 507.81 391.89
  Q 493.51 393.11 481.06 387.91
  Q 467.13 382.09 455.22 372.26
  Q 424.14 346.61 410.14 308.10
  Q 402.12 286.06 400.55 264.93
  C 398.25 234.01 403.56 202.14 417.47 174.26
  Q 433.35 142.46 463.20 121.90
  Z"
/>
<path fill="#fa4c35" d="
  M 691.47 362.52
  Q 689.96 362.35 688.60 362.78
  Q 684.07 322.49 666.41 286.04
  Q 670.15 284.63 673.35 282.69
  A 0.31 0.31 0.0 0 0 673.14 282.12
  L 665.08 283.49
  Q 658.84 271.16 650.97 259.24
  Q 649.72 247.01 650.18 234.75
  Q 650.28 231.97 652.01 230.92
  Q 659.32 226.46 665.40 221.77
  A 0.43 0.43 0.0 0 0 664.98 221.02
  L 652.54 225.74
  A 0.81 0.81 0.0 0 1 651.45 224.82
  Q 655.10 206.89 662.93 190.43
  Q 663.77 188.65 664.37 187.90
  C 665.82 186.09 666.36 183.64 667.70 181.47
  Q 678.38 164.26 691.52 149.23
  Q 692.07 148.61 696.73 144.05
  Q 699.40 141.44 701.48 138.42
  L 711.79 131.61
  A 0.24 0.24 0.0 0 1 712.11 131.97
  C 709.23 135.50 706.40 138.83 703.57 143.21
  Q 674.83 187.60 677.65 241.32
  Q 678.43 256.29 681.00 270.76
  Q 685.23 294.57 689.37 319.09
  Q 691.12 329.50 691.88 345.77
  Q 692.31 355.16 691.47 362.52
  Z"
/>
<path fill="#fdbe42" d="
  M 701.48 138.42
  Q 699.40 141.44 696.73 144.05
  Q 692.07 148.61 691.52 149.23
  Q 678.38 164.26 667.70 181.47
  C 666.36 183.64 665.82 186.09 664.37 187.90
  Q 663.77 188.65 662.93 190.43
  Q 655.10 206.89 651.45 224.82
  A 0.81 0.81 0.0 0 0 652.54 225.74
  L 664.98 221.02
  A 0.43 0.43 0.0 0 1 665.40 221.77
  Q 659.32 226.46 652.01 230.92
  Q 650.28 231.97 650.18 234.75
  Q 649.72 247.01 650.97 259.24
  L 632.68 236.70
  A 1.67 1.66 32.4 0 1 632.36 235.29
  Q 635.58 221.70 641.01 208.85
  C 653.26 179.86 674.89 155.45 701.48 138.42
  Z"
/>
<path fill="#03ccbf" d="
  M 590.31 294.15
  Q 590.42 288.91 586.98 283.29
  Q 573.19 260.83 561.18 243.95
  A 0.75 0.74 65.5 0 0 560.41 243.66
  L 559.00 243.99
  Q 554.59 236.32 549.40 229.15
  C 537.57 212.79 525.93 196.51 518.63 178.85
  A 0.24 0.24 0.0 0 1 518.97 178.55
  C 528.35 183.86 537.71 187.86 550.19 193.82
  Q 572.74 204.59 591.38 218.11
  Q 598.40 223.20 608.47 232.29
  Q 641.20 261.83 657.67 301.56
  Q 667.28 324.78 671.45 352.01
  Q 680.00 408.00 667.13 463.12
  A 0.58 0.58 0.0 0 1 666.13 463.38
  Q 631.89 425.67 592.21 392.04
  Q 569.10 372.45 550.62 360.96
  C 545.58 357.83 539.53 354.53 536.05 352.59
  A 6.93 6.55 79.5 0 1 534.72 351.62
  Q 516.54 334.49 502.78 315.45
  Q 479.16 282.75 470.58 241.96
  Q 465.87 219.60 464.94 202.63
  A 0.21 0.20 -69.1 0 1 465.29 202.47
  Q 483.01 220.79 504.63 238.12
  C 530.13 258.54 557.28 279.85 581.59 302.15
  C 589.26 309.19 596.23 316.71 603.15 324.57
  C 615.08 338.08 624.59 352.13 630.59 368.63
  A 0.14 0.14 0.0 0 0 630.76 368.72
  A 0.14 0.13 -16.3 0 0 630.85 368.56
  Q 624.44 342.36 609.97 320.13
  C 604.69 312.01 596.97 302.63 590.31 294.15
  Z"
/>
<path fill="#03ccbf" d="
  M 378.55 348.16
  C 375.12 346.47 371.68 344.93 368.55 342.76
  Q 362.13 338.31 357.04 334.47
  Q 350.16 329.29 341.96 320.30
  Q 324.11 300.75 311.42 276.59
  Q 308.62 271.25 303.84 263.06
  Q 302.66 261.04 301.20 258.98
  Q 298.62 248.21 297.46 236.86
  A 0.36 0.36 0.0 0 1 298.06 236.56
  C 307.97 245.62 318.52 253.43 329.51 259.26
  Q 354.57 272.55 384.79 279.08
  A 0.84 0.84 0.0 0 1 385.44 279.80
  C 387.89 298.59 393.20 314.85 400.49 331.03
  Q 403.28 337.21 406.98 342.79
  Q 407.37 343.38 407.48 344.21
  A 0.72 0.71 83.0 0 1 406.85 345.02
  L 378.55 348.16
  Z"
/>
<path fill="#04a4aa" d="
  M 590.31 294.15
  L 571.17 276.04
  A 4.47 4.43 16.8 0 1 569.86 273.62
  C 568.84 268.13 567.51 263.17 565.14 257.64
  Q 562.20 250.77 559.00 243.99
  L 560.41 243.66
  A 0.75 0.74 65.5 0 1 561.18 243.95
  Q 573.19 260.83 586.98 283.29
  Q 590.42 288.91 590.31 294.15
  Z"
/>
<path fill="#04a4aa" d="
  M 378.55 348.16
  L 369.03 348.85
  A 3.78 3.77 -31.6 0 1 366.80 348.32
  Q 319.75 320.17 303.29 267.71
  Q 302.23 264.33 301.20 258.98
  Q 302.66 261.04 303.84 263.06
  Q 308.62 271.25 311.42 276.59
  Q 324.11 300.75 341.96 320.30
  Q 350.16 329.29 357.04 334.47
  Q 362.13 338.31 368.55 342.76
  C 371.68 344.93 375.12 346.47 378.55 348.16
  Z"
/>
<path fill="#fdbe42" d="
  M 666.41 286.04
  L 665.08 283.49
  L 673.14 282.12
  A 0.31 0.31 0.0 0 1 673.35 282.69
  Q 670.15 284.63 666.41 286.04
  Z"
/>
<path fill="#04a4aa" d="
  M 189.97 341.67
  Q 190.45 347.37 192.93 352.07
  C 202.35 369.93 214.44 386.88 229.73 400.51
  Q 257.38 425.16 294.71 426.08
  C 280.44 428.79 266.04 428.64 252.09 424.31
  C 230.63 417.65 212.51 400.92 201.73 381.27
  Q 190.56 360.89 185.88 339.41
  A 0.39 0.39 0.0 0 1 186.49 339.02
  L 189.97 341.67
  Z"
/>
<path fill="#03ccbf" d="
  M 189.97 341.67
  Q 202.22 349.76 211.20 353.81
  Q 243.88 368.58 280.74 369.39
  Q 295.85 369.73 303.76 368.98
  Q 320.51 367.38 335.24 364.95
  Q 359.26 361.00 384.40 356.98
  Q 379.45 363.24 376.59 369.62
  Q 370.83 382.42 369.38 396.59
  C 368.74 402.86 369.26 411.12 368.01 417.24
  C 362.87 442.36 348.15 465.49 325.36 477.61
  Q 313.15 484.10 301.68 486.75
  Q 283.82 490.87 263.05 489.37
  Q 258.53 487.85 253.71 485.01
  Q 234.26 473.58 221.60 454.88
  A 0.34 0.34 0.0 0 1 221.88 454.35
  Q 234.62 454.52 247.27 452.28
  Q 290.10 444.68 323.62 417.72
  A 0.17 0.17 0.0 0 0 323.44 417.43
  Q 309.84 423.90 294.71 426.08
  Q 257.38 425.16 229.73 400.51
  C 214.44 386.88 202.35 369.93 192.93 352.07
  Q 190.45 347.37 189.97 341.67
  Z"
/>
<path fill="#04a4aa" d="
  M 263.05 489.37
  Q 283.82 490.87 301.68 486.75
  Q 313.15 484.10 325.36 477.61
  C 348.15 465.49 362.87 442.36 368.01 417.24
  C 369.26 411.12 368.74 402.86 369.38 396.59
  Q 370.83 382.42 376.59 369.62
  Q 379.45 363.24 384.40 356.98
  Q 387.21 356.13 391.26 355.52
  Q 408.32 352.94 411.06 352.61
  Q 412.63 352.43 413.92 352.79
  A 0.62 0.62 0.0 0 1 414.20 353.81
  C 399.14 369.65 392.13 391.95 395.54 413.50
  Q 396.90 422.11 400.00 431.75
  Q 405.82 449.80 412.35 470.19
  A 0.47 0.47 0.0 0 1 411.74 470.78
  Q 409.75 470.06 408.03 469.92
  Q 395.24 468.85 382.68 472.41
  Q 365.80 477.19 346.42 484.41
  Q 342.50 485.87 328.12 490.36
  Q 313.56 494.90 298.76 495.49
  Q 281.58 496.17 263.05 489.37
  Z"
/>
<path fill="#fd8914" d="
  M 691.47 362.52
  Q 691.66 365.79 692.59 367.39
  C 698.34 377.29 703.62 387.53 706.60 399.19
  Q 708.98 408.54 706.51 417.24
  Q 703.29 428.56 700.84 437.56
  C 698.71 445.35 696.66 453.27 697.00 460.86
  Q 697.32 468.04 699.07 475.82
  A 0.66 0.61 -18.0 0 0 699.95 476.23
  Q 700.22 476.12 700.40 475.43
  Q 704.21 461.50 707.37 449.39
  Q 707.41 449.21 707.76 448.71
  A 0.32 0.32 0.0 0 1 708.34 448.81
  C 709.63 453.65 710.22 459.74 710.02 464.78
  C 709.55 476.42 709.58 487.37 713.47 497.78
  C 717.79 509.35 727.09 519.19 737.28 527.71
  Q 745.11 534.25 749.15 536.91
  C 728.74 542.15 709.26 542.14 693.82 526.20
  Q 689.68 521.93 687.65 519.35
  Q 671.08 498.22 656.05 479.05
  C 654.28 476.78 652.03 474.48 649.78 472.39
  Q 641.08 464.30 633.22 456.74
  Q 627.50 451.24 622.60 447.61
  C 616.26 442.92 610.86 438.05 604.34 433.67
  C 594.09 426.79 584.63 420.54 573.85 415.26
  Q 564.04 410.46 558.45 408.29
  Q 531.54 397.86 501.27 398.95
  L 512.76 391.93
  Q 515.85 390.63 517.08 389.84
  Q 526.18 384.00 532.71 377.46
  Q 534.11 376.06 535.49 372.99
  Q 538.21 373.23 540.62 369.78
  A 1.48 1.48 0.0 0 1 542.69 369.41
  C 565.59 385.57 587.49 403.11 607.78 422.85
  C 620.29 435.01 632.09 446.37 643.47 459.47
  C 651.63 468.85 663.30 481.78 671.03 490.97
  Q 672.18 492.32 674.84 495.17
  A 0.50 0.50 0.0 0 0 675.68 494.98
  C 682.06 475.63 685.74 455.69 688.54 435.28
  C 691.76 411.84 691.15 386.78 688.60 362.78
  Q 689.96 362.35 691.47 362.52
  Z"
/>
<path fill="#fd8914" d="
  M 463.31 398.29
  Q 446.61 402.26 433.24 412.20
  Q 424.00 419.08 419.67 429.17
  Q 418.37 432.22 417.75 436.96
  Q 409.45 415.66 414.80 392.90
  Q 417.81 380.09 424.71 368.38
  A 1.29 1.28 -51.1 0 1 426.76 368.16
  Q 442.76 385.55 463.31 398.29
  Z"
/>
<path fill="#fdedbe" d="
  M 463.31 398.29
  Q 465.81 399.38 468.44 400.47
  C 479.59 405.13 490.33 402.93 501.27 398.95
  Q 531.54 397.86 558.45 408.29
  Q 564.04 410.46 573.85 415.26
  C 584.63 420.54 594.09 426.79 604.34 433.67
  C 610.86 438.05 616.26 442.92 622.60 447.61
  Q 627.50 451.24 633.22 456.74
  Q 641.08 464.30 649.78 472.39
  C 652.03 474.48 654.28 476.78 656.05 479.05
  Q 671.08 498.22 687.65 519.35
  Q 689.68 521.93 693.82 526.20
  C 709.26 542.14 728.74 542.15 749.15 536.91
  Q 750.84 544.37 749.95 552.49
  C 747.64 573.49 737.21 594.85 719.61 606.58
  C 704.65 616.54 684.48 617.26 667.35 612.85
  C 650.23 608.44 635.53 600.76 619.10 591.07
  Q 603.94 582.13 590.98 572.31
  A 4.44 4.43 -22.7 0 0 588.87 571.45
  C 574.23 569.52 560.45 567.22 546.25 563.55
  Q 536.06 560.92 527.13 557.00
  Q 494.15 542.51 471.18 515.08
  Q 470.45 500.49 467.94 486.64
  A 1.29 1.28 4.7 0 0 467.10 485.65
  Q 444.23 477.64 430.01 458.02
  Q 426.21 452.78 422.09 446.86
  L 417.75 436.96
  Q 418.37 432.22 419.67 429.17
  Q 424.00 419.08 433.24 412.20
  Q 446.61 402.26 463.31 398.29
  Z
  M 523.43 484.36
  Q 524.49 485.90 527.25 491.76
  Q 531.84 501.52 543.68 510.85
  Q 546.97 513.45 556.42 518.32
  C 559.07 519.68 561.59 520.13 564.29 521.34
  Q 566.89 522.51 570.30 523.40
  Q 596.82 530.30 622.71 520.95
  L 625.94 524.90
  A 0.48 0.48 0.0 0 0 626.79 524.60
  C 626.96 509.50 620.89 494.27 613.40 480.84
  Q 603.94 463.88 590.72 449.54
  C 570.38 427.49 541.05 416.42 511.00 418.30
  C 497.91 419.12 485.36 422.18 472.35 425.40
  A 0.85 0.84 67.7 0 0 471.83 426.65
  C 479.19 438.83 490.45 445.32 504.51 447.34
  A 0.75 0.75 0.0 0 1 505.14 448.00
  Q 505.30 449.59 506.15 453.68
  Q 509.90 471.65 523.43 484.36
  Z
  M 708.78 576.24
  Q 708.27 561.62 696.21 554.08
  Q 694.81 553.20 692.73 553.36
  A 1.30 1.29 18.0 0 0 691.84 553.81
  Q 690.93 554.83 690.49 556.77
  Q 688.76 564.37 694.85 568.95
  Q 700.90 573.50 708.23 576.62
  A 0.40 0.40 0.0 0 0 708.78 576.24
  Z"
/>
<path fill="#1a2e3d" d="
  M 622.71 520.95
  Q 614.26 504.92 606.41 490.11
  Q 605.59 488.56 602.27 484.24
  A 0.20 0.20 0.0 0 0 601.91 484.35
  Q 601.33 495.94 595.63 504.83
  C 585.28 520.97 566.39 519.30 554.51 506.32
  C 541.08 491.64 540.05 472.51 545.84 453.86
  A 0.43 0.42 -78.0 0 0 545.49 453.31
  L 521.97 450.14
  A 0.35 0.35 0.0 0 0 521.59 450.39
  Q 517.46 466.92 523.43 484.36
  Q 509.90 471.65 506.15 453.68
  Q 505.30 449.59 505.14 448.00
  A 0.75 0.75 0.0 0 0 504.51 447.34
  C 490.45 445.32 479.19 438.83 471.83 426.65
  A 0.85 0.84 67.7 0 1 472.35 425.40
  C 485.36 422.18 497.91 419.12 511.00 418.30
  C 541.05 416.42 570.38 427.49 590.72 449.54
  Q 603.94 463.88 613.40 480.84
  C 620.89 494.27 626.96 509.50 626.79 524.60
  A 0.48 0.48 0.0 0 1 625.94 524.90
  L 622.71 520.95
  Z
  M 591.3420 485.6466
  A 7.11 6.25 -42.5 0 0 581.8776 485.8420
  A 7.11 6.25 -42.5 0 0 580.8580 495.2534
  A 7.11 6.25 -42.5 0 0 590.3224 495.0580
  A 7.11 6.25 -42.5 0 0 591.3420 485.6466
  Z"
/>
<path fill="#fd8914" d="
  M 471.18 515.08
  Q 467.15 510.36 465.11 505.53
  A 0.39 0.39 0.0 0 0 464.36 505.66
  Q 464.00 513.33 463.08 524.30
  Q 462.86 526.84 463.38 529.31
  A 1.97 1.94 -71.2 0 0 463.80 530.18
  Q 469.43 536.89 473.74 540.76
  Q 497.08 561.76 527.20 573.11
  Q 526.78 573.07 526.69 573.14
  Q 526.07 573.60 526.51 574.30
  C 527.65 576.11 529.08 577.57 530.19 579.51
  C 550.39 614.66 559.68 654.52 561.36 694.73
  C 562.28 716.74 561.65 738.85 556.57 759.33
  Q 550.41 784.14 541.14 803.66
  C 524.34 839.02 496.98 870.67 463.00 891.02
  Q 445.59 901.44 426.30 906.64
  Q 420.16 908.29 413.58 910.28
  L 398.11 905.00
  Q 394.06 898.04 392.33 893.67
  Q 386.63 879.22 384.38 861.97
  Q 381.23 837.94 380.54 825.53
  Q 386.27 829.01 389.04 829.98
  C 418.71 840.34 442.09 814.55 444.78 787.03
  Q 446.21 772.48 443.24 757.94
  A 0.76 0.75 71.9 0 1 443.66 757.10
  C 458.48 750.18 471.74 737.54 480.42 723.77
  C 494.75 701.07 500.31 674.96 497.69 648.31
  C 495.87 629.82 487.16 611.94 478.10 595.84
  Q 475.09 590.49 471.86 585.59
  Q 463.07 572.27 454.40 560.40
  A 2.80 2.79 -50.2 0 1 454.14 557.52
  C 461.22 543.08 462.14 524.47 458.50 509.17
  Q 456.59 501.17 454.17 493.28
  A 0.52 0.51 42.0 0 0 453.17 493.33
  C 452.89 494.74 453.16 496.56 453.01 498.56
  Q 452.20 509.57 448.09 522.10
  Q 444.69 532.49 439.60 539.80
  Q 422.64 564.18 392.50 561.99
  C 376.12 560.80 361.23 549.21 353.89 534.61
  Q 344.86 516.65 351.50 496.16
  A 2.68 2.65 0.6 0 1 353.29 494.42
  Q 378.84 486.91 383.79 485.56
  C 391.71 483.40 400.70 482.53 407.98 486.03
  Q 414.93 489.37 416.46 496.45
  Q 419.11 508.78 409.18 515.72
  C 403.67 519.58 395.88 519.70 391.33 514.22
  C 387.34 509.41 389.05 501.25 392.25 496.43
  A 0.26 0.25 34.9 0 0 392.18 496.07
  L 392.17 496.06
  A 0.23 0.22 -55.2 0 0 391.86 496.12
  C 383.35 507.92 387.98 526.03 404.61 526.25
  Q 418.77 526.44 427.91 514.89
  C 435.41 505.41 437.39 493.89 435.23 482.08
  Q 434.55 478.39 430.78 468.90
  Q 426.47 458.04 422.09 446.86
  Q 426.21 452.78 430.01 458.02
  Q 444.23 477.64 467.10 485.65
  A 1.29 1.28 4.7 0 1 467.94 486.64
  Q 470.45 500.49 471.18 515.08
  Z"
/>
<path fill="#fdfcf5" d="
  M 622.71 520.95
  Q 596.82 530.30 570.30 523.40
  Q 566.89 522.51 564.29 521.34
  C 561.59 520.13 559.07 519.68 556.42 518.32
  Q 546.97 513.45 543.68 510.85
  Q 531.84 501.52 527.25 491.76
  Q 524.49 485.90 523.43 484.36
  Q 517.46 466.92 521.59 450.39
  A 0.35 0.35 0.0 0 1 521.97 450.14
  L 545.49 453.31
  A 0.43 0.42 -78.0 0 1 545.84 453.86
  C 540.05 472.51 541.08 491.64 554.51 506.32
  C 566.39 519.30 585.28 520.97 595.63 504.83
  Q 601.33 495.94 601.91 484.35
  A 0.20 0.20 0.0 0 1 602.27 484.24
  Q 605.59 488.56 606.41 490.11
  Q 614.26 504.92 622.71 520.95
  Z"
/>
<ellipse fill="#fdfcf5" cx="0.00" cy="0.00" transform="translate(586.10,490.45) rotate(-42.5)" rx="7.11" ry="6.25"/>
<path fill="#04a4aa" d="
  M 325.08 502.48
  Q 324.03 503.15 322.04 503.06
  Q 323.43 502.12 325.08 502.48
  Z"
/>
<path fill="#1a2e3d" d="
  M 708.78 576.24
  A 0.40 0.40 0.0 0 1 708.23 576.62
  Q 700.90 573.50 694.85 568.95
  Q 688.76 564.37 690.49 556.77
  Q 690.93 554.83 691.84 553.81
  A 1.30 1.29 18.0 0 1 692.73 553.36
  Q 694.81 553.20 696.21 554.08
  Q 708.27 561.62 708.78 576.24
  Z"
/>
<path fill="#04a4aa" d="
  M 408.47 688.99
  Q 412.56 686.64 416.60 684.28
  C 437.69 671.96 449.09 650.38 449.54 626.00
  C 449.80 612.23 447.14 599.28 442.07 586.40
  Q 440.18 581.58 438.32 576.65
  L 443.66 571.60
  A 0.34 0.34 0.0 0 1 444.17 571.66
  Q 459.79 593.93 470.88 617.59
  Q 474.05 624.35 477.57 636.42
  Q 480.35 645.96 481.31 656.19
  C 484.46 689.55 466.17 721.61 437.17 737.64
  A 0.90 0.89 60.5 0 1 435.96 737.30
  Q 425.02 718.09 407.05 704.49
  A 1.71 1.71 0.0 0 1 406.45 702.63
  Q 408.45 696.08 408.47 688.99
  Z"
/>
<path fill="#fdedbe" d="
  M 527.20 573.11
  Q 543.35 578.98 560.29 581.87
  A 1.13 1.13 0.0 0 1 561.16 582.56
  C 561.71 583.90 562.14 585.62 562.71 586.82
  C 573.25 609.24 585.12 623.70 603.42 648.07
  Q 613.43 661.40 624.63 681.84
  C 640.38 710.58 650.11 742.24 651.42 775.03
  C 653.05 816.01 638.42 859.30 609.37 888.78
  C 594.34 904.04 574.41 917.49 553.55 921.78
  Q 548.77 922.77 534.75 923.03
  Q 513.53 923.44 497.00 923.25
  Q 454.73 922.79 413.58 910.28
  Q 420.16 908.29 426.30 906.64
  Q 445.59 901.44 463.00 891.02
  C 496.98 870.67 524.34 839.02 541.14 803.66
  Q 550.41 784.14 556.57 759.33
  C 561.65 738.85 562.28 716.74 561.36 694.73
  C 559.68 654.52 550.39 614.66 530.19 579.51
  C 529.08 577.57 527.65 576.11 526.51 574.30
  Q 526.07 573.60 526.69 573.14
  Q 526.78 573.07 527.20 573.11
  Z"
/>
<path fill="#03ccbf" d="
  M 438.32 576.65
  Q 440.18 581.58 442.07 586.40
  C 447.14 599.28 449.80 612.23 449.54 626.00
  C 449.09 650.38 437.69 671.96 416.60 684.28
  Q 412.56 686.64 408.47 688.99
  Q 408.01 676.91 400.90 667.55
  A 0.74 0.72 47.5 0 1 400.93 666.63
  Q 410.05 656.29 415.12 643.53
  Q 427.49 628.09 428.76 608.25
  Q 429.56 595.91 427.28 583.46
  L 438.32 576.65
  Z"
/>
<path fill="#04a4aa" d="
  M 427.28 583.46
  Q 429.56 595.91 428.76 608.25
  Q 427.49 628.09 415.12 643.53
  Q 425.59 615.81 413.07 589.16
  A 0.25 0.25 0.0 0 1 413.24 588.81
  Q 420.04 587.21 427.28 583.46
  Z"
/>
<path fill="#03ccbf" d="
  M 304.42 700.37
  Q 317.83 672.30 347.39 665.21
  C 361.43 661.85 380.50 664.25 389.61 676.64
  Q 394.50 683.29 394.45 691.53
  A 0.47 0.46 -75.9 0 1 393.77 691.94
  C 380.45 684.97 363.64 683.18 349.11 684.33
  Q 324.46 686.29 304.68 700.60
  A 0.18 0.18 0.0 0 1 304.42 700.37
  Z"
/>
<path fill="#fdedbe" d="
  M 687.36 702.43
  L 688.30 716.03
  Q 687.31 716.85 687.32 714.50
  Q 687.35 708.52 687.36 702.43
  Z"
/>
<path fill="#04a4aa" d="
  M 673.19 705.57
  A 0.33 0.33 0.0 0 1 673.69 705.84
  Q 674.74 729.50 675.80 744.25
  Q 676.00 747.17 678.54 760.74
  Q 681.70 777.63 688.70 793.21
  A 0.54 0.54 0.0 0 1 688.40 793.94
  L 667.32 801.94
  A 0.55 0.55 0.0 0 1 666.58 801.36
  C 670.10 770.89 666.07 738.60 653.32 710.66
  A 0.45 0.44 78.9 0 1 653.74 710.03
  Q 664.57 710.55 673.19 705.57
  Z"
/>
<path fill="#fdbe42" d="
  M 367.16 806.25
  L 365.57 797.51
  A 0.61 0.60 -88.6 0 0 365.11 797.02
  C 356.70 795.07 347.31 798.17 345.98 807.67
  Q 344.83 815.86 347.41 821.87
  C 351.74 831.93 360.31 843.86 370.11 850.44
  A 0.10 0.10 0.0 0 1 370.02 850.61
  C 364.96 848.69 359.78 844.85 355.31 841.88
  A 2.40 2.39 -20.7 0 0 354.62 841.57
  Q 353.12 841.19 351.59 841.80
  Q 336.25 847.81 337.81 864.77
  Q 338.27 869.86 341.74 876.87
  L 333.98 870.97
  Q 332.08 861.95 332.67 858.25
  Q 335.11 842.86 349.45 837.38
  A 0.48 0.48 0.0 0 0 349.63 836.60
  C 340.80 827.22 333.97 804.40 347.12 795.19
  Q 355.75 789.15 364.97 793.76
  A 0.65 0.65 0.0 0 0 365.89 793.32
  Q 367.11 787.82 370.96 783.81
  L 376.37 781.79
  A 2.39 2.35 31.4 0 1 376.80 781.69
  Q 380.66 781.17 383.70 783.64
  A 0.32 0.31 55.0 0 1 383.61 784.18
  Q 383.25 784.30 381.12 783.68
  Q 374.73 781.83 371.25 787.15
  C 365.28 796.26 367.97 806.34 375.88 813.25
  C 381.04 817.77 391.10 818.09 397.00 814.48
  C 403.51 810.49 407.75 804.42 409.59 796.61
  Q 412.44 784.47 410.78 773.28
  Q 408.05 754.88 395.81 737.90
  C 378.65 714.10 347.67 704.42 321.01 718.54
  A 3.88 3.71 -78.8 0 0 320.20 719.11
  C 318.64 720.54 316.91 721.63 315.49 723.07
  Q 304.18 734.54 295.40 746.78
  A 0.62 0.62 0.0 0 0 295.86 747.76
  Q 306.21 748.53 313.23 755.22
  Q 313.59 756.69 313.47 756.87
  A 1.78 1.78 0.0 0 1 311.27 757.46
  Q 307.52 755.73 304.75 755.02
  C 298.21 753.34 293.77 753.95 287.94 758.06
  Q 279.54 763.98 272.42 772.18
  Q 271.88 770.10 273.55 768.29
  Q 281.44 759.76 285.32 755.87
  C 290.62 750.56 293.37 746.50 299.27 738.79
  C 303.05 733.86 307.23 729.22 310.98 725.27
  Q 328.01 707.35 351.96 706.36
  Q 362.21 705.94 373.32 710.66
  Q 394.32 719.57 407.29 737.37
  Q 423.33 759.39 420.29 786.97
  Q 418.59 802.34 407.33 812.34
  C 399.13 819.63 385.02 821.67 375.50 816.00
  Q 370.51 813.04 367.16 806.25
  Z"
/>
<path fill="#fd8914" d="
  M 750.60 758.47
  L 750.36 757.09
  A 0.91 0.89 2.1 0 0 749.68 756.37
  Q 746.69 755.63 743.04 754.21
  C 735.68 751.33 727.57 750.89 720.20 753.37
  C 717.21 754.38 714.00 756.30 710.94 757.60
  A 0.98 0.98 0.0 0 0 710.35 758.38
  Q 710.23 759.26 710.74 760.10
  L 709.25 761.89
  Q 704.47 762.11 699.66 763.41
  Q 698.60 763.70 695.56 763.28
  Q 691.32 750.05 689.56 736.05
  A 0.75 0.75 0.0 0 1 690.12 735.23
  C 711.24 729.65 730.26 718.87 748.58 707.15
  A 0.39 0.38 -19.3 0 1 749.17 707.43
  Q 752.21 733.02 750.60 758.47
  Z"
/>
<path fill="#fd8914" d="
  M 370.96 783.81
  C 370.67 782.37 369.38 781.46 368.80 780.58
  C 367.97 779.31 366.96 777.87 366.30 776.58
  Q 359.47 763.11 353.73 754.79
  Q 352.27 752.67 348.70 750.38
  Q 349.53 750.19 349.63 750.07
  A 0.92 0.92 0.0 0 0 349.49 748.77
  C 338.16 739.91 324.18 743.51 316.73 755.34
  Q 315.66 753.70 313.23 755.22
  Q 306.21 748.53 295.86 747.76
  A 0.62 0.62 0.0 0 1 295.40 746.78
  Q 304.18 734.54 315.49 723.07
  C 316.91 721.63 318.64 720.54 320.20 719.11
  A 3.88 3.71 -78.8 0 1 321.01 718.54
  C 347.67 704.42 378.65 714.10 395.81 737.90
  Q 408.05 754.88 410.78 773.28
  Q 412.44 784.47 409.59 796.61
  C 407.75 804.42 403.51 810.49 397.00 814.48
  C 391.10 818.09 381.04 817.77 375.88 813.25
  C 367.97 806.34 365.28 796.26 371.25 787.15
  Q 374.73 781.83 381.12 783.68
  Q 383.25 784.30 383.61 784.18
  A 0.32 0.31 55.0 0 0 383.70 783.64
  Q 380.66 781.17 376.80 781.69
  A 2.39 2.35 31.4 0 0 376.37 781.79
  L 370.96 783.81
  Z"
/>
<path fill="#fdbe42" d="
  M 348.70 750.38
  Q 340.51 746.01 331.65 748.38
  C 316.97 752.30 318.90 771.03 324.01 781.59
  Q 326.75 787.26 332.64 795.40
  Q 334.13 797.46 335.40 800.12
  Q 335.76 800.85 335.74 801.07
  A 1.06 1.06 0.0 0 1 334.19 801.92
  Q 325.28 797.33 316.20 798.69
  A 0.25 0.24 27.0 0 1 316.05 798.23
  C 319.21 796.59 322.47 796.42 326.53 796.04
  A 0.60 0.60 0.0 0 0 326.93 795.05
  C 322.42 789.76 318.53 784.16 316.77 777.19
  Q 314.01 766.31 316.73 755.34
  C 324.18 743.51 338.16 739.91 349.49 748.77
  A 0.92 0.92 0.0 0 1 349.63 750.07
  Q 349.53 750.19 348.70 750.38
  Z"
/>
<path fill="#fa4c35" d="
  M 348.70 750.38
  Q 352.27 752.67 353.73 754.79
  Q 359.47 763.11 366.30 776.58
  C 366.96 777.87 367.97 779.31 368.80 780.58
  C 369.38 781.46 370.67 782.37 370.96 783.81
  Q 367.11 787.82 365.89 793.32
  A 0.65 0.65 0.0 0 1 364.97 793.76
  Q 355.75 789.15 347.12 795.19
  C 333.97 804.40 340.80 827.22 349.63 836.60
  A 0.48 0.48 0.0 0 1 349.45 837.38
  Q 335.11 842.86 332.67 858.25
  Q 332.08 861.95 333.98 870.97
  Q 315.12 856.31 299.59 834.95
  Q 278.18 805.51 272.42 772.18
  Q 279.54 763.98 287.94 758.06
  C 293.77 753.95 298.21 753.34 304.75 755.02
  Q 307.52 755.73 311.27 757.46
  A 1.78 1.78 0.0 0 0 313.47 756.87
  Q 313.59 756.69 313.23 755.22
  Q 315.66 753.70 316.73 755.34
  Q 314.01 766.31 316.77 777.19
  C 318.53 784.16 322.42 789.76 326.93 795.05
  A 0.60 0.60 0.0 0 1 326.53 796.04
  C 322.47 796.42 319.21 796.59 316.05 798.23
  A 0.25 0.24 27.0 0 0 316.20 798.69
  Q 325.28 797.33 334.19 801.92
  A 1.06 1.06 0.0 0 0 335.74 801.07
  Q 335.76 800.85 335.40 800.12
  Q 334.13 797.46 332.64 795.40
  Q 326.75 787.26 324.01 781.59
  C 318.90 771.03 316.97 752.30 331.65 748.38
  Q 340.51 746.01 348.70 750.38
  Z"
/>
<path fill="#fdbe42" d="
  M 750.60 758.47
  L 749.74 766.03
  L 749.15 766.72
  A 0.30 0.29 52.4 0 1 748.66 766.65
  Q 748.14 765.53 746.19 763.68
  Q 736.87 754.90 724.38 756.48
  Q 717.34 757.36 710.74 760.10
  Q 710.23 759.26 710.35 758.38
  A 0.98 0.98 0.0 0 1 710.94 757.60
  C 714.00 756.30 717.21 754.38 720.20 753.37
  C 727.57 750.89 735.68 751.33 743.04 754.21
  Q 746.69 755.63 749.68 756.37
  A 0.91 0.89 2.1 0 1 750.36 757.09
  L 750.60 758.47
  Z"
/>
<path fill="#fa4c35" d="
  M 749.74 766.03
  Q 746.22 793.67 735.81 819.19
  C 729.13 835.58 720.32 849.98 709.08 863.34
  Q 707.64 865.04 706.03 866.48
  C 707.40 855.40 703.06 844.15 692.82 838.94
  Q 691.48 838.26 690.08 838.03
  A 0.49 0.49 0.0 0 1 689.81 837.20
  Q 701.99 824.94 698.86 808.33
  A 0.56 0.55 10.6 0 1 699.70 807.76
  C 700.52 808.28 701.40 808.39 702.45 807.94
  C 709.08 805.16 713.98 803.31 720.99 805.46
  A 0.33 0.32 -77.4 0 0 721.41 805.19
  L 721.45 804.86
  A 0.13 0.12 -72.6 0 0 721.38 804.72
  L 711.47 799.83
  L 713.48 798.39
  A 1.10 1.10 0.0 0 0 713.63 796.73
  Q 712.78 795.84 711.98 794.81
  Q 703.39 783.74 698.25 770.72
  Q 706.04 763.71 716.46 766.97
  Q 721.10 768.42 723.92 771.85
  Q 726.57 775.05 727.58 776.33
  A 0.29 0.29 0.0 0 0 728.08 776.05
  C 725.46 768.80 721.74 763.82 713.72 762.61
  Q 711.54 762.28 709.25 761.89
  L 710.74 760.10
  Q 717.34 757.36 724.38 756.48
  Q 736.87 754.90 746.19 763.68
  Q 748.14 765.53 748.66 766.65
  A 0.30 0.29 52.4 0 0 749.15 766.72
  L 749.74 766.03
  Z"
/>
<path fill="#fdbe42" d="
  M 709.25 761.89
  Q 711.54 762.28 713.72 762.61
  C 721.74 763.82 725.46 768.80 728.08 776.05
  A 0.29 0.29 0.0 0 1 727.58 776.33
  Q 726.57 775.05 723.92 771.85
  Q 721.10 768.42 716.46 766.97
  Q 706.04 763.71 698.25 770.72
  L 695.56 763.28
  Q 698.60 763.70 699.66 763.41
  Q 704.47 762.11 709.25 761.89
  Z"
/>
<path fill="#fa4c35" d="
  M 367.16 806.25
  Q 370.14 817.90 380.54 825.53
  Q 381.23 837.94 384.38 861.97
  Q 386.63 879.22 392.33 893.67
  Q 394.06 898.04 398.11 905.00
  Q 367.42 894.44 341.74 876.87
  Q 338.27 869.86 337.81 864.77
  Q 336.25 847.81 351.59 841.80
  Q 353.12 841.19 354.62 841.57
  A 2.40 2.39 -20.7 0 1 355.31 841.88
  C 359.78 844.85 364.96 848.69 370.02 850.61
  A 0.10 0.10 0.0 0 0 370.11 850.44
  C 360.31 843.86 351.74 831.93 347.41 821.87
  Q 344.83 815.86 345.98 807.67
  C 347.31 798.17 356.70 795.07 365.11 797.02
  A 0.61 0.60 -88.6 0 1 365.57 797.51
  L 367.16 806.25
  Z"
/>
<path fill="#fdbe42" d="
  M 711.47 799.83
  L 721.38 804.72
  A 0.13 0.12 -72.6 0 1 721.45 804.86
  L 721.41 805.19
  A 0.33 0.32 -77.4 0 1 720.99 805.46
  C 713.98 803.31 709.08 805.16 702.45 807.94
  C 701.40 808.39 700.52 808.28 699.70 807.76
  A 0.56 0.55 10.6 0 0 698.86 808.33
  Q 701.99 824.94 689.81 837.20
  A 0.49 0.49 0.0 0 0 690.08 838.03
  Q 691.48 838.26 692.82 838.94
  C 703.06 844.15 707.40 855.40 706.03 866.48
  L 698.17 875.05
  Q 698.71 872.24 700.67 864.97
  Q 702.40 858.56 699.09 851.66
  Q 696.15 845.53 687.89 842.15
  Q 685.59 841.21 683.78 842.30
  Q 680.09 844.52 671.38 850.19
  A 0.33 0.33 0.0 0 1 670.93 850.10
  L 670.92 850.09
  A 0.39 0.38 54.2 0 1 671.00 849.56
  Q 679.50 843.28 687.13 832.88
  Q 693.53 824.18 694.40 814.26
  Q 694.56 812.44 692.91 808.75
  L 711.47 799.83
  Z"
/>
<path fill="#fa4c35" d="
  M 692.91 808.75
  Q 694.56 812.44 694.40 814.26
  Q 693.53 824.18 687.13 832.88
  Q 679.50 843.28 671.00 849.56
  A 0.39 0.38 54.2 0 0 670.92 850.09
  L 670.93 850.10
  A 0.33 0.33 0.0 0 0 671.38 850.19
  Q 680.09 844.52 683.78 842.30
  Q 685.59 841.21 687.89 842.15
  Q 696.15 845.53 699.09 851.66
  Q 702.40 858.56 700.67 864.97
  Q 698.71 872.24 698.17 875.05
  Q 675.64 897.25 645.03 909.01
  C 627.54 915.73 609.11 919.91 590.38 923.44
  A 0.19 0.19 0.0 0 1 590.26 923.09
  C 599.36 917.97 609.03 911.42 616.39 904.23
  Q 632.58 888.41 642.41 872.15
  Q 657.14 847.79 663.67 820.20
  A 1.28 1.26 88.5 0 1 664.54 819.27
  Q 679.09 814.89 692.91 808.75
  Z"
/>
<path fill="#04a4aa" d="
  M 621.35 928.57
  L 617.08 929.40
  Q 619.16 928.35 621.35 928.57
  Z"
/>
<path fill="#fdbe42" d="
  M 616.76 929.50
  Q 608.02 931.82 598.92 932.62
  Q 597.21 932.25 595.78 932.46
  L 616.76 929.50
  Z"
/>
<path fill="#fdedbe" d="
  M 595.78 932.46
  Q 597.21 932.25 598.92 932.62
  Q 587.90 933.36 576.81 932.55
  L 595.78 932.46
  Z"
/>
</svg>
