<?xml version="1.0" encoding="UTF-8" standalone="no"?>
<!DOCTYPE svg PUBLIC "-//W3C//DTD SVG 1.1//EN" "http://www.w3.org/Graphics/SVG/1.1/DTD/svg11.dtd">
<svg xmlns="http://www.w3.org/2000/svg" version="1.1" viewBox="0.00 0.00 700.00 700.00">
<g stroke-width="2.00" fill="none" stroke-linecap="butt">
<path stroke="#6eb5cb" vector-effect="non-scaling-stroke" d="
  M 260.92 509.24
  Q 261.26 509.41 261.34 509.41
  A 0.34 0.33 -68.1 0 1 261.58 509.98
  Q 254.60 517.14 252.10 526.87
  Q 249.47 537.13 250.42 548.56
  Q 253.07 580.56 271.13 609.42
  Q 273.31 612.92 277.69 612.61
  Q 282.01 612.31 285.65 612.20
  A 0.82 0.82 0.0 0 0 286.31 610.92
  C 277.94 598.59 273.50 585.20 276.46 570.19
  C 278.65 559.06 282.23 551.36 287.15 537.94
  Q 291.01 527.43 292.50 521.48
  Q 296.78 504.33 295.16 487.01"
/>
<path stroke="#a4ccd1" vector-effect="non-scaling-stroke" d="
  M 295.16 487.01
  Q 308.85 493.74 326.26 495.67
  Q 354.84 498.82 382.06 489.90
  A 0.54 0.54 0.0 0 1 382.77 490.43
  Q 382.19 515.67 386.12 540.63
  C 390.27 566.91 395.01 589.68 402.95 611.42
  A 1.22 1.22 0.0 0 0 404.10 612.23
  L 413.12 612.23
  A 0.56 0.55 -90.0 0 0 413.67 611.67
  Q 413.24 556.20 426.01 503.94
  Q 426.35 502.56 430.91 483.13
  Q 431.97 478.57 432.99 477.32
  Q 434.61 475.30 437.40 472.92
  C 443.03 468.10 448.78 462.11 453.07 455.98
  C 465.27 438.52 474.15 420.44 475.76 399.28
  C 477.39 377.92 474.17 357.19 464.04 338.94
  C 456.52 325.40 446.60 314.14 435.00 303.67
  C 423.64 293.43 414.76 281.32 408.18 267.45
  A 0.37 0.37 0.0 0 1 408.69 266.97
  Q 417.46 271.85 428.02 272.44
  Q 449.11 273.61 474.64 270.67
  C 486.75 269.28 498.24 266.27 507.36 257.53
  Q 518.55 246.81 517.97 230.52
  A 0.29 0.29 0.0 0 0 517.64 230.24
  Q 508.09 231.75 498.87 228.86
  Q 479.82 222.89 473.98 203.76
  C 472.06 197.46 470.81 188.12 468.04 181.72
  C 461.66 167.03 450.37 156.99 435.73 150.33
  A 0.33 0.33 0.0 0 1 435.65 149.78
  Q 447.10 139.62 452.54 125.33
  C 457.25 112.95 457.70 99.43 451.53 87.70
  Q 448.57 82.07 443.53 78.47
  A 0.32 0.32 0.0 0 0 443.04 78.83
  C 446.45 88.61 448.09 97.82 445.85 108.11
  C 443.96 116.78 439.69 127.85 433.36 133.80
  A 1.33 1.32 -40.4 0 1 431.40 133.65
  Q 428.38 129.70 425.44 123.74
  C 418.99 110.66 414.26 100.28 401.07 94.17
  A 0.53 0.53 0.0 0 0 400.34 94.78
  C 404.24 110.22 402.33 129.80 414.19 142.24
  A 0.36 0.36 0.0 0 1 413.83 142.83
  C 407.23 141.01 400.89 133.83 396.90 127.60
  C 391.73 119.52 384.40 105.94 377.31 97.39
  Q 367.57 85.65 353.29 82.97
  Q 346.07 81.62 339.69 82.03
  A 0.39 0.38 -28.2 0 0 339.48 82.72
  C 350.32 90.98 357.44 104.99 362.41 117.58
  Q 362.94 118.92 372.96 143.28
  Q 375.61 149.72 379.84 155.08
  A 0.21 0.20 -21.2 0 1 379.69 155.41
  C 360.39 156.67 341.68 159.68 325.19 146.87
  C 314.70 138.70 307.10 124.32 303.10 110.91
  A 0.13 0.13 0.0 0 0 302.85 110.93
  Q 298.69 136.32 311.48 157.66
  Q 315.00 163.52 320.19 167.47
  A 0.38 0.38 0.0 0 1 319.98 168.15
  C 274.91 170.73 240.96 136.98 237.25 93.25
  Q 236.65 86.27 236.65 81.86
  A 0.29 0.29 0.0 0 0 236.11 81.72
  C 221.58 107.26 226.78 140.01 241.78 164.26
  C 260.94 195.23 296.32 203.80 330.56 197.44
  A 2.46 2.45 62.5 0 1 332.74 198.13
  C 338.73 204.22 344.43 209.61 351.87 213.43
  A 1.15 1.14 -64.6 0 1 352.39 214.90
  C 341.80 239.18 347.32 265.14 360.22 287.59
  Q 361.91 290.52 370.61 304.63
  Q 377.71 316.15 383.82 330.62
  C 393.10 352.61 394.72 378.69 379.72 398.43
  C 374.32 405.54 366.39 411.29 358.31 414.30
  Q 336.50 422.42 319.10 407.70
  C 309.35 399.45 301.66 393.14 290.30 390.16
  C 277.15 386.71 262.85 391.75 252.30 399.82
  Q 247.37 403.60 240.37 409.11
  Q 234.80 413.50 232.19 414.42
  Q 230.11 415.17 226.78 414.83
  C 210.64 413.22 196.36 403.42 188.51 389.77
  C 172.78 362.43 182.28 330.85 208.02 314.04
  C 221.25 305.40 237.31 303.01 253.25 304.75
  Q 257.46 305.20 260.91 306.33
  A 0.21 0.21 0.0 0 0 261.11 305.97
  C 228.92 279.06 182.14 281.00 151.29 309.09
  Q 130.69 327.85 125.93 355.25
  A 0.21 0.21 0.0 0 1 125.53 355.29
  Q 122.24 346.61 120.39 337.46
  C 113.59 303.77 123.82 272.70 148.51 249.91
  Q 158.76 240.44 172.21 232.91
  A 0.45 0.45 0.0 0 0 171.92 232.07
  C 143.12 236.40 116.65 248.93 96.18 269.56
  C 81.53 284.31 71.79 300.32 64.62 319.93
  C 47.56 366.57 60.09 418.42 100.77 448.42
  Q 110.59 455.66 118.95 459.56
  Q 148.49 473.32 181.03 467.53
  Q 206.97 462.90 227.27 442.87
  C 228.40 441.75 229.40 440.06 230.43 438.78
  A 0.37 0.37 0.0 0 1 231.07 439.11
  Q 224.82 461.58 214.43 482.95
  Q 209.30 493.50 201.69 508.69
  C 194.96 522.13 188.82 539.59 185.90 556.57
  C 182.71 575.12 181.15 593.49 183.36 611.59
  A 0.82 0.81 -3.6 0 0 184.17 612.30
  L 195.05 612.30
  A 0.59 0.59 0.0 0 0 195.64 611.72
  Q 196.70 578.87 213.80 550.75
  Q 217.90 544.01 221.49 540.23
  C 230.94 530.27 242.70 522.05 255.09 514.11
  Q 257.09 512.83 260.92 509.24"
/>
<path stroke="#c9e3e1" vector-effect="non-scaling-stroke" d="
  M 295.16 487.01
  L 284.84 481.00
  A 0.31 0.31 0.0 0 0 284.42 481.11
  C 278.00 491.86 270.28 500.54 260.92 509.24"
/>
<path stroke="#a4ccd1" vector-effect="non-scaling-stroke" d="
  M 572.30 406.15
  A 0.56 0.56 0.0 0 1 572.84 405.75
  Q 585.85 405.80 633.25 405.67
  C 646.56 405.64 657.11 394.63 654.11 381.17
  Q 652.82 375.37 648.36 371.11
  C 641.69 364.71 634.82 364.79 624.30 364.87
  Q 621.66 364.88 610.42 364.89
  A 0.65 0.65 0.0 0 1 609.79 364.41
  C 604.89 346.38 590.76 333.97 572.18 332.48
  C 551.25 330.81 532.35 345.57 528.03 366.06
  A 1.47 1.46 87.6 0 1 527.02 367.16
  Q 510.71 372.18 505.86 387.52
  C 501.83 400.28 506.08 415.57 516.64 423.85
  C 536.66 439.54 564.92 430.32 572.30 406.15"
/>
<path stroke="#6eb5cb" vector-effect="non-scaling-stroke" d="
  M 465.35 447.01
  Q 464.97 447.17 464.67 447.67
  C 462.50 451.38 459.40 456.70 457.46 461.65
  Q 450.25 480.10 438.90 497.77
  Q 438.06 499.09 435.61 502.38
  Q 432.44 506.65 431.24 512.28
  C 428.25 526.42 425.87 540.45 423.49 556.28
  C 420.77 574.47 419.51 592.90 419.21 611.05
  A 1.37 1.36 -89.6 0 0 420.57 612.44
  L 433.59 612.44
  A 1.27 1.27 0.0 0 0 434.84 611.40
  C 439.46 587.07 451.76 557.74 459.26 530.75
  Q 470.64 489.82 466.22 447.53
  A 0.64 0.63 -13.8 0 0 465.35 447.01"
/>
<path stroke="#a4ccd1" vector-effect="non-scaling-stroke" d="
  M 578.93 522.37
  A 0.82 0.81 84.1 0 1 578.12 521.70
  C 574.34 502.05 557.15 488.52 537.29 488.25
  C 517.77 487.99 502.38 498.85 495.74 517.48
  A 2.32 2.31 -86.3 0 1 494.04 518.98
  C 473.22 523.44 463.47 544.38 471.95 563.58
  C 478.73 578.96 498.19 586.83 513.92 581.65
  Q 531.97 575.71 538.11 557.91
  A 0.73 0.73 0.0 0 1 538.80 557.42
  Q 560.27 557.51 599.78 557.52
  C 607.97 557.52 614.32 558.02 620.55 551.91
  C 628.79 543.81 626.48 530.19 616.59 524.66
  Q 612.23 522.22 607.01 522.24
  Q 596.01 522.28 578.93 522.37"
/>
<path stroke="#c9e3e1" vector-effect="non-scaling-stroke" d="
  M 328.61 178.85
  C 330.03 179.61 331.68 179.87 333.20 180.69
  Q 337.40 182.97 353.31 192.41
  Q 358.76 195.65 365.00 197.51
  C 370.15 199.04 378.56 199.55 382.68 195.45
  C 386.10 192.05 387.03 186.66 386.83 182.23
  Q 386.63 177.85 383.54 176.28
  C 380.06 174.52 374.29 174.03 369.25 173.95
  Q 348.73 173.61 328.66 178.46
  A 0.21 0.21 0.0 0 0 328.61 178.85"
/>
<path stroke="#a4ccd1" vector-effect="non-scaling-stroke" d="
  M 397.16 230.58
  C 400.65 232.31 405.28 231.17 408.98 229.77
  A 0.68 0.68 0.0 0 1 409.89 230.26
  C 410.78 234.21 411.54 237.64 414.59 240.28
  C 419.52 244.54 428.07 243.42 433.13 239.82
  C 440.05 234.89 447.91 227.34 454.77 236.81
  A 0.38 0.37 -62.8 0 0 455.45 236.59
  Q 455.51 227.26 452.95 219.55
  C 448.93 207.41 435.60 201.44 424.43 209.41
  C 418.39 213.73 412.20 220.95 408.02 225.01
  Q 403.34 229.56 397.25 230.10
  A 0.25 0.25 0.0 0 0 397.16 230.58"
/>
<path stroke="#a4ccd1" vector-effect="non-scaling-stroke" d="
  M 504.52 244.11
  Q 504.69 245.01 505.13 245.69
  A 1.58 1.57 61.2 0 0 507.10 246.26
  Q 510.85 244.56 510.56 242.99
  Q 510.27 241.43 506.15 241.17
  A 1.58 1.57 -82.1 0 0 504.52 242.42
  Q 504.35 243.20 504.52 244.11"
/>
<path stroke="#a4ccd1" vector-effect="non-scaling-stroke" d="
  M 427.7630 226.1884
  A 4.97 4.10 -10.1 0 0 422.1510 223.0235
  A 4.97 4.10 -10.1 0 0 417.9770 227.9316
  A 4.97 4.10 -10.1 0 0 423.5890 231.0965
  A 4.97 4.10 -10.1 0 0 427.7630 226.1884"
/>
</g>
<path fill="#499ebb" d="
  M 700.00 0.00
  L 700.00 700.00
  L 0.00 700.00
  L 0.00 0.00
  L 700.00 0.00
  Z
  M 260.92 509.24
  Q 261.26 509.41 261.34 509.41
  A 0.34 0.33 -68.1 0 1 261.58 509.98
  Q 254.60 517.14 252.10 526.87
  Q 249.47 537.13 250.42 548.56
  Q 253.07 580.56 271.13 609.42
  Q 273.31 612.92 277.69 612.61
  Q 282.01 612.31 285.65 612.20
  A 0.82 0.82 0.0 0 0 286.31 610.92
  C 277.94 598.59 273.50 585.20 276.46 570.19
  C 278.65 559.06 282.23 551.36 287.15 537.94
  Q 291.01 527.43 292.50 521.48
  Q 296.78 504.33 295.16 487.01
  Q 308.85 493.74 326.26 495.67
  Q 354.84 498.82 382.06 489.90
  A 0.54 0.54 0.0 0 1 382.77 490.43
  Q 382.19 515.67 386.12 540.63
  C 390.27 566.91 395.01 589.68 402.95 611.42
  A 1.22 1.22 0.0 0 0 404.10 612.23
  L 413.12 612.23
  A 0.56 0.55 -90.0 0 0 413.67 611.67
  Q 413.24 556.20 426.01 503.94
  Q 426.35 502.56 430.91 483.13
  Q 431.97 478.57 432.99 477.32
  Q 434.61 475.30 437.40 472.92
  C 443.03 468.10 448.78 462.11 453.07 455.98
  C 465.27 438.52 474.15 420.44 475.76 399.28
  C 477.39 377.92 474.17 357.19 464.04 338.94
  C 456.52 325.40 446.60 314.14 435.00 303.67
  C 423.64 293.43 414.76 281.32 408.18 267.45
  A 0.37 0.37 0.0 0 1 408.69 266.97
  Q 417.46 271.85 428.02 272.44
  Q 449.11 273.61 474.64 270.67
  C 486.75 269.28 498.24 266.27 507.36 257.53
  Q 518.55 246.81 517.97 230.52
  A 0.29 0.29 0.0 0 0 517.64 230.24
  Q 508.09 231.75 498.87 228.86
  Q 479.82 222.89 473.98 203.76
  C 472.06 197.46 470.81 188.12 468.04 181.72
  C 461.66 167.03 450.37 156.99 435.73 150.33
  A 0.33 0.33 0.0 0 1 435.65 149.78
  Q 447.10 139.62 452.54 125.33
  C 457.25 112.95 457.70 99.43 451.53 87.70
  Q 448.57 82.07 443.53 78.47
  A 0.32 0.32 0.0 0 0 443.04 78.83
  C 446.45 88.61 448.09 97.82 445.85 108.11
  C 443.96 116.78 439.69 127.85 433.36 133.80
  A 1.33 1.32 -40.4 0 1 431.40 133.65
  Q 428.38 129.70 425.44 123.74
  C 418.99 110.66 414.26 100.28 401.07 94.17
  A 0.53 0.53 0.0 0 0 400.34 94.78
  C 404.24 110.22 402.33 129.80 414.19 142.24
  A 0.36 0.36 0.0 0 1 413.83 142.83
  C 407.23 141.01 400.89 133.83 396.90 127.60
  C 391.73 119.52 384.40 105.94 377.31 97.39
  Q 367.57 85.65 353.29 82.97
  Q 346.07 81.62 339.69 82.03
  A 0.39 0.38 -28.2 0 0 339.48 82.72
  C 350.32 90.98 357.44 104.99 362.41 117.58
  Q 362.94 118.92 372.96 143.28
  Q 375.61 149.72 379.84 155.08
  A 0.21 0.20 -21.2 0 1 379.69 155.41
  C 360.39 156.67 341.68 159.68 325.19 146.87
  C 314.70 138.70 307.10 124.32 303.10 110.91
  A 0.13 0.13 0.0 0 0 302.85 110.93
  Q 298.69 136.32 311.48 157.66
  Q 315.00 163.52 320.19 167.47
  A 0.38 0.38 0.0 0 1 319.98 168.15
  C 274.91 170.73 240.96 136.98 237.25 93.25
  Q 236.65 86.27 236.65 81.86
  A 0.29 0.29 0.0 0 0 236.11 81.72
  C 221.58 107.26 226.78 140.01 241.78 164.26
  C 260.94 195.23 296.32 203.80 330.56 197.44
  A 2.46 2.45 62.5 0 1 332.74 198.13
  C 338.73 204.22 344.43 209.61 351.87 213.43
  A 1.15 1.14 -64.6 0 1 352.39 214.90
  C 341.80 239.18 347.32 265.14 360.22 287.59
  Q 361.91 290.52 370.61 304.63
  Q 377.71 316.15 383.82 330.62
  C 393.10 352.61 394.72 378.69 379.72 398.43
  C 374.32 405.54 366.39 411.29 358.31 414.30
  Q 336.50 422.42 319.10 407.70
  C 309.35 399.45 301.66 393.14 290.30 390.16
  C 277.15 386.71 262.85 391.75 252.30 399.82
  Q 247.37 403.60 240.37 409.11
  Q 234.80 413.50 232.19 414.42
  Q 230.11 415.17 226.78 414.83
  C 210.64 413.22 196.36 403.42 188.51 389.77
  C 172.78 362.43 182.28 330.85 208.02 314.04
  C 221.25 305.40 237.31 303.01 253.25 304.75
  Q 257.46 305.20 260.91 306.33
  A 0.21 0.21 0.0 0 0 261.11 305.97
  C 228.92 279.06 182.14 281.00 151.29 309.09
  Q 130.69 327.85 125.93 355.25
  A 0.21 0.21 0.0 0 1 125.53 355.29
  Q 122.24 346.61 120.39 337.46
  C 113.59 303.77 123.82 272.70 148.51 249.91
  Q 158.76 240.44 172.21 232.91
  A 0.45 0.45 0.0 0 0 171.92 232.07
  C 143.12 236.40 116.65 248.93 96.18 269.56
  C 81.53 284.31 71.79 300.32 64.62 319.93
  C 47.56 366.57 60.09 418.42 100.77 448.42
  Q 110.59 455.66 118.95 459.56
  Q 148.49 473.32 181.03 467.53
  Q 206.97 462.90 227.27 442.87
  C 228.40 441.75 229.40 440.06 230.43 438.78
  A 0.37 0.37 0.0 0 1 231.07 439.11
  Q 224.82 461.58 214.43 482.95
  Q 209.30 493.50 201.69 508.69
  C 194.96 522.13 188.82 539.59 185.90 556.57
  C 182.71 575.12 181.15 593.49 183.36 611.59
  A 0.82 0.81 -3.6 0 0 184.17 612.30
  L 195.05 612.30
  A 0.59 0.59 0.0 0 0 195.64 611.72
  Q 196.70 578.87 213.80 550.75
  Q 217.90 544.01 221.49 540.23
  C 230.94 530.27 242.70 522.05 255.09 514.11
  Q 257.09 512.83 260.92 509.24
  Z
  M 572.30 406.15
  A 0.56 0.56 0.0 0 1 572.84 405.75
  Q 585.85 405.80 633.25 405.67
  C 646.56 405.64 657.11 394.63 654.11 381.17
  Q 652.82 375.37 648.36 371.11
  C 641.69 364.71 634.82 364.79 624.30 364.87
  Q 621.66 364.88 610.42 364.89
  A 0.65 0.65 0.0 0 1 609.79 364.41
  C 604.89 346.38 590.76 333.97 572.18 332.48
  C 551.25 330.81 532.35 345.57 528.03 366.06
  A 1.47 1.46 87.6 0 1 527.02 367.16
  Q 510.71 372.18 505.86 387.52
  C 501.83 400.28 506.08 415.57 516.64 423.85
  C 536.66 439.54 564.92 430.32 572.30 406.15
  Z
  M 465.35 447.01
  Q 464.97 447.17 464.67 447.67
  C 462.50 451.38 459.40 456.70 457.46 461.65
  Q 450.25 480.10 438.90 497.77
  Q 438.06 499.09 435.61 502.38
  Q 432.44 506.65 431.24 512.28
  C 428.25 526.42 425.87 540.45 423.49 556.28
  C 420.77 574.47 419.51 592.90 419.21 611.05
  A 1.37 1.36 -89.6 0 0 420.57 612.44
  L 433.59 612.44
  A 1.27 1.27 0.0 0 0 434.84 611.40
  C 439.46 587.07 451.76 557.74 459.26 530.75
  Q 470.64 489.82 466.22 447.53
  A 0.64 0.63 -13.8 0 0 465.35 447.01
  Z
  M 578.93 522.37
  A 0.82 0.81 84.1 0 1 578.12 521.70
  C 574.34 502.05 557.15 488.52 537.29 488.25
  C 517.77 487.99 502.38 498.85 495.74 517.48
  A 2.32 2.31 -86.3 0 1 494.04 518.98
  C 473.22 523.44 463.47 544.38 471.95 563.58
  C 478.73 578.96 498.19 586.83 513.92 581.65
  Q 531.97 575.71 538.11 557.91
  A 0.73 0.73 0.0 0 1 538.80 557.42
  Q 560.27 557.51 599.78 557.52
  C 607.97 557.52 614.32 558.02 620.55 551.91
  C 628.79 543.81 626.48 530.19 616.59 524.66
  Q 612.23 522.22 607.01 522.24
  Q 596.01 522.28 578.93 522.37
  Z"
/>
<path fill="#fffae7" d="
  M 295.16 487.01
  L 284.84 481.00
  A 0.31 0.31 0.0 0 0 284.42 481.11
  C 278.00 491.86 270.28 500.54 260.92 509.24
  Q 257.09 512.83 255.09 514.11
  C 242.70 522.05 230.94 530.27 221.49 540.23
  Q 217.90 544.01 213.80 550.75
  Q 196.70 578.87 195.64 611.72
  A 0.59 0.59 0.0 0 1 195.05 612.30
  L 184.17 612.30
  A 0.82 0.81 -3.6 0 1 183.36 611.59
  C 181.15 593.49 182.71 575.12 185.90 556.57
  C 188.82 539.59 194.96 522.13 201.69 508.69
  Q 209.30 493.50 214.43 482.95
  Q 224.82 461.58 231.07 439.11
  A 0.37 0.37 0.0 0 0 230.43 438.78
  C 229.40 440.06 228.40 441.75 227.27 442.87
  Q 206.97 462.90 181.03 467.53
  Q 148.49 473.32 118.95 459.56
  Q 110.59 455.66 100.77 448.42
  C 60.09 418.42 47.56 366.57 64.62 319.93
  C 71.79 300.32 81.53 284.31 96.18 269.56
  C 116.65 248.93 143.12 236.40 171.92 232.07
  A 0.45 0.45 0.0 0 1 172.21 232.91
  Q 158.76 240.44 148.51 249.91
  C 123.82 272.70 113.59 303.77 120.39 337.46
  Q 122.24 346.61 125.53 355.29
  A 0.21 0.21 0.0 0 0 125.93 355.25
  Q 130.69 327.85 151.29 309.09
  C 182.14 281.00 228.92 279.06 261.11 305.97
  A 0.21 0.21 0.0 0 1 260.91 306.33
  Q 257.46 305.20 253.25 304.75
  C 237.31 303.01 221.25 305.40 208.02 314.04
  C 182.28 330.85 172.78 362.43 188.51 389.77
  C 196.36 403.42 210.64 413.22 226.78 414.83
  Q 230.11 415.17 232.19 414.42
  Q 234.80 413.50 240.37 409.11
  Q 247.37 403.60 252.30 399.82
  C 262.85 391.75 277.15 386.71 290.30 390.16
  C 301.66 393.14 309.35 399.45 319.10 407.70
  Q 336.50 422.42 358.31 414.30
  C 366.39 411.29 374.32 405.54 379.72 398.43
  C 394.72 378.69 393.10 352.61 383.82 330.62
  Q 377.71 316.15 370.61 304.63
  Q 361.91 290.52 360.22 287.59
  C 347.32 265.14 341.80 239.18 352.39 214.90
  A 1.15 1.14 -64.6 0 0 351.87 213.43
  C 344.43 209.61 338.73 204.22 332.74 198.13
  A 2.46 2.45 62.5 0 0 330.56 197.44
  C 296.32 203.80 260.94 195.23 241.78 164.26
  C 226.78 140.01 221.58 107.26 236.11 81.72
  A 0.29 0.29 0.0 0 1 236.65 81.86
  Q 236.65 86.27 237.25 93.25
  C 240.96 136.98 274.91 170.73 319.98 168.15
  A 0.38 0.38 0.0 0 0 320.19 167.47
  Q 315.00 163.52 311.48 157.66
  Q 298.69 136.32 302.85 110.93
  A 0.13 0.13 0.0 0 1 303.10 110.91
  C 307.10 124.32 314.70 138.70 325.19 146.87
  C 341.68 159.68 360.39 156.67 379.69 155.41
  A 0.21 0.20 -21.2 0 0 379.84 155.08
  Q 375.61 149.72 372.96 143.28
  Q 362.94 118.92 362.41 117.58
  C 357.44 104.99 350.32 90.98 339.48 82.72
  A 0.39 0.38 -28.2 0 1 339.69 82.03
  Q 346.07 81.62 353.29 82.97
  Q 367.57 85.65 377.31 97.39
  C 384.40 105.94 391.73 119.52 396.90 127.60
  C 400.89 133.83 407.23 141.01 413.83 142.83
  A 0.36 0.36 0.0 0 0 414.19 142.24
  C 402.33 129.80 404.24 110.22 400.34 94.78
  A 0.53 0.53 0.0 0 1 401.07 94.17
  C 414.26 100.28 418.99 110.66 425.44 123.74
  Q 428.38 129.70 431.40 133.65
  A 1.33 1.32 -40.4 0 0 433.36 133.80
  C 439.69 127.85 443.96 116.78 445.85 108.11
  C 448.09 97.82 446.45 88.61 443.04 78.83
  A 0.32 0.32 0.0 0 1 443.53 78.47
  Q 448.57 82.07 451.53 87.70
  C 457.70 99.43 457.25 112.95 452.54 125.33
  Q 447.10 139.62 435.65 149.78
  A 0.33 0.33 0.0 0 0 435.73 150.33
  C 450.37 156.99 461.66 167.03 468.04 181.72
  C 470.81 188.12 472.06 197.46 473.98 203.76
  Q 479.82 222.89 498.87 228.86
  Q 508.09 231.75 517.64 230.24
  A 0.29 0.29 0.0 0 1 517.97 230.52
  Q 518.55 246.81 507.36 257.53
  C 498.24 266.27 486.75 269.28 474.64 270.67
  Q 449.11 273.61 428.02 272.44
  Q 417.46 271.85 408.69 266.97
  A 0.37 0.37 0.0 0 0 408.18 267.45
  C 414.76 281.32 423.64 293.43 435.00 303.67
  C 446.60 314.14 456.52 325.40 464.04 338.94
  C 474.17 357.19 477.39 377.92 475.76 399.28
  C 474.15 420.44 465.27 438.52 453.07 455.98
  C 448.78 462.11 443.03 468.10 437.40 472.92
  Q 434.61 475.30 432.99 477.32
  Q 431.97 478.57 430.91 483.13
  Q 426.35 502.56 426.01 503.94
  Q 413.24 556.20 413.67 611.67
  A 0.56 0.55 90.0 0 1 413.12 612.23
  L 404.10 612.23
  A 1.22 1.22 0.0 0 1 402.95 611.42
  C 395.01 589.68 390.27 566.91 386.12 540.63
  Q 382.19 515.67 382.77 490.43
  A 0.54 0.54 0.0 0 0 382.06 489.90
  Q 354.84 498.82 326.26 495.67
  Q 308.85 493.74 295.16 487.01
  Z
  M 328.61 178.85
  C 330.03 179.61 331.68 179.87 333.20 180.69
  Q 337.40 182.97 353.31 192.41
  Q 358.76 195.65 365.00 197.51
  C 370.15 199.04 378.56 199.55 382.68 195.45
  C 386.10 192.05 387.03 186.66 386.83 182.23
  Q 386.63 177.85 383.54 176.28
  C 380.06 174.52 374.29 174.03 369.25 173.95
  Q 348.73 173.61 328.66 178.46
  A 0.21 0.21 0.0 0 0 328.61 178.85
  Z
  M 397.16 230.58
  C 400.65 232.31 405.28 231.17 408.98 229.77
  A 0.68 0.68 0.0 0 1 409.89 230.26
  C 410.78 234.21 411.54 237.64 414.59 240.28
  C 419.52 244.54 428.07 243.42 433.13 239.82
  C 440.05 234.89 447.91 227.34 454.77 236.81
  A 0.38 0.37 -62.8 0 0 455.45 236.59
  Q 455.51 227.26 452.95 219.55
  C 448.93 207.41 435.60 201.44 424.43 209.41
  C 418.39 213.73 412.20 220.95 408.02 225.01
  Q 403.34 229.56 397.25 230.10
  A 0.25 0.25 0.0 0 0 397.16 230.58
  Z
  M 504.52 244.11
  Q 504.69 245.01 505.13 245.69
  A 1.58 1.57 61.2 0 0 507.10 246.26
  Q 510.85 244.56 510.56 242.99
  Q 510.27 241.43 506.15 241.17
  A 1.58 1.57 -82.1 0 0 504.52 242.42
  Q 504.35 243.20 504.52 244.11
  Z"
/>
<path fill="#92ccda" d="
  M 328.61 178.85
  A 0.21 0.21 0.0 0 1 328.66 178.46
  Q 348.73 173.61 369.25 173.95
  C 374.29 174.03 380.06 174.52 383.54 176.28
  Q 386.63 177.85 386.83 182.23
  C 387.03 186.66 386.10 192.05 382.68 195.45
  C 378.56 199.55 370.15 199.04 365.00 197.51
  Q 358.76 195.65 353.31 192.41
  Q 337.40 182.97 333.20 180.69
  C 331.68 179.87 330.03 179.61 328.61 178.85
  Z"
/>
<path fill="#499ebb" d="
  M 397.16 230.58
  A 0.25 0.25 0.0 0 1 397.25 230.10
  Q 403.34 229.56 408.02 225.01
  C 412.20 220.95 418.39 213.73 424.43 209.41
  C 435.60 201.44 448.93 207.41 452.95 219.55
  Q 455.51 227.26 455.45 236.59
  A 0.38 0.37 -62.8 0 1 454.77 236.81
  C 447.91 227.34 440.05 234.89 433.13 239.82
  C 428.07 243.42 419.52 244.54 414.59 240.28
  C 411.54 237.64 410.78 234.21 409.89 230.26
  A 0.68 0.68 0.0 0 0 408.98 229.77
  C 405.28 231.17 400.65 232.31 397.16 230.58
  Z
  M 427.7630 226.1884
  A 4.97 4.10 -10.1 0 0 422.1510 223.0235
  A 4.97 4.10 -10.1 0 0 417.9770 227.9316
  A 4.97 4.10 -10.1 0 0 423.5890 231.0965
  A 4.97 4.10 -10.1 0 0 427.7630 226.1884
  Z"
/>
<ellipse fill="#fffae7" cx="0.00" cy="0.00" transform="translate(422.87,227.06) rotate(-10.1)" rx="4.97" ry="4.10"/>
<path fill="#499ebb" d="
  M 510.56 242.99
  Q 510.85 244.56 507.10 246.26
  A 1.58 1.57 61.2 0 1 505.13 245.69
  Q 504.69 245.01 504.52 244.11
  Q 504.35 243.20 504.52 242.42
  A 1.58 1.57 -82.1 0 1 506.15 241.17
  Q 510.27 241.43 510.56 242.99
  Z"
/>
<path fill="#fffae7" d="
  M 572.30 406.15
  C 564.92 430.32 536.66 439.54 516.64 423.85
  C 506.08 415.57 501.83 400.28 505.86 387.52
  Q 510.71 372.18 527.02 367.16
  A 1.47 1.46 87.6 0 0 528.03 366.06
  C 532.35 345.57 551.25 330.81 572.18 332.48
  C 590.76 333.97 604.89 346.38 609.79 364.41
  A 0.65 0.65 0.0 0 0 610.42 364.89
  Q 621.66 364.88 624.30 364.87
  C 634.82 364.79 641.69 364.71 648.36 371.11
  Q 652.82 375.37 654.11 381.17
  C 657.11 394.63 646.56 405.64 633.25 405.67
  Q 585.85 405.80 572.84 405.75
  A 0.56 0.56 0.0 0 0 572.30 406.15
  Z"
/>
<path fill="#92ccda" d="
  M 465.35 447.01
  A 0.64 0.63 -13.8 0 1 466.22 447.53
  Q 470.64 489.82 459.26 530.75
  C 451.76 557.74 439.46 587.07 434.84 611.40
  A 1.27 1.27 0.0 0 1 433.59 612.44
  L 420.57 612.44
  A 1.37 1.36 -89.6 0 1 419.21 611.05
  C 419.51 592.90 420.77 574.47 423.49 556.28
  C 425.87 540.45 428.25 526.42 431.24 512.28
  Q 432.44 506.65 435.61 502.38
  Q 438.06 499.09 438.90 497.77
  Q 450.25 480.10 457.46 461.65
  C 459.40 456.70 462.50 451.38 464.67 447.67
  Q 464.97 447.17 465.35 447.01
  Z"
/>
<path fill="#92ccda" d="
  M 295.16 487.01
  Q 296.78 504.33 292.50 521.48
  Q 291.01 527.43 287.15 537.94
  C 282.23 551.36 278.65 559.06 276.46 570.19
  C 273.50 585.20 277.94 598.59 286.31 610.92
  A 0.82 0.82 0.0 0 1 285.65 612.20
  Q 282.01 612.31 277.69 612.61
  Q 273.31 612.92 271.13 609.42
  Q 253.07 580.56 250.42 548.56
  Q 249.47 537.13 252.10 526.87
  Q 254.60 517.14 261.58 509.98
  A 0.34 0.33 -68.1 0 0 261.34 509.41
  Q 261.26 509.41 260.92 509.24
  C 270.28 500.54 278.00 491.86 284.42 481.11
  A 0.31 0.31 0.0 0 1 284.84 481.00
  L 295.16 487.01
  Z"
/>
<path fill="#fffae7" d="
  M 578.93 522.37
  Q 596.01 522.28 607.01 522.24
  Q 612.23 522.22 616.59 524.66
  C 626.48 530.19 628.79 543.81 620.55 551.91
  C 614.32 558.02 607.97 557.52 599.78 557.52
  Q 560.27 557.51 538.80 557.42
  A 0.73 0.73 0.0 0 0 538.11 557.91
  Q 531.97 575.71 513.92 581.65
  C 498.19 586.83 478.73 578.96 471.95 563.58
  C 463.47 544.38 473.22 523.44 494.04 518.98
  A 2.32 2.31 -86.3 0 0 495.74 517.48
  C 502.38 498.85 517.77 487.99 537.29 488.25
  C 557.15 488.52 574.34 502.05 578.12 521.70
  A 0.82 0.81 84.1 0 0 578.93 522.37
  Z"
/>
</svg>
