<?xml version="1.0" encoding="UTF-8" standalone="no"?>
<!DOCTYPE svg PUBLIC "-//W3C//DTD SVG 1.1//EN" "http://www.w3.org/Graphics/SVG/1.1/DTD/svg11.dtd">
<svg xmlns="http://www.w3.org/2000/svg" version="1.1" viewBox="0.00 0.00 392.00 392.00">
<g stroke-width="2.00" fill="none" stroke-linecap="butt">
<path stroke="#4090b0" vector-effect="non-scaling-stroke" d="
  M 249.10 281.72
  L 249.99 284.97"
/>
<path stroke="#6fb2c9" vector-effect="non-scaling-stroke" d="
  M 249.99 284.97
  Q 248.80 283.59 246.84 283.91
  A 0.51 0.50 62.6 0 0 246.57 284.77
  L 252.86 290.87
  A 0.42 0.42 0.0 0 0 253.42 290.89
  L 253.43 290.88
  A 0.58 0.47 53.9 0 0 253.47 290.19
  L 251.96 287.85"
/>
<path stroke="#4090b0" vector-effect="non-scaling-stroke" d="
  M 251.96 287.85
  Q 261.32 296.59 268.25 307.47
  Q 272.75 314.53 274.45 320.56
  C 277.53 331.50 279.23 339.01 283.39 347.49
  A 1.72 1.66 3.1 0 0 284.05 348.20
  Q 285.23 348.91 286.57 348.46"
/>
<path stroke="#a6cbd1" vector-effect="non-scaling-stroke" d="
  M 286.57 348.46
  L 297.51 349.35
  A 1.29 1.28 -4.0 0 0 298.87 347.79
  Q 294.08 326.46 292.55 304.25
  Q 292.47 303.05 290.71 301.04
  C 287.86 297.81 287.79 286.41 287.91 281.87
  Q 288.19 271.07 288.02 260.28"
/>
<path stroke="#4090b0" vector-effect="non-scaling-stroke" d="
  M 288.02 260.28
  C 302.61 260.06 313.82 251.52 322.62 240.38
  C 327.50 234.20 332.84 223.90 331.31 216.07"
/>
<path stroke="#96c7d4" vector-effect="non-scaling-stroke" d="
  M 331.31 216.07
  Q 334.42 200.39 330.56 185.25"
/>
<path stroke="#4090b0" vector-effect="non-scaling-stroke" d="
  M 330.56 185.25
  Q 332.58 185.98 331.56 183.04
  Q 330.97 181.34 330.96 181.30
  C 326.04 165.92 313.51 156.14 299.49 149.03
  Q 295.73 147.13 291.83 146.39
  Q 284.20 144.96 275.14 144.61
  C 266.06 144.26 257.88 147.01 249.78 151.09
  C 245.25 153.38 241.95 155.07 238.67 158.18
  Q 229.06 167.31 223.71 178.96
  C 221.59 183.59 222.23 188.42 221.82 192.64
  A 0.71 0.69 13.1 0 0 222.28 193.36
  L 222.84 193.58
  A 0.45 0.45 0.0 0 0 223.44 193.15
  Q 223.41 191.94 223.88 190.99"
/>
<path stroke="#a6cbd1" vector-effect="non-scaling-stroke" d="
  M 223.88 190.99
  L 223.81 194.97
  A 0.77 0.76 67.1 0 0 225.13 195.51
  Q 226.11 194.46 226.30 192.86"
/>
<path stroke="#4090b0" vector-effect="non-scaling-stroke" d="
  M 226.30 192.86
  Q 229.79 188.76 232.92 184.53
  Q 237.42 178.43 239.53 176.84
  Q 243.93 173.52 248.49 172.01
  C 254.25 170.11 258.53 168.18 264.24 169.30
  Q 282.26 172.81 288.68 190.03
  Q 291.20 196.78 290.95 203.25
  C 290.60 212.25 286.79 223.77 279.23 229.42
  A 1.39 1.38 45.6 0 1 277.54 229.40
  C 272.69 225.58 266.48 221.96 260.01 220.93
  Q 253.61 219.91 250.75 219.88
  Q 246.60 219.84 225.27 219.54
  C 222.04 219.49 219.01 218.78 215.80 218.86
  A 11.41 11.14 -41.3 0 1 214.09 218.77
  Q 213.20 218.66 208.59 217.59
  C 194.83 214.38 192.87 203.65 190.21 191.87
  Q 189.76 189.87 189.87 187.54
  A 0.36 0.36 0.0 0 0 189.53 187.16
  L 189.24 187.14
  A 0.27 0.27 0.0 0 0 188.95 187.41
  L 188.88 191.54"
/>
<path stroke="#a6cbd1" vector-effect="non-scaling-stroke" d="
  M 188.88 191.54
  Q 188.07 180.54 187.06 169.56
  C 186.38 162.19 185.51 156.32 182.60 150.23
  A 0.47 0.47 0.0 0 1 182.90 149.57
  Q 193.77 146.46 200.91 137.39
  Q 204.12 133.31 206.10 130.64
  A 0.45 0.45 0.0 0 0 205.75 129.93
  Q 192.13 129.33 186.01 129.40
  Q 179.16 129.47 175.68 130.45
  Q 170.91 131.81 167.83 132.64
  A 0.59 0.59 0.0 0 1 167.09 132.05
  Q 167.09 131.69 167.61 131.35
  Q 169.98 129.78 172.03 128.12
  A 0.83 0.82 -27.6 0 0 172.30 127.27
  C 171.67 125.03 169.57 123.91 167.46 122.83
  A 0.85 0.84 -58.9 0 1 167.16 121.59
  C 174.02 111.78 183.53 107.13 193.95 101.45
  C 209.24 93.13 224.79 80.03 228.71 62.54
  C 232.41 46.04 224.47 31.70 210.16 23.38
  A 0.38 0.38 0.0 0 0 209.66 23.92
  Q 219.03 37.94 216.46 55.01
  C 215.80 59.35 213.66 65.11 209.66 67.93
  A 0.55 0.55 0.0 0 1 208.79 67.51
  Q 208.21 57.72 203.52 49.20
  Q 200.53 43.78 198.01 42.18
  A 1.98 0.50 26.5 0 0 197.80 42.04
  Q 197.60 41.90 197.42 42.00
  Q 196.86 42.30 197.08 42.82
  C 198.84 46.97 200.36 49.64 201.06 53.36
  C 203.34 65.52 199.23 78.75 190.94 87.92
  Q 190.45 88.46 189.65 88.83
  A 0.65 0.65 0.0 0 1 188.74 88.08
  Q 191.90 75.41 185.27 65.06
  C 184.34 63.61 182.55 61.92 180.95 61.14
  A 0.51 0.50 6.1 0 0 180.24 61.71
  Q 185.08 81.06 172.97 96.91
  Q 172.51 97.52 171.74 97.72
  A 1.16 1.16 0.0 0 1 170.29 96.54
  C 170.73 87.65 169.00 77.59 163.48 70.55
  Q 163.15 70.12 162.85 70.01
  A 0.61 0.60 -86.4 0 0 162.05 70.72
  C 165.81 86.01 162.64 103.29 155.66 117.16
  Q 154.09 120.28 151.27 118.46
  A 0.80 0.79 22.6 0 1 150.92 117.62
  L 150.99 117.33
  A 0.37 0.37 0.0 0 1 151.48 117.06
  L 153.28 117.74
  A 0.82 0.82 0.0 0 0 154.33 117.26
  L 154.70 116.28
  A 0.58 0.58 0.0 0 0 154.23 115.51
  Q 145.82 114.41 137.05 115.91
  A 1.50 1.42 -64.9 0 0 136.49 116.13
  L 134.77 117.30
  A 1.73 1.71 -39.0 0 1 132.57 117.08
  Q 129.05 113.46 126.09 108.15
  C 118.25 94.08 112.92 77.38 116.64 61.76
  Q 116.83 60.94 116.70 60.45
  A 0.72 0.72 0.0 0 0 115.45 60.17
  C 108.28 68.68 105.73 78.44 106.00 89.51
  A 1.25 1.24 -80.6 0 1 104.33 90.71
  C 97.44 88.18 94.41 77.89 94.04 71.24
  Q 93.99 70.37 93.64 63.75
  A 0.27 0.27 0.0 0 0 93.18 63.58
  C 89.73 67.21 89.27 80.87 89.29 86.17
  A 1.76 1.75 86.1 0 1 87.78 87.91
  Q 86.04 88.15 83.86 87.34
  C 74.12 83.71 70.95 75.84 71.17 65.66
  C 71.44 52.65 75.44 42.49 81.83 31.74
  A 0.32 0.32 0.0 0 0 81.35 31.34
  C 65.01 45.92 51.45 68.09 60.57 90.78
  Q 64.38 100.26 74.20 101.43
  Q 81.33 102.28 88.35 103.41
  Q 105.35 106.13 115.82 119.39
  Q 118.30 122.52 119.06 124.57
  A 1.82 1.80 -48.6 0 1 119.12 125.59
  C 118.63 127.73 116.51 127.44 114.65 126.67
  C 108.34 124.04 103.38 123.98 95.89 123.39
  A 0.83 0.82 -4.8 0 0 95.02 124.41
  Q 97.64 134.89 106.26 140.53
  A 0.72 0.72 0.0 0 1 106.53 141.41
  Q 103.65 148.36 101.69 155.94
  C 100.35 161.15 102.80 166.21 102.70 171.27
  C 102.52 180.05 99.81 185.70 96.54 193.16
  A 0.72 0.72 0.0 0 0 96.99 194.14
  C 99.34 194.85 102.57 194.07 105.30 193.55
  A 1.04 1.04 0.0 0 1 106.47 194.94
  L 104.95 198.97
  A 0.92 0.91 17.3 0 0 105.59 200.18
  Q 112.31 201.87 119.13 199.12
  Q 127.25 195.83 143.30 189.03
  C 144.36 188.58 147.58 187.24 148.94 187.87
  C 152.45 189.50 150.95 194.20 149.83 197.08
  Q 149.05 199.10 144.81 209.05
  C 140.47 219.23 137.81 232.27 140.56 242.82
  C 143.74 254.99 152.47 264.30 163.09 271.17
  A 0.51 0.50 16.0 0 0 163.87 270.74
  Q 163.53 253.35 165.17 236.33
  A 0.43 0.43 0.0 0 1 165.62 235.94
  L 165.88 235.96
  A 0.67 0.67 0.0 0 1 166.51 236.65
  Q 165.84 254.79 167.14 271.99
  C 167.76 280.07 167.82 289.14 168.87 298.39
  Q 171.32 319.83 171.83 343.43
  A 0.77 0.76 1.2 0 0 172.56 344.18
  L 184.57 344.89
  A 0.79 0.79 0.0 0 0 185.41 344.15
  Q 188.19 303.68 200.75 262.66
  A 1.63 1.57 -12.2 0 1 201.29 261.86
  L 201.99 261.31
  A 0.45 0.45 0.0 0 1 202.71 261.76
  L 199.14 277.97
  A 0.83 0.82 -74.8 0 0 199.68 278.93
  Q 201.60 279.55 203.75 279.78
  Q 213.26 280.79 216.75 281.06
  Q 223.98 281.62 243.67 281.38
  Q 245.56 281.36 249.10 281.72"
/>
<path stroke="#98c1cb" vector-effect="non-scaling-stroke" d="
  M 188.88 191.54
  C 189.80 200.81 192.42 210.88 200.98 215.77
  C 208.08 219.83 215.94 220.82 224.01 221.00
  Q 227.30 221.07 251.65 221.50
  Q 266.76 221.76 277.82 231.70
  A 0.65 0.65 0.0 0 0 278.68 231.70
  C 286.11 225.23 291.65 216.67 292.53 206.67
  C 293.93 190.75 285.05 173.81 268.92 169.10
  Q 258.94 166.18 249.09 170.17
  Q 232.63 176.84 226.30 192.86"
/>
<path stroke="#98c1cb" vector-effect="non-scaling-stroke" d="
  M 223.88 190.99
  Q 224.88 174.82 235.00 164.02
  C 254.46 143.25 287.13 140.47 310.21 157.17"
/>
<path stroke="#eef8ef" vector-effect="non-scaling-stroke" d="
  M 310.21 157.17
  L 309.67 159.01
  A 1.05 1.04 -55.9 0 0 309.84 159.92
  Q 315.21 166.98 318.04 173.39
  Q 322.54 183.55 323.01 195.74
  C 323.88 217.84 308.36 240.97 286.14 245.10
  A 1.61 1.61 0.0 0 0 284.83 246.77
  C 285.04 250.40 285.62 257.39 288.02 260.28"
/>
<path stroke="#98c1cb" vector-effect="non-scaling-stroke" d="
  M 286.57 348.46
  Q 284.69 347.88 284.20 346.54
  Q 281.25 338.53 275.20 317.77
  Q 272.76 309.40 268.54 304.45
  Q 263.44 298.45 259.41 293.09
  C 250.62 281.42 245.71 264.68 248.76 250.72
  A 0.74 0.73 -82.2 0 0 248.09 249.83
  L 247.69 249.81
  A 1.50 1.49 7.2 0 0 246.13 251.01
  C 243.93 262.43 245.62 271.23 249.10 281.72"
/>
<path stroke="#88bdce" vector-effect="non-scaling-stroke" d="
  M 331.31 216.07
  Q 328.53 229.10 320.67 239.92
  Q 308.74 256.34 288.50 259.19
  Q 287.62 259.32 288.02 260.28"
/>
<path stroke="#61a8c3" vector-effect="non-scaling-stroke" d="
  M 251.96 287.85
  L 249.99 284.97"
/>
<path stroke="#88bdce" vector-effect="non-scaling-stroke" d="
  M 330.56 185.25
  Q 324.88 167.98 310.21 157.17"
/>
<path stroke="#6fb2c9" vector-effect="non-scaling-stroke" d="
  M 142.86 257.18
  C 138.98 259.68 132.20 263.63 131.65 268.19
  A 2.37 2.36 -51.4 0 0 131.77 269.28
  C 138.49 288.22 148.93 302.88 161.81 318.29
  C 162.89 319.57 164.76 321.62 166.35 321.17
  A 2.87 2.64 85.7 0 0 168.29 318.71
  C 168.68 314.55 168.74 306.34 166.39 302.65
  C 162.18 296.06 158.00 290.11 159.51 282.28
  Q 160.04 279.53 163.06 278.95
  A 1.04 1.04 0.0 0 0 163.68 277.28
  L 159.32 271.78
  A 2.30 2.16 84.7 0 0 158.79 271.31
  Q 150.36 265.76 143.87 257.36
  A 0.77 0.76 54.7 0 0 142.86 257.18"
/>
<path stroke="#6fb2c9" vector-effect="non-scaling-stroke" d="
  M 221.57 284.49
  C 223.11 289.31 226.36 293.12 230.94 299.72
  Q 232.70 302.27 232.06 304.54
  Q 227.56 320.48 220.87 340.25
  A 1.13 1.13 0.0 0 0 222.00 341.74
  L 229.07 341.37
  A 2.08 2.06 -66.6 0 0 230.29 340.88
  Q 231.89 339.50 232.96 337.93
  Q 241.92 324.83 249.49 310.47
  C 251.30 307.03 251.82 304.66 249.97 301.31
  Q 243.44 289.48 241.52 284.98
  A 1.75 1.74 -11.4 0 0 239.91 283.92
  L 221.99 283.92
  A 0.44 0.44 0.0 0 0 221.57 284.49"
/>
<path stroke="#a6cbd1" vector-effect="non-scaling-stroke" d="
  M 167.17 151.33
  Q 166.94 151.48 165.70 152.81
  C 162.80 155.92 158.10 157.40 153.74 157.45
  Q 148.77 157.51 141.71 157.71
  C 129.80 158.05 131.49 168.89 131.68 177.05
  Q 131.71 178.29 132.50 178.82
  A 0.59 0.59 0.0 0 0 133.41 178.42
  C 134.91 168.80 155.37 181.10 154.32 162.45
  A 1.80 1.79 80.6 0 1 155.62 160.62
  C 160.54 159.24 165.57 156.94 167.59 151.67
  A 0.29 0.28 -5.7 0 0 167.17 151.33"
/>
<path stroke="#a6cbd1" vector-effect="non-scaling-stroke" d="
  M 150.10 161.93
  C 146.72 163.02 141.56 163.03 142.36 168.00
  A 1.07 1.06 8.2 0 0 142.96 168.79
  Q 145.25 169.87 147.49 169.62
  A 3.28 3.25 -82.7 0 0 150.18 167.52
  L 151.66 163.57
  A 1.26 1.26 0.0 0 0 150.10 161.93"
/>
</g>
<path fill="#4e9ab6" d="
  M 392.00 0.00
  L 392.00 392.00
  L 0.00 392.00
  L 0.00 0.00
  L 392.00 0.00
  Z
  M 249.10 281.72
  L 249.99 284.97
  Q 248.80 283.59 246.84 283.91
  A 0.51 0.50 62.6 0 0 246.57 284.77
  L 252.86 290.87
  A 0.42 0.42 0.0 0 0 253.42 290.89
  L 253.43 290.88
  A 0.58 0.47 53.9 0 0 253.47 290.19
  L 251.96 287.85
  Q 261.32 296.59 268.25 307.47
  Q 272.75 314.53 274.45 320.56
  C 277.53 331.50 279.23 339.01 283.39 347.49
  A 1.72 1.66 3.1 0 0 284.05 348.20
  Q 285.23 348.91 286.57 348.46
  L 297.51 349.35
  A 1.29 1.28 -4.0 0 0 298.87 347.79
  Q 294.08 326.46 292.55 304.25
  Q 292.47 303.05 290.71 301.04
  C 287.86 297.81 287.79 286.41 287.91 281.87
  Q 288.19 271.07 288.02 260.28
  C 302.61 260.06 313.82 251.52 322.62 240.38
  C 327.50 234.20 332.84 223.90 331.31 216.07
  Q 334.42 200.39 330.56 185.25
  Q 332.58 185.98 331.56 183.04
  Q 330.97 181.34 330.96 181.30
  C 326.04 165.92 313.51 156.14 299.49 149.03
  Q 295.73 147.13 291.83 146.39
  Q 284.20 144.96 275.14 144.61
  C 266.06 144.26 257.88 147.01 249.78 151.09
  C 245.25 153.38 241.95 155.07 238.67 158.18
  Q 229.06 167.31 223.71 178.96
  C 221.59 183.59 222.23 188.42 221.82 192.64
  A 0.71 0.69 13.1 0 0 222.28 193.36
  L 222.84 193.58
  A 0.45 0.45 0.0 0 0 223.44 193.15
  Q 223.41 191.94 223.88 190.99
  L 223.81 194.97
  A 0.77 0.76 67.1 0 0 225.13 195.51
  Q 226.11 194.46 226.30 192.86
  Q 229.79 188.76 232.92 184.53
  Q 237.42 178.43 239.53 176.84
  Q 243.93 173.52 248.49 172.01
  C 254.25 170.11 258.53 168.18 264.24 169.30
  Q 282.26 172.81 288.68 190.03
  Q 291.20 196.78 290.95 203.25
  C 290.60 212.25 286.79 223.77 279.23 229.42
  A 1.39 1.38 45.6 0 1 277.54 229.40
  C 272.69 225.58 266.48 221.96 260.01 220.93
  Q 253.61 219.91 250.75 219.88
  Q 246.60 219.84 225.27 219.54
  C 222.04 219.49 219.01 218.78 215.80 218.86
  A 11.41 11.14 -41.3 0 1 214.09 218.77
  Q 213.20 218.66 208.59 217.59
  C 194.83 214.38 192.87 203.65 190.21 191.87
  Q 189.76 189.87 189.87 187.54
  A 0.36 0.36 0.0 0 0 189.53 187.16
  L 189.24 187.14
  A 0.27 0.27 0.0 0 0 188.95 187.41
  L 188.88 191.54
  Q 188.07 180.54 187.06 169.56
  C 186.38 162.19 185.51 156.32 182.60 150.23
  A 0.47 0.47 0.0 0 1 182.90 149.57
  Q 193.77 146.46 200.91 137.39
  Q 204.12 133.31 206.10 130.64
  A 0.45 0.45 0.0 0 0 205.75 129.93
  Q 192.13 129.33 186.01 129.40
  Q 179.16 129.47 175.68 130.45
  Q 170.91 131.81 167.83 132.64
  A 0.59 0.59 0.0 0 1 167.09 132.05
  Q 167.09 131.69 167.61 131.35
  Q 169.98 129.78 172.03 128.12
  A 0.83 0.82 -27.6 0 0 172.30 127.27
  C 171.67 125.03 169.57 123.91 167.46 122.83
  A 0.85 0.84 -58.9 0 1 167.16 121.59
  C 174.02 111.78 183.53 107.13 193.95 101.45
  C 209.24 93.13 224.79 80.03 228.71 62.54
  C 232.41 46.04 224.47 31.70 210.16 23.38
  A 0.38 0.38 0.0 0 0 209.66 23.92
  Q 219.03 37.94 216.46 55.01
  C 215.80 59.35 213.66 65.11 209.66 67.93
  A 0.55 0.55 0.0 0 1 208.79 67.51
  Q 208.21 57.72 203.52 49.20
  Q 200.53 43.78 198.01 42.18
  A 1.98 0.50 26.5 0 0 197.80 42.04
  Q 197.60 41.90 197.42 42.00
  Q 196.86 42.30 197.08 42.82
  C 198.84 46.97 200.36 49.64 201.06 53.36
  C 203.34 65.52 199.23 78.75 190.94 87.92
  Q 190.45 88.46 189.65 88.83
  A 0.65 0.65 0.0 0 1 188.74 88.08
  Q 191.90 75.41 185.27 65.06
  C 184.34 63.61 182.55 61.92 180.95 61.14
  A 0.51 0.50 6.1 0 0 180.24 61.71
  Q 185.08 81.06 172.97 96.91
  Q 172.51 97.52 171.74 97.72
  A 1.16 1.16 0.0 0 1 170.29 96.54
  C 170.73 87.65 169.00 77.59 163.48 70.55
  Q 163.15 70.12 162.85 70.01
  A 0.61 0.60 -86.4 0 0 162.05 70.72
  C 165.81 86.01 162.64 103.29 155.66 117.16
  Q 154.09 120.28 151.27 118.46
  A 0.80 0.79 22.6 0 1 150.92 117.62
  L 150.99 117.33
  A 0.37 0.37 0.0 0 1 151.48 117.06
  L 153.28 117.74
  A 0.82 0.82 0.0 0 0 154.33 117.26
  L 154.70 116.28
  A 0.58 0.58 0.0 0 0 154.23 115.51
  Q 145.82 114.41 137.05 115.91
  A 1.50 1.42 -64.9 0 0 136.49 116.13
  L 134.77 117.30
  A 1.73 1.71 -39.0 0 1 132.57 117.08
  Q 129.05 113.46 126.09 108.15
  C 118.25 94.08 112.92 77.38 116.64 61.76
  Q 116.83 60.94 116.70 60.45
  A 0.72 0.72 0.0 0 0 115.45 60.17
  C 108.28 68.68 105.73 78.44 106.00 89.51
  A 1.25 1.24 -80.6 0 1 104.33 90.71
  C 97.44 88.18 94.41 77.89 94.04 71.24
  Q 93.99 70.37 93.64 63.75
  A 0.27 0.27 0.0 0 0 93.18 63.58
  C 89.73 67.21 89.27 80.87 89.29 86.17
  A 1.76 1.75 86.1 0 1 87.78 87.91
  Q 86.04 88.15 83.86 87.34
  C 74.12 83.71 70.95 75.84 71.17 65.66
  C 71.44 52.65 75.44 42.49 81.83 31.74
  A 0.32 0.32 0.0 0 0 81.35 31.34
  C 65.01 45.92 51.45 68.09 60.57 90.78
  Q 64.38 100.26 74.20 101.43
  Q 81.33 102.28 88.35 103.41
  Q 105.35 106.13 115.82 119.39
  Q 118.30 122.52 119.06 124.57
  A 1.82 1.80 -48.6 0 1 119.12 125.59
  C 118.63 127.73 116.51 127.44 114.65 126.67
  C 108.34 124.04 103.38 123.98 95.89 123.39
  A 0.83 0.82 -4.8 0 0 95.02 124.41
  Q 97.64 134.89 106.26 140.53
  A 0.72 0.72 0.0 0 1 106.53 141.41
  Q 103.65 148.36 101.69 155.94
  C 100.35 161.15 102.80 166.21 102.70 171.27
  C 102.52 180.05 99.81 185.70 96.54 193.16
  A 0.72 0.72 0.0 0 0 96.99 194.14
  C 99.34 194.85 102.57 194.07 105.30 193.55
  A 1.04 1.04 0.0 0 1 106.47 194.94
  L 104.95 198.97
  A 0.92 0.91 17.3 0 0 105.59 200.18
  Q 112.31 201.87 119.13 199.12
  Q 127.25 195.83 143.30 189.03
  C 144.36 188.58 147.58 187.24 148.94 187.87
  C 152.45 189.50 150.95 194.20 149.83 197.08
  Q 149.05 199.10 144.81 209.05
  C 140.47 219.23 137.81 232.27 140.56 242.82
  C 143.74 254.99 152.47 264.30 163.09 271.17
  A 0.51 0.50 16.0 0 0 163.87 270.74
  Q 163.53 253.35 165.17 236.33
  A 0.43 0.43 0.0 0 1 165.62 235.94
  L 165.88 235.96
  A 0.67 0.67 0.0 0 1 166.51 236.65
  Q 165.84 254.79 167.14 271.99
  C 167.76 280.07 167.82 289.14 168.87 298.39
  Q 171.32 319.83 171.83 343.43
  A 0.77 0.76 1.2 0 0 172.56 344.18
  L 184.57 344.89
  A 0.79 0.79 0.0 0 0 185.41 344.15
  Q 188.19 303.68 200.75 262.66
  A 1.63 1.57 -12.2 0 1 201.29 261.86
  L 201.99 261.31
  A 0.45 0.45 0.0 0 1 202.71 261.76
  L 199.14 277.97
  A 0.83 0.82 -74.8 0 0 199.68 278.93
  Q 201.60 279.55 203.75 279.78
  Q 213.26 280.79 216.75 281.06
  Q 223.98 281.62 243.67 281.38
  Q 245.56 281.36 249.10 281.72
  Z
  M 142.86 257.18
  C 138.98 259.68 132.20 263.63 131.65 268.19
  A 2.37 2.36 -51.4 0 0 131.77 269.28
  C 138.49 288.22 148.93 302.88 161.81 318.29
  C 162.89 319.57 164.76 321.62 166.35 321.17
  A 2.87 2.64 85.7 0 0 168.29 318.71
  C 168.68 314.55 168.74 306.34 166.39 302.65
  C 162.18 296.06 158.00 290.11 159.51 282.28
  Q 160.04 279.53 163.06 278.95
  A 1.04 1.04 0.0 0 0 163.68 277.28
  L 159.32 271.78
  A 2.30 2.16 84.7 0 0 158.79 271.31
  Q 150.36 265.76 143.87 257.36
  A 0.77 0.76 54.7 0 0 142.86 257.18
  Z
  M 221.57 284.49
  C 223.11 289.31 226.36 293.12 230.94 299.72
  Q 232.70 302.27 232.06 304.54
  Q 227.56 320.48 220.87 340.25
  A 1.13 1.13 0.0 0 0 222.00 341.74
  L 229.07 341.37
  A 2.08 2.06 -66.6 0 0 230.29 340.88
  Q 231.89 339.50 232.96 337.93
  Q 241.92 324.83 249.49 310.47
  C 251.30 307.03 251.82 304.66 249.97 301.31
  Q 243.44 289.48 241.52 284.98
  A 1.75 1.74 -11.4 0 0 239.91 283.92
  L 221.99 283.92
  A 0.44 0.44 0.0 0 0 221.57 284.49
  Z"
/>
<path fill="#fefcec" d="
  M 188.88 191.54
  C 189.80 200.81 192.42 210.88 200.98 215.77
  C 208.08 219.83 215.94 220.82 224.01 221.00
  Q 227.30 221.07 251.65 221.50
  Q 266.76 221.76 277.82 231.70
  A 0.65 0.65 0.0 0 0 278.68 231.70
  C 286.11 225.23 291.65 216.67 292.53 206.67
  C 293.93 190.75 285.05 173.81 268.92 169.10
  Q 258.94 166.18 249.09 170.17
  Q 232.63 176.84 226.30 192.86
  Q 226.11 194.46 225.13 195.51
  A 0.77 0.76 67.1 0 1 223.81 194.97
  L 223.88 190.99
  Q 224.88 174.82 235.00 164.02
  C 254.46 143.25 287.13 140.47 310.21 157.17
  L 309.67 159.01
  A 1.05 1.04 -55.9 0 0 309.84 159.92
  Q 315.21 166.98 318.04 173.39
  Q 322.54 183.55 323.01 195.74
  C 323.88 217.84 308.36 240.97 286.14 245.10
  A 1.61 1.61 0.0 0 0 284.83 246.77
  C 285.04 250.40 285.62 257.39 288.02 260.28
  Q 288.19 271.07 287.91 281.87
  C 287.79 286.41 287.86 297.81 290.71 301.04
  Q 292.47 303.05 292.55 304.25
  Q 294.08 326.46 298.87 347.79
  A 1.29 1.28 -4.0 0 1 297.51 349.35
  L 286.57 348.46
  Q 284.69 347.88 284.20 346.54
  Q 281.25 338.53 275.20 317.77
  Q 272.76 309.40 268.54 304.45
  Q 263.44 298.45 259.41 293.09
  C 250.62 281.42 245.71 264.68 248.76 250.72
  A 0.74 0.73 -82.2 0 0 248.09 249.83
  L 247.69 249.81
  A 1.50 1.49 7.2 0 0 246.13 251.01
  C 243.93 262.43 245.62 271.23 249.10 281.72
  Q 245.56 281.36 243.67 281.38
  Q 223.98 281.62 216.75 281.06
  Q 213.26 280.79 203.75 279.78
  Q 201.60 279.55 199.68 278.93
  A 0.83 0.82 -74.8 0 1 199.14 277.97
  L 202.71 261.76
  A 0.45 0.45 0.0 0 0 201.99 261.31
  L 201.29 261.86
  A 1.63 1.57 -12.2 0 0 200.75 262.66
  Q 188.19 303.68 185.41 344.15
  A 0.79 0.79 0.0 0 1 184.57 344.89
  L 172.56 344.18
  A 0.77 0.76 1.2 0 1 171.83 343.43
  Q 171.32 319.83 168.87 298.39
  C 167.82 289.14 167.76 280.07 167.14 271.99
  Q 165.84 254.79 166.51 236.65
  A 0.67 0.67 0.0 0 0 165.88 235.96
  L 165.62 235.94
  A 0.43 0.43 0.0 0 0 165.17 236.33
  Q 163.53 253.35 163.87 270.74
  A 0.51 0.50 16.0 0 1 163.09 271.17
  C 152.47 264.30 143.74 254.99 140.56 242.82
  C 137.81 232.27 140.47 219.23 144.81 209.05
  Q 149.05 199.10 149.83 197.08
  C 150.95 194.20 152.45 189.50 148.94 187.87
  C 147.58 187.24 144.36 188.58 143.30 189.03
  Q 127.25 195.83 119.13 199.12
  Q 112.31 201.87 105.59 200.18
  A 0.92 0.91 17.3 0 1 104.95 198.97
  L 106.47 194.94
  A 1.04 1.04 0.0 0 0 105.30 193.55
  C 102.57 194.07 99.34 194.85 96.99 194.14
  A 0.72 0.72 0.0 0 1 96.54 193.16
  C 99.81 185.70 102.52 180.05 102.70 171.27
  C 102.80 166.21 100.35 161.15 101.69 155.94
  Q 103.65 148.36 106.53 141.41
  A 0.72 0.72 0.0 0 0 106.26 140.53
  Q 97.64 134.89 95.02 124.41
  A 0.83 0.82 -4.8 0 1 95.89 123.39
  C 103.38 123.98 108.34 124.04 114.65 126.67
  C 116.51 127.44 118.63 127.73 119.12 125.59
  A 1.82 1.80 -48.6 0 0 119.06 124.57
  Q 118.30 122.52 115.82 119.39
  Q 105.35 106.13 88.35 103.41
  Q 81.33 102.28 74.20 101.43
  Q 64.38 100.26 60.57 90.78
  C 51.45 68.09 65.01 45.92 81.35 31.34
  A 0.32 0.32 0.0 0 1 81.83 31.74
  C 75.44 42.49 71.44 52.65 71.17 65.66
  C 70.95 75.84 74.12 83.71 83.86 87.34
  Q 86.04 88.15 87.78 87.91
  A 1.76 1.75 86.1 0 0 89.29 86.17
  C 89.27 80.87 89.73 67.21 93.18 63.58
  A 0.27 0.27 0.0 0 1 93.64 63.75
  Q 93.99 70.37 94.04 71.24
  C 94.41 77.89 97.44 88.18 104.33 90.71
  A 1.25 1.24 -80.6 0 0 106.00 89.51
  C 105.73 78.44 108.28 68.68 115.45 60.17
  A 0.72 0.72 0.0 0 1 116.70 60.45
  Q 116.83 60.94 116.64 61.76
  C 112.92 77.38 118.25 94.08 126.09 108.15
  Q 129.05 113.46 132.57 117.08
  A 1.73 1.71 -39.0 0 0 134.77 117.30
  L 136.49 116.13
  A 1.50 1.42 -64.9 0 1 137.05 115.91
  Q 145.82 114.41 154.23 115.51
  A 0.58 0.58 0.0 0 1 154.70 116.28
  L 154.33 117.26
  A 0.82 0.82 0.0 0 1 153.28 117.74
  L 151.48 117.06
  A 0.37 0.37 0.0 0 0 150.99 117.33
  L 150.92 117.62
  A 0.80 0.79 22.6 0 0 151.27 118.46
  Q 154.09 120.28 155.66 117.16
  C 162.64 103.29 165.81 86.01 162.05 70.72
  A 0.61 0.60 -86.4 0 1 162.85 70.01
  Q 163.15 70.12 163.48 70.55
  C 169.00 77.59 170.73 87.65 170.29 96.54
  A 1.16 1.16 0.0 0 0 171.74 97.72
  Q 172.51 97.52 172.97 96.91
  Q 185.08 81.06 180.24 61.71
  A 0.51 0.50 6.1 0 1 180.95 61.14
  C 182.55 61.92 184.34 63.61 185.27 65.06
  Q 191.90 75.41 188.74 88.08
  A 0.65 0.65 0.0 0 0 189.65 88.83
  Q 190.45 88.46 190.94 87.92
  C 199.23 78.75 203.34 65.52 201.06 53.36
  C 200.36 49.64 198.84 46.97 197.08 42.82
  Q 196.86 42.30 197.42 42.00
  Q 197.60 41.90 197.80 42.04
  A 1.98 0.50 26.5 0 1 198.01 42.18
  Q 200.53 43.78 203.52 49.20
  Q 208.21 57.72 208.79 67.51
  A 0.55 0.55 0.0 0 0 209.66 67.93
  C 213.66 65.11 215.80 59.35 216.46 55.01
  Q 219.03 37.94 209.66 23.92
  A 0.38 0.38 0.0 0 1 210.16 23.38
  C 224.47 31.70 232.41 46.04 228.71 62.54
  C 224.79 80.03 209.24 93.13 193.95 101.45
  C 183.53 107.13 174.02 111.78 167.16 121.59
  A 0.85 0.84 -58.9 0 0 167.46 122.83
  C 169.57 123.91 171.67 125.03 172.30 127.27
  A 0.83 0.82 -27.6 0 1 172.03 128.12
  Q 169.98 129.78 167.61 131.35
  Q 167.09 131.69 167.09 132.05
  A 0.59 0.59 0.0 0 0 167.83 132.64
  Q 170.91 131.81 175.68 130.45
  Q 179.16 129.47 186.01 129.40
  Q 192.13 129.33 205.75 129.93
  A 0.45 0.45 0.0 0 1 206.10 130.64
  Q 204.12 133.31 200.91 137.39
  Q 193.77 146.46 182.90 149.57
  A 0.47 0.47 0.0 0 0 182.60 150.23
  C 185.51 156.32 186.38 162.19 187.06 169.56
  Q 188.07 180.54 188.88 191.54
  Z
  M 167.17 151.33
  Q 166.94 151.48 165.70 152.81
  C 162.80 155.92 158.10 157.40 153.74 157.45
  Q 148.77 157.51 141.71 157.71
  C 129.80 158.05 131.49 168.89 131.68 177.05
  Q 131.71 178.29 132.50 178.82
  A 0.59 0.59 0.0 0 0 133.41 178.42
  C 134.91 168.80 155.37 181.10 154.32 162.45
  A 1.80 1.79 80.6 0 1 155.62 160.62
  C 160.54 159.24 165.57 156.94 167.59 151.67
  A 0.29 0.28 -5.7 0 0 167.17 151.33
  Z"
/>
<path fill="#3285a9" d="
  M 330.56 185.25
  Q 324.88 167.98 310.21 157.17
  C 287.13 140.47 254.46 143.25 235.00 164.02
  Q 224.88 174.82 223.88 190.99
  Q 223.41 191.94 223.44 193.15
  A 0.45 0.45 0.0 0 1 222.84 193.58
  L 222.28 193.36
  A 0.71 0.69 13.1 0 1 221.82 192.64
  C 222.23 188.42 221.59 183.59 223.71 178.96
  Q 229.06 167.31 238.67 158.18
  C 241.95 155.07 245.25 153.38 249.78 151.09
  C 257.88 147.01 266.06 144.26 275.14 144.61
  Q 284.20 144.96 291.83 146.39
  Q 295.73 147.13 299.49 149.03
  C 313.51 156.14 326.04 165.92 330.96 181.30
  Q 330.97 181.34 331.56 183.04
  Q 332.58 185.98 330.56 185.25
  Z"
/>
<path fill="#4e9ab6" d="
  M 167.59 151.67
  C 165.57 156.94 160.54 159.24 155.62 160.62
  A 1.80 1.79 80.6 0 0 154.32 162.45
  C 155.37 181.10 134.91 168.80 133.41 178.42
  A 0.59 0.59 0.0 0 1 132.50 178.82
  Q 131.71 178.29 131.68 177.05
  C 131.49 168.89 129.80 158.05 141.71 157.71
  Q 148.77 157.51 153.74 157.45
  C 158.10 157.40 162.80 155.92 165.70 152.81
  Q 166.94 151.48 167.17 151.33
  A 0.29 0.28 -5.7 0 1 167.59 151.67
  Z
  M 150.10 161.93
  C 146.72 163.02 141.56 163.03 142.36 168.00
  A 1.07 1.06 8.2 0 0 142.96 168.79
  Q 145.25 169.87 147.49 169.62
  A 3.28 3.25 -82.7 0 0 150.18 167.52
  L 151.66 163.57
  A 1.26 1.26 0.0 0 0 150.10 161.93
  Z"
/>
<path fill="#def4f2" d="
  M 310.21 157.17
  Q 324.88 167.98 330.56 185.25
  Q 334.42 200.39 331.31 216.07
  Q 328.53 229.10 320.67 239.92
  Q 308.74 256.34 288.50 259.19
  Q 287.62 259.32 288.02 260.28
  C 285.62 257.39 285.04 250.40 284.83 246.77
  A 1.61 1.61 0.0 0 1 286.14 245.10
  C 308.36 240.97 323.88 217.84 323.01 195.74
  Q 322.54 183.55 318.04 173.39
  Q 315.21 166.98 309.84 159.92
  A 1.05 1.04 -55.9 0 1 309.67 159.01
  L 310.21 157.17
  Z"
/>
<path fill="#fefcec" d="
  M 150.10 161.93
  A 1.26 1.26 0.0 0 1 151.66 163.57
  L 150.18 167.52
  A 3.28 3.25 -82.7 0 1 147.49 169.62
  Q 145.25 169.87 142.96 168.79
  A 1.07 1.06 8.2 0 1 142.36 168.00
  C 141.56 163.03 146.72 163.02 150.10 161.93
  Z"
/>
<path fill="#3285a9" d="
  M 188.88 191.54
  L 188.95 187.41
  A 0.27 0.27 0.0 0 1 189.24 187.14
  L 189.53 187.16
  A 0.36 0.36 0.0 0 1 189.87 187.54
  Q 189.76 189.87 190.21 191.87
  C 192.87 203.65 194.83 214.38 208.59 217.59
  Q 213.20 218.66 214.09 218.77
  A 11.41 11.14 -41.3 0 0 215.80 218.86
  C 219.01 218.78 222.04 219.49 225.27 219.54
  Q 246.60 219.84 250.75 219.88
  Q 253.61 219.91 260.01 220.93
  C 266.48 221.96 272.69 225.58 277.54 229.40
  A 1.39 1.38 45.6 0 0 279.23 229.42
  C 286.79 223.77 290.60 212.25 290.95 203.25
  Q 291.20 196.78 288.68 190.03
  Q 282.26 172.81 264.24 169.30
  C 258.53 168.18 254.25 170.11 248.49 172.01
  Q 243.93 173.52 239.53 176.84
  Q 237.42 178.43 232.92 184.53
  Q 229.79 188.76 226.30 192.86
  Q 232.63 176.84 249.09 170.17
  Q 258.94 166.18 268.92 169.10
  C 285.05 173.81 293.93 190.75 292.53 206.67
  C 291.65 216.67 286.11 225.23 278.68 231.70
  A 0.65 0.65 0.0 0 1 277.82 231.70
  Q 266.76 221.76 251.65 221.50
  Q 227.30 221.07 224.01 221.00
  C 215.94 220.82 208.08 219.83 200.98 215.77
  C 192.42 210.88 189.80 200.81 188.88 191.54
  Z"
/>
<path fill="#3285a9" d="
  M 288.02 260.28
  Q 287.62 259.32 288.50 259.19
  Q 308.74 256.34 320.67 239.92
  Q 328.53 229.10 331.31 216.07
  C 332.84 223.90 327.50 234.20 322.62 240.38
  C 313.82 251.52 302.61 260.06 288.02 260.28
  Z"
/>
<path fill="#3285a9" d="
  M 286.57 348.46
  Q 285.23 348.91 284.05 348.20
  A 1.72 1.66 3.1 0 1 283.39 347.49
  C 279.23 339.01 277.53 331.50 274.45 320.56
  Q 272.75 314.53 268.25 307.47
  Q 261.32 296.59 251.96 287.85
  L 249.99 284.97
  L 249.10 281.72
  C 245.62 271.23 243.93 262.43 246.13 251.01
  A 1.50 1.49 7.2 0 1 247.69 249.81
  L 248.09 249.83
  A 0.74 0.73 -82.2 0 1 248.76 250.72
  C 245.71 264.68 250.62 281.42 259.41 293.09
  Q 263.44 298.45 268.54 304.45
  Q 272.76 309.40 275.20 317.77
  Q 281.25 338.53 284.20 346.54
  Q 284.69 347.88 286.57 348.46
  Z"
/>
<path fill="#90cadc" d="
  M 142.86 257.18
  A 0.77 0.76 54.7 0 1 143.87 257.36
  Q 150.36 265.76 158.79 271.31
  A 2.30 2.16 84.7 0 1 159.32 271.78
  L 163.68 277.28
  A 1.04 1.04 0.0 0 1 163.06 278.95
  Q 160.04 279.53 159.51 282.28
  C 158.00 290.11 162.18 296.06 166.39 302.65
  C 168.74 306.34 168.68 314.55 168.29 318.71
  A 2.87 2.64 85.7 0 1 166.35 321.17
  C 164.76 321.62 162.89 319.57 161.81 318.29
  C 148.93 302.88 138.49 288.22 131.77 269.28
  A 2.37 2.36 -51.4 0 1 131.65 268.19
  C 132.20 263.63 138.98 259.68 142.86 257.18
  Z"
/>
<path fill="#90cadc" d="
  M 221.57 284.49
  A 0.44 0.44 0.0 0 1 221.99 283.92
  L 239.91 283.92
  A 1.75 1.74 -11.4 0 1 241.52 284.98
  Q 243.44 289.48 249.97 301.31
  C 251.82 304.66 251.30 307.03 249.49 310.47
  Q 241.92 324.83 232.96 337.93
  Q 231.89 339.50 230.29 340.88
  A 2.08 2.06 -66.6 0 1 229.07 341.37
  L 222.00 341.74
  A 1.13 1.13 0.0 0 1 220.87 340.25
  Q 227.56 320.48 232.06 304.54
  Q 232.70 302.27 230.94 299.72
  C 226.36 293.12 223.11 289.31 221.57 284.49
  Z"
/>
<path fill="#90cadc" d="
  M 249.99 284.97
  L 251.96 287.85
  L 253.47 290.19
  A 0.58 0.47 53.9 0 1 253.43 290.88
  L 253.42 290.89
  A 0.42 0.42 0.0 0 1 252.86 290.87
  L 246.57 284.77
  A 0.51 0.50 62.6 0 1 246.84 283.91
  Q 248.80 283.59 249.99 284.97
  Z"
/>
</svg>
