<?xml version="1.0" encoding="UTF-8" standalone="no"?>
<!DOCTYPE svg PUBLIC "-//W3C//DTD SVG 1.1//EN" "http://www.w3.org/Graphics/SVG/1.1/DTD/svg11.dtd">
<svg xmlns="http://www.w3.org/2000/svg" version="1.1" viewBox="0.00 0.00 1024.00 1024.00">
<g stroke-width="2.00" fill="none" stroke-linecap="butt">
<path stroke="#f39a92" vector-effect="non-scaling-stroke" d="
  M 410.52 284.06
  Q 352.73 230.68 346.01 151.50
  Q 343.06 116.77 348.28 82.50
  Q 349.57 74.02 350.92 65.19
  Q 351.17 63.56 350.56 62.19
  A 1.16 1.16 0.0 0 0 349.87 61.57
  Q 346.85 60.59 344.38 61.82
  A 2.52 2.48 6.4 0 0 343.59 62.44
  L 341.52 64.87"
/>
<path stroke="#ffb599" vector-effect="non-scaling-stroke" d="
  M 341.52 64.87
  Q 314.27 91.74 305.14 128.80
  Q 302.70 138.73 301.29 149.75
  Q 297.51 179.19 299.89 208.73
  C 302.68 243.46 313.81 277.10 331.13 307.43"
/>
<path stroke="#ffad97" vector-effect="non-scaling-stroke" d="
  M 331.13 307.43
  Q 338.55 321.00 348.21 332.74"
/>
<path stroke="#f6a093" vector-effect="non-scaling-stroke" d="
  M 348.21 332.74
  Q 353.75 340.00 361.12 346.31"
/>
<path stroke="#ffdaa5" vector-effect="non-scaling-stroke" d="
  M 361.12 346.31
  Q 348.03 358.38 338.79 373.19
  A 1.14 1.14 0.0 0 1 338.17 373.68
  L 337.74 373.82"
/>
<path stroke="#f6a093" vector-effect="non-scaling-stroke" d="
  M 337.74 373.82
  Q 328.92 367.16 323.03 357.91"
/>
<path stroke="#ffad97" vector-effect="non-scaling-stroke" d="
  M 323.03 357.91
  Q 319.42 351.49 316.49 344.77
  Q 311.99 334.44 304.02 326.69"
/>
<path stroke="#ffb599" vector-effect="non-scaling-stroke" d="
  M 304.02 326.69
  C 296.34 319.68 285.50 314.54 275.72 311.23"
/>
<path stroke="#ffc5a0" vector-effect="non-scaling-stroke" d="
  M 275.72 311.23
  Q 271.36 309.35 266.88 307.83
  Q 234.96 297.05 202.96 286.50
  C 188.14 281.62 166.63 276.01 154.04 269.58
  A 1.02 1.01 22.2 0 0 152.62 270.17
  Q 148.65 282.43 148.19 296.47
  Q 146.85 337.61 162.89 376.42
  Q 170.26 394.24 181.85 409.65
  C 202.00 436.44 229.39 453.29 263.26 455.39
  Q 275.40 456.14 287.25 453.08"
/>
<path stroke="#ffb599" vector-effect="non-scaling-stroke" d="
  M 287.25 453.08
  Q 294.39 451.36 301.05 448.08"
/>
<path stroke="#ffad97" vector-effect="non-scaling-stroke" d="
  M 301.05 448.08
  L 305.55 445.77"
/>
<path stroke="#f6a093" vector-effect="non-scaling-stroke" d="
  M 305.55 445.77
  Q 306.08 445.69 306.53 445.44"
/>
<path stroke="#ffdaa5" vector-effect="non-scaling-stroke" d="
  M 306.53 445.44
  Q 307.46 445.47 307.09 446.82
  Q 302.58 463.26 299.74 478.48
  Q 294.42 507.03 293.58 512.28
  Q 291.48 525.42 291.01 530.50
  Q 289.02 552.33 291.81 570.98
  Q 296.35 601.26 317.88 623.60"
/>
<path stroke="#ffd5a1" vector-effect="non-scaling-stroke" d="
  M 317.88 623.60
  L 323.29 629.03"
/>
<path stroke="#ffc5a0" vector-effect="non-scaling-stroke" d="
  M 323.29 629.03
  Q 325.48 630.13 326.06 631.64"
/>
<path stroke="#a1ddcc" vector-effect="non-scaling-stroke" d="
  M 326.06 631.64
  L 317.47 629.63
  A 0.67 0.66 7.7 0 0 316.66 630.24
  Q 315.85 643.37 322.06 654.20
  Q 322.31 654.62 327.43 663.05
  Q 334.12 674.05 336.87 687.78
  Q 341.11 708.90 330.38 727.63
  Q 324.34 738.17 324.28 738.29
  Q 320.56 745.32 318.12 755.24"
/>
<path stroke="#90bab3" vector-effect="non-scaling-stroke" d="
  M 318.12 755.24
  C 313.45 745.97 311.23 737.68 308.93 726.63
  Q 305.08 708.18 306.57 689.60
  A 0.81 0.81 0.0 0 0 305.25 688.91
  Q 298.25 694.65 293.11 700.88"
/>
<path stroke="#a1ddcc" vector-effect="non-scaling-stroke" d="
  M 293.11 700.88
  Q 289.26 704.52 284.62 710.11
  Q 271.42 725.99 261.61 741.87
  Q 256.69 749.84 252.84 758.35
  Q 248.59 767.77 246.88 778.06"
/>
<path stroke="#9acfc3" vector-effect="non-scaling-stroke" d="
  M 246.88 778.06
  C 244.04 800.90 250.20 822.52 261.14 842.38"
/>
<path stroke="#94c4ba" vector-effect="non-scaling-stroke" d="
  M 261.14 842.38
  Q 267.25 853.52 275.19 862.82"
/>
<path stroke="#90bab3" vector-effect="non-scaling-stroke" d="
  M 275.19 862.82
  Q 285.69 875.39 299.18 884.20"
/>
<path stroke="#8fb5b0" vector-effect="non-scaling-stroke" d="
  M 299.18 884.20
  C 313.87 894.18 330.23 900.75 347.26 906.39"
/>
<path stroke="#ffd5a1" vector-effect="non-scaling-stroke" d="
  M 347.26 906.39
  Q 346.86 907.75 346.44 912.83
  Q 344.27 939.19 347.35 965.68
  A 2.13 2.12 3.1 0 0 349.00 967.51
  Q 375.35 973.36 402.61 975.70"
/>
<path stroke="#ffc5a0" vector-effect="non-scaling-stroke" d="
  M 402.61 975.70
  L 436.56 977.79"
/>
<path stroke="#ffb599" vector-effect="non-scaling-stroke" d="
  M 436.56 977.79
  L 437.65 977.83"
/>
<path stroke="#ffad97" vector-effect="non-scaling-stroke" d="
  M 437.65 977.83
  L 463.09 979.18"
/>
<path stroke="#ffe4b6" vector-effect="non-scaling-stroke" d="
  M 463.09 979.18
  L 470.94 979.27"
/>
<path stroke="#ffdaa5" vector-effect="non-scaling-stroke" d="
  M 470.94 979.27
  Q 518.68 980.86 565.81 978.74"
/>
<path stroke="#ffad97" vector-effect="non-scaling-stroke" d="
  M 565.81 978.74
  L 583.08 978.01"
/>
<path stroke="#ffd5a1" vector-effect="non-scaling-stroke" d="
  M 583.08 978.01
  Q 596.79 978.13 610.56 976.58"
/>
<path stroke="#ffc5a0" vector-effect="non-scaling-stroke" d="
  M 610.56 976.58
  L 634.52 974.35"
/>
<path stroke="#ffb599" vector-effect="non-scaling-stroke" d="
  M 634.52 974.35
  L 648.25 972.56"
/>
<path stroke="#ffad97" vector-effect="non-scaling-stroke" d="
  M 648.25 972.56
  Q 661.55 970.88 674.38 967.34
  A 1.57 1.57 0.0 0 0 675.52 966.02
  Q 679.82 933.37 675.43 900.74
  Q 675.31 899.87 676.46 899.56"
/>
<path stroke="#8fb5b0" vector-effect="non-scaling-stroke" d="
  M 676.46 899.56
  Q 689.05 895.69 700.20 888.69
  C 723.42 874.13 734.43 850.25 735.62 822.37
  Q 736.02 812.88 734.58 794.77
  Q 733.77 784.55 734.57 778.97
  Q 736.89 762.86 749.65 753.03
  A 0.53 0.52 25.4 0 0 749.31 752.09
  Q 728.15 752.54 709.12 762.24"
/>
<path stroke="#90bab3" vector-effect="non-scaling-stroke" d="
  M 709.12 762.24
  L 701.68 766.72"
/>
<path stroke="#94c4ba" vector-effect="non-scaling-stroke" d="
  M 701.68 766.72
  Q 692.70 773.03 685.14 781.41"
/>
<path stroke="#9acfc3" vector-effect="non-scaling-stroke" d="
  M 685.14 781.41
  Q 675.27 792.26 664.81 802.66
  Q 664.10 803.37 663.55 803.64
  Q 662.46 804.18 662.18 803.43"
/>
<path stroke="#8fb5b0" vector-effect="non-scaling-stroke" d="
  M 662.18 803.43
  Q 664.42 801.44 666.84 797.84
  Q 677.57 781.85 681.99 763.88
  Q 683.12 759.26 685.28 740.92
  Q 687.89 718.79 693.59 696.77
  A 0.36 0.36 0.0 0 0 692.92 696.51
  Q 687.53 706.84 679.53 715.24"
/>
<path stroke="#90bab3" vector-effect="non-scaling-stroke" d="
  M 679.53 715.24
  Q 670.57 724.76 659.56 732.33"
/>
<path stroke="#94c4ba" vector-effect="non-scaling-stroke" d="
  M 659.56 732.33
  Q 651.69 737.64 644.13 740.88
  Q 623.24 749.83 600.53 744.12"
/>
<path stroke="#90bab3" vector-effect="non-scaling-stroke" d="
  M 600.53 744.12
  L 592.95 741.33"
/>
<path stroke="#ffad97" vector-effect="non-scaling-stroke" d="
  M 592.95 741.33
  C 592.75 740.93 592.43 740.63 592.33 740.20
  Q 585.68 711.02 587.56 681.07
  A 2.03 2.02 -4.4 0 1 589.14 679.23
  Q 602.66 676.23 606.51 675.13
  Q 630.03 668.42 650.60 658.60
  C 683.40 642.95 714.14 616.74 721.54 579.10
  Q 725.24 560.32 723.72 542.24
  Q 721.77 519.10 717.38 494.12
  Q 714.02 475.03 706.69 448.27"
/>
<path stroke="#f6a093" vector-effect="non-scaling-stroke" d="
  M 706.69 448.27
  Q 720.10 453.53 733.97 454.88
  Q 766.15 457.99 794.47 443.63
  Q 821.14 430.10 839.91 406.12
  Q 864.46 374.74 875.21 335.75
  C 879.87 318.83 882.12 301.64 880.03 284.24
  Q 879.21 277.47 877.24 271.77
  A 0.69 0.69 0.0 0 0 876.31 271.36
  L 869.52 274.31"
/>
<path stroke="#ffad97" vector-effect="non-scaling-stroke" d="
  M 869.52 274.31
  Q 860.39 276.82 858.00 277.31
  Q 838.92 281.23 819.99 285.27"
/>
<path stroke="#ffb599" vector-effect="non-scaling-stroke" d="
  M 819.99 285.27
  Q 804.98 288.86 789.97 292.11
  Q 774.60 295.44 768.67 297.25
  Q 760.69 299.66 747.75 303.79
  Q 741.17 305.89 731.41 310.39
  C 719.93 315.69 709.69 323.09 703.61 333.59
  Q 700.64 338.72 695.84 348.11
  Q 689.73 360.08 678.40 369.40
  Q 675.02 372.18 671.60 374.92"
/>
<path stroke="#ffad97" vector-effect="non-scaling-stroke" d="
  M 671.60 374.92
  Q 670.70 374.00 670.33 373.43
  Q 661.74 360.19 650.17 348.98"
/>
<path stroke="#f39a92" vector-effect="non-scaling-stroke" d="
  M 650.17 348.98
  C 669.79 335.01 684.82 316.64 698.49 296.47
  C 717.50 268.43 730.60 239.61 736.40 207.73
  Q 743.77 167.19 733.08 127.93
  Q 724.39 96.04 705.82 68.69
  C 701.95 62.99 697.74 56.77 690.53 59.36
  A 1.51 1.49 -20.3 0 0 689.63 61.30
  L 693.02 70.22"
/>
<path stroke="#ffb599" vector-effect="non-scaling-stroke" d="
  M 693.02 70.22
  Q 702.91 107.91 698.80 146.57
  C 698.31 151.21 697.51 160.51 696.20 166.25
  Q 694.37 174.24 692.44 182.19
  A 0.58 0.58 0.0 0 1 691.93 182.63
  Q 691.86 182.64 691.62 182.54"
/>
<path stroke="#8baba8" vector-effect="non-scaling-stroke" d="
  M 691.62 182.54
  C 694.80 166.45 695.13 150.54 689.20 135.04
  Q 682.93 118.68 676.12 107.74"
/>
<path stroke="#90bab3" vector-effect="non-scaling-stroke" d="
  M 676.12 107.74
  Q 672.61 101.45 668.45 95.78
  Q 667.70 94.77 666.78 94.60
  A 0.50 0.50 0.0 0 0 666.22 95.27
  Q 672.66 112.85 669.60 131.82
  C 664.48 163.48 638.06 178.04 611.03 188.60
  C 600.61 192.67 588.55 196.08 577.17 199.56"
/>
<path stroke="#8fb5b0" vector-effect="non-scaling-stroke" d="
  M 577.17 199.56
  Q 560.21 205.26 545.63 215.63
  Q 545.56 215.68 545.38 215.59
  A 0.07 0.06 -53.3 0 1 545.37 215.48
  Q 556.58 205.17 564.51 199.76
  C 580.63 188.78 589.13 183.80 599.08 174.09
  C 614.40 159.11 621.78 139.04 625.22 117.34"
/>
<path stroke="#90bab3" vector-effect="non-scaling-stroke" d="
  M 625.22 117.34
  Q 629.17 94.05 623.98 70.40"
/>
<path stroke="#94c4ba" vector-effect="non-scaling-stroke" d="
  M 623.98 70.40
  Q 622.52 59.29 616.80 49.50"
/>
<path stroke="#a7e7cf" vector-effect="non-scaling-stroke" d="
  M 616.80 49.50
  Q 615.29 46.40 612.56 44.67
  A 0.44 0.44 0.0 0 0 611.88 45.07
  C 612.68 60.95 604.75 74.43 592.05 83.56
  Q 577.82 93.78 558.54 102.04
  C 544.01 108.27 529.08 113.47 513.76 120.31
  Q 491.10 130.43 469.53 145.25
  C 454.60 155.51 441.31 167.70 430.68 181.91
  Q 407.53 212.86 406.96 251.14
  C 406.79 262.56 407.44 272.65 410.54 283.24
  Q 410.67 283.69 410.52 284.06"
/>
<path stroke="#3bb198" vector-effect="non-scaling-stroke" d="
  M 616.80 49.50
  Q 614.50 47.98 614.09 53.42
  Q 613.75 57.93 613.61 61.80
  Q 613.43 66.72 612.75 70.09
  Q 608.21 92.84 593.66 110.40
  Q 582.15 124.30 566.86 133.10
  C 561.38 136.24 553.04 140.76 545.73 143.73
  Q 530.89 149.76 519.39 155.40
  C 498.40 165.70 479.40 180.16 465.36 198.65
  Q 454.12 213.45 448.05 227.22
  C 437.50 251.16 435.25 279.54 441.24 305.82
  Q 444.17 318.67 450.87 333.18
  Q 456.23 344.78 459.56 350.42
  Q 466.18 361.61 477.86 375.53"
/>
<path stroke="#a7c783" vector-effect="non-scaling-stroke" d="
  M 477.86 375.53
  L 445.47 345.40"
/>
<path stroke="#a7b27e" vector-effect="non-scaling-stroke" d="
  M 445.47 345.40
  L 434.20 332.48"
/>
<path stroke="#9b8670" vector-effect="non-scaling-stroke" d="
  M 434.20 332.48
  Q 417.91 310.48 410.52 284.06"
/>
<path stroke="#f36540" vector-effect="non-scaling-stroke" d="
  M 434.20 332.48
  Q 434.70 334.26 433.49 335.14"
/>
<path stroke="#f37a46" vector-effect="non-scaling-stroke" d="
  M 433.49 335.14
  Q 430.81 338.14 428.20 340.97
  Q 420.27 349.58 409.10 353.13
  C 395.27 357.53 376.94 357.67 364.66 348.77"
/>
<path stroke="#ea3f34" vector-effect="non-scaling-stroke" d="
  M 364.66 348.77
  C 379.54 345.13 392.07 341.10 403.95 331.91
  A 0.41 0.40 -43.3 0 0 403.97 331.29
  L 386.95 316.18"
/>
<path stroke="#f34d37" vector-effect="non-scaling-stroke" d="
  M 386.95 316.18
  Q 375.74 304.71 366.26 291.92"
/>
<path stroke="#f3553a" vector-effect="non-scaling-stroke" d="
  M 366.26 291.92
  C 352.56 272.00 341.85 249.97 335.23 226.67
  Q 330.66 210.58 328.51 197.00
  Q 322.20 157.19 328.38 113.11
  Q 329.31 106.48 331.08 99.01
  Q 333.09 90.55 334.91 85.18
  Q 340.06 69.96 341.52 64.87"
/>
<path stroke="#24847c" vector-effect="non-scaling-stroke" d="
  M 623.98 70.40
  Q 621.30 83.86 617.57 93.63
  C 608.68 116.96 591.45 136.56 571.47 151.75
  Q 551.56 166.88 538.52 176.52
  Q 519.84 190.33 508.85 203.32
  Q 466.15 253.78 485.74 317.54
  Q 486.03 318.48 491.42 334.98
  Q 497.07 352.26 500.20 370.34"
/>
<path stroke="#207570" vector-effect="non-scaling-stroke" d="
  M 500.20 370.34
  Q 500.27 376.94 500.09 390.75
  Q 500.00 396.94 501.94 403.17"
/>
<path stroke="#94a46e" vector-effect="non-scaling-stroke" d="
  M 501.94 403.17
  Q 500.46 401.67 499.11 399.88
  Q 493.65 392.64 487.78 385.79
  Q 485.81 383.49 483.60 381.41
  Q 482.38 380.26 477.86 375.53"
/>
<path stroke="#ffa554" vector-effect="non-scaling-stroke" d="
  M 445.47 345.40
  C 440.23 344.00 436.50 339.44 433.49 335.14"
/>
<path stroke="#ffa554" vector-effect="non-scaling-stroke" d="
  M 520.29 394.76
  Q 519.02 398.13 516.70 400.24
  C 511.00 405.43 507.88 412.63 504.38 420.39
  C 502.46 424.64 500.98 430.90 500.62 434.39
  C 499.74 443.09 499.69 454.53 499.87 463.90
  Q 500.21 481.61 500.41 499.26
  Q 500.82 534.91 499.64 568.25
  Q 499.56 570.34 499.74 572.52"
/>
<path stroke="#ffce79" vector-effect="non-scaling-stroke" d="
  M 499.74 572.52
  Q 496.83 572.99 491.99 572.68
  Q 473.16 571.47 458.60 560.66
  Q 451.34 555.27 443.96 550.04
  Q 436.55 544.80 423.48 541.66"
/>
<path stroke="#96724c" vector-effect="non-scaling-stroke" d="
  M 423.48 541.66
  Q 424.38 534.99 424.28 530.00
  Q 423.86 509.44 417.24 488.01
  C 410.40 465.88 394.87 442.68 369.23 442.35"
/>
<path stroke="#ffc46a" vector-effect="non-scaling-stroke" d="
  M 369.23 442.35
  C 356.75 441.16 346.56 446.42 337.86 454.88
  C 334.13 458.50 330.46 464.05 327.54 468.27
  Q 323.92 473.50 323.71 478.88"
/>
<path stroke="#96724c" vector-effect="non-scaling-stroke" d="
  M 323.71 478.88
  Q 318.09 492.68 317.88 508.75
  Q 317.68 523.28 321.32 535.44"
/>
<path stroke="#ffce79" vector-effect="non-scaling-stroke" d="
  M 321.32 535.44
  L 320.49 540.50
  A 0.92 0.91 82.8 0 1 319.96 541.19
  Q 317.41 542.32 315.02 543.78
  Q 299.27 553.36 302.68 572.28
  Q 304.66 583.26 311.17 595.97"
/>
<path stroke="#ffb555" vector-effect="non-scaling-stroke" d="
  M 311.17 595.97
  L 307.47 589.91
  A 1.93 1.93 0.0 0 0 304.34 589.69
  L 301.57 593.04
  A 2.84 2.81 54.3 0 0 301.12 595.86
  Q 305.19 606.18 309.70 612.28
  Q 315.76 620.49 317.88 623.60"
/>
<path stroke="#f68047" vector-effect="non-scaling-stroke" d="
  M 364.66 348.77
  L 361.12 346.31"
/>
<path stroke="#ff683f" vector-effect="non-scaling-stroke" d="
  M 366.26 291.92
  Q 349.77 301.88 331.13 307.43"
/>
<path stroke="#f65339" vector-effect="non-scaling-stroke" d="
  M 386.95 316.18
  L 348.21 332.74"
/>
<path stroke="#8b5e4d" vector-effect="non-scaling-stroke" d="
  M 596.45 288.72
  Q 589.05 297.38 583.33 306.36
  A 6.73 6.73 0.0 0 1 580.51 308.84
  C 563.38 316.91 549.35 330.48 535.96 344.71
  Q 515.99 365.95 507.44 393.49
  Q 505.75 398.93 504.54 406.51"
/>
<path stroke="#8b8b5c" vector-effect="non-scaling-stroke" d="
  M 504.54 406.51
  L 501.94 403.17"
/>
<path stroke="#1b6666" vector-effect="non-scaling-stroke" d="
  M 498.90 303.56
  Q 501.57 294.34 507.19 276.13
  C 510.62 265.02 515.59 255.63 524.05 247.81
  Q 530.25 242.08 544.27 230.33
  Q 555.21 221.15 571.22 214.97
  Q 575.49 213.32 587.45 210.00
  Q 597.80 207.13 613.25 201.57"
/>
<path stroke="#1f7572" vector-effect="non-scaling-stroke" d="
  M 625.22 117.34
  Q 614.48 136.52 599.13 151.70
  C 585.39 165.28 575.04 173.00 556.61 188.12
  Q 541.59 200.43 528.37 216.33
  Q 505.02 244.40 500.80 281.71
  Q 499.36 294.45 498.90 303.56"
/>
<path stroke="#1c6b6a" vector-effect="non-scaling-stroke" d="
  M 498.90 303.56
  Q 497.52 317.19 498.18 328.35
  C 498.64 336.21 498.76 342.98 499.52 350.65
  Q 500.49 360.41 500.20 370.34"
/>
<path stroke="#ff8048" vector-effect="non-scaling-stroke" d="
  M 588.78 388.06
  L 596.47 392.00
  A 0.97 0.95 9.0 0 1 596.98 392.69
  Q 598.09 399.81 597.40 406.78
  C 596.79 412.98 594.12 419.48 592.00 425.12
  C 587.78 436.33 588.99 446.14 591.47 458.48"
/>
<path stroke="#965d46" vector-effect="non-scaling-stroke" d="
  M 591.47 458.48
  Q 587.44 463.81 585.06 468.55
  Q 572.78 493.02 572.90 521.00
  Q 572.94 529.50 576.20 539.78"
/>
<path stroke="#ffb974" vector-effect="non-scaling-stroke" d="
  M 576.20 539.78
  Q 557.37 541.78 543.13 553.42
  Q 534.60 560.38 531.95 562.45
  Q 518.37 573.06 499.74 572.52"
/>
<path stroke="#967b5d" vector-effect="non-scaling-stroke" d="
  M 369.23 442.35
  C 347.84 442.97 331.21 459.83 323.71 478.88"
/>
<path stroke="#f55b3b" vector-effect="non-scaling-stroke" d="
  M 273.72 349.15
  Q 280.90 357.07 285.56 364.94
  Q 295.72 382.11 300.80 390.10"
/>
<path stroke="#f65339" vector-effect="non-scaling-stroke" d="
  M 300.80 390.10
  L 312.46 405.50
  A 0.12 0.12 0.0 0 0 312.68 405.44
  L 317.22 349.16
  A 0.24 0.24 0.0 0 1 317.66 349.06
  L 323.03 357.91"
/>
<path stroke="#f68047" vector-effect="non-scaling-stroke" d="
  M 337.74 373.82
  L 337.64 374.51
  A 1.65 1.61 69.8 0 1 337.29 375.29
  Q 335.75 377.18 334.50 379.26
  Q 316.02 409.79 307.80 443.61
  Q 307.54 444.70 306.53 445.44"
/>
<path stroke="#f65339" vector-effect="non-scaling-stroke" d="
  M 305.55 445.77
  L 306.22 422.28
  A 0.39 0.39 0.0 0 0 305.75 421.89
  L 298.74 423.30"
/>
<path stroke="#f55b3b" vector-effect="non-scaling-stroke" d="
  M 298.74 423.30
  L 289.97 424.57"
/>
<path stroke="#f65339" vector-effect="non-scaling-stroke" d="
  M 607.53 326.23
  L 578.65 314.18
  A 0.37 0.37 0.0 0 0 578.14 314.50
  C 577.80 320.31 581.07 327.22 584.20 331.75"
/>
<path stroke="#906d59" vector-effect="non-scaling-stroke" d="
  M 592.95 741.33
  Q 592.81 741.65 592.95 742.12
  Q 602.71 774.67 625.48 800.08"
/>
<path stroke="#8f6855" vector-effect="non-scaling-stroke" d="
  M 625.48 800.08
  L 642.67 820.12"
/>
<path stroke="#94775f" vector-effect="non-scaling-stroke" d="
  M 642.67 820.12
  Q 655.20 836.63 663.69 855.59"
/>
<path stroke="#906d59" vector-effect="non-scaling-stroke" d="
  M 663.69 855.59
  L 665.00 858.76"
/>
<path stroke="#8f6855" vector-effect="non-scaling-stroke" d="
  M 665.00 858.76
  Q 671.85 877.60 675.26 898.22
  Q 675.45 899.35 676.46 899.56"
/>
<path stroke="#ff683f" vector-effect="non-scaling-stroke" d="
  M 648.25 972.56
  C 648.35 952.51 647.64 932.31 641.67 913.22
  Q 636.21 895.76 623.01 879.39
  A 0.33 0.32 36.2 0 0 622.46 879.47
  L 615.68 896.13"
/>
<path stroke="#ff7845" vector-effect="non-scaling-stroke" d="
  M 615.68 896.13
  L 606.10 922.00"
/>
<path stroke="#ff8847" vector-effect="non-scaling-stroke" d="
  M 606.10 922.00
  Q 600.20 938.64 592.78 954.58
  Q 589.93 960.69 587.78 966.22
  Q 585.49 972.11 583.08 978.01"
/>
<path stroke="#ff8d4b" vector-effect="non-scaling-stroke" d="
  M 565.81 978.74
  Q 567.99 968.59 570.64 962.92
  Q 576.04 951.33 581.34 939.75"
/>
<path stroke="#ff975c" vector-effect="non-scaling-stroke" d="
  M 581.34 939.75
  C 588.13 926.13 594.38 911.65 595.65 896.50
  C 596.51 886.17 596.83 874.91 594.90 865.00
  Q 592.84 854.43 591.51 849.73
  Q 581.94 815.80 580.37 808.67
  Q 574.70 782.86 574.11 779.99
  C 570.23 761.05 568.81 740.71 569.58 720.51
  C 570.11 706.37 570.25 696.12 572.14 684.47
  A 1.11 1.11 0.0 0 0 570.84 683.20
  Q 562.11 684.82 544.83 687.32
  Q 509.62 692.41 471.75 687.07
  Q 464.27 686.01 456.39 684.62"
/>
<path stroke="#ff7845" vector-effect="non-scaling-stroke" d="
  M 456.39 684.62
  Q 447.53 684.44 439.46 681.04"
/>
<path stroke="#a79a75" vector-effect="non-scaling-stroke" d="
  M 439.46 681.04
  L 423.30 675.90"
/>
<path stroke="#906d59" vector-effect="non-scaling-stroke" d="
  M 423.30 675.90
  L 400.63 669.57"
/>
<path stroke="#94775f" vector-effect="non-scaling-stroke" d="
  M 400.63 669.57
  L 394.80 667.51"
/>
<path stroke="#ff683f" vector-effect="non-scaling-stroke" d="
  M 394.80 667.51
  C 394.47 661.26 403.78 663.18 407.57 663.84"
/>
<path stroke="#ffa16b" vector-effect="non-scaling-stroke" d="
  M 407.57 663.84
  Q 442.25 673.81 477.72 679.35"
/>
<path stroke="#ff975c" vector-effect="non-scaling-stroke" d="
  M 477.72 679.35
  Q 489.74 681.41 501.75 681.55
  Q 526.66 681.85 550.30 677.84
  Q 566.78 675.05 584.95 670.91
  Q 604.88 666.38 618.76 660.79
  Q 642.53 651.23 663.58 635.33
  Q 686.54 618.01 699.65 593.08
  C 702.53 587.62 704.15 582.70 705.15 577.13
  Q 707.49 564.09 698.51 554.74
  Q 692.33 548.30 684.72 544.35"
/>
<path stroke="#96453d" vector-effect="non-scaling-stroke" d="
  M 684.72 544.35
  Q 687.80 537.96 688.81 530.34
  Q 692.98 498.92 676.46 472.01
  C 663.88 451.53 644.79 435.52 619.18 439.82"
/>
<path stroke="#ff683f" vector-effect="non-scaling-stroke" d="
  M 619.18 439.82
  C 623.48 423.26 618.95 405.50 604.07 395.86
  Q 596.74 391.12 588.78 388.06"
/>
<path stroke="#ff7845" vector-effect="non-scaling-stroke" d="
  M 588.78 388.06
  Q 577.93 384.32 566.77 383.55
  C 559.47 383.04 551.10 384.24 543.84 385.59
  Q 531.03 387.95 520.29 394.76"
/>
<path stroke="#ff8d4b" vector-effect="non-scaling-stroke" d="
  M 520.29 394.76
  Q 512.84 400.18 511.47 402.22
  Q 509.62 404.97 507.52 407.63
  A 1.87 1.87 0.0 0 1 505.02 408.02
  Q 503.96 407.30 504.54 406.51"
/>
<path stroke="#ffa050" vector-effect="non-scaling-stroke" d="
  M 337.06 627.90
  Q 332.58 624.85 330.20 624.15
  C 326.64 623.09 322.19 624.26 323.29 629.03"
/>
<path stroke="#ffd78a" vector-effect="non-scaling-stroke" d="
  M 653.19 574.06
  Q 651.45 583.51 648.67 592.80
  C 639.55 623.33 614.18 639.40 585.10 647.57
  Q 551.87 656.92 548.31 658.06
  Q 538.09 661.35 514.72 670.35
  Q 500.31 675.90 477.72 679.35"
/>
<path stroke="#fea96d" vector-effect="non-scaling-stroke" d="
  M 407.57 663.84
  Q 395.19 660.14 386.67 656.83
  Q 368.09 649.61 350.29 637.91"
/>
<path stroke="#ffb974" vector-effect="non-scaling-stroke" d="
  M 350.29 637.91
  L 337.06 627.90"
/>
<path stroke="#fec875" vector-effect="non-scaling-stroke" d="
  M 337.06 627.90
  Q 334.08 625.12 331.08 622.41
  C 322.59 614.75 317.25 606.63 311.17 595.97"
/>
<path stroke="#95856c" vector-effect="non-scaling-stroke" d="
  M 423.48 541.66
  C 421.27 555.31 415.76 567.56 402.94 574.22"
/>
<path stroke="#948f8e" vector-effect="non-scaling-stroke" d="
  M 402.94 574.22
  Q 394.45 577.40 385.98 575.02
  C 360.32 567.82 347.10 537.36 346.31 513.03
  Q 345.36 483.98 365.27 464.09
  A 0.28 0.28 0.0 0 0 365.08 463.62
  Q 358.18 463.56 352.17 467.70
  C 337.05 478.12 327.80 496.29 325.57 514.50
  C 324.12 526.36 324.47 538.27 328.70 549.27
  Q 330.97 555.16 335.53 561.23"
/>
<path stroke="#95856c" vector-effect="non-scaling-stroke" d="
  M 335.53 561.23
  Q 325.72 550.83 321.32 535.44"
/>
<path stroke="#1c6b6a" vector-effect="non-scaling-stroke" d="
  M 676.12 107.74
  Q 674.39 107.51 673.48 108.27
  A 0.89 0.89 0.0 0 0 673.20 109.17
  C 679.13 131.49 676.85 153.04 661.56 170.76
  Q 652.19 181.62 640.97 188.21
  Q 629.98 194.67 613.25 201.57"
/>
<path stroke="#1f7572" vector-effect="non-scaling-stroke" d="
  M 613.25 201.57
  C 606.80 203.36 599.37 205.23 594.14 202.83
  Q 585.28 198.77 577.17 199.56"
/>
<path stroke="#ff683f" vector-effect="non-scaling-stroke" d="
  M 642.30 301.45
  Q 629.15 304.54 616.98 298.69
  Q 606.77 293.78 596.45 288.72"
/>
<path stroke="#8b6650" vector-effect="non-scaling-stroke" d="
  M 596.45 288.72
  Q 605.40 278.89 616.27 271.02
  Q 627.62 262.81 639.05 254.74
  Q 661.83 238.65 677.03 215.30
  Q 687.03 199.94 691.62 182.54"
/>
<path stroke="#954d40" vector-effect="non-scaling-stroke" d="
  M 619.18 439.82
  Q 606.75 442.61 597.29 451.79
  Q 595.85 453.19 591.47 458.48"
/>
<path stroke="#967b5d" vector-effect="non-scaling-stroke" d="
  M 684.72 544.35
  L 682.25 548.87"
/>
<path stroke="#965d46" vector-effect="non-scaling-stroke" d="
  M 682.25 548.87
  Q 682.10 548.87 681.87 548.70"
/>
<path stroke="#948f8e" vector-effect="non-scaling-stroke" d="
  M 681.87 548.70
  Q 683.78 544.57 684.33 540.13
  C 687.39 515.67 677.63 491.08 660.24 474.18
  C 656.77 470.80 652.06 467.52 647.74 465.79
  A 0.37 0.37 0.0 0 0 647.31 466.37
  Q 658.33 480.02 660.88 497.62
  C 664.54 522.85 656.05 551.82 634.08 566.84
  Q 622.98 574.44 609.44 573.39"
/>
<path stroke="#95856c" vector-effect="non-scaling-stroke" d="
  M 609.44 573.39
  C 595.61 571.25 584.58 559.41 579.10 547.07
  Q 577.36 543.13 576.20 539.78"
/>
<path stroke="#ff683f" vector-effect="non-scaling-stroke" d="
  M 301.05 448.08
  L 298.74 423.30"
/>
<path stroke="#ff8048" vector-effect="non-scaling-stroke" d="
  M 275.72 311.23
  Q 273.61 329.86 273.72 349.15"
/>
<path stroke="#f66b42" vector-effect="non-scaling-stroke" d="
  M 273.72 349.15
  Q 259.09 334.14 239.29 326.23
  Q 223.33 319.85 184.61 303.91
  Q 178.25 301.28 174.20 299.85
  A 1.31 1.31 0.0 0 0 172.47 301.25
  Q 174.37 315.62 178.15 331.74
  C 179.99 339.59 183.69 349.17 185.69 354.63
  Q 191.98 371.78 203.63 386.87
  C 224.03 413.29 256.82 425.58 289.97 424.57"
/>
<path stroke="#ff8048" vector-effect="non-scaling-stroke" d="
  M 289.97 424.57
  L 287.25 453.08"
/>
<path stroke="#ff683f" vector-effect="non-scaling-stroke" d="
  M 304.02 326.69
  C 300.84 347.67 300.81 367.49 300.80 390.10"
/>
<path stroke="#37a791" vector-effect="non-scaling-stroke" d="
  M 423.30 675.90
  L 425.79 677.68"
/>
<path stroke="#1f7572" vector-effect="non-scaling-stroke" d="
  M 425.79 677.68
  C 425.39 687.98 426.96 697.12 428.20 706.86
  Q 431.68 734.45 420.07 759.69
  Q 413.00 775.05 404.95 789.97"
/>
<path stroke="#24847c" vector-effect="non-scaling-stroke" d="
  M 404.95 789.97
  Q 409.24 780.80 410.42 770.90"
/>
<path stroke="#2b8f85" vector-effect="non-scaling-stroke" d="
  M 410.42 770.90
  L 410.96 758.48"
/>
<path stroke="#24847c" vector-effect="non-scaling-stroke" d="
  M 600.53 744.12
  C 613.05 760.16 626.25 770.57 647.89 765.96
  Q 650.60 765.38 655.26 764.17
  A 0.94 0.94 0.0 0 0 655.91 763.56
  Q 659.74 751.90 659.55 744.74
  Q 659.30 734.98 659.56 732.33"
/>
<path stroke="#f34d37" vector-effect="non-scaling-stroke" d="
  M 650.17 348.98
  Q 647.06 350.39 643.56 351.97
  Q 626.76 359.57 609.64 352.89
  Q 594.39 346.95 584.20 331.75"
/>
<path stroke="#ea3f34" vector-effect="non-scaling-stroke" d="
  M 584.20 331.75
  Q 587.74 331.27 591.24 331.36
  C 597.42 331.51 602.19 328.88 607.53 326.23"
/>
<path stroke="#f34d37" vector-effect="non-scaling-stroke" d="
  M 607.53 326.23
  Q 610.89 324.92 614.91 322.39
  Q 627.45 314.52 637.66 305.91
  Q 640.09 303.86 642.30 301.45"
/>
<path stroke="#f3553a" vector-effect="non-scaling-stroke" d="
  M 642.30 301.45
  Q 661.11 283.63 674.13 265.63
  Q 684.89 250.77 693.99 230.56
  Q 698.18 221.25 701.07 211.51
  Q 704.88 198.66 706.36 191.89
  Q 709.35 178.28 710.40 163.00
  Q 710.80 157.14 710.69 142.69
  Q 710.60 130.88 709.41 122.42
  C 706.81 104.12 702.25 85.89 693.02 70.22"
/>
<path stroke="#1f7572" vector-effect="non-scaling-stroke" d="
  M 665.00 858.76
  Q 672.01 857.53 676.75 855.59
  C 689.65 850.28 698.90 836.90 703.74 824.07
  C 711.07 804.59 711.19 783.72 709.12 762.24"
/>
<path stroke="#ff8048" vector-effect="non-scaling-stroke" d="
  M 634.52 974.35
  Q 630.65 964.17 630.34 953.91
  C 630.02 943.70 629.72 933.04 627.64 923.91
  Q 624.25 909.01 615.68 896.13"
/>
<path stroke="#ffa050" vector-effect="non-scaling-stroke" d="
  M 610.56 976.58
  Q 605.11 964.26 605.51 950.68
  Q 605.94 936.39 606.10 922.00"
/>
<path stroke="#937f62" vector-effect="non-scaling-stroke" d="
  M 394.80 667.51
  L 378.21 661.25"
/>
<path stroke="#9a8a6b" vector-effect="non-scaling-stroke" d="
  M 378.21 661.25
  L 372.23 658.96"
/>
<path stroke="#ffaf65" vector-effect="non-scaling-stroke" d="
  M 456.39 684.62
  L 457.74 693.87"
/>
<path stroke="#ffb974" vector-effect="non-scaling-stroke" d="
  M 457.74 693.87
  Q 457.55 694.64 457.91 695.37"
/>
<path stroke="#ffa050" vector-effect="non-scaling-stroke" d="
  M 457.91 695.37
  L 442.05 694.67
  A 0.48 0.48 0.0 0 0 441.55 695.13
  L 441.37 700.57"
/>
<path stroke="#24847c" vector-effect="non-scaling-stroke" d="
  M 400.63 669.57
  Q 414.86 696.85 412.93 727.21
  Q 411.94 742.82 410.96 758.48"
/>
<path stroke="#2f998b" vector-effect="non-scaling-stroke" d="
  M 410.96 758.48
  C 410.09 747.64 408.36 738.06 404.55 728.51"
/>
<path stroke="#ffaf65" vector-effect="non-scaling-stroke" d="
  M 677.45 556.04
  Q 680.58 553.61 682.25 548.87"
/>
<path stroke="#f65339" vector-effect="non-scaling-stroke" d="
  M 706.69 448.27
  Q 702.48 432.55 695.38 417.12
  Q 694.83 415.91 694.08 412.67"
/>
<path stroke="#f55b3b" vector-effect="non-scaling-stroke" d="
  M 694.08 412.67
  Q 711.24 390.64 718.71 378.22
  Q 727.51 363.58 732.76 356.98
  Q 739.43 348.60 744.08 344.57
  C 749.74 339.67 753.77 335.91 759.25 332.51
  Q 761.77 330.95 765.41 328.70
  Q 771.67 324.82 779.68 322.66
  Q 793.61 318.90 807.74 315.92"
/>
<path stroke="#f65339" vector-effect="non-scaling-stroke" d="
  M 807.74 315.92
  L 809.29 315.69"
/>
<path stroke="#ea3f34" vector-effect="non-scaling-stroke" d="
  M 809.29 315.69
  Q 804.05 323.91 799.37 332.06
  C 797.17 335.91 795.08 340.50 795.85 344.65
  Q 796.30 347.02 798.29 351.36
  C 802.96 361.55 793.19 371.72 786.16 378.43
  Q 782.59 381.83 761.10 401.68
  Q 754.31 407.95 738.47 424.74
  A 0.24 0.23 -67.3 0 0 738.63 425.14
  Q 754.09 425.44 766.76 421.44
  Q 783.74 416.08 798.10 405.07
  C 802.18 401.95 806.09 398.99 809.94 395.27
  Q 820.42 385.15 826.77 375.27
  Q 847.16 343.52 856.62 306.71
  A 0.70 0.70 0.0 0 0 855.78 305.85
  L 849.79 307.29"
/>
<path stroke="#f65339" vector-effect="non-scaling-stroke" d="
  M 849.79 307.29
  C 853.74 300.27 856.72 293.11 859.91 285.74
  Q 862.36 280.06 869.52 274.31"
/>
<path stroke="#2a8a81" vector-effect="non-scaling-stroke" d="
  M 662.18 803.43
  Q 655.51 811.61 647.10 817.23"
/>
<path stroke="#237f78" vector-effect="non-scaling-stroke" d="
  M 647.10 817.23
  L 642.67 820.12"
/>
<path stroke="#1f7572" vector-effect="non-scaling-stroke" d="
  M 625.48 800.08
  C 636.81 795.85 645.75 791.24 652.75 781.10
  C 662.42 767.10 666.33 751.47 672.34 731.58
  Q 673.94 726.25 679.53 715.24"
/>
<path stroke="#ffc46a" vector-effect="non-scaling-stroke" d="
  M 581.34 939.75
  Q 549.35 955.36 521.38 963.96
  C 504.59 969.12 487.60 973.66 470.94 979.27"
/>
<path stroke="#ff975c" vector-effect="non-scaling-stroke" d="
  M 463.09 979.18
  Q 457.94 964.57 450.84 951.14"
/>
<path stroke="#ffd78a" vector-effect="non-scaling-stroke" d="
  M 450.84 951.14
  Q 472.91 942.55 494.67 932.96
  C 518.53 922.44 537.69 908.05 547.41 883.08
  Q 548.36 880.65 550.97 872.45"
/>
<path stroke="#ffc46a" vector-effect="non-scaling-stroke" d="
  M 550.97 872.45
  Q 550.96 871.98 550.70 871.45"
/>
<path stroke="#ffd78a" vector-effect="non-scaling-stroke" d="
  M 550.70 871.45
  L 562.18 866.72
  A 0.65 0.65 0.0 0 0 562.58 866.04
  L 555.14 804.12
  A 0.47 0.46 -7.9 0 0 554.61 803.72
  Q 540.39 805.96 525.96 806.39"
/>
<path stroke="#ffbe66" vector-effect="non-scaling-stroke" d="
  M 525.96 806.39
  L 511.44 805.86"
/>
<path stroke="#ffd78a" vector-effect="non-scaling-stroke" d="
  M 511.44 805.86
  L 528.21 805.21
  A 0.63 0.63 0.0 0 0 528.80 804.71
  Q 530.81 794.98 531.04 786.85
  C 531.43 772.85 527.12 760.62 520.46 747.21
  A 2.05 2.01 3.1 0 0 519.69 746.37
  Q 507.33 738.85 500.56 737.04
  Q 490.97 734.49 484.38 733.34
  C 474.87 731.68 467.90 727.01 460.02 722.48"
/>
<path stroke="#ffbe66" vector-effect="non-scaling-stroke" d="
  M 460.02 722.48
  Q 460.62 719.38 459.54 714.93"
/>
<path stroke="#ffd78a" vector-effect="non-scaling-stroke" d="
  M 459.54 714.93
  C 462.31 724.73 480.11 730.15 488.41 731.80
  C 493.78 732.86 500.88 734.07 506.95 734.31
  Q 529.22 735.18 550.66 729.29
  A 0.20 0.19 55.8 0 0 550.72 728.95
  Q 523.26 707.67 489.92 698.38
  Q 474.16 693.99 457.74 693.87"
/>
<path stroke="#a7b27e" vector-effect="non-scaling-stroke" d="
  M 439.46 681.04
  Q 439.34 683.15 440.12 685.08
  A 2.50 2.35 -59.9 0 1 440.28 685.77
  L 440.56 689.55"
/>
<path stroke="#36a28e" vector-effect="non-scaling-stroke" d="
  M 440.56 689.55
  Q 433.98 682.72 425.79 677.68"
/>
<path stroke="#24847c" vector-effect="non-scaling-stroke" d="
  M 663.69 855.59
  C 681.30 841.26 693.49 825.53 698.03 802.73
  C 700.38 790.96 700.99 778.73 701.68 766.72"
/>
<path stroke="#ff683f" vector-effect="non-scaling-stroke" d="
  M 694.08 412.67
  L 671.60 374.92"
/>
<path stroke="#2f998b" vector-effect="non-scaling-stroke" d="
  M 647.10 817.23
  C 656.88 825.75 666.48 828.12 679.50 829.80
  A 0.75 0.74 18.9 0 0 680.25 829.44
  C 684.96 821.29 688.54 812.92 689.14 803.27
  A 2.49 2.36 43.5 0 0 689.11 802.69
  L 685.14 781.41"
/>
<path stroke="#ff8048" vector-effect="non-scaling-stroke" d="
  M 350.29 637.91
  Q 344.33 638.70 338.76 641.00"
/>
<path stroke="#a1a87a" vector-effect="non-scaling-stroke" d="
  M 338.76 641.00
  L 326.06 631.64"
/>
<path stroke="#fdebbb" vector-effect="non-scaling-stroke" d="
  M 402.94 574.22
  Q 401.10 575.94 399.42 576.77
  Q 385.95 583.46 371.07 580.95
  C 368.26 580.47 365.83 579.32 362.87 578.62
  C 354.82 576.73 346.96 571.38 340.90 565.84
  Q 338.32 563.49 335.53 561.23"
/>
<path stroke="#fdc296" vector-effect="non-scaling-stroke" d="
  M 681.87 548.70
  L 677.45 556.04"
/>
<path stroke="#fde1ac" vector-effect="non-scaling-stroke" d="
  M 677.45 556.04
  Q 667.68 568.60 653.19 574.06"
/>
<path stroke="#fdebbb" vector-effect="non-scaling-stroke" d="
  M 653.19 574.06
  Q 638.39 578.99 622.81 577.75
  C 617.42 577.33 613.06 575.88 608.18 574.35
  A 0.48 0.48 0.0 0 1 608.18 573.44
  Q 608.69 573.28 609.44 573.39"
/>
<path stroke="#2f998b" vector-effect="non-scaling-stroke" d="
  M 410.42 770.90
  C 397.74 780.21 384.60 781.48 367.97 784.34
  Q 360.56 785.61 344.67 790.09"
/>
<path stroke="#2a8a81" vector-effect="non-scaling-stroke" d="
  M 344.67 790.09
  L 341.02 786.63"
/>
<path stroke="#8f805e" vector-effect="non-scaling-stroke" d="
  M 440.56 689.55
  L 441.37 700.57"
/>
<path stroke="#8e9060" vector-effect="non-scaling-stroke" d="
  M 441.37 700.57
  C 441.51 720.22 437.03 740.36 429.59 758.35
  C 424.10 771.62 416.45 781.95 406.32 794.51"
/>
<path stroke="#1f7572" vector-effect="non-scaling-stroke" d="
  M 406.32 794.51
  Q 405.27 792.44 404.95 789.97"
/>
<path stroke="#24847c" vector-effect="non-scaling-stroke" d="
  M 404.95 789.97
  C 390.11 797.97 374.79 801.27 358.31 804.03"
/>
<path stroke="#237f78" vector-effect="non-scaling-stroke" d="
  M 358.31 804.03
  Q 352.21 796.44 344.67 790.09"
/>
<path stroke="#a19874" vector-effect="non-scaling-stroke" d="
  M 338.76 641.00
  Q 354.84 651.42 372.23 658.96"
/>
<path stroke="#3cb29d" vector-effect="non-scaling-stroke" d="
  M 372.23 658.96
  Q 371.32 664.60 371.41 670.48
  C 371.60 682.27 377.47 690.53 385.26 698.75
  Q 388.55 702.21 391.72 705.80"
/>
<path stroke="#36a794" vector-effect="non-scaling-stroke" d="
  M 391.72 705.80
  C 396.66 712.79 401.62 720.41 404.55 728.51"
/>
<path stroke="#3cb29d" vector-effect="non-scaling-stroke" d="
  M 404.55 728.51
  Q 379.94 735.11 372.60 736.94
  Q 343.99 744.08 319.91 759.56"
/>
<path stroke="#329d8e" vector-effect="non-scaling-stroke" d="
  M 319.91 759.56
  L 318.12 755.24"
/>
<path stroke="#2f998b" vector-effect="non-scaling-stroke" d="
  M 378.21 661.25
  L 391.72 705.80"
/>
<path stroke="#fec875" vector-effect="non-scaling-stroke" d="
  M 460.02 722.48
  Q 459.86 741.10 458.39 753.46
  Q 456.96 765.48 452.40 785.18
  Q 451.85 787.56 453.53 788.98
  Q 461.46 795.72 472.67 799.43
  Q 474.10 799.90 475.58 800.16
  Q 477.11 800.43 479.21 801.25
  Q 483.05 802.74 490.76 803.84
  Q 501.09 805.30 511.44 805.86"
/>
<path stroke="#fec875" vector-effect="non-scaling-stroke" d="
  M 525.96 806.39
  Q 506.73 808.00 487.73 805.29
  C 481.39 804.38 476.08 802.83 469.05 800.94
  Q 459.55 798.38 452.52 791.40
  A 1.07 1.07 0.0 0 0 450.93 791.49
  Q 450.76 791.69 450.58 792.31
  Q 444.71 812.81 435.67 841.33
  Q 435.24 842.70 435.17 843.51
  Q 435.08 844.62 434.63 845.66
  Q 433.79 847.61 433.47 848.79
  Q 431.47 856.05 431.39 856.38
  Q 427.87 870.30 427.99 883.97
  C 428.07 892.85 428.48 902.97 430.24 910.98
  Q 432.12 919.54 432.66 925.87"
/>
<path stroke="#ff8847" vector-effect="non-scaling-stroke" d="
  M 432.66 925.87
  Q 427.58 920.66 423.16 915.85
  Q 412.44 904.22 409.45 900.91
  C 403.30 894.12 396.47 888.14 389.10 880.85
  A 0.27 0.27 0.0 0 0 388.67 881.15
  L 397.53 900.41
  A 1.13 0.79 -80.0 0 0 397.60 900.56
  Q 399.78 903.99 401.36 907.77"
/>
<path stroke="#ffa050" vector-effect="non-scaling-stroke" d="
  M 401.36 907.77
  Q 396.45 923.26 396.29 934.04
  C 396.08 948.07 398.58 961.35 402.61 975.70"
/>
<path stroke="#8e9060" vector-effect="non-scaling-stroke" d="
  M 347.26 906.39
  Q 349.74 887.18 354.81 870.81
  Q 361.95 847.78 376.61 827.19"
/>
<path stroke="#8f9563" vector-effect="non-scaling-stroke" d="
  M 376.61 827.19
  Q 388.04 811.84 403.45 797.70
  Q 404.12 797.09 406.32 794.51"
/>
<path stroke="#fec875" vector-effect="non-scaling-stroke" d="
  M 459.54 714.93
  Q 459.50 705.06 457.91 695.37"
/>
<path stroke="#f34d37" vector-effect="non-scaling-stroke" d="
  M 849.79 307.29
  Q 846.96 307.45 845.55 307.78
  Q 827.34 311.97 809.29 315.69"
/>
<path stroke="#ff683f" vector-effect="non-scaling-stroke" d="
  M 807.74 315.92
  L 819.99 285.27"
/>
<path stroke="#ff683f" vector-effect="non-scaling-stroke" d="
  M 437.65 977.83
  L 436.00 976.98
  A 1.01 1.01 0.0 0 1 435.49 976.33
  Q 434.32 971.30 431.63 966.32
  Q 428.57 960.65 418.82 941.52"
/>
<path stroke="#ff7845" vector-effect="non-scaling-stroke" d="
  M 418.82 941.52
  L 401.36 907.77"
/>
<path stroke="#ffce79" vector-effect="non-scaling-stroke" d="
  M 550.70 871.45
  C 527.05 878.65 498.43 880.30 474.90 871.77
  Q 463.26 867.55 456.33 863.65
  Q 447.47 858.66 439.58 850.70
  C 438.86 849.97 436.47 846.91 436.29 846.84
  A 0.38 0.37 88.9 0 0 435.81 847.34
  Q 436.28 848.38 437.56 849.75
  Q 445.35 858.11 456.03 864.94
  C 476.68 878.17 502.61 882.66 526.67 878.90
  Q 538.41 877.07 550.97 872.45"
/>
<path stroke="#ffa16b" vector-effect="non-scaling-stroke" d="
  M 450.84 951.14
  Q 442.52 937.83 432.66 925.87"
/>
<path stroke="#2b8f85" vector-effect="non-scaling-stroke" d="
  M 319.91 759.56
  Q 328.50 774.59 341.02 786.63"
/>
<path stroke="#1f7572" vector-effect="non-scaling-stroke" d="
  M 341.02 786.63
  Q 333.35 806.44 325.11 825.85
  Q 321.54 834.25 320.16 836.90
  A 0.66 0.65 -56.3 0 0 320.32 837.72
  L 331.25 846.75
  A 0.66 0.65 29.2 0 1 331.46 847.47
  Q 326.33 863.28 313.68 873.45
  C 309.32 876.96 304.19 880.80 299.18 884.20"
/>
<path stroke="#24847c" vector-effect="non-scaling-stroke" d="
  M 275.19 862.82
  C 291.21 853.53 303.12 845.38 314.97 833.72
  A 0.60 0.60 0.0 0 0 314.99 832.88
  Q 307.45 824.99 301.35 816.44"
/>
<path stroke="#2b8f85" vector-effect="non-scaling-stroke" d="
  M 301.35 816.44
  Q 282.55 788.86 281.69 755.15"
/>
<path stroke="#329d8e" vector-effect="non-scaling-stroke" d="
  M 281.69 755.15
  Q 281.51 744.65 282.39 739.18
  Q 284.15 728.19 288.88 712.41
  Q 289.72 709.61 290.89 706.60
  Q 291.97 703.81 293.11 700.88"
/>
<path stroke="#1f7572" vector-effect="non-scaling-stroke" d="
  M 358.31 804.03
  L 369.18 820.57
  A 1.75 1.71 4.6 0 0 369.52 820.96
  L 376.61 827.19"
/>
<path stroke="#ff8048" vector-effect="non-scaling-stroke" d="
  M 418.82 941.52
  Q 420.08 959.32 424.62 976.50
  A 0.67 0.67 0.0 0 0 425.23 977.00
  L 436.56 977.79"
/>
<path stroke="#3cb29d" vector-effect="non-scaling-stroke" d="
  M 281.69 755.15
  Q 275.04 761.93 269.57 764.82
  C 261.71 768.96 254.71 772.26 246.88 778.06"
/>
<path stroke="#2f998b" vector-effect="non-scaling-stroke" d="
  M 301.35 816.44
  Q 282.81 831.78 261.14 842.38"
/>
<path stroke="#f65339" vector-effect="non-scaling-stroke" d="
  M 272.82 369.12
  Q 252.86 359.15 232.27 353.99
  C 227.21 352.72 219.84 351.26 215.96 353.01
  C 209.63 355.87 211.81 363.45 214.78 367.74
  Q 223.18 379.87 236.09 387.38
  A 1.43 1.40 -35.7 0 0 237.05 387.53
  Q 257.39 383.38 272.87 369.45
  A 0.20 0.20 0.0 0 0 272.82 369.12"
/>
<path stroke="#948f8e" vector-effect="non-scaling-stroke" d="
  M 624.24 485.00
  A 17.03 17.03 0.0 0 0 607.21 467.97
  A 17.03 17.03 0.0 0 0 590.18 485.00
  A 17.03 17.03 0.0 0 0 607.21 502.03
  A 17.03 17.03 0.0 0 0 624.24 485.00"
/>
<path stroke="#948f8e" vector-effect="non-scaling-stroke" d="
  M 379.3642 501.0692
  A 17.02 16.84 71.7 0 0 390.0083 479.6224
  A 17.02 16.84 71.7 0 0 368.6758 468.7508
  A 17.02 16.84 71.7 0 0 358.0317 490.1976
  A 17.02 16.84 71.7 0 0 379.3642 501.0692"
/>
<path stroke="#fdebbb" vector-effect="non-scaling-stroke" d="
  M 336.7396 575.7956
  A 2.79 2.30 28.6 0 0 335.3910 572.4406
  A 2.79 2.30 28.6 0 0 331.8404 573.1244
  A 2.79 2.30 28.6 0 0 333.1890 576.4794
  A 2.79 2.30 28.6 0 0 336.7396 575.7956"
/>
<path stroke="#95856c" vector-effect="non-scaling-stroke" d="
  M 438.88 584.32
  C 437.69 587.55 439.91 590.67 441.92 593.35
  Q 449.17 603.02 459.56 608.97
  Q 487.66 625.05 518.04 612.75
  Q 534.66 606.02 546.49 591.77
  Q 549.48 588.17 551.19 584.38
  A 3.63 3.62 -64.3 0 0 549.54 579.66
  L 549.28 579.53
  A 3.77 3.76 28.2 0 0 544.28 581.04
  Q 541.99 585.13 538.73 588.73
  C 525.16 603.67 505.62 611.80 485.59 609.68
  C 470.17 608.06 454.59 599.22 446.66 585.81
  C 444.74 582.56 442.89 581.23 439.56 583.45
  A 1.79 1.75 83.7 0 0 438.88 584.32"
/>
<path stroke="#fde1ac" vector-effect="non-scaling-stroke" d="
  M 680.21 574.50
  A 1.88 1.88 0.0 0 0 678.33 572.62
  A 1.88 1.88 0.0 0 0 676.45 574.50
  A 1.88 1.88 0.0 0 0 678.33 576.38
  A 1.88 1.88 0.0 0 0 680.21 574.50"
/>
</g>
<path fill="#fffaf1" d="
  M 1024.00 0.00
  L 1024.00 1024.00
  L 0.00 1024.00
  L 0.00 0.00
  L 1024.00 0.00
  Z
  M 410.52 284.06
  Q 352.73 230.68 346.01 151.50
  Q 343.06 116.77 348.28 82.50
  Q 349.57 74.02 350.92 65.19
  Q 351.17 63.56 350.56 62.19
  A 1.16 1.16 0.0 0 0 349.87 61.57
  Q 346.85 60.59 344.38 61.82
  A 2.52 2.48 6.4 0 0 343.59 62.44
  L 341.52 64.87
  Q 314.27 91.74 305.14 128.80
  Q 302.70 138.73 301.29 149.75
  Q 297.51 179.19 299.89 208.73
  C 302.68 243.46 313.81 277.10 331.13 307.43
  Q 338.55 321.00 348.21 332.74
  Q 353.75 340.00 361.12 346.31
  Q 348.03 358.38 338.79 373.19
  A 1.14 1.14 0.0 0 1 338.17 373.68
  L 337.74 373.82
  Q 328.92 367.16 323.03 357.91
  Q 319.42 351.49 316.49 344.77
  Q 311.99 334.44 304.02 326.69
  C 296.34 319.68 285.50 314.54 275.72 311.23
  Q 271.36 309.35 266.88 307.83
  Q 234.96 297.05 202.96 286.50
  C 188.14 281.62 166.63 276.01 154.04 269.58
  A 1.02 1.01 22.2 0 0 152.62 270.17
  Q 148.65 282.43 148.19 296.47
  Q 146.85 337.61 162.89 376.42
  Q 170.26 394.24 181.85 409.65
  C 202.00 436.44 229.39 453.29 263.26 455.39
  Q 275.40 456.14 287.25 453.08
  Q 294.39 451.36 301.05 448.08
  L 305.55 445.77
  Q 306.08 445.69 306.53 445.44
  Q 307.46 445.47 307.09 446.82
  Q 302.58 463.26 299.74 478.48
  Q 294.42 507.03 293.58 512.28
  Q 291.48 525.42 291.01 530.50
  Q 289.02 552.33 291.81 570.98
  Q 296.35 601.26 317.88 623.60
  L 323.29 629.03
  Q 325.48 630.13 326.06 631.64
  L 317.47 629.63
  A 0.67 0.66 7.7 0 0 316.66 630.24
  Q 315.85 643.37 322.06 654.20
  Q 322.31 654.62 327.43 663.05
  Q 334.12 674.05 336.87 687.78
  Q 341.11 708.90 330.38 727.63
  Q 324.34 738.17 324.28 738.29
  Q 320.56 745.32 318.12 755.24
  C 313.45 745.97 311.23 737.68 308.93 726.63
  Q 305.08 708.18 306.57 689.60
  A 0.81 0.81 0.0 0 0 305.25 688.91
  Q 298.25 694.65 293.11 700.88
  Q 289.26 704.52 284.62 710.11
  Q 271.42 725.99 261.61 741.87
  Q 256.69 749.84 252.84 758.35
  Q 248.59 767.77 246.88 778.06
  C 244.04 800.90 250.20 822.52 261.14 842.38
  Q 267.25 853.52 275.19 862.82
  Q 285.69 875.39 299.18 884.20
  C 313.87 894.18 330.23 900.75 347.26 906.39
  Q 346.86 907.75 346.44 912.83
  Q 344.27 939.19 347.35 965.68
  A 2.13 2.12 3.1 0 0 349.00 967.51
  Q 375.35 973.36 402.61 975.70
  L 436.56 977.79
  L 437.65 977.83
  L 463.09 979.18
  L 470.94 979.27
  Q 518.68 980.86 565.81 978.74
  L 583.08 978.01
  Q 596.79 978.13 610.56 976.58
  L 634.52 974.35
  L 648.25 972.56
  Q 661.55 970.88 674.38 967.34
  A 1.57 1.57 0.0 0 0 675.52 966.02
  Q 679.82 933.37 675.43 900.74
  Q 675.31 899.87 676.46 899.56
  Q 689.05 895.69 700.20 888.69
  C 723.42 874.13 734.43 850.25 735.62 822.37
  Q 736.02 812.88 734.58 794.77
  Q 733.77 784.55 734.57 778.97
  Q 736.89 762.86 749.65 753.03
  A 0.53 0.52 25.4 0 0 749.31 752.09
  Q 728.15 752.54 709.12 762.24
  L 701.68 766.72
  Q 692.70 773.03 685.14 781.41
  Q 675.27 792.26 664.81 802.66
  Q 664.10 803.37 663.55 803.64
  Q 662.46 804.18 662.18 803.43
  Q 664.42 801.44 666.84 797.84
  Q 677.57 781.85 681.99 763.88
  Q 683.12 759.26 685.28 740.92
  Q 687.89 718.79 693.59 696.77
  A 0.36 0.36 0.0 0 0 692.92 696.51
  Q 687.53 706.84 679.53 715.24
  Q 670.57 724.76 659.56 732.33
  Q 651.69 737.64 644.13 740.88
  Q 623.24 749.83 600.53 744.12
  L 592.95 741.33
  C 592.75 740.93 592.43 740.63 592.33 740.20
  Q 585.68 711.02 587.56 681.07
  A 2.03 2.02 -4.4 0 1 589.14 679.23
  Q 602.66 676.23 606.51 675.13
  Q 630.03 668.42 650.60 658.60
  C 683.40 642.95 714.14 616.74 721.54 579.10
  Q 725.24 560.32 723.72 542.24
  Q 721.77 519.10 717.38 494.12
  Q 714.02 475.03 706.69 448.27
  Q 720.10 453.53 733.97 454.88
  Q 766.15 457.99 794.47 443.63
  Q 821.14 430.10 839.91 406.12
  Q 864.46 374.74 875.21 335.75
  C 879.87 318.83 882.12 301.64 880.03 284.24
  Q 879.21 277.47 877.24 271.77
  A 0.69 0.69 0.0 0 0 876.31 271.36
  L 869.52 274.31
  Q 860.39 276.82 858.00 277.31
  Q 838.92 281.23 819.99 285.27
  Q 804.98 288.86 789.97 292.11
  Q 774.60 295.44 768.67 297.25
  Q 760.69 299.66 747.75 303.79
  Q 741.17 305.89 731.41 310.39
  C 719.93 315.69 709.69 323.09 703.61 333.59
  Q 700.64 338.72 695.84 348.11
  Q 689.73 360.08 678.40 369.40
  Q 675.02 372.18 671.60 374.92
  Q 670.70 374.00 670.33 373.43
  Q 661.74 360.19 650.17 348.98
  C 669.79 335.01 684.82 316.64 698.49 296.47
  C 717.50 268.43 730.60 239.61 736.40 207.73
  Q 743.77 167.19 733.08 127.93
  Q 724.39 96.04 705.82 68.69
  C 701.95 62.99 697.74 56.77 690.53 59.36
  A 1.51 1.49 -20.3 0 0 689.63 61.30
  L 693.02 70.22
  Q 702.91 107.91 698.80 146.57
  C 698.31 151.21 697.51 160.51 696.20 166.25
  Q 694.37 174.24 692.44 182.19
  A 0.58 0.58 0.0 0 1 691.93 182.63
  Q 691.86 182.64 691.62 182.54
  C 694.80 166.45 695.13 150.54 689.20 135.04
  Q 682.93 118.68 676.12 107.74
  Q 672.61 101.45 668.45 95.78
  Q 667.70 94.77 666.78 94.60
  A 0.50 0.50 0.0 0 0 666.22 95.27
  Q 672.66 112.85 669.60 131.82
  C 664.48 163.48 638.06 178.04 611.03 188.60
  C 600.61 192.67 588.55 196.08 577.17 199.56
  Q 560.21 205.26 545.63 215.63
  Q 545.56 215.68 545.38 215.59
  A 0.07 0.06 -53.3 0 1 545.37 215.48
  Q 556.58 205.17 564.51 199.76
  C 580.63 188.78 589.13 183.80 599.08 174.09
  C 614.40 159.11 621.78 139.04 625.22 117.34
  Q 629.17 94.05 623.98 70.40
  Q 622.52 59.29 616.80 49.50
  Q 615.29 46.40 612.56 44.67
  A 0.44 0.44 0.0 0 0 611.88 45.07
  C 612.68 60.95 604.75 74.43 592.05 83.56
  Q 577.82 93.78 558.54 102.04
  C 544.01 108.27 529.08 113.47 513.76 120.31
  Q 491.10 130.43 469.53 145.25
  C 454.60 155.51 441.31 167.70 430.68 181.91
  Q 407.53 212.86 406.96 251.14
  C 406.79 262.56 407.44 272.65 410.54 283.24
  Q 410.67 283.69 410.52 284.06
  Z"
/>
<path fill="#4ed3ad" d="
  M 616.80 49.50
  Q 614.50 47.98 614.09 53.42
  Q 613.75 57.93 613.61 61.80
  Q 613.43 66.72 612.75 70.09
  Q 608.21 92.84 593.66 110.40
  Q 582.15 124.30 566.86 133.10
  C 561.38 136.24 553.04 140.76 545.73 143.73
  Q 530.89 149.76 519.39 155.40
  C 498.40 165.70 479.40 180.16 465.36 198.65
  Q 454.12 213.45 448.05 227.22
  C 437.50 251.16 435.25 279.54 441.24 305.82
  Q 444.17 318.67 450.87 333.18
  Q 456.23 344.78 459.56 350.42
  Q 466.18 361.61 477.86 375.53
  L 445.47 345.40
  L 434.20 332.48
  Q 417.91 310.48 410.52 284.06
  Q 410.67 283.69 410.54 283.24
  C 407.44 272.65 406.79 262.56 406.96 251.14
  Q 407.53 212.86 430.68 181.91
  C 441.31 167.70 454.60 155.51 469.53 145.25
  Q 491.10 130.43 513.76 120.31
  C 529.08 113.47 544.01 108.27 558.54 102.04
  Q 577.82 93.78 592.05 83.56
  C 604.75 74.43 612.68 60.95 611.88 45.07
  A 0.44 0.44 0.0 0 1 612.56 44.67
  Q 615.29 46.40 616.80 49.50
  Z"
/>
<path fill="#288e82" d="
  M 616.80 49.50
  Q 622.52 59.29 623.98 70.40
  Q 621.30 83.86 617.57 93.63
  C 608.68 116.96 591.45 136.56 571.47 151.75
  Q 551.56 166.88 538.52 176.52
  Q 519.84 190.33 508.85 203.32
  Q 466.15 253.78 485.74 317.54
  Q 486.03 318.48 491.42 334.98
  Q 497.07 352.26 500.20 370.34
  Q 500.27 376.94 500.09 390.75
  Q 500.00 396.94 501.94 403.17
  Q 500.46 401.67 499.11 399.88
  Q 493.65 392.64 487.78 385.79
  Q 485.81 383.49 483.60 381.41
  Q 482.38 380.26 477.86 375.53
  Q 466.18 361.61 459.56 350.42
  Q 456.23 344.78 450.87 333.18
  Q 444.17 318.67 441.24 305.82
  C 435.25 279.54 437.50 251.16 448.05 227.22
  Q 454.12 213.45 465.36 198.65
  C 479.40 180.16 498.40 165.70 519.39 155.40
  Q 530.89 149.76 545.73 143.73
  C 553.04 140.76 561.38 136.24 566.86 133.10
  Q 582.15 124.30 593.66 110.40
  Q 608.21 92.84 612.75 70.09
  Q 613.43 66.72 613.61 61.80
  Q 613.75 57.93 614.09 53.42
  Q 614.50 47.98 616.80 49.50
  Z"
/>
<path fill="#e73932" d="
  M 650.17 348.98
  Q 647.06 350.39 643.56 351.97
  Q 626.76 359.57 609.64 352.89
  Q 594.39 346.95 584.20 331.75
  Q 587.74 331.27 591.24 331.36
  C 597.42 331.51 602.19 328.88 607.53 326.23
  Q 610.89 324.92 614.91 322.39
  Q 627.45 314.52 637.66 305.91
  Q 640.09 303.86 642.30 301.45
  Q 661.11 283.63 674.13 265.63
  Q 684.89 250.77 693.99 230.56
  Q 698.18 221.25 701.07 211.51
  Q 704.88 198.66 706.36 191.89
  Q 709.35 178.28 710.40 163.00
  Q 710.80 157.14 710.69 142.69
  Q 710.60 130.88 709.41 122.42
  C 706.81 104.12 702.25 85.89 693.02 70.22
  L 689.63 61.30
  A 1.51 1.49 -20.3 0 1 690.53 59.36
  C 697.74 56.77 701.95 62.99 705.82 68.69
  Q 724.39 96.04 733.08 127.93
  Q 743.77 167.19 736.40 207.73
  C 730.60 239.61 717.50 268.43 698.49 296.47
  C 684.82 316.64 669.79 335.01 650.17 348.98
  Z"
/>
<path fill="#e73932" d="
  M 410.52 284.06
  Q 417.91 310.48 434.20 332.48
  Q 434.70 334.26 433.49 335.14
  Q 430.81 338.14 428.20 340.97
  Q 420.27 349.58 409.10 353.13
  C 395.27 357.53 376.94 357.67 364.66 348.77
  C 379.54 345.13 392.07 341.10 403.95 331.91
  A 0.41 0.40 -43.3 0 0 403.97 331.29
  L 386.95 316.18
  Q 375.74 304.71 366.26 291.92
  C 352.56 272.00 341.85 249.97 335.23 226.67
  Q 330.66 210.58 328.51 197.00
  Q 322.20 157.19 328.38 113.11
  Q 329.31 106.48 331.08 99.01
  Q 333.09 90.55 334.91 85.18
  Q 340.06 69.96 341.52 64.87
  L 343.59 62.44
  A 2.52 2.48 6.4 0 1 344.38 61.82
  Q 346.85 60.59 349.87 61.57
  A 1.16 1.16 0.0 0 1 350.56 62.19
  Q 351.17 63.56 350.92 65.19
  Q 349.57 74.02 348.28 82.50
  Q 343.06 116.77 346.01 151.50
  Q 352.73 230.68 410.52 284.06
  Z"
/>
<path fill="#fe7041" d="
  M 341.52 64.87
  Q 340.06 69.96 334.91 85.18
  Q 333.09 90.55 331.08 99.01
  Q 329.31 106.48 328.38 113.11
  Q 322.20 157.19 328.51 197.00
  Q 330.66 210.58 335.23 226.67
  C 341.85 249.97 352.56 272.00 366.26 291.92
  Q 349.77 301.88 331.13 307.43
  C 313.81 277.10 302.68 243.46 299.89 208.73
  Q 297.51 179.19 301.29 149.75
  Q 302.70 138.73 305.14 128.80
  Q 314.27 91.74 341.52 64.87
  Z"
/>
<path fill="#207a75" d="
  M 623.98 70.40
  Q 629.17 94.05 625.22 117.34
  Q 614.48 136.52 599.13 151.70
  C 585.39 165.28 575.04 173.00 556.61 188.12
  Q 541.59 200.43 528.37 216.33
  Q 505.02 244.40 500.80 281.71
  Q 499.36 294.45 498.90 303.56
  Q 497.52 317.19 498.18 328.35
  C 498.64 336.21 498.76 342.98 499.52 350.65
  Q 500.49 360.41 500.20 370.34
  Q 497.07 352.26 491.42 334.98
  Q 486.03 318.48 485.74 317.54
  Q 466.15 253.78 508.85 203.32
  Q 519.84 190.33 538.52 176.52
  Q 551.56 166.88 571.47 151.75
  C 591.45 136.56 608.68 116.96 617.57 93.63
  Q 621.30 83.86 623.98 70.40
  Z"
/>
<path fill="#fe7041" d="
  M 642.30 301.45
  Q 629.15 304.54 616.98 298.69
  Q 606.77 293.78 596.45 288.72
  Q 605.40 278.89 616.27 271.02
  Q 627.62 262.81 639.05 254.74
  Q 661.83 238.65 677.03 215.30
  Q 687.03 199.94 691.62 182.54
  Q 691.86 182.64 691.93 182.63
  A 0.58 0.58 0.0 0 0 692.44 182.19
  Q 694.37 174.24 696.20 166.25
  C 697.51 160.51 698.31 151.21 698.80 146.57
  Q 702.91 107.91 693.02 70.22
  C 702.25 85.89 706.81 104.12 709.41 122.42
  Q 710.60 130.88 710.69 142.69
  Q 710.80 157.14 710.40 163.00
  Q 709.35 178.28 706.36 191.89
  Q 704.88 198.66 701.07 211.51
  Q 698.18 221.25 693.99 230.56
  Q 684.89 250.77 674.13 265.63
  Q 661.11 283.63 642.30 301.45
  Z"
/>
<path fill="#207a75" d="
  M 676.12 107.74
  Q 674.39 107.51 673.48 108.27
  A 0.89 0.89 0.0 0 0 673.20 109.17
  C 679.13 131.49 676.85 153.04 661.56 170.76
  Q 652.19 181.62 640.97 188.21
  Q 629.98 194.67 613.25 201.57
  C 606.80 203.36 599.37 205.23 594.14 202.83
  Q 585.28 198.77 577.17 199.56
  C 588.55 196.08 600.61 192.67 611.03 188.60
  C 638.06 178.04 664.48 163.48 669.60 131.82
  Q 672.66 112.85 666.22 95.27
  A 0.50 0.50 0.0 0 1 666.78 94.60
  Q 667.70 94.77 668.45 95.78
  Q 672.61 101.45 676.12 107.74
  Z"
/>
<path fill="#175c5e" d="
  M 676.12 107.74
  Q 682.93 118.68 689.20 135.04
  C 695.13 150.54 694.80 166.45 691.62 182.54
  Q 687.03 199.94 677.03 215.30
  Q 661.83 238.65 639.05 254.74
  Q 627.62 262.81 616.27 271.02
  Q 605.40 278.89 596.45 288.72
  Q 589.05 297.38 583.33 306.36
  A 6.73 6.73 0.0 0 1 580.51 308.84
  C 563.38 316.91 549.35 330.48 535.96 344.71
  Q 515.99 365.95 507.44 393.49
  Q 505.75 398.93 504.54 406.51
  L 501.94 403.17
  Q 500.00 396.94 500.09 390.75
  Q 500.27 376.94 500.20 370.34
  Q 500.49 360.41 499.52 350.65
  C 498.76 342.98 498.64 336.21 498.18 328.35
  Q 497.52 317.19 498.90 303.56
  Q 501.57 294.34 507.19 276.13
  C 510.62 265.02 515.59 255.63 524.05 247.81
  Q 530.25 242.08 544.27 230.33
  Q 555.21 221.15 571.22 214.97
  Q 575.49 213.32 587.45 210.00
  Q 597.80 207.13 613.25 201.57
  Q 629.98 194.67 640.97 188.21
  Q 652.19 181.62 661.56 170.76
  C 676.85 153.04 679.13 131.49 673.20 109.17
  A 0.89 0.89 0.0 0 1 673.48 108.27
  Q 674.39 107.51 676.12 107.74
  Z"
/>
<path fill="#1e706e" d="
  M 625.22 117.34
  C 621.78 139.04 614.40 159.11 599.08 174.09
  C 589.13 183.80 580.63 188.78 564.51 199.76
  Q 556.58 205.17 545.37 215.48
  A 0.07 0.06 -53.3 0 0 545.38 215.59
  Q 545.56 215.68 545.63 215.63
  Q 560.21 205.26 577.17 199.56
  Q 585.28 198.77 594.14 202.83
  C 599.37 205.23 606.80 203.36 613.25 201.57
  Q 597.80 207.13 587.45 210.00
  Q 575.49 213.32 571.22 214.97
  Q 555.21 221.15 544.27 230.33
  Q 530.25 242.08 524.05 247.81
  C 515.59 255.63 510.62 265.02 507.19 276.13
  Q 501.57 294.34 498.90 303.56
  Q 499.36 294.45 500.80 281.71
  Q 505.02 244.40 528.37 216.33
  Q 541.59 200.43 556.61 188.12
  C 575.04 173.00 585.39 165.28 599.13 151.70
  Q 614.48 136.52 625.22 117.34
  Z"
/>
<path fill="#ff904e" d="
  M 275.72 311.23
  Q 273.61 329.86 273.72 349.15
  Q 259.09 334.14 239.29 326.23
  Q 223.33 319.85 184.61 303.91
  Q 178.25 301.28 174.20 299.85
  A 1.31 1.31 0.0 0 0 172.47 301.25
  Q 174.37 315.62 178.15 331.74
  C 179.99 339.59 183.69 349.17 185.69 354.63
  Q 191.98 371.78 203.63 386.87
  C 224.03 413.29 256.82 425.58 289.97 424.57
  L 287.25 453.08
  Q 275.40 456.14 263.26 455.39
  C 229.39 453.29 202.00 436.44 181.85 409.65
  Q 170.26 394.24 162.89 376.42
  Q 146.85 337.61 148.19 296.47
  Q 148.65 282.43 152.62 270.17
  A 1.02 1.01 22.2 0 1 154.04 269.58
  C 166.63 276.01 188.14 281.62 202.96 286.50
  Q 234.96 297.05 266.88 307.83
  Q 271.36 309.35 275.72 311.23
  Z"
/>
<path fill="#ec4535" d="
  M 706.69 448.27
  Q 702.48 432.55 695.38 417.12
  Q 694.83 415.91 694.08 412.67
  Q 711.24 390.64 718.71 378.22
  Q 727.51 363.58 732.76 356.98
  Q 739.43 348.60 744.08 344.57
  C 749.74 339.67 753.77 335.91 759.25 332.51
  Q 761.77 330.95 765.41 328.70
  Q 771.67 324.82 779.68 322.66
  Q 793.61 318.90 807.74 315.92
  L 809.29 315.69
  Q 804.05 323.91 799.37 332.06
  C 797.17 335.91 795.08 340.50 795.85 344.65
  Q 796.30 347.02 798.29 351.36
  C 802.96 361.55 793.19 371.72 786.16 378.43
  Q 782.59 381.83 761.10 401.68
  Q 754.31 407.95 738.47 424.74
  A 0.24 0.23 -67.3 0 0 738.63 425.14
  Q 754.09 425.44 766.76 421.44
  Q 783.74 416.08 798.10 405.07
  C 802.18 401.95 806.09 398.99 809.94 395.27
  Q 820.42 385.15 826.77 375.27
  Q 847.16 343.52 856.62 306.71
  A 0.70 0.70 0.0 0 0 855.78 305.85
  L 849.79 307.29
  C 853.74 300.27 856.72 293.11 859.91 285.74
  Q 862.36 280.06 869.52 274.31
  L 876.31 271.36
  A 0.69 0.69 0.0 0 1 877.24 271.77
  Q 879.21 277.47 880.03 284.24
  C 882.12 301.64 879.87 318.83 875.21 335.75
  Q 864.46 374.74 839.91 406.12
  Q 821.14 430.10 794.47 443.63
  Q 766.15 457.99 733.97 454.88
  Q 720.10 453.53 706.69 448.27
  Z"
/>
<path fill="#ff603c" d="
  M 869.52 274.31
  Q 862.36 280.06 859.91 285.74
  C 856.72 293.11 853.74 300.27 849.79 307.29
  Q 846.96 307.45 845.55 307.78
  Q 827.34 311.97 809.29 315.69
  L 807.74 315.92
  L 819.99 285.27
  Q 838.92 281.23 858.00 277.31
  Q 860.39 276.82 869.52 274.31
  Z"
/>
<path fill="#fe7041" d="
  M 819.99 285.27
  L 807.74 315.92
  Q 793.61 318.90 779.68 322.66
  Q 771.67 324.82 765.41 328.70
  Q 761.77 330.95 759.25 332.51
  C 753.77 335.91 749.74 339.67 744.08 344.57
  Q 739.43 348.60 732.76 356.98
  Q 727.51 363.58 718.71 378.22
  Q 711.24 390.64 694.08 412.67
  L 671.60 374.92
  Q 675.02 372.18 678.40 369.40
  Q 689.73 360.08 695.84 348.11
  Q 700.64 338.72 703.61 333.59
  C 709.69 323.09 719.93 315.69 731.41 310.39
  Q 741.17 305.89 747.75 303.79
  Q 760.69 299.66 768.67 297.25
  Q 774.60 295.44 789.97 292.11
  Q 804.98 288.86 819.99 285.27
  Z"
/>
<path fill="#ff603c" d="
  M 642.30 301.45
  Q 640.09 303.86 637.66 305.91
  Q 627.45 314.52 614.91 322.39
  Q 610.89 324.92 607.53 326.23
  L 578.65 314.18
  A 0.37 0.37 0.0 0 0 578.14 314.50
  C 577.80 320.31 581.07 327.22 584.20 331.75
  Q 594.39 346.95 609.64 352.89
  Q 626.76 359.57 643.56 351.97
  Q 647.06 350.39 650.17 348.98
  Q 661.74 360.19 670.33 373.43
  Q 670.70 374.00 671.60 374.92
  L 694.08 412.67
  Q 694.83 415.91 695.38 417.12
  Q 702.48 432.55 706.69 448.27
  Q 714.02 475.03 717.38 494.12
  Q 721.77 519.10 723.72 542.24
  Q 725.24 560.32 721.54 579.10
  C 714.14 616.74 683.40 642.95 650.60 658.60
  Q 630.03 668.42 606.51 675.13
  Q 602.66 676.23 589.14 679.23
  A 2.03 2.02 -4.4 0 0 587.56 681.07
  Q 585.68 711.02 592.33 740.20
  C 592.43 740.63 592.75 740.93 592.95 741.33
  Q 592.81 741.65 592.95 742.12
  Q 602.71 774.67 625.48 800.08
  L 642.67 820.12
  Q 655.20 836.63 663.69 855.59
  L 665.00 858.76
  Q 671.85 877.60 675.26 898.22
  Q 675.45 899.35 676.46 899.56
  Q 675.31 899.87 675.43 900.74
  Q 679.82 933.37 675.52 966.02
  A 1.57 1.57 0.0 0 1 674.38 967.34
  Q 661.55 970.88 648.25 972.56
  C 648.35 952.51 647.64 932.31 641.67 913.22
  Q 636.21 895.76 623.01 879.39
  A 0.33 0.32 36.2 0 0 622.46 879.47
  L 615.68 896.13
  L 606.10 922.00
  Q 600.20 938.64 592.78 954.58
  Q 589.93 960.69 587.78 966.22
  Q 585.49 972.11 583.08 978.01
  L 565.81 978.74
  Q 567.99 968.59 570.64 962.92
  Q 576.04 951.33 581.34 939.75
  C 588.13 926.13 594.38 911.65 595.65 896.50
  C 596.51 886.17 596.83 874.91 594.90 865.00
  Q 592.84 854.43 591.51 849.73
  Q 581.94 815.80 580.37 808.67
  Q 574.70 782.86 574.11 779.99
  C 570.23 761.05 568.81 740.71 569.58 720.51
  C 570.11 706.37 570.25 696.12 572.14 684.47
  A 1.11 1.11 0.0 0 0 570.84 683.20
  Q 562.11 684.82 544.83 687.32
  Q 509.62 692.41 471.75 687.07
  Q 464.27 686.01 456.39 684.62
  Q 447.53 684.44 439.46 681.04
  L 423.30 675.90
  L 400.63 669.57
  L 394.80 667.51
  C 394.47 661.26 403.78 663.18 407.57 663.84
  Q 442.25 673.81 477.72 679.35
  Q 489.74 681.41 501.75 681.55
  Q 526.66 681.85 550.30 677.84
  Q 566.78 675.05 584.95 670.91
  Q 604.88 666.38 618.76 660.79
  Q 642.53 651.23 663.58 635.33
  Q 686.54 618.01 699.65 593.08
  C 702.53 587.62 704.15 582.70 705.15 577.13
  Q 707.49 564.09 698.51 554.74
  Q 692.33 548.30 684.72 544.35
  Q 687.80 537.96 688.81 530.34
  Q 692.98 498.92 676.46 472.01
  C 663.88 451.53 644.79 435.52 619.18 439.82
  C 623.48 423.26 618.95 405.50 604.07 395.86
  Q 596.74 391.12 588.78 388.06
  Q 577.93 384.32 566.77 383.55
  C 559.47 383.04 551.10 384.24 543.84 385.59
  Q 531.03 387.95 520.29 394.76
  Q 512.84 400.18 511.47 402.22
  Q 509.62 404.97 507.52 407.63
  A 1.87 1.87 0.0 0 1 505.02 408.02
  Q 503.96 407.30 504.54 406.51
  Q 505.75 398.93 507.44 393.49
  Q 515.99 365.95 535.96 344.71
  C 549.35 330.48 563.38 316.91 580.51 308.84
  A 6.73 6.73 0.0 0 0 583.33 306.36
  Q 589.05 297.38 596.45 288.72
  Q 606.77 293.78 616.98 298.69
  Q 629.15 304.54 642.30 301.45
  Z"
/>
<path fill="#ff603c" d="
  M 386.95 316.18
  L 348.21 332.74
  Q 338.55 321.00 331.13 307.43
  Q 349.77 301.88 366.26 291.92
  Q 375.74 304.71 386.95 316.18
  Z"
/>
<path fill="#ec4535" d="
  M 273.72 349.15
  Q 280.90 357.07 285.56 364.94
  Q 295.72 382.11 300.80 390.10
  L 312.46 405.50
  A 0.12 0.12 0.0 0 0 312.68 405.44
  L 317.22 349.16
  A 0.24 0.24 0.0 0 1 317.66 349.06
  L 323.03 357.91
  Q 328.92 367.16 337.74 373.82
  L 337.64 374.51
  A 1.65 1.61 69.8 0 1 337.29 375.29
  Q 335.75 377.18 334.50 379.26
  Q 316.02 409.79 307.80 443.61
  Q 307.54 444.70 306.53 445.44
  Q 306.08 445.69 305.55 445.77
  L 306.22 422.28
  A 0.39 0.39 0.0 0 0 305.75 421.89
  L 298.74 423.30
  L 289.97 424.57
  C 256.82 425.58 224.03 413.29 203.63 386.87
  Q 191.98 371.78 185.69 354.63
  C 183.69 349.17 179.99 339.59 178.15 331.74
  Q 174.37 315.62 172.47 301.25
  A 1.31 1.31 0.0 0 1 174.20 299.85
  Q 178.25 301.28 184.61 303.91
  Q 223.33 319.85 239.29 326.23
  Q 259.09 334.14 273.72 349.15
  Z
  M 272.82 369.12
  Q 252.86 359.15 232.27 353.99
  C 227.21 352.72 219.84 351.26 215.96 353.01
  C 209.63 355.87 211.81 363.45 214.78 367.74
  Q 223.18 379.87 236.09 387.38
  A 1.43 1.40 -35.7 0 0 237.05 387.53
  Q 257.39 383.38 272.87 369.45
  A 0.20 0.20 0.0 0 0 272.82 369.12
  Z"
/>
<path fill="#e73932" d="
  M 809.29 315.69
  Q 827.34 311.97 845.55 307.78
  Q 846.96 307.45 849.79 307.29
  L 855.78 305.85
  A 0.70 0.70 0.0 0 1 856.62 306.71
  Q 847.16 343.52 826.77 375.27
  Q 820.42 385.15 809.94 395.27
  C 806.09 398.99 802.18 401.95 798.10 405.07
  Q 783.74 416.08 766.76 421.44
  Q 754.09 425.44 738.63 425.14
  A 0.24 0.23 -67.3 0 1 738.47 424.74
  Q 754.31 407.95 761.10 401.68
  Q 782.59 381.83 786.16 378.43
  C 793.19 371.72 802.96 361.55 798.29 351.36
  Q 796.30 347.02 795.85 344.65
  C 795.08 340.50 797.17 335.91 799.37 332.06
  Q 804.05 323.91 809.29 315.69
  Z"
/>
<path fill="#fe7041" d="
  M 275.72 311.23
  C 285.50 314.54 296.34 319.68 304.02 326.69
  C 300.84 347.67 300.81 367.49 300.80 390.10
  Q 295.72 382.11 285.56 364.94
  Q 280.90 357.07 273.72 349.15
  Q 273.61 329.86 275.72 311.23
  Z"
/>
<path fill="#ec4535" d="
  M 607.53 326.23
  C 602.19 328.88 597.42 331.51 591.24 331.36
  Q 587.74 331.27 584.20 331.75
  C 581.07 327.22 577.80 320.31 578.14 314.50
  A 0.37 0.37 0.0 0 1 578.65 314.18
  L 607.53 326.23
  Z"
/>
<path fill="#ec4535" d="
  M 364.66 348.77
  L 361.12 346.31
  Q 353.75 340.00 348.21 332.74
  L 386.95 316.18
  L 403.97 331.29
  A 0.41 0.40 -43.3 0 1 403.95 331.91
  C 392.07 341.10 379.54 345.13 364.66 348.77
  Z"
/>
<path fill="#ff603c" d="
  M 304.02 326.69
  Q 311.99 334.44 316.49 344.77
  Q 319.42 351.49 323.03 357.91
  L 317.66 349.06
  A 0.24 0.24 0.0 0 0 317.22 349.16
  L 312.68 405.44
  A 0.12 0.12 0.0 0 1 312.46 405.50
  L 300.80 390.10
  C 300.81 367.49 300.84 347.67 304.02 326.69
  Z"
/>
<path fill="#ff904e" d="
  M 445.47 345.40
  C 440.23 344.00 436.50 339.44 433.49 335.14
  Q 434.70 334.26 434.20 332.48
  L 445.47 345.40
  Z"
/>
<path fill="#ffba59" d="
  M 433.49 335.14
  C 436.50 339.44 440.23 344.00 445.47 345.40
  L 477.86 375.53
  Q 482.38 380.26 483.60 381.41
  Q 485.81 383.49 487.78 385.79
  Q 493.65 392.64 499.11 399.88
  Q 500.46 401.67 501.94 403.17
  L 504.54 406.51
  Q 503.96 407.30 505.02 408.02
  A 1.87 1.87 0.0 0 0 507.52 407.63
  Q 509.62 404.97 511.47 402.22
  Q 512.84 400.18 520.29 394.76
  Q 519.02 398.13 516.70 400.24
  C 511.00 405.43 507.88 412.63 504.38 420.39
  C 502.46 424.64 500.98 430.90 500.62 434.39
  C 499.74 443.09 499.69 454.53 499.87 463.90
  Q 500.21 481.61 500.41 499.26
  Q 500.82 534.91 499.64 568.25
  Q 499.56 570.34 499.74 572.52
  Q 496.83 572.99 491.99 572.68
  Q 473.16 571.47 458.60 560.66
  Q 451.34 555.27 443.96 550.04
  Q 436.55 544.80 423.48 541.66
  Q 424.38 534.99 424.28 530.00
  Q 423.86 509.44 417.24 488.01
  C 410.40 465.88 394.87 442.68 369.23 442.35
  C 356.75 441.16 346.56 446.42 337.86 454.88
  C 334.13 458.50 330.46 464.05 327.54 468.27
  Q 323.92 473.50 323.71 478.88
  Q 318.09 492.68 317.88 508.75
  Q 317.68 523.28 321.32 535.44
  L 320.49 540.50
  A 0.92 0.91 82.8 0 1 319.96 541.19
  Q 317.41 542.32 315.02 543.78
  Q 299.27 553.36 302.68 572.28
  Q 304.66 583.26 311.17 595.97
  L 307.47 589.91
  A 1.93 1.93 0.0 0 0 304.34 589.69
  L 301.57 593.04
  A 2.84 2.81 54.3 0 0 301.12 595.86
  Q 305.19 606.18 309.70 612.28
  Q 315.76 620.49 317.88 623.60
  Q 296.35 601.26 291.81 570.98
  Q 289.02 552.33 291.01 530.50
  Q 291.48 525.42 293.58 512.28
  Q 294.42 507.03 299.74 478.48
  Q 302.58 463.26 307.09 446.82
  Q 307.46 445.47 306.53 445.44
  Q 307.54 444.70 307.80 443.61
  Q 316.02 409.79 334.50 379.26
  Q 335.75 377.18 337.29 375.29
  A 1.65 1.61 69.8 0 0 337.64 374.51
  L 337.74 373.82
  L 338.17 373.68
  A 1.14 1.14 0.0 0 0 338.79 373.19
  Q 348.03 358.38 361.12 346.31
  L 364.66 348.77
  C 376.94 357.67 395.27 357.53 409.10 353.13
  Q 420.27 349.58 428.20 340.97
  Q 430.81 338.14 433.49 335.14
  Z"
/>
<path fill="#ff603c" d="
  M 272.87 369.45
  Q 257.39 383.38 237.05 387.53
  A 1.43 1.40 -35.7 0 1 236.09 387.38
  Q 223.18 379.87 214.78 367.74
  C 211.81 363.45 209.63 355.87 215.96 353.01
  C 219.84 351.26 227.21 352.72 232.27 353.99
  Q 252.86 359.15 272.82 369.12
  A 0.20 0.20 0.0 0 1 272.87 369.45
  Z"
/>
<path fill="#ff904e" d="
  M 588.78 388.06
  L 596.47 392.00
  A 0.97 0.95 9.0 0 1 596.98 392.69
  Q 598.09 399.81 597.40 406.78
  C 596.79 412.98 594.12 419.48 592.00 425.12
  C 587.78 436.33 588.99 446.14 591.47 458.48
  Q 587.44 463.81 585.06 468.55
  Q 572.78 493.02 572.90 521.00
  Q 572.94 529.50 576.20 539.78
  Q 557.37 541.78 543.13 553.42
  Q 534.60 560.38 531.95 562.45
  Q 518.37 573.06 499.74 572.52
  Q 499.56 570.34 499.64 568.25
  Q 500.82 534.91 500.41 499.26
  Q 500.21 481.61 499.87 463.90
  C 499.69 454.53 499.74 443.09 500.62 434.39
  C 500.98 430.90 502.46 424.64 504.38 420.39
  C 507.88 412.63 511.00 405.43 516.70 400.24
  Q 519.02 398.13 520.29 394.76
  Q 531.03 387.95 543.84 385.59
  C 551.10 384.24 559.47 383.04 566.77 383.55
  Q 577.93 384.32 588.78 388.06
  Z"
/>
<path fill="#fe7041" d="
  M 619.18 439.82
  Q 606.75 442.61 597.29 451.79
  Q 595.85 453.19 591.47 458.48
  C 588.99 446.14 587.78 436.33 592.00 425.12
  C 594.12 419.48 596.79 412.98 597.40 406.78
  Q 598.09 399.81 596.98 392.69
  A 0.97 0.95 9.0 0 0 596.47 392.00
  L 588.78 388.06
  Q 596.74 391.12 604.07 395.86
  C 618.95 405.50 623.48 423.26 619.18 439.82
  Z"
/>
<path fill="#ff603c" d="
  M 305.55 445.77
  L 301.05 448.08
  L 298.74 423.30
  L 305.75 421.89
  A 0.39 0.39 0.0 0 1 306.22 422.28
  L 305.55 445.77
  Z"
/>
<path fill="#fe7041" d="
  M 298.74 423.30
  L 301.05 448.08
  Q 294.39 451.36 287.25 453.08
  L 289.97 424.57
  L 298.74 423.30
  Z"
/>
<path fill="#2c293e" d="
  M 684.72 544.35
  L 682.25 548.87
  Q 682.10 548.87 681.87 548.70
  Q 683.78 544.57 684.33 540.13
  C 687.39 515.67 677.63 491.08 660.24 474.18
  C 656.77 470.80 652.06 467.52 647.74 465.79
  A 0.37 0.37 0.0 0 0 647.31 466.37
  Q 658.33 480.02 660.88 497.62
  C 664.54 522.85 656.05 551.82 634.08 566.84
  Q 622.98 574.44 609.44 573.39
  C 595.61 571.25 584.58 559.41 579.10 547.07
  Q 577.36 543.13 576.20 539.78
  Q 572.94 529.50 572.90 521.00
  Q 572.78 493.02 585.06 468.55
  Q 587.44 463.81 591.47 458.48
  Q 595.85 453.19 597.29 451.79
  Q 606.75 442.61 619.18 439.82
  C 644.79 435.52 663.88 451.53 676.46 472.01
  Q 692.98 498.92 688.81 530.34
  Q 687.80 537.96 684.72 544.35
  Z
  M 624.24 485.00
  A 17.03 17.03 0.0 0 0 607.21 467.97
  A 17.03 17.03 0.0 0 0 590.18 485.00
  A 17.03 17.03 0.0 0 0 607.21 502.03
  A 17.03 17.03 0.0 0 0 624.24 485.00
  Z"
/>
<path fill="#ffcd7b" d="
  M 369.23 442.35
  C 347.84 442.97 331.21 459.83 323.71 478.88
  Q 323.92 473.50 327.54 468.27
  C 330.46 464.05 334.13 458.50 337.86 454.88
  C 346.56 446.42 356.75 441.16 369.23 442.35
  Z"
/>
<path fill="#2c293e" d="
  M 423.48 541.66
  C 421.27 555.31 415.76 567.56 402.94 574.22
  Q 394.45 577.40 385.98 575.02
  C 360.32 567.82 347.10 537.36 346.31 513.03
  Q 345.36 483.98 365.27 464.09
  A 0.28 0.28 0.0 0 0 365.08 463.62
  Q 358.18 463.56 352.17 467.70
  C 337.05 478.12 327.80 496.29 325.57 514.50
  C 324.12 526.36 324.47 538.27 328.70 549.27
  Q 330.97 555.16 335.53 561.23
  Q 325.72 550.83 321.32 535.44
  Q 317.68 523.28 317.88 508.75
  Q 318.09 492.68 323.71 478.88
  C 331.21 459.83 347.84 442.97 369.23 442.35
  C 394.87 442.68 410.40 465.88 417.24 488.01
  Q 423.86 509.44 424.28 530.00
  Q 424.38 534.99 423.48 541.66
  Z
  M 379.3642 501.0692
  A 17.02 16.84 71.7 0 0 390.0083 479.6224
  A 17.02 16.84 71.7 0 0 368.6758 468.7508
  A 17.02 16.84 71.7 0 0 358.0317 490.1976
  A 17.02 16.84 71.7 0 0 379.3642 501.0692
  Z"
/>
<path fill="#fbf4dd" d="
  M 402.94 574.22
  Q 401.10 575.94 399.42 576.77
  Q 385.95 583.46 371.07 580.95
  C 368.26 580.47 365.83 579.32 362.87 578.62
  C 354.82 576.73 346.96 571.38 340.90 565.84
  Q 338.32 563.49 335.53 561.23
  Q 330.97 555.16 328.70 549.27
  C 324.47 538.27 324.12 526.36 325.57 514.50
  C 327.80 496.29 337.05 478.12 352.17 467.70
  Q 358.18 463.56 365.08 463.62
  A 0.28 0.28 0.0 0 1 365.27 464.09
  Q 345.36 483.98 346.31 513.03
  C 347.10 537.36 360.32 567.82 385.98 575.02
  Q 394.45 577.40 402.94 574.22
  Z"
/>
<path fill="#fbf4dd" d="
  M 681.87 548.70
  L 677.45 556.04
  Q 667.68 568.60 653.19 574.06
  Q 638.39 578.99 622.81 577.75
  C 617.42 577.33 613.06 575.88 608.18 574.35
  A 0.48 0.48 0.0 0 1 608.18 573.44
  Q 608.69 573.28 609.44 573.39
  Q 622.98 574.44 634.08 566.84
  C 656.05 551.82 664.54 522.85 660.88 497.62
  Q 658.33 480.02 647.31 466.37
  A 0.37 0.37 0.0 0 1 647.74 465.79
  C 652.06 467.52 656.77 470.80 660.24 474.18
  C 677.63 491.08 687.39 515.67 684.33 540.13
  Q 683.78 544.57 681.87 548.70
  Z"
/>
<ellipse fill="#fbf4dd" cx="0.00" cy="0.00" transform="translate(374.02,484.91) rotate(71.7)" rx="17.02" ry="16.84"/>
<circle fill="#fbf4dd" cx="607.21" cy="485.00" r="17.03"/>
<path fill="#fee199" d="
  M 321.32 535.44
  Q 325.72 550.83 335.53 561.23
  Q 338.32 563.49 340.90 565.84
  C 346.96 571.38 354.82 576.73 362.87 578.62
  C 365.83 579.32 368.26 580.47 371.07 580.95
  Q 385.95 583.46 399.42 576.77
  Q 401.10 575.94 402.94 574.22
  C 415.76 567.56 421.27 555.31 423.48 541.66
  Q 436.55 544.80 443.96 550.04
  Q 451.34 555.27 458.60 560.66
  Q 473.16 571.47 491.99 572.68
  Q 496.83 572.99 499.74 572.52
  Q 518.37 573.06 531.95 562.45
  Q 534.60 560.38 543.13 553.42
  Q 557.37 541.78 576.20 539.78
  Q 577.36 543.13 579.10 547.07
  C 584.58 559.41 595.61 571.25 609.44 573.39
  Q 608.69 573.28 608.18 573.44
  A 0.48 0.48 0.0 0 0 608.18 574.35
  C 613.06 575.88 617.42 577.33 622.81 577.75
  Q 638.39 578.99 653.19 574.06
  Q 651.45 583.51 648.67 592.80
  C 639.55 623.33 614.18 639.40 585.10 647.57
  Q 551.87 656.92 548.31 658.06
  Q 538.09 661.35 514.72 670.35
  Q 500.31 675.90 477.72 679.35
  Q 442.25 673.81 407.57 663.84
  Q 395.19 660.14 386.67 656.83
  Q 368.09 649.61 350.29 637.91
  L 337.06 627.90
  Q 334.08 625.12 331.08 622.41
  C 322.59 614.75 317.25 606.63 311.17 595.97
  Q 304.66 583.26 302.68 572.28
  Q 299.27 553.36 315.02 543.78
  Q 317.41 542.32 319.96 541.19
  A 0.92 0.91 82.8 0 0 320.49 540.50
  L 321.32 535.44
  Z
  M 336.7396 575.7956
  A 2.79 2.30 28.6 0 0 335.3910 572.4406
  A 2.79 2.30 28.6 0 0 331.8404 573.1244
  A 2.79 2.30 28.6 0 0 333.1890 576.4794
  A 2.79 2.30 28.6 0 0 336.7396 575.7956
  Z
  M 438.88 584.32
  C 437.69 587.55 439.91 590.67 441.92 593.35
  Q 449.17 603.02 459.56 608.97
  Q 487.66 625.05 518.04 612.75
  Q 534.66 606.02 546.49 591.77
  Q 549.48 588.17 551.19 584.38
  A 3.63 3.62 -64.3 0 0 549.54 579.66
  L 549.28 579.53
  A 3.77 3.76 28.2 0 0 544.28 581.04
  Q 541.99 585.13 538.73 588.73
  C 525.16 603.67 505.62 611.80 485.59 609.68
  C 470.17 608.06 454.59 599.22 446.66 585.81
  C 444.74 582.56 442.89 581.23 439.56 583.45
  A 1.79 1.75 83.7 0 0 438.88 584.32
  Z"
/>
<path fill="#ffcd7b" d="
  M 684.72 544.35
  Q 692.33 548.30 698.51 554.74
  Q 707.49 564.09 705.15 577.13
  C 704.15 582.70 702.53 587.62 699.65 593.08
  Q 686.54 618.01 663.58 635.33
  Q 642.53 651.23 618.76 660.79
  Q 604.88 666.38 584.95 670.91
  Q 566.78 675.05 550.30 677.84
  Q 526.66 681.85 501.75 681.55
  Q 489.74 681.41 477.72 679.35
  Q 500.31 675.90 514.72 670.35
  Q 538.09 661.35 548.31 658.06
  Q 551.87 656.92 585.10 647.57
  C 614.18 639.40 639.55 623.33 648.67 592.80
  Q 651.45 583.51 653.19 574.06
  Q 667.68 568.60 677.45 556.04
  Q 680.58 553.61 682.25 548.87
  L 684.72 544.35
  Z
  M 680.21 574.50
  A 1.88 1.88 0.0 0 0 678.33 572.62
  A 1.88 1.88 0.0 0 0 676.45 574.50
  A 1.88 1.88 0.0 0 0 678.33 576.38
  A 1.88 1.88 0.0 0 0 680.21 574.50
  Z"
/>
<path fill="#ff904e" d="
  M 681.87 548.70
  Q 682.10 548.87 682.25 548.87
  Q 680.58 553.61 677.45 556.04
  L 681.87 548.70
  Z"
/>
<ellipse fill="#fbf4dd" cx="0.00" cy="0.00" transform="translate(334.29,574.46) rotate(28.6)" rx="2.79" ry="2.30"/>
<circle fill="#fbf4dd" cx="678.33" cy="574.50" r="1.88"/>
<path fill="#2c293e" d="
  M 439.56 583.45
  C 442.89 581.23 444.74 582.56 446.66 585.81
  C 454.59 599.22 470.17 608.06 485.59 609.68
  C 505.62 611.80 525.16 603.67 538.73 588.73
  Q 541.99 585.13 544.28 581.04
  A 3.77 3.76 28.2 0 1 549.28 579.53
  L 549.54 579.66
  A 3.63 3.62 -64.3 0 1 551.19 584.38
  Q 549.48 588.17 546.49 591.77
  Q 534.66 606.02 518.04 612.75
  Q 487.66 625.05 459.56 608.97
  Q 449.17 603.02 441.92 593.35
  C 439.91 590.67 437.69 587.55 438.88 584.32
  A 1.79 1.75 83.7 0 1 439.56 583.45
  Z"
/>
<path fill="#feaf51" d="
  M 311.17 595.97
  C 317.25 606.63 322.59 614.75 331.08 622.41
  Q 334.08 625.12 337.06 627.90
  Q 332.58 624.85 330.20 624.15
  C 326.64 623.09 322.19 624.26 323.29 629.03
  L 317.88 623.60
  Q 315.76 620.49 309.70 612.28
  Q 305.19 606.18 301.12 595.86
  A 2.84 2.81 54.3 0 1 301.57 593.04
  L 304.34 589.69
  A 1.93 1.93 0.0 0 1 307.47 589.91
  L 311.17 595.97
  Z"
/>
<path fill="#ff904e" d="
  M 337.06 627.90
  L 350.29 637.91
  Q 344.33 638.70 338.76 641.00
  L 326.06 631.64
  Q 325.48 630.13 323.29 629.03
  C 322.19 624.26 326.64 623.09 330.20 624.15
  Q 332.58 624.85 337.06 627.90
  Z"
/>
<path fill="#43c0a6" d="
  M 326.06 631.64
  L 338.76 641.00
  Q 354.84 651.42 372.23 658.96
  Q 371.32 664.60 371.41 670.48
  C 371.60 682.27 377.47 690.53 385.26 698.75
  Q 388.55 702.21 391.72 705.80
  C 396.66 712.79 401.62 720.41 404.55 728.51
  Q 379.94 735.11 372.60 736.94
  Q 343.99 744.08 319.91 759.56
  L 318.12 755.24
  Q 320.56 745.32 324.28 738.29
  Q 324.34 738.17 330.38 727.63
  Q 341.11 708.90 336.87 687.78
  Q 334.12 674.05 327.43 663.05
  Q 322.31 654.62 322.06 654.20
  Q 315.85 643.37 316.66 630.24
  A 0.67 0.66 7.7 0 1 317.47 629.63
  L 326.06 631.64
  Z"
/>
<path fill="#fe7041" d="
  M 350.29 637.91
  Q 368.09 649.61 386.67 656.83
  Q 395.19 660.14 407.57 663.84
  C 403.78 663.18 394.47 661.26 394.80 667.51
  L 378.21 661.25
  L 372.23 658.96
  Q 354.84 651.42 338.76 641.00
  Q 344.33 638.70 350.29 637.91
  Z"
/>
<path fill="#35a494" d="
  M 372.23 658.96
  L 378.21 661.25
  L 391.72 705.80
  Q 388.55 702.21 385.26 698.75
  C 377.47 690.53 371.60 682.27 371.41 670.48
  Q 371.32 664.60 372.23 658.96
  Z"
/>
<path fill="#288e82" d="
  M 394.80 667.51
  L 400.63 669.57
  Q 414.86 696.85 412.93 727.21
  Q 411.94 742.82 410.96 758.48
  C 410.09 747.64 408.36 738.06 404.55 728.51
  C 401.62 720.41 396.66 712.79 391.72 705.80
  L 378.21 661.25
  L 394.80 667.51
  Z"
/>
<path fill="#207a75" d="
  M 400.63 669.57
  L 423.30 675.90
  L 425.79 677.68
  C 425.39 687.98 426.96 697.12 428.20 706.86
  Q 431.68 734.45 420.07 759.69
  Q 413.00 775.05 404.95 789.97
  Q 409.24 780.80 410.42 770.90
  L 410.96 758.48
  Q 411.94 742.82 412.93 727.21
  Q 414.86 696.85 400.63 669.57
  Z"
/>
<path fill="#4ed3ad" d="
  M 439.46 681.04
  Q 439.34 683.15 440.12 685.08
  A 2.50 2.35 -59.9 0 1 440.28 685.77
  L 440.56 689.55
  Q 433.98 682.72 425.79 677.68
  L 423.30 675.90
  L 439.46 681.04
  Z"
/>
<path fill="#1e706e" d="
  M 425.79 677.68
  Q 433.98 682.72 440.56 689.55
  L 441.37 700.57
  C 441.51 720.22 437.03 740.36 429.59 758.35
  C 424.10 771.62 416.45 781.95 406.32 794.51
  Q 405.27 792.44 404.95 789.97
  Q 413.00 775.05 420.07 759.69
  Q 431.68 734.45 428.20 706.86
  C 426.96 697.12 425.39 687.98 425.79 677.68
  Z"
/>
<path fill="#ff904e" d="
  M 456.39 684.62
  L 457.74 693.87
  Q 457.55 694.64 457.91 695.37
  L 442.05 694.67
  A 0.48 0.48 0.0 0 0 441.55 695.13
  L 441.37 700.57
  L 440.56 689.55
  L 440.28 685.77
  A 2.50 2.35 -59.9 0 0 440.12 685.08
  Q 439.34 683.15 439.46 681.04
  Q 447.53 684.44 456.39 684.62
  Z"
/>
<path fill="#ffcd7b" d="
  M 581.34 939.75
  Q 549.35 955.36 521.38 963.96
  C 504.59 969.12 487.60 973.66 470.94 979.27
  L 463.09 979.18
  Q 457.94 964.57 450.84 951.14
  Q 472.91 942.55 494.67 932.96
  C 518.53 922.44 537.69 908.05 547.41 883.08
  Q 548.36 880.65 550.97 872.45
  Q 550.96 871.98 550.70 871.45
  L 562.18 866.72
  A 0.65 0.65 0.0 0 0 562.58 866.04
  L 555.14 804.12
  A 0.47 0.46 -7.9 0 0 554.61 803.72
  Q 540.39 805.96 525.96 806.39
  L 511.44 805.86
  L 528.21 805.21
  A 0.63 0.63 0.0 0 0 528.80 804.71
  Q 530.81 794.98 531.04 786.85
  C 531.43 772.85 527.12 760.62 520.46 747.21
  A 2.05 2.01 3.1 0 0 519.69 746.37
  Q 507.33 738.85 500.56 737.04
  Q 490.97 734.49 484.38 733.34
  C 474.87 731.68 467.90 727.01 460.02 722.48
  Q 460.62 719.38 459.54 714.93
  C 462.31 724.73 480.11 730.15 488.41 731.80
  C 493.78 732.86 500.88 734.07 506.95 734.31
  Q 529.22 735.18 550.66 729.29
  A 0.20 0.19 55.8 0 0 550.72 728.95
  Q 523.26 707.67 489.92 698.38
  Q 474.16 693.99 457.74 693.87
  L 456.39 684.62
  Q 464.27 686.01 471.75 687.07
  Q 509.62 692.41 544.83 687.32
  Q 562.11 684.82 570.84 683.20
  A 1.11 1.11 0.0 0 1 572.14 684.47
  C 570.25 696.12 570.11 706.37 569.58 720.51
  C 568.81 740.71 570.23 761.05 574.11 779.99
  Q 574.70 782.86 580.37 808.67
  Q 581.94 815.80 591.51 849.73
  Q 592.84 854.43 594.90 865.00
  C 596.83 874.91 596.51 886.17 595.65 896.50
  C 594.38 911.65 588.13 926.13 581.34 939.75
  Z"
/>
<path fill="#207a75" d="
  M 318.12 755.24
  L 319.91 759.56
  Q 328.50 774.59 341.02 786.63
  Q 333.35 806.44 325.11 825.85
  Q 321.54 834.25 320.16 836.90
  A 0.66 0.65 -56.3 0 0 320.32 837.72
  L 331.25 846.75
  A 0.66 0.65 29.2 0 1 331.46 847.47
  Q 326.33 863.28 313.68 873.45
  C 309.32 876.96 304.19 880.80 299.18 884.20
  Q 285.69 875.39 275.19 862.82
  C 291.21 853.53 303.12 845.38 314.97 833.72
  A 0.60 0.60 0.0 0 0 314.99 832.88
  Q 307.45 824.99 301.35 816.44
  Q 282.55 788.86 281.69 755.15
  Q 281.51 744.65 282.39 739.18
  Q 284.15 728.19 288.88 712.41
  Q 289.72 709.61 290.89 706.60
  Q 291.97 703.81 293.11 700.88
  Q 298.25 694.65 305.25 688.91
  A 0.81 0.81 0.0 0 1 306.57 689.60
  Q 305.08 708.18 308.93 726.63
  C 311.23 737.68 313.45 745.97 318.12 755.24
  Z"
/>
<path fill="#fee199" d="
  M 459.54 714.93
  Q 459.50 705.06 457.91 695.37
  Q 457.55 694.64 457.74 693.87
  Q 474.16 693.99 489.92 698.38
  Q 523.26 707.67 550.72 728.95
  A 0.20 0.19 55.8 0 1 550.66 729.29
  Q 529.22 735.18 506.95 734.31
  C 500.88 734.07 493.78 732.86 488.41 731.80
  C 480.11 730.15 462.31 724.73 459.54 714.93
  Z"
/>
<path fill="#feaf51" d="
  M 457.91 695.37
  Q 459.50 705.06 459.54 714.93
  Q 460.62 719.38 460.02 722.48
  Q 459.86 741.10 458.39 753.46
  Q 456.96 765.48 452.40 785.18
  Q 451.85 787.56 453.53 788.98
  Q 461.46 795.72 472.67 799.43
  Q 474.10 799.90 475.58 800.16
  Q 477.11 800.43 479.21 801.25
  Q 483.05 802.74 490.76 803.84
  Q 501.09 805.30 511.44 805.86
  L 525.96 806.39
  Q 506.73 808.00 487.73 805.29
  C 481.39 804.38 476.08 802.83 469.05 800.94
  Q 459.55 798.38 452.52 791.40
  A 1.07 1.07 0.0 0 0 450.93 791.49
  Q 450.76 791.69 450.58 792.31
  Q 444.71 812.81 435.67 841.33
  Q 435.24 842.70 435.17 843.51
  Q 435.08 844.62 434.63 845.66
  Q 433.79 847.61 433.47 848.79
  Q 431.47 856.05 431.39 856.38
  Q 427.87 870.30 427.99 883.97
  C 428.07 892.85 428.48 902.97 430.24 910.98
  Q 432.12 919.54 432.66 925.87
  Q 427.58 920.66 423.16 915.85
  Q 412.44 904.22 409.45 900.91
  C 403.30 894.12 396.47 888.14 389.10 880.85
  A 0.27 0.27 0.0 0 0 388.67 881.15
  L 397.53 900.41
  A 1.13 0.79 -80.0 0 0 397.60 900.56
  Q 399.78 903.99 401.36 907.77
  Q 396.45 923.26 396.29 934.04
  C 396.08 948.07 398.58 961.35 402.61 975.70
  Q 375.35 973.36 349.00 967.51
  A 2.13 2.12 3.1 0 1 347.35 965.68
  Q 344.27 939.19 346.44 912.83
  Q 346.86 907.75 347.26 906.39
  Q 349.74 887.18 354.81 870.81
  Q 361.95 847.78 376.61 827.19
  Q 388.04 811.84 403.45 797.70
  Q 404.12 797.09 406.32 794.51
  C 416.45 781.95 424.10 771.62 429.59 758.35
  C 437.03 740.36 441.51 720.22 441.37 700.57
  L 441.55 695.13
  A 0.48 0.48 0.0 0 1 442.05 694.67
  L 457.91 695.37
  Z"
/>
<path fill="#1e706e" d="
  M 662.18 803.43
  Q 655.51 811.61 647.10 817.23
  L 642.67 820.12
  L 625.48 800.08
  C 636.81 795.85 645.75 791.24 652.75 781.10
  C 662.42 767.10 666.33 751.47 672.34 731.58
  Q 673.94 726.25 679.53 715.24
  Q 687.53 706.84 692.92 696.51
  A 0.36 0.36 0.0 0 1 693.59 696.77
  Q 687.89 718.79 685.28 740.92
  Q 683.12 759.26 681.99 763.88
  Q 677.57 781.85 666.84 797.84
  Q 664.42 801.44 662.18 803.43
  Z"
/>
<path fill="#43c0a6" d="
  M 293.11 700.88
  Q 291.97 703.81 290.89 706.60
  Q 289.72 709.61 288.88 712.41
  Q 284.15 728.19 282.39 739.18
  Q 281.51 744.65 281.69 755.15
  Q 275.04 761.93 269.57 764.82
  C 261.71 768.96 254.71 772.26 246.88 778.06
  Q 248.59 767.77 252.84 758.35
  Q 256.69 749.84 261.61 741.87
  Q 271.42 725.99 284.62 710.11
  Q 289.26 704.52 293.11 700.88
  Z"
/>
<path fill="#207a75" d="
  M 679.53 715.24
  Q 673.94 726.25 672.34 731.58
  C 666.33 751.47 662.42 767.10 652.75 781.10
  C 645.75 791.24 636.81 795.85 625.48 800.08
  Q 602.71 774.67 592.95 742.12
  Q 592.81 741.65 592.95 741.33
  L 600.53 744.12
  C 613.05 760.16 626.25 770.57 647.89 765.96
  Q 650.60 765.38 655.26 764.17
  A 0.94 0.94 0.0 0 0 655.91 763.56
  Q 659.74 751.90 659.55 744.74
  Q 659.30 734.98 659.56 732.33
  Q 670.57 724.76 679.53 715.24
  Z"
/>
<path fill="#fee199" d="
  M 511.44 805.86
  Q 501.09 805.30 490.76 803.84
  Q 483.05 802.74 479.21 801.25
  Q 477.11 800.43 475.58 800.16
  Q 474.10 799.90 472.67 799.43
  Q 461.46 795.72 453.53 788.98
  Q 451.85 787.56 452.40 785.18
  Q 456.96 765.48 458.39 753.46
  Q 459.86 741.10 460.02 722.48
  C 467.90 727.01 474.87 731.68 484.38 733.34
  Q 490.97 734.49 500.56 737.04
  Q 507.33 738.85 519.69 746.37
  A 2.05 2.01 3.1 0 1 520.46 747.21
  C 527.12 760.62 531.43 772.85 531.04 786.85
  Q 530.81 794.98 528.80 804.71
  A 0.63 0.63 0.0 0 1 528.21 805.21
  L 511.44 805.86
  Z"
/>
<path fill="#35a494" d="
  M 410.96 758.48
  L 410.42 770.90
  C 397.74 780.21 384.60 781.48 367.97 784.34
  Q 360.56 785.61 344.67 790.09
  L 341.02 786.63
  Q 328.50 774.59 319.91 759.56
  Q 343.99 744.08 372.60 736.94
  Q 379.94 735.11 404.55 728.51
  C 408.36 738.06 410.09 747.64 410.96 758.48
  Z"
/>
<path fill="#288e82" d="
  M 659.56 732.33
  Q 659.30 734.98 659.55 744.74
  Q 659.74 751.90 655.91 763.56
  A 0.94 0.94 0.0 0 1 655.26 764.17
  Q 650.60 765.38 647.89 765.96
  C 626.25 770.57 613.05 760.16 600.53 744.12
  Q 623.24 749.83 644.13 740.88
  Q 651.69 737.64 659.56 732.33
  Z"
/>
<path fill="#1e706e" d="
  M 676.46 899.56
  Q 675.45 899.35 675.26 898.22
  Q 671.85 877.60 665.00 858.76
  Q 672.01 857.53 676.75 855.59
  C 689.65 850.28 698.90 836.90 703.74 824.07
  C 711.07 804.59 711.19 783.72 709.12 762.24
  Q 728.15 752.54 749.31 752.09
  A 0.53 0.52 25.4 0 1 749.65 753.03
  Q 736.89 762.86 734.57 778.97
  Q 733.77 784.55 734.58 794.77
  Q 736.02 812.88 735.62 822.37
  C 734.43 850.25 723.42 874.13 700.20 888.69
  Q 689.05 895.69 676.46 899.56
  Z"
/>
<path fill="#35a494" d="
  M 281.69 755.15
  Q 282.55 788.86 301.35 816.44
  Q 282.81 831.78 261.14 842.38
  C 250.20 822.52 244.04 800.90 246.88 778.06
  C 254.71 772.26 261.71 768.96 269.57 764.82
  Q 275.04 761.93 281.69 755.15
  Z"
/>
<path fill="#207a75" d="
  M 709.12 762.24
  C 711.19 783.72 711.07 804.59 703.74 824.07
  C 698.90 836.90 689.65 850.28 676.75 855.59
  Q 672.01 857.53 665.00 858.76
  L 663.69 855.59
  C 681.30 841.26 693.49 825.53 698.03 802.73
  C 700.38 790.96 700.99 778.73 701.68 766.72
  L 709.12 762.24
  Z"
/>
<path fill="#288e82" d="
  M 701.68 766.72
  C 700.99 778.73 700.38 790.96 698.03 802.73
  C 693.49 825.53 681.30 841.26 663.69 855.59
  Q 655.20 836.63 642.67 820.12
  L 647.10 817.23
  C 656.88 825.75 666.48 828.12 679.50 829.80
  A 0.75 0.74 18.9 0 0 680.25 829.44
  C 684.96 821.29 688.54 812.92 689.14 803.27
  A 2.49 2.36 43.5 0 0 689.11 802.69
  L 685.14 781.41
  Q 692.70 773.03 701.68 766.72
  Z"
/>
<path fill="#288e82" d="
  M 410.42 770.90
  Q 409.24 780.80 404.95 789.97
  C 390.11 797.97 374.79 801.27 358.31 804.03
  Q 352.21 796.44 344.67 790.09
  Q 360.56 785.61 367.97 784.34
  C 384.60 781.48 397.74 780.21 410.42 770.90
  Z"
/>
<path fill="#35a494" d="
  M 685.14 781.41
  L 689.11 802.69
  A 2.49 2.36 43.5 0 1 689.14 803.27
  C 688.54 812.92 684.96 821.29 680.25 829.44
  A 0.75 0.74 18.9 0 1 679.50 829.80
  C 666.48 828.12 656.88 825.75 647.10 817.23
  Q 655.51 811.61 662.18 803.43
  Q 662.46 804.18 663.55 803.64
  Q 664.10 803.37 664.81 802.66
  Q 675.27 792.26 685.14 781.41
  Z"
/>
<path fill="#1e706e" d="
  M 341.02 786.63
  L 344.67 790.09
  Q 352.21 796.44 358.31 804.03
  L 369.18 820.57
  A 1.75 1.71 4.6 0 0 369.52 820.96
  L 376.61 827.19
  Q 361.95 847.78 354.81 870.81
  Q 349.74 887.18 347.26 906.39
  C 330.23 900.75 313.87 894.18 299.18 884.20
  C 304.19 880.80 309.32 876.96 313.68 873.45
  Q 326.33 863.28 331.46 847.47
  A 0.66 0.65 29.2 0 0 331.25 846.75
  L 320.32 837.72
  A 0.66 0.65 -56.3 0 1 320.16 836.90
  Q 321.54 834.25 325.11 825.85
  Q 333.35 806.44 341.02 786.63
  Z"
/>
<path fill="#207a75" d="
  M 404.95 789.97
  Q 405.27 792.44 406.32 794.51
  Q 404.12 797.09 403.45 797.70
  Q 388.04 811.84 376.61 827.19
  L 369.52 820.96
  A 1.75 1.71 4.6 0 1 369.18 820.57
  L 358.31 804.03
  C 374.79 801.27 390.11 797.97 404.95 789.97
  Z"
/>
<path fill="#fee199" d="
  M 525.96 806.39
  Q 540.39 805.96 554.61 803.72
  A 0.47 0.46 -7.9 0 1 555.14 804.12
  L 562.58 866.04
  A 0.65 0.65 0.0 0 1 562.18 866.72
  L 550.70 871.45
  C 527.05 878.65 498.43 880.30 474.90 871.77
  Q 463.26 867.55 456.33 863.65
  Q 447.47 858.66 439.58 850.70
  C 438.86 849.97 436.47 846.91 436.29 846.84
  A 0.38 0.37 88.9 0 0 435.81 847.34
  Q 436.28 848.38 437.56 849.75
  Q 445.35 858.11 456.03 864.94
  C 476.68 878.17 502.61 882.66 526.67 878.90
  Q 538.41 877.07 550.97 872.45
  Q 548.36 880.65 547.41 883.08
  C 537.69 908.05 518.53 922.44 494.67 932.96
  Q 472.91 942.55 450.84 951.14
  Q 442.52 937.83 432.66 925.87
  Q 432.12 919.54 430.24 910.98
  C 428.48 902.97 428.07 892.85 427.99 883.97
  Q 427.87 870.30 431.39 856.38
  Q 431.47 856.05 433.47 848.79
  Q 433.79 847.61 434.63 845.66
  Q 435.08 844.62 435.17 843.51
  Q 435.24 842.70 435.67 841.33
  Q 444.71 812.81 450.58 792.31
  Q 450.76 791.69 450.93 791.49
  A 1.07 1.07 0.0 0 1 452.52 791.40
  Q 459.55 798.38 469.05 800.94
  C 476.08 802.83 481.39 804.38 487.73 805.29
  Q 506.73 808.00 525.96 806.39
  Z"
/>
<path fill="#288e82" d="
  M 275.19 862.82
  Q 267.25 853.52 261.14 842.38
  Q 282.81 831.78 301.35 816.44
  Q 307.45 824.99 314.99 832.88
  A 0.60 0.60 0.0 0 1 314.97 833.72
  C 303.12 845.38 291.21 853.53 275.19 862.82
  Z"
/>
<path fill="#ffba59" d="
  M 550.70 871.45
  Q 550.96 871.98 550.97 872.45
  Q 538.41 877.07 526.67 878.90
  C 502.61 882.66 476.68 878.17 456.03 864.94
  Q 445.35 858.11 437.56 849.75
  Q 436.28 848.38 435.81 847.34
  A 0.38 0.37 88.9 0 1 436.29 846.84
  C 436.47 846.91 438.86 849.97 439.58 850.70
  Q 447.47 858.66 456.33 863.65
  Q 463.26 867.55 474.90 871.77
  C 498.43 880.30 527.05 878.65 550.70 871.45
  Z"
/>
<path fill="#fe7041" d="
  M 648.25 972.56
  L 634.52 974.35
  Q 630.65 964.17 630.34 953.91
  C 630.02 943.70 629.72 933.04 627.64 923.91
  Q 624.25 909.01 615.68 896.13
  L 622.46 879.47
  A 0.33 0.32 36.2 0 1 623.01 879.39
  Q 636.21 895.76 641.67 913.22
  C 647.64 932.31 648.35 952.51 648.25 972.56
  Z"
/>
<path fill="#ff603c" d="
  M 432.66 925.87
  Q 442.52 937.83 450.84 951.14
  Q 457.94 964.57 463.09 979.18
  L 437.65 977.83
  L 436.00 976.98
  A 1.01 1.01 0.0 0 1 435.49 976.33
  Q 434.32 971.30 431.63 966.32
  Q 428.57 960.65 418.82 941.52
  L 401.36 907.77
  Q 399.78 903.99 397.60 900.56
  A 1.13 0.79 -80.0 0 1 397.53 900.41
  L 388.67 881.15
  A 0.27 0.27 0.0 0 1 389.10 880.85
  C 396.47 888.14 403.30 894.12 409.45 900.91
  Q 412.44 904.22 423.16 915.85
  Q 427.58 920.66 432.66 925.87
  Z"
/>
<path fill="#ff904e" d="
  M 634.52 974.35
  L 610.56 976.58
  Q 605.11 964.26 605.51 950.68
  Q 605.94 936.39 606.10 922.00
  L 615.68 896.13
  Q 624.25 909.01 627.64 923.91
  C 629.72 933.04 630.02 943.70 630.34 953.91
  Q 630.65 964.17 634.52 974.35
  Z"
/>
<path fill="#ff904e" d="
  M 418.82 941.52
  Q 420.08 959.32 424.62 976.50
  A 0.67 0.67 0.0 0 0 425.23 977.00
  L 436.56 977.79
  L 402.61 975.70
  C 398.58 961.35 396.08 948.07 396.29 934.04
  Q 396.45 923.26 401.36 907.77
  L 418.82 941.52
  Z"
/>
<path fill="#feaf51" d="
  M 610.56 976.58
  Q 596.79 978.13 583.08 978.01
  Q 585.49 972.11 587.78 966.22
  Q 589.93 960.69 592.78 954.58
  Q 600.20 938.64 606.10 922.00
  Q 605.94 936.39 605.51 950.68
  Q 605.11 964.26 610.56 976.58
  Z"
/>
<path fill="#ffba59" d="
  M 581.34 939.75
  Q 576.04 951.33 570.64 962.92
  Q 567.99 968.59 565.81 978.74
  Q 518.68 980.86 470.94 979.27
  C 487.60 973.66 504.59 969.12 521.38 963.96
  Q 549.35 955.36 581.34 939.75
  Z"
/>
<path fill="#fe7041" d="
  M 437.65 977.83
  L 436.56 977.79
  L 425.23 977.00
  A 0.67 0.67 0.0 0 1 424.62 976.50
  Q 420.08 959.32 418.82 941.52
  Q 428.57 960.65 431.63 966.32
  Q 434.32 971.30 435.49 976.33
  A 1.01 1.01 0.0 0 0 436.00 976.98
  L 437.65 977.83
  Z"
/>
</svg>
