<?xml version="1.0" encoding="UTF-8" standalone="no"?>
<!DOCTYPE svg PUBLIC "-//W3C//DTD SVG 1.1//EN" "http://www.w3.org/Graphics/SVG/1.1/DTD/svg11.dtd">
<svg xmlns="http://www.w3.org/2000/svg" version="1.1" viewBox="0.00 0.00 1024.00 1024.00">
<g stroke-width="2.00" fill="none" stroke-linecap="butt">
<path stroke="#8b9293" vector-effect="non-scaling-stroke" d="
  M 263.43 437.68
  Q 243.62 442.94 222.66 442.87
  Q 211.74 442.83 206.43 442.77
  A 0.58 0.57 -4.3 0 0 205.86 443.43
  Q 206.38 446.72 207.99 450.02
  Q 218.95 472.59 236.68 485.98
  C 258.58 502.54 285.02 508.25 312.76 504.55
  Q 318.83 503.74 326.14 502.22
  A 0.32 0.31 -1.3 0 1 326.52 502.58
  Q 322.73 525.69 332.45 546.36
  C 337.90 557.96 347.01 568.21 356.90 576.33
  Q 374.26 590.59 396.94 590.99
  A 1.04 1.03 81.3 0 1 397.91 591.71
  Q 400.08 598.20 400.99 601.15
  C 406.43 618.74 403.96 635.87 393.46 651.47
  Q 391.35 654.61 389.54 656.72
  A 0.86 0.85 34.0 0 1 388.50 656.92
  Q 367.72 646.23 343.86 651.21
  C 327.07 654.72 310.70 665.25 300.64 679.12
  Q 288.95 695.23 284.24 713.95
  A 10.29 10.26 -19.2 0 1 282.41 717.73
  Q 265.72 739.33 255.99 765.75
  Q 255.28 767.68 255.74 771.25
  Q 259.85 803.37 274.92 831.37
  C 307.08 891.16 371.64 921.72 436.98 931.12
  Q 444.95 932.27 456.57 932.24
  Q 485.37 932.16 551.00 932.27
  Q 575.47 932.30 591.78 932.48
  Q 599.98 932.57 606.16 931.51
  Q 623.40 928.55 634.95 925.18
  C 675.03 913.50 710.86 888.05 733.24 852.45
  C 754.28 818.98 765.83 781.00 766.68 742.00
  Q 767.54 702.17 767.10 684.04
  Q 766.83 672.68 766.36 666.93
  Q 766.29 666.10 766.10 665.67
  A 0.40 0.40 0.0 0 0 765.38 665.64
  Q 760.35 674.87 752.42 683.06
  Q 745.52 690.19 735.45 696.65
  Q 713.91 710.48 688.32 716.13
  A 0.67 0.67 0.0 0 1 687.51 715.47
  Q 687.56 692.61 685.46 671.02
  A 0.39 0.39 0.0 0 0 684.72 670.90
  Q 674.06 694.83 647.48 696.91
  A 0.75 0.74 75.1 0 1 646.75 696.48
  Q 632.82 667.22 612.83 641.40
  Q 605.60 632.05 588.95 611.07
  Q 579.93 599.70 572.72 584.47
  A 0.56 0.56 0.0 0 1 573.32 583.68
  L 583.40 585.35
  A 4.73 4.72 66.9 0 1 585.36 586.14
  C 608.17 601.83 631.50 617.21 657.90 625.84
  Q 671.33 630.23 686.24 630.67
  Q 717.60 631.57 739.03 609.62
  C 758.69 589.46 772.77 555.93 763.89 527.65
  A 3.71 3.71 0.0 0 0 761.75 525.32
  C 742.96 517.71 729.66 504.73 725.72 484.69
  Q 724.77 479.90 724.31 468.26
  C 723.82 455.97 721.04 445.10 717.80 433.07
  A 5.21 5.14 46.6 0 1 717.86 430.18
  C 721.71 417.98 723.10 405.51 719.71 393.20
  Q 715.97 379.64 708.64 368.70
  A 3.60 3.57 33.2 0 1 708.09 366.11
  Q 712.21 341.83 708.30 317.20
  C 705.69 300.75 701.19 281.35 699.06 268.99
  Q 696.41 253.62 695.44 236.75
  C 693.85 208.90 698.48 182.96 711.27 158.21
  C 722.24 136.99 737.81 120.78 758.51 109.09
  A 0.53 0.53 0.0 0 0 758.29 108.10
  C 741.99 106.90 727.49 110.31 712.51 116.78
  C 672.27 134.17 640.83 167.91 625.08 208.32
  Q 622.26 215.54 620.78 221.38
  A 0.42 0.42 0.0 0 1 620.09 221.58
  Q 597.34 200.90 569.24 186.52
  Q 549.28 176.30 539.41 172.25
  Q 528.86 167.93 525.48 165.07
  Q 515.80 156.88 517.69 142.07
  A 0.46 0.45 -21.3 0 0 516.89 141.72
  Q 511.95 147.49 509.15 154.22
  C 505.08 163.96 505.55 176.69 508.16 186.39
  C 513.46 206.05 525.53 224.57 537.55 242.24
  Q 537.83 242.66 537.79 242.99
  A 0.25 0.25 0.0 0 1 537.40 243.17
  Q 512.06 226.45 489.05 207.19
  Q 477.21 197.27 466.74 185.93
  A 1.97 1.95 -64.2 0 1 466.23 184.44
  C 468.07 163.67 475.22 143.06 486.01 125.53
  Q 499.81 103.09 521.61 88.93
  A 0.42 0.42 0.0 0 0 521.40 88.16
  Q 507.64 87.46 494.18 91.18
  Q 475.23 96.41 457.10 107.16
  C 439.74 117.46 424.89 131.68 413.47 148.68
  Q 386.39 188.99 383.44 237.98
  Q 382.69 250.52 383.33 261.95
  A 0.49 0.49 0.0 0 1 382.72 262.45
  C 351.13 254.03 321.66 239.85 298.83 216.43
  Q 293.64 211.10 290.26 205.68
  A 0.73 0.73 0.0 0 0 288.97 205.76
  Q 287.18 209.68 285.94 214.44
  C 280.55 235.14 282.10 256.94 288.25 277.51
  Q 300.02 316.84 329.88 343.63
  Q 336.37 349.46 341.31 353.21
  A 0.26 0.26 0.0 0 1 341.17 353.68
  Q 331.89 354.44 316.01 356.02
  Q 301.79 357.43 283.79 357.13
  Q 259.29 356.73 231.92 348.84
  C 217.26 344.62 202.73 337.50 189.28 329.53
  Q 181.61 324.98 176.40 320.64
  A 0.64 0.64 0.0 0 0 175.39 320.91
  Q 175.13 321.62 175.15 322.50
  C 175.95 350.13 184.46 376.94 200.97 399.51
  C 215.64 419.54 238.85 433.93 263.41 437.36
  A 0.16 0.16 0.0 0 1 263.43 437.68"
/>
<path stroke="#8c7640" vector-effect="non-scaling-stroke" d="
  M 463.76 121.60
  Q 437.17 139.70 421.92 165.90
  Q 409.97 186.42 404.60 210.18
  Q 399.39 233.28 400.17 257.61
  Q 401.17 289.04 414.56 318.97
  C 426.86 346.49 448.37 371.63 475.54 385.45
  C 484.64 390.08 497.13 393.44 507.80 391.73"
/>
<path stroke="#8a3d39" vector-effect="non-scaling-stroke" d="
  M 507.80 391.73
  L 512.78 391.90"
/>
<path stroke="#8c5c29" vector-effect="non-scaling-stroke" d="
  M 512.78 391.90
  L 501.27 398.95"
/>
<path stroke="#8c8e7e" vector-effect="non-scaling-stroke" d="
  M 501.27 398.95
  C 492.12 402.27 483.28 404.36 473.75 402.24
  C 470.26 401.47 466.62 399.75 463.20 398.20"
/>
<path stroke="#8c5c29" vector-effect="non-scaling-stroke" d="
  M 463.20 398.20
  Q 442.85 385.62 426.76 368.16
  A 1.28 1.28 0.0 0 0 424.71 368.38
  Q 417.44 380.79 414.55 394.55
  Q 410.00 416.20 417.29 436.15
  A 1.17 1.16 -85.8 0 0 417.82 436.77
  Q 418.06 436.90 418.17 436.86"
/>
<path stroke="#8c8e7e" vector-effect="non-scaling-stroke" d="
  M 418.17 436.86
  L 422.24 446.84"
/>
<path stroke="#8c5c29" vector-effect="non-scaling-stroke" d="
  M 422.24 446.84
  Q 426.02 457.65 430.45 467.79
  C 436.99 482.74 439.01 498.45 429.67 512.47
  C 423.72 521.39 414.89 526.69 403.99 526.22
  C 387.81 525.53 383.36 507.46 391.91 496.12
  A 0.21 0.21 0.0 0 1 392.20 496.08
  L 392.21 496.08
  A 0.24 0.24 0.0 0 1 392.27 496.41
  C 387.75 503.29 387.03 514.77 396.42 517.76
  Q 403.47 520.01 409.80 515.29
  Q 418.80 508.57 416.57 496.92
  Q 415.15 489.49 407.97 486.05
  C 400.85 482.63 392.16 483.33 384.42 485.41
  Q 376.76 487.48 353.36 494.41
  A 2.91 2.91 0.0 0 0 351.44 496.29
  C 345.15 515.70 349.98 535.01 364.74 549.03
  Q 380.10 563.64 401.48 562.09
  Q 420.49 560.71 433.76 547.02
  Q 441.18 539.37 445.77 528.30
  Q 452.95 511.00 453.23 493.03
  A 0.24 0.23 27.8 0 1 453.66 492.90
  Q 454.43 493.96 454.92 495.62
  Q 457.08 502.88 458.60 509.76
  Q 464.22 535.17 454.05 557.97
  A 2.33 2.32 39.0 0 0 454.30 560.29
  Q 465.28 575.17 474.82 590.32
  Q 483.95 604.84 491.36 623.30
  Q 497.22 637.92 498.07 652.52
  C 499.57 678.25 494.02 702.36 480.01 724.42
  C 473.06 735.36 463.74 744.38 453.39 751.63
  Q 448.92 754.77 443.80 756.97
  A 0.94 0.93 -17.4 0 0 443.25 758.01
  Q 446.26 772.74 444.73 787.51
  C 441.80 815.75 417.14 841.28 387.26 829.27
  Q 385.14 828.42 379.50 824.81"
/>
<path stroke="#8a3d39" vector-effect="non-scaling-stroke" d="
  M 379.50 824.81
  Q 372.76 819.25 368.23 810.46
  Q 367.96 809.93 368.31 809.45
  Q 368.42 809.29 369.09 809.46"
/>
<path stroke="#8c7640" vector-effect="non-scaling-stroke" d="
  M 369.09 809.46
  C 374.57 818.62 385.81 820.75 395.62 818.33
  C 408.81 815.07 417.66 802.85 419.84 789.80
  C 422.18 775.82 420.28 761.58 414.10 748.79
  C 405.65 731.31 391.32 718.55 373.55 710.70
  C 350.36 700.46 325.80 709.02 309.41 726.90
  C 302.88 734.02 299.61 738.25 293.70 746.11
  Q 290.72 750.09 285.82 754.97
  Q 279.32 761.43 272.74 769.00
  Q 271.69 770.21 272.46 772.38"
/>
<path stroke="#8a3d39" vector-effect="non-scaling-stroke" d="
  M 272.46 772.38
  Q 276.93 798.23 290.11 820.65
  Q 305.61 847.04 329.87 867.61
  Q 332.16 869.55 334.43 871.44"
/>
<path stroke="#8c7640" vector-effect="non-scaling-stroke" d="
  M 334.43 871.44
  L 341.74 876.74"
/>
<path stroke="#8a3d39" vector-effect="non-scaling-stroke" d="
  M 341.74 876.74
  Q 357.43 887.88 373.92 895.32
  Q 382.49 899.19 399.33 905.76"
/>
<path stroke="#8c5c29" vector-effect="non-scaling-stroke" d="
  M 399.33 905.76
  L 412.61 910.13"
/>
<path stroke="#8c8e7e" vector-effect="non-scaling-stroke" d="
  M 412.61 910.13
  Q 455.96 923.22 501.25 923.33
  Q 522.40 923.39 544.25 922.68
  Q 554.75 922.34 563.95 918.92
  C 590.44 909.07 613.79 888.54 628.38 864.26
  Q 656.73 817.07 650.36 760.68
  C 647.24 733.09 637.90 705.88 624.35 681.39
  Q 613.68 662.09 603.41 648.10
  C 589.44 629.06 570.78 607.33 561.15 582.73
  A 1.27 1.27 0.0 0 0 560.22 581.94
  C 548.38 579.49 537.26 576.78 525.71 572.56"
/>
<path stroke="#8c5c29" vector-effect="non-scaling-stroke" d="
  M 525.71 572.56
  Q 502.60 563.66 482.40 548.11
  C 476.23 543.35 468.92 536.91 463.70 529.94
  A 2.46 2.42 23.4 0 1 463.23 528.78
  Q 462.90 526.32 463.14 523.49
  Q 464.06 512.59 464.35 505.66
  A 0.39 0.39 0.0 0 1 465.10 505.53
  Q 467.12 510.32 471.24 515.14"
/>
<path stroke="#8c8e7e" vector-effect="non-scaling-stroke" d="
  M 471.24 515.14
  Q 485.96 532.95 506.43 546.11
  Q 522.98 556.75 539.62 561.60
  Q 563.56 568.59 588.87 571.47
  A 4.05 4.02 66.2 0 1 590.81 572.23
  Q 613.20 588.90 639.31 602.17
  C 656.11 610.71 673.98 616.33 692.95 615.13
  Q 715.17 613.73 730.11 597.57
  C 744.30 582.22 752.24 559.33 749.71 538.26
  A 1.72 1.69 -67.1 0 0 749.37 537.40
  Q 748.92 536.79 748.49 536.79"
/>
<path stroke="#8c5c29" vector-effect="non-scaling-stroke" d="
  M 748.49 536.79
  Q 736.55 527.49 731.30 522.44
  Q 725.46 516.82 721.32 511.43
  Q 710.11 496.84 710.01 477.69
  C 709.98 473.28 709.88 470.80 710.04 464.53
  C 710.17 459.77 709.77 453.48 708.45 449.49
  A 0.57 0.57 0.0 0 0 707.35 449.52
  L 700.43 475.56
  A 0.80 0.80 0.0 0 1 699.22 476.02
  Q 699.12 475.96 699.05 475.70
  C 697.06 467.37 696.08 457.72 698.25 448.74
  Q 701.84 433.84 706.44 417.93
  Q 709.16 408.48 706.39 398.57
  Q 702.95 386.23 697.26 375.71
  C 694.30 370.24 690.73 366.14 691.85 359.77"
/>
<path stroke="#8a3d39" vector-effect="non-scaling-stroke" d="
  M 691.85 359.77
  Q 692.15 357.04 691.97 351.00
  Q 691.47 333.87 689.82 323.19
  Q 685.81 297.20 682.45 279.09
  Q 679.95 265.58 679.20 258.98
  Q 677.43 243.41 677.37 238.71
  C 677.11 219.14 679.43 198.21 685.68 179.99
  Q 693.12 158.29 706.28 139.32
  C 707.99 136.85 710.15 134.92 711.68 132.37
  A 0.37 0.37 0.0 0 0 711.17 131.87
  L 700.86 138.46"
/>
<path stroke="#8c7640" vector-effect="non-scaling-stroke" d="
  M 700.86 138.46
  Q 695.60 142.30 690.58 146.10
  Q 666.79 164.13 651.36 188.83
  C 642.57 202.90 636.42 218.66 632.43 234.78
  A 2.50 2.50 0.0 0 0 632.93 236.97
  L 650.01 257.81"
/>
<path stroke="#8a3d39" vector-effect="non-scaling-stroke" d="
  M 650.01 257.81
  Q 658.29 270.09 665.23 283.80"
/>
<path stroke="#8c7640" vector-effect="non-scaling-stroke" d="
  M 665.23 283.80
  L 666.20 285.66"
/>
<path stroke="#8a3d39" vector-effect="non-scaling-stroke" d="
  M 666.20 285.66
  Q 683.56 321.36 688.38 360.77"
/>
<path stroke="#8c5c29" vector-effect="non-scaling-stroke" d="
  M 688.38 360.77
  C 690.74 382.71 691.66 404.62 689.42 426.98
  Q 685.94 461.79 675.85 494.80
  A 0.70 0.70 0.0 0 1 674.65 495.06
  Q 656.67 474.38 640.84 456.47
  Q 631.62 446.05 615.98 430.83
  Q 599.73 415.02 596.17 411.84
  Q 571.14 389.47 542.73 369.44
  A 1.61 1.60 -48.4 0 0 540.74 369.56
  C 539.55 370.64 537.29 374.25 535.35 372.80"
/>
<path stroke="#8a3d39" vector-effect="non-scaling-stroke" d="
  M 535.35 372.80
  Q 531.99 370.46 528.34 368.05
  C 517.42 360.82 507.80 350.98 498.84 340.51
  Q 469.53 306.22 456.79 263.45
  Q 450.61 242.69 448.43 223.22
  Q 445.21 194.39 453.28 164.97
  C 456.94 151.62 462.65 137.30 470.17 124.96
  Q 474.40 118.02 477.94 113.15
  A 0.38 0.38 0.0 0 0 477.48 112.58
  Q 475.23 113.56 471.52 116.05
  Q 467.28 118.90 463.76 121.60"
/>
<path stroke="#fc6b25" vector-effect="non-scaling-stroke" d="
  M 535.35 372.80
  Q 534.44 375.71 532.68 377.43
  Q 525.51 384.43 517.08 389.84
  Q 515.74 390.70 512.78 391.90"
/>
<path stroke="#fc853c" vector-effect="non-scaling-stroke" d="
  M 507.80 391.73
  Q 504.12 389.93 500.78 388.36
  Q 496.24 386.23 493.88 384.89
  Q 470.69 371.84 453.27 352.80
  Q 451.94 351.35 451.29 350.12
  A 1.31 1.30 60.8 0 1 451.77 348.40
  Q 468.11 338.38 482.78 325.52
  A 0.24 0.23 -33.8 0 0 482.84 325.24
  L 482.80 325.16
  A 0.26 0.26 0.0 0 0 482.42 325.06
  Q 465.76 336.65 446.74 342.79
  A 1.85 1.77 -49.8 0 1 445.99 342.87
  Q 444.43 342.71 443.44 341.35
  Q 422.42 312.71 416.99 277.66
  A 1.87 1.87 0.0 0 1 418.21 275.61
  C 429.74 271.48 440.29 265.09 451.04 258.78
  A 0.18 0.18 0.0 0 0 451.11 258.54
  L 451.10 258.53
  A 0.19 0.18 64.9 0 0 450.86 258.44
  Q 434.54 265.46 417.24 268.69
  A 1.51 1.51 0.0 0 1 415.47 267.43
  Q 412.98 250.39 414.51 232.77
  Q 415.86 217.12 418.81 204.34
  A 3.14 3.14 0.0 0 1 420.61 202.18
  Q 426.70 199.54 430.16 197.90
  Q 432.25 196.91 433.25 195.67
  A 0.46 0.46 0.0 0 0 432.79 194.93
  Q 427.39 196.15 422.04 195.87
  A 0.58 0.58 0.0 0 1 421.52 195.12
  C 423.98 187.16 426.44 179.68 430.27 172.52
  C 432.63 168.10 434.70 162.46 437.83 157.77
  Q 441.78 151.87 442.27 151.03
  C 444.03 148.00 446.65 145.08 448.35 141.75
  A 2.85 2.58 -15.7 0 1 448.67 141.24
  L 459.35 127.23
  A 2.26 2.18 88.9 0 1 459.59 126.97
  Q 462.23 124.56 463.76 121.60"
/>
<path stroke="#fdbb69" vector-effect="non-scaling-stroke" d="
  M 748.49 536.79
  Q 738.01 540.09 727.37 540.06
  Q 716.91 540.03 709.14 536.85
  C 699.22 532.78 691.00 523.90 684.28 515.10
  Q 679.90 509.37 665.35 490.96
  Q 664.03 489.27 663.46 488.33
  Q 662.61 486.91 661.30 485.79
  A 3.78 3.39 89.3 0 1 660.71 485.15
  Q 654.51 476.82 651.10 473.65
  Q 643.37 466.46 633.25 456.76
  Q 627.33 451.10 622.33 447.41
  C 616.17 442.87 610.82 438.03 604.34 433.67
  C 593.77 426.57 584.39 420.38 573.85 415.26
  Q 563.67 410.31 558.45 408.29
  Q 531.54 397.86 501.27 398.95"
/>
<path stroke="#fdbb69" vector-effect="non-scaling-stroke" d="
  M 471.24 515.14
  Q 470.41 500.43 467.94 486.64
  A 1.29 1.28 4.7 0 0 467.10 485.65
  Q 444.23 477.64 429.94 458.07
  Q 426.11 452.82 422.24 446.84"
/>
<path stroke="#fc6b25" vector-effect="non-scaling-stroke" d="
  M 691.85 359.77
  L 688.38 360.77"
/>
<path stroke="#fc853c" vector-effect="non-scaling-stroke" d="
  M 666.20 285.66
  Q 670.35 284.96 673.57 282.57
  A 0.29 0.29 0.0 0 0 673.34 282.06
  L 665.23 283.80"
/>
<path stroke="#fc853c" vector-effect="non-scaling-stroke" d="
  M 650.01 257.81
  L 650.31 234.28
  A 4.18 4.18 0.0 0 1 652.17 230.86
  L 665.71 221.82
  A 0.51 0.51 0.0 0 0 665.24 220.92
  L 652.50 225.75
  A 0.79 0.79 0.0 0 1 651.45 224.85
  Q 654.76 208.98 661.48 193.94
  Q 662.01 192.76 666.18 184.53
  Q 668.77 179.40 671.59 175.52
  Q 674.32 171.76 675.53 169.48
  C 678.20 164.45 682.81 159.65 686.16 155.21
  C 689.16 151.24 693.16 147.76 696.01 144.22
  Q 697.66 142.16 699.98 140.83
  A 2.28 2.22 -86.7 0 0 700.67 140.20
  Q 701.86 138.49 700.86 138.46"
/>
<path stroke="#fdbb69" vector-effect="non-scaling-stroke" d="
  M 525.71 572.56
  Q 525.89 574.90 528.46 577.03
  A 4.56 4.52 5.2 0 1 529.51 578.28
  Q 546.35 607.74 553.87 639.67
  Q 562.91 678.04 561.51 720.53
  C 559.87 770.39 539.86 818.88 505.94 855.75
  Q 479.74 884.22 447.44 899.17
  Q 433.78 905.49 416.29 908.87
  A 2.67 2.51 -46.8 0 1 415.65 908.91
  Q 412.76 908.79 412.61 910.13"
/>
<path stroke="#fc6b25" vector-effect="non-scaling-stroke" d="
  M 399.33 905.76
  Q 395.02 900.27 392.29 893.25
  Q 386.65 878.76 384.32 861.98
  Q 382.03 845.48 380.57 828.89
  A 2.21 2.20 25.3 0 0 380.19 827.83
  Q 379.00 826.07 379.50 824.81"
/>
<path stroke="#fdbb69" vector-effect="non-scaling-stroke" d="
  M 463.20 398.20
  C 445.41 403.07 424.30 413.06 418.51 432.51
  Q 417.99 434.25 418.17 436.86"
/>
<path stroke="#fc853c" vector-effect="non-scaling-stroke" d="
  M 369.09 809.46
  Q 366.03 803.51 365.80 800.20
  Q 365.67 798.28 365.46 797.50
  A 0.81 0.80 86.1 0 0 364.79 796.91
  C 355.98 795.62 347.23 798.06 345.92 807.85
  C 344.60 817.76 347.71 823.85 353.29 832.53
  Q 359.91 842.82 369.63 850.18
  A 0.22 0.21 -55.1 0 1 369.68 850.47
  L 369.82 850.66
  A 0.18 0.18 0.0 0 1 369.59 850.92
  L 355.29 841.97
  A 3.43 3.42 52.6 0 0 352.48 841.59
  C 342.65 844.54 337.40 852.34 337.78 862.61
  Q 338.05 869.63 341.74 876.74"
/>
<path stroke="#fc853c" vector-effect="non-scaling-stroke" d="
  M 334.43 871.44
  C 332.12 864.58 331.81 856.39 335.12 850.03
  Q 339.96 840.74 349.45 837.49
  A 0.54 0.53 58.7 0 0 349.66 836.61
  C 340.78 827.26 333.97 804.40 347.12 795.20
  Q 355.75 789.15 364.97 793.76
  A 0.65 0.65 0.0 0 0 365.89 793.32
  Q 367.12 787.82 370.96 783.81"
/>
<path stroke="#fda42b" vector-effect="non-scaling-stroke" d="
  M 370.96 783.81
  L 376.50 781.77
  A 2.63 2.38 29.5 0 1 377.17 781.62
  Q 380.73 781.32 383.64 783.57
  A 0.38 0.38 0.0 0 1 383.56 784.22
  Q 383.46 784.27 380.49 783.55
  C 374.03 781.99 370.93 786.39 368.98 791.79
  C 366.15 799.67 369.75 808.10 375.83 813.24
  C 381.14 817.72 391.09 818.14 396.99 814.49
  C 403.48 810.48 407.77 804.44 409.58 796.61
  Q 412.53 783.82 410.82 773.27
  Q 407.91 755.35 396.88 739.35
  C 380.77 716.00 352.32 705.41 325.48 716.33
  C 320.06 718.53 315.23 722.89 311.64 727.14
  Q 307.57 731.94 295.37 746.00
  A 0.77 0.77 0.0 0 0 295.80 747.26
  C 302.19 748.55 308.14 750.29 313.17 755.24"
/>
<path stroke="#fc853c" vector-effect="non-scaling-stroke" d="
  M 313.17 755.24
  Q 313.54 756.22 313.39 756.78
  A 1.30 1.23 18.7 0 1 311.67 757.57
  C 304.94 754.84 298.42 752.62 291.52 755.80
  A 6.00 5.95 -76.2 0 0 290.29 756.55
  Q 285.48 760.40 280.28 764.29
  C 279.61 764.79 278.76 766.11 277.85 766.85
  Q 275.14 769.06 272.46 772.38"
/>
<path stroke="#fc6b25" vector-effect="non-scaling-stroke" d="
  M 370.96 783.81
  C 370.67 782.38 369.40 781.48 368.81 780.59
  C 367.98 779.32 366.97 777.89 366.30 776.58
  Q 359.48 763.13 353.73 754.79
  Q 351.85 752.07 347.75 749.91"
/>
<path stroke="#fda42b" vector-effect="non-scaling-stroke" d="
  M 347.75 749.91
  Q 348.81 750.00 348.92 749.87
  A 1.21 1.20 36.8 0 0 348.66 748.08
  Q 334.91 739.07 322.34 748.86
  Q 321.18 749.77 320.01 751.11
  Q 318.94 752.36 317.80 753.57"
/>
<path stroke="#fc6b25" vector-effect="non-scaling-stroke" d="
  M 317.80 753.57
  Q 315.13 753.29 313.17 755.24"
/>
<path stroke="#fc853c" vector-effect="non-scaling-stroke" d="
  M 347.75 749.91
  C 337.05 744.74 322.55 747.66 320.64 761.38
  C 318.80 774.58 324.79 784.28 332.85 795.74
  Q 334.70 798.37 335.72 801.00
  A 0.76 0.76 0.0 0 1 334.71 801.97
  C 328.51 799.28 322.82 797.60 316.20 798.72
  A 0.26 0.26 0.0 0 1 316.03 798.23
  C 318.99 796.58 321.72 796.60 326.58 795.99
  A 0.55 0.55 0.0 0 0 326.93 795.09
  C 320.74 787.68 316.45 780.68 315.67 770.81
  C 315.21 764.92 314.85 758.57 317.80 753.57"
/>
<path stroke="#0f6974" vector-effect="non-scaling-stroke" d="
  M 558.30 242.75
  C 564.20 254.62 567.85 262.62 569.80 273.37
  A 5.10 5.10 0.0 0 0 571.32 276.17
  L 589.97 293.82"
/>
<path stroke="#0e7d7e" vector-effect="non-scaling-stroke" d="
  M 589.97 293.82
  Q 602.27 309.18 605.55 313.72
  Q 623.53 338.59 630.87 368.55
  A 0.14 0.13 76.5 0 1 630.78 368.71
  L 630.77 368.71
  A 0.12 0.11 70.7 0 1 630.63 368.64
  Q 624.44 352.03 614.40 338.59
  Q 599.94 319.25 582.23 302.76
  C 556.15 278.50 521.04 251.41 500.69 234.81
  Q 482.46 219.94 475.51 212.74
  Q 470.27 207.33 465.37 202.77
  A 0.28 0.27 -71.3 0 0 464.91 203.00
  Q 466.81 226.63 471.86 247.62
  Q 481.05 285.80 503.52 316.47
  Q 517.43 335.44 534.34 351.30
  A 9.13 9.09 -9.4 0 0 536.26 352.67
  Q 557.53 364.05 577.49 380.02
  Q 625.14 418.17 666.09 463.37
  A 0.61 0.60 30.6 0 0 667.13 463.11
  Q 680.04 407.89 671.40 351.77
  Q 667.48 326.29 658.86 304.44
  C 639.81 256.17 600.97 217.99 553.99 195.85
  Q 538.15 188.37 530.41 184.60
  Q 524.87 181.90 519.81 178.84
  A 0.51 0.50 19.6 0 0 519.04 179.20
  Q 519.01 179.43 519.20 179.88
  Q 522.21 187.17 527.42 196.13
  Q 537.71 213.84 551.70 232.30
  Q 554.58 236.11 558.30 242.75"
/>
<path stroke="#03b8b5" vector-effect="non-scaling-stroke" d="
  M 589.97 293.82
  Q 590.80 290.80 589.40 288.11
  C 581.24 272.49 570.66 257.55 560.52 242.90
  A 0.87 0.87 0.0 0 0 559.68 242.54
  L 558.30 242.75"
/>
<path stroke="#0f6974" vector-effect="non-scaling-stroke" d="
  M 301.07 257.73
  Q 304.85 277.13 314.40 294.36
  Q 323.45 310.70 336.52 324.50
  C 343.40 331.76 351.18 337.63 359.81 343.90
  Q 365.49 348.02 367.60 348.70
  Q 369.80 349.40 376.75 348.12"
/>
<path stroke="#0e7d7e" vector-effect="non-scaling-stroke" d="
  M 376.75 348.12
  L 406.91 344.96
  A 0.68 0.67 -5.6 0 0 407.52 344.23
  Q 407.45 343.47 406.99 342.78
  C 400.61 333.26 396.27 321.56 392.74 311.51
  Q 387.59 296.85 385.39 280.04
  A 1.01 1.01 0.0 0 0 384.60 279.18
  Q 358.73 273.64 334.80 261.97
  Q 314.17 251.91 297.98 236.42
  A 0.25 0.25 0.0 0 0 297.56 236.62
  Q 298.45 247.39 301.07 257.73"
/>
<path stroke="#03b8b5" vector-effect="non-scaling-stroke" d="
  M 376.75 348.12
  Q 357.87 336.68 343.59 322.21
  C 340.08 318.65 337.85 315.43 334.91 312.13
  Q 332.44 309.35 328.46 303.91
  Q 317.00 288.22 308.00 270.79
  Q 307.88 270.56 304.23 264.44
  Q 302.36 261.31 301.07 257.73"
/>
<path stroke="#0e7d7e" vector-effect="non-scaling-stroke" d="
  M 300.19 425.08
  Q 312.47 422.78 323.44 417.38
  A 0.17 0.17 0.0 0 1 323.62 417.67
  C 297.92 438.84 265.39 451.45 232.71 454.32
  Q 226.90 454.82 222.71 454.67
  A 0.66 0.66 0.0 0 0 222.16 455.72
  Q 228.44 464.14 235.42 471.32
  Q 244.82 481.01 259.87 488.14"
/>
<path stroke="#0f6974" vector-effect="non-scaling-stroke" d="
  M 259.87 488.14
  Q 269.69 492.04 277.01 493.45
  Q 301.06 498.06 326.18 490.90
  Q 337.66 487.63 352.82 482.08
  C 363.59 478.14 372.74 475.35 382.49 472.48
  C 391.71 469.77 402.39 468.55 411.90 470.71
  A 0.36 0.36 0.0 0 0 412.33 470.25
  Q 407.59 454.98 401.92 437.85
  Q 397.50 424.52 395.72 414.56
  C 391.84 392.82 398.92 369.84 414.20 353.82
  A 0.63 0.62 -59.3 0 0 413.94 352.79
  Q 412.42 352.33 410.67 352.55
  Q 396.07 354.44 383.12 357.11"
/>
<path stroke="#0e7d7e" vector-effect="non-scaling-stroke" d="
  M 383.12 357.11
  Q 361.97 360.70 342.23 363.91
  C 319.39 367.62 300.86 370.32 281.16 369.48
  Q 265.80 368.83 253.42 366.96
  Q 246.37 365.89 238.17 363.50
  C 225.90 359.93 214.99 356.08 204.23 350.32
  C 199.84 347.97 194.70 344.24 189.78 341.40"
/>
<path stroke="#0f6974" vector-effect="non-scaling-stroke" d="
  M 189.78 341.40
  L 187.16 339.59
  A 0.64 0.64 0.0 0 0 186.17 340.28
  Q 188.23 348.25 189.05 351.74
  C 191.36 361.61 196.23 371.07 201.25 380.30
  C 207.47 391.72 215.42 400.62 224.66 409.07
  C 228.52 412.60 234.73 416.36 239.05 418.69
  Q 258.68 429.28 280.99 427.69
  Q 291.90 426.91 300.19 425.08"
/>
<path stroke="#03b8b5" vector-effect="non-scaling-stroke" d="
  M 189.78 341.40
  Q 187.65 344.23 189.34 346.92
  Q 193.04 352.80 198.84 362.65
  Q 210.54 382.54 227.16 398.10
  C 235.57 405.97 245.30 413.11 253.95 416.55
  C 262.58 419.99 273.40 424.27 283.53 425.03
  Q 290.79 425.58 300.19 425.08"
/>
<path stroke="#03b8b5" vector-effect="non-scaling-stroke" d="
  M 383.12 357.11
  Q 382.33 359.91 380.55 362.73
  Q 377.92 366.89 377.39 368.01
  Q 370.19 383.06 369.21 399.22
  Q 369.19 399.69 368.62 411.49
  Q 368.36 417.03 366.55 423.56
  C 360.62 444.94 347.28 465.15 328.22 475.93
  Q 316.78 482.40 307.59 485.01
  Q 293.85 488.91 277.84 489.36
  Q 266.82 489.67 259.87 488.14"
/>
<path stroke="#0e7d7e" vector-effect="non-scaling-stroke" d="
  M 438.36 576.61
  L 427.26 583.42"
/>
<path stroke="#0f6974" vector-effect="non-scaling-stroke" d="
  M 427.26 583.42
  Q 420.54 587.10 413.30 588.78
  A 0.37 0.37 0.0 0 0 413.06 589.30
  Q 425.43 615.07 415.60 642.14
  Q 413.14 648.92 408.25 657.03"
/>
<path stroke="#0e7d7e" vector-effect="non-scaling-stroke" d="
  M 408.25 657.03
  L 400.98 666.68
  A 0.83 0.83 0.0 0 0 400.98 667.68
  Q 407.83 676.69 408.46 688.56"
/>
<path stroke="#0f6974" vector-effect="non-scaling-stroke" d="
  M 408.46 688.56
  Q 408.48 695.20 407.21 699.95
  Q 406.60 702.23 406.44 703.28
  A 0.90 0.90 0.0 0 0 406.76 704.10
  C 418.63 713.88 428.32 723.81 435.89 737.22
  A 0.98 0.98 0.0 0 0 437.23 737.60
  C 466.30 721.50 484.34 689.60 481.32 656.19
  Q 480.40 645.96 477.56 636.43
  Q 473.80 623.77 470.89 617.57
  Q 459.74 593.87 444.21 571.70
  A 0.39 0.38 -38.7 0 0 443.63 571.64
  L 438.36 576.61"
/>
<path stroke="#03b8b5" vector-effect="non-scaling-stroke" d="
  M 408.46 688.56
  Q 420.92 683.20 430.18 673.66
  Q 449.27 653.99 449.63 626.24
  Q 449.91 605.41 443.06 588.68
  Q 439.53 580.06 438.36 576.61"
/>
<path stroke="#03b8b5" vector-effect="non-scaling-stroke" d="
  M 408.25 657.03
  Q 410.56 654.34 412.15 651.19
  Q 414.88 645.82 418.87 638.57
  Q 423.55 630.04 425.11 625.76
  Q 428.20 617.30 428.74 609.85
  C 429.17 603.97 428.66 596.24 428.50 590.52
  Q 428.45 588.79 427.26 583.42"
/>
<path stroke="#0e7d7e" vector-effect="non-scaling-stroke" d="
  M 304.43 700.21
  A 0.37 0.37 0.0 0 0 304.99 700.66
  C 327.44 683.48 358.60 680.17 385.04 688.21
  C 388.05 689.12 390.34 690.25 393.79 691.92
  A 0.52 0.51 -78.4 0 0 394.53 691.43
  C 393.94 677.45 384.74 668.82 371.54 665.35
  C 359.15 662.08 347.45 664.45 335.45 669.18
  Q 331.21 670.85 325.83 674.84
  Q 318.93 679.95 317.12 681.85
  Q 308.97 690.33 304.43 700.21"
/>
<path stroke="#0f6974" vector-effect="non-scaling-stroke" d="
  M 653.50 711.08
  Q 660.05 724.82 663.78 742.38
  Q 669.99 771.58 666.57 801.36
  A 0.55 0.55 0.0 0 0 667.31 801.94
  L 688.26 793.99
  A 0.68 0.68 0.0 0 0 688.64 793.07
  Q 681.17 776.44 678.02 758.00
  C 677.10 752.61 676.02 747.75 675.61 742.38
  Q 674.17 723.34 673.86 706.74
  A 0.95 0.95 0.0 0 0 672.44 705.94
  Q 664.21 710.67 654.19 710.07
  A 0.71 0.71 0.0 0 0 653.50 711.08"
/>
<path stroke="#8c7640" vector-effect="non-scaling-stroke" d="
  M 695.74 763.76
  L 698.32 770.58"
/>
<path stroke="#8a3d39" vector-effect="non-scaling-stroke" d="
  M 698.32 770.58
  Q 699.48 774.31 701.62 778.39
  Q 705.63 786.07 710.13 792.62
  Q 711.70 794.90 713.62 796.69
  A 1.07 1.07 0.0 0 1 713.50 798.36
  L 711.12 800.02"
/>
<path stroke="#8c7640" vector-effect="non-scaling-stroke" d="
  M 711.12 800.02
  L 693.07 808.69"
/>
<path stroke="#8a3d39" vector-effect="non-scaling-stroke" d="
  M 693.07 808.69
  Q 679.11 814.87 664.52 819.30
  A 1.21 1.21 0.0 0 0 663.69 820.18
  Q 656.89 848.57 641.77 873.27
  Q 638.45 878.69 631.66 887.40
  Q 617.44 905.65 600.75 916.49
  Q 596.13 919.50 591.11 922.59
  A 0.32 0.32 0.0 0 0 591.33 923.18
  Q 618.75 918.67 645.62 908.52
  Q 655.38 904.83 662.66 900.65
  Q 671.48 895.59 678.66 890.75
  Q 682.86 887.92 683.68 887.23
  Q 684.35 886.67 686.60 885.59
  A 1.90 1.73 -77.5 0 0 687.04 885.28
  L 700.02 873.33"
/>
<path stroke="#8c7640" vector-effect="non-scaling-stroke" d="
  M 700.02 873.33
  L 705.55 867.18"
/>
<path stroke="#8a3d39" vector-effect="non-scaling-stroke" d="
  M 705.55 867.18
  L 709.54 863.45
  A 2.36 2.21 88.2 0 0 709.83 863.12
  Q 716.26 854.14 722.48 844.98
  Q 728.20 836.57 732.98 826.02
  Q 745.89 797.59 749.73 766.03"
/>
<path stroke="#8c7640" vector-effect="non-scaling-stroke" d="
  M 749.73 766.03
  L 750.61 759.50"
/>
<path stroke="#8c5c29" vector-effect="non-scaling-stroke" d="
  M 750.61 759.50
  Q 752.23 733.51 749.21 707.85
  A 0.64 0.63 -19.8 0 0 748.24 707.40
  C 730.06 719.03 711.12 729.69 690.15 735.23
  A 0.81 0.80 79.2 0 0 689.56 736.10
  Q 691.29 750.24 695.74 763.76"
/>
<path stroke="#fda42b" vector-effect="non-scaling-stroke" d="
  M 750.61 759.50
  L 750.38 755.99
  A 0.02 0.02 0.0 0 0 750.34 755.99
  L 750.29 756.38
  A 0.56 0.55 -74.5 0 1 749.52 756.82
  C 740.41 752.90 732.54 750.33 723.11 752.52
  Q 718.65 753.56 710.90 757.79
  A 0.93 0.93 0.0 0 0 710.42 758.53
  L 710.29 760.30"
/>
<path stroke="#fc6b25" vector-effect="non-scaling-stroke" d="
  M 710.29 760.30
  L 709.26 761.89"
/>
<path stroke="#fda42b" vector-effect="non-scaling-stroke" d="
  M 709.26 761.89
  L 695.74 763.76"
/>
<path stroke="#fc853c" vector-effect="non-scaling-stroke" d="
  M 705.55 867.18
  Q 706.89 859.79 704.26 852.18
  C 702.12 845.97 696.85 839.51 690.13 838.14
  A 0.58 0.58 0.0 0 1 689.83 837.17
  Q 701.99 824.97 698.86 808.33
  A 0.53 0.52 -78.9 0 1 699.66 807.79
  Q 701.00 808.67 702.25 808.05
  C 708.35 805.03 714.00 803.50 720.86 805.43
  A 0.43 0.43 0.0 0 0 721.38 805.17
  L 721.38 805.16
  A 0.41 0.41 0.0 0 0 721.17 804.64
  L 711.12 800.02"
/>
<path stroke="#fc853c" vector-effect="non-scaling-stroke" d="
  M 698.32 770.58
  Q 701.71 767.71 703.68 767.13
  Q 713.39 764.24 721.49 769.61
  C 723.95 771.23 725.37 773.54 727.45 776.33
  A 0.36 0.36 0.0 0 0 728.07 776.00
  C 725.82 769.56 722.35 764.60 715.23 762.82
  Q 713.61 762.42 709.26 761.89"
/>
<path stroke="#fc853c" vector-effect="non-scaling-stroke" d="
  M 749.73 766.03
  L 749.31 766.44
  A 0.48 0.47 58.0 0 1 748.53 766.26
  Q 748.38 765.81 747.92 765.34
  C 741.33 758.66 734.09 755.28 724.37 756.43
  Q 717.48 757.24 710.29 760.30"
/>
<path stroke="#fc853c" vector-effect="non-scaling-stroke" d="
  M 700.02 873.33
  L 699.31 873.20
  A 1.04 1.04 0.0 0 1 698.52 871.81
  C 699.96 867.89 701.49 862.97 701.18 859.07
  C 700.56 851.13 695.67 845.27 688.42 842.31
  Q 685.31 841.03 682.62 842.87
  Q 676.07 847.33 671.29 850.11
  A 0.30 0.30 0.0 0 1 670.90 850.01
  L 670.89 850.01
  A 0.23 0.23 0.0 0 1 670.94 849.70
  Q 680.03 842.66 686.84 833.31
  Q 690.92 827.71 693.13 821.14
  Q 695.31 814.67 693.07 808.69"
/>
<path stroke="#fdf2d4" vector-effect="non-scaling-stroke" d="
  M 523.43 484.36
  Q 524.48 485.89 527.24 491.76
  Q 531.78 501.40 543.53 510.75
  Q 546.67 513.25 556.28 518.26
  C 558.87 519.60 561.37 520.07 563.98 521.22
  Q 566.80 522.45 569.85 523.27
  Q 596.57 530.41 622.71 520.95"
/>
<path stroke="#8c8e7e" vector-effect="non-scaling-stroke" d="
  M 622.71 520.95
  L 625.94 524.90
  A 0.48 0.48 0.0 0 0 626.79 524.60
  C 626.96 509.50 620.89 494.27 613.40 480.84
  Q 603.94 463.88 590.72 449.54
  C 570.38 427.49 541.05 416.42 511.00 418.30
  C 497.91 419.12 485.35 422.18 472.35 425.40
  A 0.85 0.84 67.7 0 0 471.83 426.65
  C 479.19 438.83 490.45 445.32 504.51 447.34
  A 0.75 0.75 0.0 0 1 505.14 448.00
  Q 505.30 449.59 506.15 453.68
  Q 509.90 471.65 523.43 484.36"
/>
<path stroke="#8b9293" vector-effect="non-scaling-stroke" d="
  M 622.71 520.95
  Q 614.26 504.93 606.41 490.11
  Q 605.82 489.00 602.29 484.24
  A 0.23 0.23 0.0 0 0 601.87 484.37
  C 601.32 496.44 595.17 511.70 582.50 515.52
  C 574.18 518.03 565.00 515.46 558.60 510.08
  C 541.55 495.76 539.38 474.33 545.86 453.89
  A 0.45 0.45 0.0 0 0 545.49 453.31
  L 521.97 450.14
  A 0.35 0.35 0.0 0 0 521.59 450.39
  Q 517.46 466.92 523.43 484.36"
/>
<path stroke="#8c8e7e" vector-effect="non-scaling-stroke" d="
  M 708.78 576.16
  Q 708.26 561.38 695.88 553.91
  C 693.71 552.60 691.32 553.27 690.68 555.74
  Q 688.28 564.92 696.36 570.15
  Q 700.93 573.11 708.08 576.62
  A 0.49 0.49 0.0 0 0 708.78 576.16"
/>
<path stroke="#8b9293" vector-effect="non-scaling-stroke" d="
  M 591.3420 485.6466
  A 7.11 6.25 -42.5 0 0 581.8776 485.8420
  A 7.11 6.25 -42.5 0 0 580.8580 495.2534
  A 7.11 6.25 -42.5 0 0 590.3224 495.0580
  A 7.11 6.25 -42.5 0 0 591.3420 485.6466"
/>
</g>
<path fill="#fcf6e9" d="
  M 1024.00 0.00
  L 1024.00 1024.00
  L 0.00 1024.00
  L 0.00 0.00
  L 1024.00 0.00
  Z
  M 263.43 437.68
  Q 243.62 442.94 222.66 442.87
  Q 211.74 442.83 206.43 442.77
  A 0.58 0.57 -4.3 0 0 205.86 443.43
  Q 206.38 446.72 207.99 450.02
  Q 218.95 472.59 236.68 485.98
  C 258.58 502.54 285.02 508.25 312.76 504.55
  Q 318.83 503.74 326.14 502.22
  A 0.32 0.31 -1.3 0 1 326.52 502.58
  Q 322.73 525.69 332.45 546.36
  C 337.90 557.96 347.01 568.21 356.90 576.33
  Q 374.26 590.59 396.94 590.99
  A 1.04 1.03 81.3 0 1 397.91 591.71
  Q 400.08 598.20 400.99 601.15
  C 406.43 618.74 403.96 635.87 393.46 651.47
  Q 391.35 654.61 389.54 656.72
  A 0.86 0.85 34.0 0 1 388.50 656.92
  Q 367.72 646.23 343.86 651.21
  C 327.07 654.72 310.70 665.25 300.64 679.12
  Q 288.95 695.23 284.24 713.95
  A 10.29 10.26 -19.2 0 1 282.41 717.73
  Q 265.72 739.33 255.99 765.75
  Q 255.28 767.68 255.74 771.25
  Q 259.85 803.37 274.92 831.37
  C 307.08 891.16 371.64 921.72 436.98 931.12
  Q 444.95 932.27 456.57 932.24
  Q 485.37 932.16 551.00 932.27
  Q 575.47 932.30 591.78 932.48
  Q 599.98 932.57 606.16 931.51
  Q 623.40 928.55 634.95 925.18
  C 675.03 913.50 710.86 888.05 733.24 852.45
  C 754.28 818.98 765.83 781.00 766.68 742.00
  Q 767.54 702.17 767.10 684.04
  Q 766.83 672.68 766.36 666.93
  Q 766.29 666.10 766.10 665.67
  A 0.40 0.40 0.0 0 0 765.38 665.64
  Q 760.35 674.87 752.42 683.06
  Q 745.52 690.19 735.45 696.65
  Q 713.91 710.48 688.32 716.13
  A 0.67 0.67 0.0 0 1 687.51 715.47
  Q 687.56 692.61 685.46 671.02
  A 0.39 0.39 0.0 0 0 684.72 670.90
  Q 674.06 694.83 647.48 696.91
  A 0.75 0.74 75.1 0 1 646.75 696.48
  Q 632.82 667.22 612.83 641.40
  Q 605.60 632.05 588.95 611.07
  Q 579.93 599.70 572.72 584.47
  A 0.56 0.56 0.0 0 1 573.32 583.68
  L 583.40 585.35
  A 4.73 4.72 66.9 0 1 585.36 586.14
  C 608.17 601.83 631.50 617.21 657.90 625.84
  Q 671.33 630.23 686.24 630.67
  Q 717.60 631.57 739.03 609.62
  C 758.69 589.46 772.77 555.93 763.89 527.65
  A 3.71 3.71 0.0 0 0 761.75 525.32
  C 742.96 517.71 729.66 504.73 725.72 484.69
  Q 724.77 479.90 724.31 468.26
  C 723.82 455.97 721.04 445.10 717.80 433.07
  A 5.21 5.14 46.6 0 1 717.86 430.18
  C 721.71 417.98 723.10 405.51 719.71 393.20
  Q 715.97 379.64 708.64 368.70
  A 3.60 3.57 33.2 0 1 708.09 366.11
  Q 712.21 341.83 708.30 317.20
  C 705.69 300.75 701.19 281.35 699.06 268.99
  Q 696.41 253.62 695.44 236.75
  C 693.85 208.90 698.48 182.96 711.27 158.21
  C 722.24 136.99 737.81 120.78 758.51 109.09
  A 0.53 0.53 0.0 0 0 758.29 108.10
  C 741.99 106.90 727.49 110.31 712.51 116.78
  C 672.27 134.17 640.83 167.91 625.08 208.32
  Q 622.26 215.54 620.78 221.38
  A 0.42 0.42 0.0 0 1 620.09 221.58
  Q 597.34 200.90 569.24 186.52
  Q 549.28 176.30 539.41 172.25
  Q 528.86 167.93 525.48 165.07
  Q 515.80 156.88 517.69 142.07
  A 0.46 0.45 -21.3 0 0 516.89 141.72
  Q 511.95 147.49 509.15 154.22
  C 505.08 163.96 505.55 176.69 508.16 186.39
  C 513.46 206.05 525.53 224.57 537.55 242.24
  Q 537.83 242.66 537.79 242.99
  A 0.25 0.25 0.0 0 1 537.40 243.17
  Q 512.06 226.45 489.05 207.19
  Q 477.21 197.27 466.74 185.93
  A 1.97 1.95 -64.2 0 1 466.23 184.44
  C 468.07 163.67 475.22 143.06 486.01 125.53
  Q 499.81 103.09 521.61 88.93
  A 0.42 0.42 0.0 0 0 521.40 88.16
  Q 507.64 87.46 494.18 91.18
  Q 475.23 96.41 457.10 107.16
  C 439.74 117.46 424.89 131.68 413.47 148.68
  Q 386.39 188.99 383.44 237.98
  Q 382.69 250.52 383.33 261.95
  A 0.49 0.49 0.0 0 1 382.72 262.45
  C 351.13 254.03 321.66 239.85 298.83 216.43
  Q 293.64 211.10 290.26 205.68
  A 0.73 0.73 0.0 0 0 288.97 205.76
  Q 287.18 209.68 285.94 214.44
  C 280.55 235.14 282.10 256.94 288.25 277.51
  Q 300.02 316.84 329.88 343.63
  Q 336.37 349.46 341.31 353.21
  A 0.26 0.26 0.0 0 1 341.17 353.68
  Q 331.89 354.44 316.01 356.02
  Q 301.79 357.43 283.79 357.13
  Q 259.29 356.73 231.92 348.84
  C 217.26 344.62 202.73 337.50 189.28 329.53
  Q 181.61 324.98 176.40 320.64
  A 0.64 0.64 0.0 0 0 175.39 320.91
  Q 175.13 321.62 175.15 322.50
  C 175.95 350.13 184.46 376.94 200.97 399.51
  C 215.64 419.54 238.85 433.93 263.41 437.36
  A 0.16 0.16 0.0 0 1 263.43 437.68
  Z"
/>
<path fill="#1a2e3d" d="
  M 263.43 437.68
  A 0.16 0.16 0.0 0 0 263.41 437.36
  C 238.85 433.93 215.64 419.54 200.97 399.51
  C 184.46 376.94 175.95 350.13 175.15 322.50
  Q 175.13 321.62 175.39 320.91
  A 0.64 0.64 0.0 0 1 176.40 320.64
  Q 181.61 324.98 189.28 329.53
  C 202.73 337.50 217.26 344.62 231.92 348.84
  Q 259.29 356.73 283.79 357.13
  Q 301.79 357.43 316.01 356.02
  Q 331.89 354.44 341.17 353.68
  A 0.26 0.26 0.0 0 0 341.31 353.21
  Q 336.37 349.46 329.88 343.63
  Q 300.02 316.84 288.25 277.51
  C 282.10 256.94 280.55 235.14 285.94 214.44
  Q 287.18 209.68 288.97 205.76
  A 0.73 0.73 0.0 0 1 290.26 205.68
  Q 293.64 211.10 298.83 216.43
  C 321.66 239.85 351.13 254.03 382.72 262.45
  A 0.49 0.49 0.0 0 0 383.33 261.95
  Q 382.69 250.52 383.44 237.98
  Q 386.39 188.99 413.47 148.68
  C 424.89 131.68 439.74 117.46 457.10 107.16
  Q 475.23 96.41 494.18 91.18
  Q 507.64 87.46 521.40 88.16
  A 0.42 0.42 0.0 0 1 521.61 88.93
  Q 499.81 103.09 486.01 125.53
  C 475.22 143.06 468.07 163.67 466.23 184.44
  A 1.97 1.95 -64.2 0 0 466.74 185.93
  Q 477.21 197.27 489.05 207.19
  Q 512.06 226.45 537.40 243.17
  A 0.25 0.25 0.0 0 0 537.79 242.99
  Q 537.83 242.66 537.55 242.24
  C 525.53 224.57 513.46 206.05 508.16 186.39
  C 505.55 176.69 505.08 163.96 509.15 154.22
  Q 511.95 147.49 516.89 141.72
  A 0.46 0.45 -21.3 0 1 517.69 142.07
  Q 515.80 156.88 525.48 165.07
  Q 528.86 167.93 539.41 172.25
  Q 549.28 176.30 569.24 186.52
  Q 597.34 200.90 620.09 221.58
  A 0.42 0.42 0.0 0 0 620.78 221.38
  Q 622.26 215.54 625.08 208.32
  C 640.83 167.91 672.27 134.17 712.51 116.78
  C 727.49 110.31 741.99 106.90 758.29 108.10
  A 0.53 0.53 0.0 0 1 758.51 109.09
  C 737.81 120.78 722.24 136.99 711.27 158.21
  C 698.48 182.96 693.85 208.90 695.44 236.75
  Q 696.41 253.62 699.06 268.99
  C 701.19 281.35 705.69 300.75 708.30 317.20
  Q 712.21 341.83 708.09 366.11
  A 3.60 3.57 33.2 0 0 708.64 368.70
  Q 715.97 379.64 719.71 393.20
  C 723.10 405.51 721.71 417.98 717.86 430.18
  A 5.21 5.14 46.6 0 0 717.80 433.07
  C 721.04 445.10 723.82 455.97 724.31 468.26
  Q 724.77 479.90 725.72 484.69
  C 729.66 504.73 742.96 517.71 761.75 525.32
  A 3.71 3.71 0.0 0 1 763.89 527.65
  C 772.77 555.93 758.69 589.46 739.03 609.62
  Q 717.60 631.57 686.24 630.67
  Q 671.33 630.23 657.90 625.84
  C 631.50 617.21 608.17 601.83 585.36 586.14
  A 4.73 4.72 66.9 0 0 583.40 585.35
  L 573.32 583.68
  A 0.56 0.56 0.0 0 0 572.72 584.47
  Q 579.93 599.70 588.95 611.07
  Q 605.60 632.05 612.83 641.40
  Q 632.82 667.22 646.75 696.48
  A 0.75 0.74 75.1 0 0 647.48 696.91
  Q 674.06 694.83 684.72 670.90
  A 0.39 0.39 0.0 0 1 685.46 671.02
  Q 687.56 692.61 687.51 715.47
  A 0.67 0.67 0.0 0 0 688.32 716.13
  Q 713.91 710.48 735.45 696.65
  Q 745.52 690.19 752.42 683.06
  Q 760.35 674.87 765.38 665.64
  A 0.40 0.40 0.0 0 1 766.10 665.67
  Q 766.29 666.10 766.36 666.93
  Q 766.83 672.68 767.10 684.04
  Q 767.54 702.17 766.68 742.00
  C 765.83 781.00 754.28 818.98 733.24 852.45
  C 710.86 888.05 675.03 913.50 634.95 925.18
  Q 623.40 928.55 606.16 931.51
  Q 599.98 932.57 591.78 932.48
  Q 575.47 932.30 551.00 932.27
  Q 485.37 932.16 456.57 932.24
  Q 444.95 932.27 436.98 931.12
  C 371.64 921.72 307.08 891.16 274.92 831.37
  Q 259.85 803.37 255.74 771.25
  Q 255.28 767.68 255.99 765.75
  Q 265.72 739.33 282.41 717.73
  A 10.29 10.26 -19.2 0 0 284.24 713.95
  Q 288.95 695.23 300.64 679.12
  C 310.70 665.25 327.07 654.72 343.86 651.21
  Q 367.72 646.23 388.50 656.92
  A 0.86 0.85 34.0 0 0 389.54 656.72
  Q 391.35 654.61 393.46 651.47
  C 403.96 635.87 406.43 618.74 400.99 601.15
  Q 400.08 598.20 397.91 591.71
  A 1.04 1.03 81.3 0 0 396.94 590.99
  Q 374.26 590.59 356.90 576.33
  C 347.01 568.21 337.90 557.96 332.45 546.36
  Q 322.73 525.69 326.52 502.58
  A 0.32 0.31 -1.3 0 0 326.14 502.22
  Q 318.83 503.74 312.76 504.55
  C 285.02 508.25 258.58 502.54 236.68 485.98
  Q 218.95 472.59 207.99 450.02
  Q 206.38 446.72 205.86 443.43
  A 0.58 0.57 -4.3 0 1 206.43 442.77
  Q 211.74 442.83 222.66 442.87
  Q 243.62 442.94 263.43 437.68
  Z
  M 463.76 121.60
  Q 437.17 139.70 421.92 165.90
  Q 409.97 186.42 404.60 210.18
  Q 399.39 233.28 400.17 257.61
  Q 401.17 289.04 414.56 318.97
  C 426.86 346.49 448.37 371.63 475.54 385.45
  C 484.64 390.08 497.13 393.44 507.80 391.73
  L 512.78 391.90
  L 501.27 398.95
  C 492.12 402.27 483.28 404.36 473.75 402.24
  C 470.26 401.47 466.62 399.75 463.20 398.20
  Q 442.85 385.62 426.76 368.16
  A 1.28 1.28 0.0 0 0 424.71 368.38
  Q 417.44 380.79 414.55 394.55
  Q 410.00 416.20 417.29 436.15
  A 1.17 1.16 -85.8 0 0 417.82 436.77
  Q 418.06 436.90 418.17 436.86
  L 422.24 446.84
  Q 426.02 457.65 430.45 467.79
  C 436.99 482.74 439.01 498.45 429.67 512.47
  C 423.72 521.39 414.89 526.69 403.99 526.22
  C 387.81 525.53 383.36 507.46 391.91 496.12
  A 0.21 0.21 0.0 0 1 392.20 496.08
  L 392.21 496.08
  A 0.24 0.24 0.0 0 1 392.27 496.41
  C 387.75 503.29 387.03 514.77 396.42 517.76
  Q 403.47 520.01 409.80 515.29
  Q 418.80 508.57 416.57 496.92
  Q 415.15 489.49 407.97 486.05
  C 400.85 482.63 392.16 483.33 384.42 485.41
  Q 376.76 487.48 353.36 494.41
  A 2.91 2.91 0.0 0 0 351.44 496.29
  C 345.15 515.70 349.98 535.01 364.74 549.03
  Q 380.10 563.64 401.48 562.09
  Q 420.49 560.71 433.76 547.02
  Q 441.18 539.37 445.77 528.30
  Q 452.95 511.00 453.23 493.03
  A 0.24 0.23 27.8 0 1 453.66 492.90
  Q 454.43 493.96 454.92 495.62
  Q 457.08 502.88 458.60 509.76
  Q 464.22 535.17 454.05 557.97
  A 2.33 2.32 39.0 0 0 454.30 560.29
  Q 465.28 575.17 474.82 590.32
  Q 483.95 604.84 491.36 623.30
  Q 497.22 637.92 498.07 652.52
  C 499.57 678.25 494.02 702.36 480.01 724.42
  C 473.06 735.36 463.74 744.38 453.39 751.63
  Q 448.92 754.77 443.80 756.97
  A 0.94 0.93 -17.4 0 0 443.25 758.01
  Q 446.26 772.74 444.73 787.51
  C 441.80 815.75 417.14 841.28 387.26 829.27
  Q 385.14 828.42 379.50 824.81
  Q 372.76 819.25 368.23 810.46
  Q 367.96 809.93 368.31 809.45
  Q 368.42 809.29 369.09 809.46
  C 374.57 818.62 385.81 820.75 395.62 818.33
  C 408.81 815.07 417.66 802.85 419.84 789.80
  C 422.18 775.82 420.28 761.58 414.10 748.79
  C 405.65 731.31 391.32 718.55 373.55 710.70
  C 350.36 700.46 325.80 709.02 309.41 726.90
  C 302.88 734.02 299.61 738.25 293.70 746.11
  Q 290.72 750.09 285.82 754.97
  Q 279.32 761.43 272.74 769.00
  Q 271.69 770.21 272.46 772.38
  Q 276.93 798.23 290.11 820.65
  Q 305.61 847.04 329.87 867.61
  Q 332.16 869.55 334.43 871.44
  L 341.74 876.74
  Q 357.43 887.88 373.92 895.32
  Q 382.49 899.19 399.33 905.76
  L 412.61 910.13
  Q 455.96 923.22 501.25 923.33
  Q 522.40 923.39 544.25 922.68
  Q 554.75 922.34 563.95 918.92
  C 590.44 909.07 613.79 888.54 628.38 864.26
  Q 656.73 817.07 650.36 760.68
  C 647.24 733.09 637.90 705.88 624.35 681.39
  Q 613.68 662.09 603.41 648.10
  C 589.44 629.06 570.78 607.33 561.15 582.73
  A 1.27 1.27 0.0 0 0 560.22 581.94
  C 548.38 579.49 537.26 576.78 525.71 572.56
  Q 502.60 563.66 482.40 548.11
  C 476.23 543.35 468.92 536.91 463.70 529.94
  A 2.46 2.42 23.4 0 1 463.23 528.78
  Q 462.90 526.32 463.14 523.49
  Q 464.06 512.59 464.35 505.66
  A 0.39 0.39 0.0 0 1 465.10 505.53
  Q 467.12 510.32 471.24 515.14
  Q 485.96 532.95 506.43 546.11
  Q 522.98 556.75 539.62 561.60
  Q 563.56 568.59 588.87 571.47
  A 4.05 4.02 66.2 0 1 590.81 572.23
  Q 613.20 588.90 639.31 602.17
  C 656.11 610.71 673.98 616.33 692.95 615.13
  Q 715.17 613.73 730.11 597.57
  C 744.30 582.22 752.24 559.33 749.71 538.26
  A 1.72 1.69 -67.1 0 0 749.37 537.40
  Q 748.92 536.79 748.49 536.79
  Q 736.55 527.49 731.30 522.44
  Q 725.46 516.82 721.32 511.43
  Q 710.11 496.84 710.01 477.69
  C 709.98 473.28 709.88 470.80 710.04 464.53
  C 710.17 459.77 709.77 453.48 708.45 449.49
  A 0.57 0.57 0.0 0 0 707.35 449.52
  L 700.43 475.56
  A 0.80 0.80 0.0 0 1 699.22 476.02
  Q 699.12 475.96 699.05 475.70
  C 697.06 467.37 696.08 457.72 698.25 448.74
  Q 701.84 433.84 706.44 417.93
  Q 709.16 408.48 706.39 398.57
  Q 702.95 386.23 697.26 375.71
  C 694.30 370.24 690.73 366.14 691.85 359.77
  Q 692.15 357.04 691.97 351.00
  Q 691.47 333.87 689.82 323.19
  Q 685.81 297.20 682.45 279.09
  Q 679.95 265.58 679.20 258.98
  Q 677.43 243.41 677.37 238.71
  C 677.11 219.14 679.43 198.21 685.68 179.99
  Q 693.12 158.29 706.28 139.32
  C 707.99 136.85 710.15 134.92 711.68 132.37
  A 0.37 0.37 0.0 0 0 711.17 131.87
  L 700.86 138.46
  Q 695.60 142.30 690.58 146.10
  Q 666.79 164.13 651.36 188.83
  C 642.57 202.90 636.42 218.66 632.43 234.78
  A 2.50 2.50 0.0 0 0 632.93 236.97
  L 650.01 257.81
  Q 658.29 270.09 665.23 283.80
  L 666.20 285.66
  Q 683.56 321.36 688.38 360.77
  C 690.74 382.71 691.66 404.62 689.42 426.98
  Q 685.94 461.79 675.85 494.80
  A 0.70 0.70 0.0 0 1 674.65 495.06
  Q 656.67 474.38 640.84 456.47
  Q 631.62 446.05 615.98 430.83
  Q 599.73 415.02 596.17 411.84
  Q 571.14 389.47 542.73 369.44
  A 1.61 1.60 -48.4 0 0 540.74 369.56
  C 539.55 370.64 537.29 374.25 535.35 372.80
  Q 531.99 370.46 528.34 368.05
  C 517.42 360.82 507.80 350.98 498.84 340.51
  Q 469.53 306.22 456.79 263.45
  Q 450.61 242.69 448.43 223.22
  Q 445.21 194.39 453.28 164.97
  C 456.94 151.62 462.65 137.30 470.17 124.96
  Q 474.40 118.02 477.94 113.15
  A 0.38 0.38 0.0 0 0 477.48 112.58
  Q 475.23 113.56 471.52 116.05
  Q 467.28 118.90 463.76 121.60
  Z
  M 558.30 242.75
  C 564.20 254.62 567.85 262.62 569.80 273.37
  A 5.10 5.10 0.0 0 0 571.32 276.17
  L 589.97 293.82
  Q 602.27 309.18 605.55 313.72
  Q 623.53 338.59 630.87 368.55
  A 0.14 0.13 76.5 0 1 630.78 368.71
  L 630.77 368.71
  A 0.12 0.11 70.7 0 1 630.63 368.64
  Q 624.44 352.03 614.40 338.59
  Q 599.94 319.25 582.23 302.76
  C 556.15 278.50 521.04 251.41 500.69 234.81
  Q 482.46 219.94 475.51 212.74
  Q 470.27 207.33 465.37 202.77
  A 0.28 0.27 -71.3 0 0 464.91 203.00
  Q 466.81 226.63 471.86 247.62
  Q 481.05 285.80 503.52 316.47
  Q 517.43 335.44 534.34 351.30
  A 9.13 9.09 -9.4 0 0 536.26 352.67
  Q 557.53 364.05 577.49 380.02
  Q 625.14 418.17 666.09 463.37
  A 0.61 0.60 30.6 0 0 667.13 463.11
  Q 680.04 407.89 671.40 351.77
  Q 667.48 326.29 658.86 304.44
  C 639.81 256.17 600.97 217.99 553.99 195.85
  Q 538.15 188.37 530.41 184.60
  Q 524.87 181.90 519.81 178.84
  A 0.51 0.50 19.6 0 0 519.04 179.20
  Q 519.01 179.43 519.20 179.88
  Q 522.21 187.17 527.42 196.13
  Q 537.71 213.84 551.70 232.30
  Q 554.58 236.11 558.30 242.75
  Z
  M 301.07 257.73
  Q 304.85 277.13 314.40 294.36
  Q 323.45 310.70 336.52 324.50
  C 343.40 331.76 351.18 337.63 359.81 343.90
  Q 365.49 348.02 367.60 348.70
  Q 369.80 349.40 376.75 348.12
  L 406.91 344.96
  A 0.68 0.67 -5.6 0 0 407.52 344.23
  Q 407.45 343.47 406.99 342.78
  C 400.61 333.26 396.27 321.56 392.74 311.51
  Q 387.59 296.85 385.39 280.04
  A 1.01 1.01 0.0 0 0 384.60 279.18
  Q 358.73 273.64 334.80 261.97
  Q 314.17 251.91 297.98 236.42
  A 0.25 0.25 0.0 0 0 297.56 236.62
  Q 298.45 247.39 301.07 257.73
  Z
  M 300.19 425.08
  Q 312.47 422.78 323.44 417.38
  A 0.17 0.17 0.0 0 1 323.62 417.67
  C 297.92 438.84 265.39 451.45 232.71 454.32
  Q 226.90 454.82 222.71 454.67
  A 0.66 0.66 0.0 0 0 222.16 455.72
  Q 228.44 464.14 235.42 471.32
  Q 244.82 481.01 259.87 488.14
  Q 269.69 492.04 277.01 493.45
  Q 301.06 498.06 326.18 490.90
  Q 337.66 487.63 352.82 482.08
  C 363.59 478.14 372.74 475.35 382.49 472.48
  C 391.71 469.77 402.39 468.55 411.90 470.71
  A 0.36 0.36 0.0 0 0 412.33 470.25
  Q 407.59 454.98 401.92 437.85
  Q 397.50 424.52 395.72 414.56
  C 391.84 392.82 398.92 369.84 414.20 353.82
  A 0.63 0.62 -59.3 0 0 413.94 352.79
  Q 412.42 352.33 410.67 352.55
  Q 396.07 354.44 383.12 357.11
  Q 361.97 360.70 342.23 363.91
  C 319.39 367.62 300.86 370.32 281.16 369.48
  Q 265.80 368.83 253.42 366.96
  Q 246.37 365.89 238.17 363.50
  C 225.90 359.93 214.99 356.08 204.23 350.32
  C 199.84 347.97 194.70 344.24 189.78 341.40
  L 187.16 339.59
  A 0.64 0.64 0.0 0 0 186.17 340.28
  Q 188.23 348.25 189.05 351.74
  C 191.36 361.61 196.23 371.07 201.25 380.30
  C 207.47 391.72 215.42 400.62 224.66 409.07
  C 228.52 412.60 234.73 416.36 239.05 418.69
  Q 258.68 429.28 280.99 427.69
  Q 291.90 426.91 300.19 425.08
  Z
  M 438.36 576.61
  L 427.26 583.42
  Q 420.54 587.10 413.30 588.78
  A 0.37 0.37 0.0 0 0 413.06 589.30
  Q 425.43 615.07 415.60 642.14
  Q 413.14 648.92 408.25 657.03
  L 400.98 666.68
  A 0.83 0.83 0.0 0 0 400.98 667.68
  Q 407.83 676.69 408.46 688.56
  Q 408.48 695.20 407.21 699.95
  Q 406.60 702.23 406.44 703.28
  A 0.90 0.90 0.0 0 0 406.76 704.10
  C 418.63 713.88 428.32 723.81 435.89 737.22
  A 0.98 0.98 0.0 0 0 437.23 737.60
  C 466.30 721.50 484.34 689.60 481.32 656.19
  Q 480.40 645.96 477.56 636.43
  Q 473.80 623.77 470.89 617.57
  Q 459.74 593.87 444.21 571.70
  A 0.39 0.38 -38.7 0 0 443.63 571.64
  L 438.36 576.61
  Z
  M 304.43 700.21
  A 0.37 0.37 0.0 0 0 304.99 700.66
  C 327.44 683.48 358.60 680.17 385.04 688.21
  C 388.05 689.12 390.34 690.25 393.79 691.92
  A 0.52 0.51 -78.4 0 0 394.53 691.43
  C 393.94 677.45 384.74 668.82 371.54 665.35
  C 359.15 662.08 347.45 664.45 335.45 669.18
  Q 331.21 670.85 325.83 674.84
  Q 318.93 679.95 317.12 681.85
  Q 308.97 690.33 304.43 700.21
  Z
  M 653.50 711.08
  Q 660.05 724.82 663.78 742.38
  Q 669.99 771.58 666.57 801.36
  A 0.55 0.55 0.0 0 0 667.31 801.94
  L 688.26 793.99
  A 0.68 0.68 0.0 0 0 688.64 793.07
  Q 681.17 776.44 678.02 758.00
  C 677.10 752.61 676.02 747.75 675.61 742.38
  Q 674.17 723.34 673.86 706.74
  A 0.95 0.95 0.0 0 0 672.44 705.94
  Q 664.21 710.67 654.19 710.07
  A 0.71 0.71 0.0 0 0 653.50 711.08
  Z
  M 695.74 763.76
  L 698.32 770.58
  Q 699.48 774.31 701.62 778.39
  Q 705.63 786.07 710.13 792.62
  Q 711.70 794.90 713.62 796.69
  A 1.07 1.07 0.0 0 1 713.50 798.36
  L 711.12 800.02
  L 693.07 808.69
  Q 679.11 814.87 664.52 819.30
  A 1.21 1.21 0.0 0 0 663.69 820.18
  Q 656.89 848.57 641.77 873.27
  Q 638.45 878.69 631.66 887.40
  Q 617.44 905.65 600.75 916.49
  Q 596.13 919.50 591.11 922.59
  A 0.32 0.32 0.0 0 0 591.33 923.18
  Q 618.75 918.67 645.62 908.52
  Q 655.38 904.83 662.66 900.65
  Q 671.48 895.59 678.66 890.75
  Q 682.86 887.92 683.68 887.23
  Q 684.35 886.67 686.60 885.59
  A 1.90 1.73 -77.5 0 0 687.04 885.28
  L 700.02 873.33
  L 705.55 867.18
  L 709.54 863.45
  A 2.36 2.21 88.2 0 0 709.83 863.12
  Q 716.26 854.14 722.48 844.98
  Q 728.20 836.57 732.98 826.02
  Q 745.89 797.59 749.73 766.03
  L 750.61 759.50
  Q 752.23 733.51 749.21 707.85
  A 0.64 0.63 -19.8 0 0 748.24 707.40
  C 730.06 719.03 711.12 729.69 690.15 735.23
  A 0.81 0.80 79.2 0 0 689.56 736.10
  Q 691.29 750.24 695.74 763.76
  Z"
/>
<path fill="#fa4c35" d="
  M 535.35 372.80
  Q 534.44 375.71 532.68 377.43
  Q 525.51 384.43 517.08 389.84
  Q 515.74 390.70 512.78 391.90
  L 507.80 391.73
  Q 504.12 389.93 500.78 388.36
  Q 496.24 386.23 493.88 384.89
  Q 470.69 371.84 453.27 352.80
  Q 451.94 351.35 451.29 350.12
  A 1.31 1.30 60.8 0 1 451.77 348.40
  Q 468.11 338.38 482.78 325.52
  A 0.24 0.23 -33.8 0 0 482.84 325.24
  L 482.80 325.16
  A 0.26 0.26 0.0 0 0 482.42 325.06
  Q 465.76 336.65 446.74 342.79
  A 1.85 1.77 -49.8 0 1 445.99 342.87
  Q 444.43 342.71 443.44 341.35
  Q 422.42 312.71 416.99 277.66
  A 1.87 1.87 0.0 0 1 418.21 275.61
  C 429.74 271.48 440.29 265.09 451.04 258.78
  A 0.18 0.18 0.0 0 0 451.11 258.54
  L 451.10 258.53
  A 0.19 0.18 64.9 0 0 450.86 258.44
  Q 434.54 265.46 417.24 268.69
  A 1.51 1.51 0.0 0 1 415.47 267.43
  Q 412.98 250.39 414.51 232.77
  Q 415.86 217.12 418.81 204.34
  A 3.14 3.14 0.0 0 1 420.61 202.18
  Q 426.70 199.54 430.16 197.90
  Q 432.25 196.91 433.25 195.67
  A 0.46 0.46 0.0 0 0 432.79 194.93
  Q 427.39 196.15 422.04 195.87
  A 0.58 0.58 0.0 0 1 421.52 195.12
  C 423.98 187.16 426.44 179.68 430.27 172.52
  C 432.63 168.10 434.70 162.46 437.83 157.77
  Q 441.78 151.87 442.27 151.03
  C 444.03 148.00 446.65 145.08 448.35 141.75
  A 2.85 2.58 -15.7 0 1 448.67 141.24
  L 459.35 127.23
  A 2.26 2.18 88.9 0 1 459.59 126.97
  Q 462.23 124.56 463.76 121.60
  Q 467.28 118.90 471.52 116.05
  Q 475.23 113.56 477.48 112.58
  A 0.38 0.38 0.0 0 1 477.94 113.15
  Q 474.40 118.02 470.17 124.96
  C 462.65 137.30 456.94 151.62 453.28 164.97
  Q 445.21 194.39 448.43 223.22
  Q 450.61 242.69 456.79 263.45
  Q 469.53 306.22 498.84 340.51
  C 507.80 350.98 517.42 360.82 528.34 368.05
  Q 531.99 370.46 535.35 372.80
  Z"
/>
<path fill="#fdbe42" d="
  M 463.76 121.60
  Q 462.23 124.56 459.59 126.97
  A 2.26 2.18 88.9 0 0 459.35 127.23
  L 448.67 141.24
  A 2.85 2.58 -15.7 0 0 448.35 141.75
  C 446.65 145.08 444.03 148.00 442.27 151.03
  Q 441.78 151.87 437.83 157.77
  C 434.70 162.46 432.63 168.10 430.27 172.52
  C 426.44 179.68 423.98 187.16 421.52 195.12
  A 0.58 0.58 0.0 0 0 422.04 195.87
  Q 427.39 196.15 432.79 194.93
  A 0.46 0.46 0.0 0 1 433.25 195.67
  Q 432.25 196.91 430.16 197.90
  Q 426.70 199.54 420.61 202.18
  A 3.14 3.14 0.0 0 0 418.81 204.34
  Q 415.86 217.12 414.51 232.77
  Q 412.98 250.39 415.47 267.43
  A 1.51 1.51 0.0 0 0 417.24 268.69
  Q 434.54 265.46 450.86 258.44
  A 0.19 0.18 64.9 0 1 451.10 258.53
  L 451.11 258.54
  A 0.18 0.18 0.0 0 1 451.04 258.78
  C 440.29 265.09 429.74 271.48 418.21 275.61
  A 1.87 1.87 0.0 0 0 416.99 277.66
  Q 422.42 312.71 443.44 341.35
  Q 444.43 342.71 445.99 342.87
  A 1.85 1.77 -49.8 0 0 446.74 342.79
  Q 465.76 336.65 482.42 325.06
  A 0.26 0.26 0.0 0 1 482.80 325.16
  L 482.84 325.24
  A 0.24 0.23 -33.8 0 1 482.78 325.52
  Q 468.11 338.38 451.77 348.40
  A 1.31 1.30 60.8 0 0 451.29 350.12
  Q 451.94 351.35 453.27 352.80
  Q 470.69 371.84 493.88 384.89
  Q 496.24 386.23 500.78 388.36
  Q 504.12 389.93 507.80 391.73
  C 497.13 393.44 484.64 390.08 475.54 385.45
  C 448.37 371.63 426.86 346.49 414.56 318.97
  Q 401.17 289.04 400.17 257.61
  Q 399.39 233.28 404.60 210.18
  Q 409.97 186.42 421.92 165.90
  Q 437.17 139.70 463.76 121.60
  Z"
/>
<path fill="#fa4c35" d="
  M 691.85 359.77
  L 688.38 360.77
  Q 683.56 321.36 666.20 285.66
  Q 670.35 284.96 673.57 282.57
  A 0.29 0.29 0.0 0 0 673.34 282.06
  L 665.23 283.80
  Q 658.29 270.09 650.01 257.81
  L 650.31 234.28
  A 4.18 4.18 0.0 0 1 652.17 230.86
  L 665.71 221.82
  A 0.51 0.51 0.0 0 0 665.24 220.92
  L 652.50 225.75
  A 0.79 0.79 0.0 0 1 651.45 224.85
  Q 654.76 208.98 661.48 193.94
  Q 662.01 192.76 666.18 184.53
  Q 668.77 179.40 671.59 175.52
  Q 674.32 171.76 675.53 169.48
  C 678.20 164.45 682.81 159.65 686.16 155.21
  C 689.16 151.24 693.16 147.76 696.01 144.22
  Q 697.66 142.16 699.98 140.83
  A 2.28 2.22 -86.7 0 0 700.67 140.20
  Q 701.86 138.49 700.86 138.46
  L 711.17 131.87
  A 0.37 0.37 0.0 0 1 711.68 132.37
  C 710.15 134.92 707.99 136.85 706.28 139.32
  Q 693.12 158.29 685.68 179.99
  C 679.43 198.21 677.11 219.14 677.37 238.71
  Q 677.43 243.41 679.20 258.98
  Q 679.95 265.58 682.45 279.09
  Q 685.81 297.20 689.82 323.19
  Q 691.47 333.87 691.97 351.00
  Q 692.15 357.04 691.85 359.77
  Z"
/>
<path fill="#fdbe42" d="
  M 700.86 138.46
  Q 701.86 138.49 700.67 140.20
  A 2.28 2.22 -86.7 0 1 699.98 140.83
  Q 697.66 142.16 696.01 144.22
  C 693.16 147.76 689.16 151.24 686.16 155.21
  C 682.81 159.65 678.20 164.45 675.53 169.48
  Q 674.32 171.76 671.59 175.52
  Q 668.77 179.40 666.18 184.53
  Q 662.01 192.76 661.48 193.94
  Q 654.76 208.98 651.45 224.85
  A 0.79 0.79 0.0 0 0 652.50 225.75
  L 665.24 220.92
  A 0.51 0.51 0.0 0 1 665.71 221.82
  L 652.17 230.86
  A 4.18 4.18 0.0 0 0 650.31 234.28
  L 650.01 257.81
  L 632.93 236.97
  A 2.50 2.50 0.0 0 1 632.43 234.78
  C 636.42 218.66 642.57 202.90 651.36 188.83
  Q 666.79 164.13 690.58 146.10
  Q 695.60 142.30 700.86 138.46
  Z"
/>
<path fill="#02ccbf" d="
  M 589.97 293.82
  Q 590.80 290.80 589.40 288.11
  C 581.24 272.49 570.66 257.55 560.52 242.90
  A 0.87 0.87 0.0 0 0 559.68 242.54
  L 558.30 242.75
  Q 554.58 236.11 551.70 232.30
  Q 537.71 213.84 527.42 196.13
  Q 522.21 187.17 519.20 179.88
  Q 519.01 179.43 519.04 179.20
  A 0.51 0.50 19.6 0 1 519.81 178.84
  Q 524.87 181.90 530.41 184.60
  Q 538.15 188.37 553.99 195.85
  C 600.97 217.99 639.81 256.17 658.86 304.44
  Q 667.48 326.29 671.40 351.77
  Q 680.04 407.89 667.13 463.11
  A 0.61 0.60 30.6 0 1 666.09 463.37
  Q 625.14 418.17 577.49 380.02
  Q 557.53 364.05 536.26 352.67
  A 9.13 9.09 -9.4 0 1 534.34 351.30
  Q 517.43 335.44 503.52 316.47
  Q 481.05 285.80 471.86 247.62
  Q 466.81 226.63 464.91 203.00
  A 0.28 0.27 -71.3 0 1 465.37 202.77
  Q 470.27 207.33 475.51 212.74
  Q 482.46 219.94 500.69 234.81
  C 521.04 251.41 556.15 278.50 582.23 302.76
  Q 599.94 319.25 614.40 338.59
  Q 624.44 352.03 630.63 368.64
  A 0.12 0.11 70.7 0 0 630.77 368.71
  L 630.78 368.71
  A 0.14 0.13 76.5 0 0 630.87 368.55
  Q 623.53 338.59 605.55 313.72
  Q 602.27 309.18 589.97 293.82
  Z"
/>
<path fill="#02ccbf" d="
  M 376.75 348.12
  Q 357.87 336.68 343.59 322.21
  C 340.08 318.65 337.85 315.43 334.91 312.13
  Q 332.44 309.35 328.46 303.91
  Q 317.00 288.22 308.00 270.79
  Q 307.88 270.56 304.23 264.44
  Q 302.36 261.31 301.07 257.73
  Q 298.45 247.39 297.56 236.62
  A 0.25 0.25 0.0 0 1 297.98 236.42
  Q 314.17 251.91 334.80 261.97
  Q 358.73 273.64 384.60 279.18
  A 1.01 1.01 0.0 0 1 385.39 280.04
  Q 387.59 296.85 392.74 311.51
  C 396.27 321.56 400.61 333.26 406.99 342.78
  Q 407.45 343.47 407.52 344.23
  A 0.68 0.67 -5.6 0 1 406.91 344.96
  L 376.75 348.12
  Z"
/>
<path fill="#04a4aa" d="
  M 589.97 293.82
  L 571.32 276.17
  A 5.10 5.10 0.0 0 1 569.80 273.37
  C 567.85 262.62 564.20 254.62 558.30 242.75
  L 559.68 242.54
  A 0.87 0.87 0.0 0 1 560.52 242.90
  C 570.66 257.55 581.24 272.49 589.40 288.11
  Q 590.80 290.80 589.97 293.82
  Z"
/>
<path fill="#04a4aa" d="
  M 376.75 348.12
  Q 369.80 349.40 367.60 348.70
  Q 365.49 348.02 359.81 343.90
  C 351.18 337.63 343.40 331.76 336.52 324.50
  Q 323.45 310.70 314.40 294.36
  Q 304.85 277.13 301.07 257.73
  Q 302.36 261.31 304.23 264.44
  Q 307.88 270.56 308.00 270.79
  Q 317.00 288.22 328.46 303.91
  Q 332.44 309.35 334.91 312.13
  C 337.85 315.43 340.08 318.65 343.59 322.21
  Q 357.87 336.68 376.75 348.12
  Z"
/>
<path fill="#fdbe42" d="
  M 666.20 285.66
  L 665.23 283.80
  L 673.34 282.06
  A 0.29 0.29 0.0 0 1 673.57 282.57
  Q 670.35 284.96 666.20 285.66
  Z"
/>
<path fill="#04a4aa" d="
  M 189.78 341.40
  Q 187.65 344.23 189.34 346.92
  Q 193.04 352.80 198.84 362.65
  Q 210.54 382.54 227.16 398.10
  C 235.57 405.97 245.30 413.11 253.95 416.55
  C 262.58 419.99 273.40 424.27 283.53 425.03
  Q 290.79 425.58 300.19 425.08
  Q 291.90 426.91 280.99 427.69
  Q 258.68 429.28 239.05 418.69
  C 234.73 416.36 228.52 412.60 224.66 409.07
  C 215.42 400.62 207.47 391.72 201.25 380.30
  C 196.23 371.07 191.36 361.61 189.05 351.74
  Q 188.23 348.25 186.17 340.28
  A 0.64 0.64 0.0 0 1 187.16 339.59
  L 189.78 341.40
  Z"
/>
<path fill="#02ccbf" d="
  M 189.78 341.40
  C 194.70 344.24 199.84 347.97 204.23 350.32
  C 214.99 356.08 225.90 359.93 238.17 363.50
  Q 246.37 365.89 253.42 366.96
  Q 265.80 368.83 281.16 369.48
  C 300.86 370.32 319.39 367.62 342.23 363.91
  Q 361.97 360.70 383.12 357.11
  Q 382.33 359.91 380.55 362.73
  Q 377.92 366.89 377.39 368.01
  Q 370.19 383.06 369.21 399.22
  Q 369.19 399.69 368.62 411.49
  Q 368.36 417.03 366.55 423.56
  C 360.62 444.94 347.28 465.15 328.22 475.93
  Q 316.78 482.40 307.59 485.01
  Q 293.85 488.91 277.84 489.36
  Q 266.82 489.67 259.87 488.14
  Q 244.82 481.01 235.42 471.32
  Q 228.44 464.14 222.16 455.72
  A 0.66 0.66 0.0 0 1 222.71 454.67
  Q 226.90 454.82 232.71 454.32
  C 265.39 451.45 297.92 438.84 323.62 417.67
  A 0.17 0.17 0.0 0 0 323.44 417.38
  Q 312.47 422.78 300.19 425.08
  Q 290.79 425.58 283.53 425.03
  C 273.40 424.27 262.58 419.99 253.95 416.55
  C 245.30 413.11 235.57 405.97 227.16 398.10
  Q 210.54 382.54 198.84 362.65
  Q 193.04 352.80 189.34 346.92
  Q 187.65 344.23 189.78 341.40
  Z"
/>
<path fill="#04a4aa" d="
  M 259.87 488.14
  Q 266.82 489.67 277.84 489.36
  Q 293.85 488.91 307.59 485.01
  Q 316.78 482.40 328.22 475.93
  C 347.28 465.15 360.62 444.94 366.55 423.56
  Q 368.36 417.03 368.62 411.49
  Q 369.19 399.69 369.21 399.22
  Q 370.19 383.06 377.39 368.01
  Q 377.92 366.89 380.55 362.73
  Q 382.33 359.91 383.12 357.11
  Q 396.07 354.44 410.67 352.55
  Q 412.42 352.33 413.94 352.79
  A 0.63 0.62 -59.3 0 1 414.20 353.82
  C 398.92 369.84 391.84 392.82 395.72 414.56
  Q 397.50 424.52 401.92 437.85
  Q 407.59 454.98 412.33 470.25
  A 0.36 0.36 0.0 0 1 411.90 470.71
  C 402.39 468.55 391.71 469.77 382.49 472.48
  C 372.74 475.35 363.59 478.14 352.82 482.08
  Q 337.66 487.63 326.18 490.90
  Q 301.06 498.06 277.01 493.45
  Q 269.69 492.04 259.87 488.14
  Z"
/>
<path fill="#fd8914" d="
  M 691.85 359.77
  C 690.73 366.14 694.30 370.24 697.26 375.71
  Q 702.95 386.23 706.39 398.57
  Q 709.16 408.48 706.44 417.93
  Q 701.84 433.84 698.25 448.74
  C 696.08 457.72 697.06 467.37 699.05 475.70
  Q 699.12 475.96 699.22 476.02
  A 0.80 0.80 0.0 0 0 700.43 475.56
  L 707.35 449.52
  A 0.57 0.57 0.0 0 1 708.45 449.49
  C 709.77 453.48 710.17 459.77 710.04 464.53
  C 709.88 470.80 709.98 473.28 710.01 477.69
  Q 710.11 496.84 721.32 511.43
  Q 725.46 516.82 731.30 522.44
  Q 736.55 527.49 748.49 536.79
  Q 738.01 540.09 727.37 540.06
  Q 716.91 540.03 709.14 536.85
  C 699.22 532.78 691.00 523.90 684.28 515.10
  Q 679.90 509.37 665.35 490.96
  Q 664.03 489.27 663.46 488.33
  Q 662.61 486.91 661.30 485.79
  A 3.78 3.39 89.3 0 1 660.71 485.15
  Q 654.51 476.82 651.10 473.65
  Q 643.37 466.46 633.25 456.76
  Q 627.33 451.10 622.33 447.41
  C 616.17 442.87 610.82 438.03 604.34 433.67
  C 593.77 426.57 584.39 420.38 573.85 415.26
  Q 563.67 410.31 558.45 408.29
  Q 531.54 397.86 501.27 398.95
  L 512.78 391.90
  Q 515.74 390.70 517.08 389.84
  Q 525.51 384.43 532.68 377.43
  Q 534.44 375.71 535.35 372.80
  C 537.29 374.25 539.55 370.64 540.74 369.56
  A 1.61 1.60 -48.4 0 1 542.73 369.44
  Q 571.14 389.47 596.17 411.84
  Q 599.73 415.02 615.98 430.83
  Q 631.62 446.05 640.84 456.47
  Q 656.67 474.38 674.65 495.06
  A 0.70 0.70 0.0 0 0 675.85 494.80
  Q 685.94 461.79 689.42 426.98
  C 691.66 404.62 690.74 382.71 688.38 360.77
  L 691.85 359.77
  Z"
/>
<path fill="#fd8914" d="
  M 463.20 398.20
  C 445.41 403.07 424.30 413.06 418.51 432.51
  Q 417.99 434.25 418.17 436.86
  Q 418.06 436.90 417.82 436.77
  A 1.17 1.16 -85.8 0 1 417.29 436.15
  Q 410.00 416.20 414.55 394.55
  Q 417.44 380.79 424.71 368.38
  A 1.28 1.28 0.0 0 1 426.76 368.16
  Q 442.85 385.62 463.20 398.20
  Z"
/>
<path fill="#fdedbe" d="
  M 463.20 398.20
  C 466.62 399.75 470.26 401.47 473.75 402.24
  C 483.28 404.36 492.12 402.27 501.27 398.95
  Q 531.54 397.86 558.45 408.29
  Q 563.67 410.31 573.85 415.26
  C 584.39 420.38 593.77 426.57 604.34 433.67
  C 610.82 438.03 616.17 442.87 622.33 447.41
  Q 627.33 451.10 633.25 456.76
  Q 643.37 466.46 651.10 473.65
  Q 654.51 476.82 660.71 485.15
  A 3.78 3.39 89.3 0 0 661.30 485.79
  Q 662.61 486.91 663.46 488.33
  Q 664.03 489.27 665.35 490.96
  Q 679.90 509.37 684.28 515.10
  C 691.00 523.90 699.22 532.78 709.14 536.85
  Q 716.91 540.03 727.37 540.06
  Q 738.01 540.09 748.49 536.79
  Q 748.92 536.79 749.37 537.40
  A 1.72 1.69 -67.1 0 1 749.71 538.26
  C 752.24 559.33 744.30 582.22 730.11 597.57
  Q 715.17 613.73 692.95 615.13
  C 673.98 616.33 656.11 610.71 639.31 602.17
  Q 613.20 588.90 590.81 572.23
  A 4.05 4.02 66.2 0 0 588.87 571.47
  Q 563.56 568.59 539.62 561.60
  Q 522.98 556.75 506.43 546.11
  Q 485.96 532.95 471.24 515.14
  Q 470.41 500.43 467.94 486.64
  A 1.29 1.28 4.7 0 0 467.10 485.65
  Q 444.23 477.64 429.94 458.07
  Q 426.11 452.82 422.24 446.84
  L 418.17 436.86
  Q 417.99 434.25 418.51 432.51
  C 424.30 413.06 445.41 403.07 463.20 398.20
  Z
  M 523.43 484.36
  Q 524.48 485.89 527.24 491.76
  Q 531.78 501.40 543.53 510.75
  Q 546.67 513.25 556.28 518.26
  C 558.87 519.60 561.37 520.07 563.98 521.22
  Q 566.80 522.45 569.85 523.27
  Q 596.57 530.41 622.71 520.95
  L 625.94 524.90
  A 0.48 0.48 0.0 0 0 626.79 524.60
  C 626.96 509.50 620.89 494.27 613.40 480.84
  Q 603.94 463.88 590.72 449.54
  C 570.38 427.49 541.05 416.42 511.00 418.30
  C 497.91 419.12 485.35 422.18 472.35 425.40
  A 0.85 0.84 67.7 0 0 471.83 426.65
  C 479.19 438.83 490.45 445.32 504.51 447.34
  A 0.75 0.75 0.0 0 1 505.14 448.00
  Q 505.30 449.59 506.15 453.68
  Q 509.90 471.65 523.43 484.36
  Z
  M 708.78 576.16
  Q 708.26 561.38 695.88 553.91
  C 693.71 552.60 691.32 553.27 690.68 555.74
  Q 688.28 564.92 696.36 570.15
  Q 700.93 573.11 708.08 576.62
  A 0.49 0.49 0.0 0 0 708.78 576.16
  Z"
/>
<path fill="#1a2e3d" d="
  M 622.71 520.95
  Q 614.26 504.93 606.41 490.11
  Q 605.82 489.00 602.29 484.24
  A 0.23 0.23 0.0 0 0 601.87 484.37
  C 601.32 496.44 595.17 511.70 582.50 515.52
  C 574.18 518.03 565.00 515.46 558.60 510.08
  C 541.55 495.76 539.38 474.33 545.86 453.89
  A 0.45 0.45 0.0 0 0 545.49 453.31
  L 521.97 450.14
  A 0.35 0.35 0.0 0 0 521.59 450.39
  Q 517.46 466.92 523.43 484.36
  Q 509.90 471.65 506.15 453.68
  Q 505.30 449.59 505.14 448.00
  A 0.75 0.75 0.0 0 0 504.51 447.34
  C 490.45 445.32 479.19 438.83 471.83 426.65
  A 0.85 0.84 67.7 0 1 472.35 425.40
  C 485.35 422.18 497.91 419.12 511.00 418.30
  C 541.05 416.42 570.38 427.49 590.72 449.54
  Q 603.94 463.88 613.40 480.84
  C 620.89 494.27 626.96 509.50 626.79 524.60
  A 0.48 0.48 0.0 0 1 625.94 524.90
  L 622.71 520.95
  Z
  M 591.3420 485.6466
  A 7.11 6.25 -42.5 0 0 581.8776 485.8420
  A 7.11 6.25 -42.5 0 0 580.8580 495.2534
  A 7.11 6.25 -42.5 0 0 590.3224 495.0580
  A 7.11 6.25 -42.5 0 0 591.3420 485.6466
  Z"
/>
<path fill="#fd8914" d="
  M 471.24 515.14
  Q 467.12 510.32 465.10 505.53
  A 0.39 0.39 0.0 0 0 464.35 505.66
  Q 464.06 512.59 463.14 523.49
  Q 462.90 526.32 463.23 528.78
  A 2.46 2.42 23.4 0 0 463.70 529.94
  C 468.92 536.91 476.23 543.35 482.40 548.11
  Q 502.60 563.66 525.71 572.56
  Q 525.89 574.90 528.46 577.03
  A 4.56 4.52 5.2 0 1 529.51 578.28
  Q 546.35 607.74 553.87 639.67
  Q 562.91 678.04 561.51 720.53
  C 559.87 770.39 539.86 818.88 505.94 855.75
  Q 479.74 884.22 447.44 899.17
  Q 433.78 905.49 416.29 908.87
  A 2.67 2.51 -46.8 0 1 415.65 908.91
  Q 412.76 908.79 412.61 910.13
  L 399.33 905.76
  Q 395.02 900.27 392.29 893.25
  Q 386.65 878.76 384.32 861.98
  Q 382.03 845.48 380.57 828.89
  A 2.21 2.20 25.3 0 0 380.19 827.83
  Q 379.00 826.07 379.50 824.81
  Q 385.14 828.42 387.26 829.27
  C 417.14 841.28 441.80 815.75 444.73 787.51
  Q 446.26 772.74 443.25 758.01
  A 0.94 0.93 -17.4 0 1 443.80 756.97
  Q 448.92 754.77 453.39 751.63
  C 463.74 744.38 473.06 735.36 480.01 724.42
  C 494.02 702.36 499.57 678.25 498.07 652.52
  Q 497.22 637.92 491.36 623.30
  Q 483.95 604.84 474.82 590.32
  Q 465.28 575.17 454.30 560.29
  A 2.33 2.32 39.0 0 1 454.05 557.97
  Q 464.22 535.17 458.60 509.76
  Q 457.08 502.88 454.92 495.62
  Q 454.43 493.96 453.66 492.90
  A 0.24 0.23 27.8 0 0 453.23 493.03
  Q 452.95 511.00 445.77 528.30
  Q 441.18 539.37 433.76 547.02
  Q 420.49 560.71 401.48 562.09
  Q 380.10 563.64 364.74 549.03
  C 349.98 535.01 345.15 515.70 351.44 496.29
  A 2.91 2.91 0.0 0 1 353.36 494.41
  Q 376.76 487.48 384.42 485.41
  C 392.16 483.33 400.85 482.63 407.97 486.05
  Q 415.15 489.49 416.57 496.92
  Q 418.80 508.57 409.80 515.29
  Q 403.47 520.01 396.42 517.76
  C 387.03 514.77 387.75 503.29 392.27 496.41
  A 0.24 0.24 0.0 0 0 392.21 496.08
  L 392.20 496.08
  A 0.21 0.21 0.0 0 0 391.91 496.12
  C 383.36 507.46 387.81 525.53 403.99 526.22
  C 414.89 526.69 423.72 521.39 429.67 512.47
  C 439.01 498.45 436.99 482.74 430.45 467.79
  Q 426.02 457.65 422.24 446.84
  Q 426.11 452.82 429.94 458.07
  Q 444.23 477.64 467.10 485.65
  A 1.29 1.28 4.7 0 1 467.94 486.64
  Q 470.41 500.43 471.24 515.14
  Z"
/>
<path fill="#fcf6e9" d="
  M 622.71 520.95
  Q 596.57 530.41 569.85 523.27
  Q 566.80 522.45 563.98 521.22
  C 561.37 520.07 558.87 519.60 556.28 518.26
  Q 546.67 513.25 543.53 510.75
  Q 531.78 501.40 527.24 491.76
  Q 524.48 485.89 523.43 484.36
  Q 517.46 466.92 521.59 450.39
  A 0.35 0.35 0.0 0 1 521.97 450.14
  L 545.49 453.31
  A 0.45 0.45 0.0 0 1 545.86 453.89
  C 539.38 474.33 541.55 495.76 558.60 510.08
  C 565.00 515.46 574.18 518.03 582.50 515.52
  C 595.17 511.70 601.32 496.44 601.87 484.37
  A 0.23 0.23 0.0 0 1 602.29 484.24
  Q 605.82 489.00 606.41 490.11
  Q 614.26 504.93 622.71 520.95
  Z"
/>
<ellipse fill="#fcf6e9" cx="0.00" cy="0.00" transform="translate(586.10,490.45) rotate(-42.5)" rx="7.11" ry="6.25"/>
<path fill="#1a2e3d" d="
  M 708.78 576.16
  A 0.49 0.49 0.0 0 1 708.08 576.62
  Q 700.93 573.11 696.36 570.15
  Q 688.28 564.92 690.68 555.74
  C 691.32 553.27 693.71 552.60 695.88 553.91
  Q 708.26 561.38 708.78 576.16
  Z"
/>
<path fill="#04a4aa" d="
  M 408.46 688.56
  Q 420.92 683.20 430.18 673.66
  Q 449.27 653.99 449.63 626.24
  Q 449.91 605.41 443.06 588.68
  Q 439.53 580.06 438.36 576.61
  L 443.63 571.64
  A 0.39 0.38 -38.7 0 1 444.21 571.70
  Q 459.74 593.87 470.89 617.57
  Q 473.80 623.77 477.56 636.43
  Q 480.40 645.96 481.32 656.19
  C 484.34 689.60 466.30 721.50 437.23 737.60
  A 0.98 0.98 0.0 0 1 435.89 737.22
  C 428.32 723.81 418.63 713.88 406.76 704.10
  A 0.90 0.90 0.0 0 1 406.44 703.28
  Q 406.60 702.23 407.21 699.95
  Q 408.48 695.20 408.46 688.56
  Z"
/>
<path fill="#fdedbe" d="
  M 525.71 572.56
  C 537.26 576.78 548.38 579.49 560.22 581.94
  A 1.27 1.27 0.0 0 1 561.15 582.73
  C 570.78 607.33 589.44 629.06 603.41 648.10
  Q 613.68 662.09 624.35 681.39
  C 637.90 705.88 647.24 733.09 650.36 760.68
  Q 656.73 817.07 628.38 864.26
  C 613.79 888.54 590.44 909.07 563.95 918.92
  Q 554.75 922.34 544.25 922.68
  Q 522.40 923.39 501.25 923.33
  Q 455.96 923.22 412.61 910.13
  Q 412.76 908.79 415.65 908.91
  A 2.67 2.51 -46.8 0 0 416.29 908.87
  Q 433.78 905.49 447.44 899.17
  Q 479.74 884.22 505.94 855.75
  C 539.86 818.88 559.87 770.39 561.51 720.53
  Q 562.91 678.04 553.87 639.67
  Q 546.35 607.74 529.51 578.28
  A 4.56 4.52 5.2 0 0 528.46 577.03
  Q 525.89 574.90 525.71 572.56
  Z"
/>
<path fill="#02ccbf" d="
  M 438.36 576.61
  Q 439.53 580.06 443.06 588.68
  Q 449.91 605.41 449.63 626.24
  Q 449.27 653.99 430.18 673.66
  Q 420.92 683.20 408.46 688.56
  Q 407.83 676.69 400.98 667.68
  A 0.83 0.83 0.0 0 1 400.98 666.68
  L 408.25 657.03
  Q 410.56 654.34 412.15 651.19
  Q 414.88 645.82 418.87 638.57
  Q 423.55 630.04 425.11 625.76
  Q 428.20 617.30 428.74 609.85
  C 429.17 603.97 428.66 596.24 428.50 590.52
  Q 428.45 588.79 427.26 583.42
  L 438.36 576.61
  Z"
/>
<path fill="#04a4aa" d="
  M 427.26 583.42
  Q 428.45 588.79 428.50 590.52
  C 428.66 596.24 429.17 603.97 428.74 609.85
  Q 428.20 617.30 425.11 625.76
  Q 423.55 630.04 418.87 638.57
  Q 414.88 645.82 412.15 651.19
  Q 410.56 654.34 408.25 657.03
  Q 413.14 648.92 415.60 642.14
  Q 425.43 615.07 413.06 589.30
  A 0.37 0.37 0.0 0 1 413.30 588.78
  Q 420.54 587.10 427.26 583.42
  Z"
/>
<path fill="#02ccbf" d="
  M 304.43 700.21
  Q 308.97 690.33 317.12 681.85
  Q 318.93 679.95 325.83 674.84
  Q 331.21 670.85 335.45 669.18
  C 347.45 664.45 359.15 662.08 371.54 665.35
  C 384.74 668.82 393.94 677.45 394.53 691.43
  A 0.52 0.51 -78.4 0 1 393.79 691.92
  C 390.34 690.25 388.05 689.12 385.04 688.21
  C 358.60 680.17 327.44 683.48 304.99 700.66
  A 0.37 0.37 0.0 0 1 304.43 700.21
  Z"
/>
<path fill="#04a4aa" d="
  M 653.50 711.08
  A 0.71 0.71 0.0 0 1 654.19 710.07
  Q 664.21 710.67 672.44 705.94
  A 0.95 0.95 0.0 0 1 673.86 706.74
  Q 674.17 723.34 675.61 742.38
  C 676.02 747.75 677.10 752.61 678.02 758.00
  Q 681.17 776.44 688.64 793.07
  A 0.68 0.68 0.0 0 1 688.26 793.99
  L 667.31 801.94
  A 0.55 0.55 0.0 0 1 666.57 801.36
  Q 669.99 771.58 663.78 742.38
  Q 660.05 724.82 653.50 711.08
  Z"
/>
<path fill="#fdbe42" d="
  M 369.09 809.46
  Q 366.03 803.51 365.80 800.20
  Q 365.67 798.28 365.46 797.50
  A 0.81 0.80 86.1 0 0 364.79 796.91
  C 355.98 795.62 347.23 798.06 345.92 807.85
  C 344.60 817.76 347.71 823.85 353.29 832.53
  Q 359.91 842.82 369.63 850.18
  A 0.22 0.21 -55.1 0 1 369.68 850.47
  L 369.82 850.66
  A 0.18 0.18 0.0 0 1 369.59 850.92
  L 355.29 841.97
  A 3.43 3.42 52.6 0 0 352.48 841.59
  C 342.65 844.54 337.40 852.34 337.78 862.61
  Q 338.05 869.63 341.74 876.74
  L 334.43 871.44
  C 332.12 864.58 331.81 856.39 335.12 850.03
  Q 339.96 840.74 349.45 837.49
  A 0.54 0.53 58.7 0 0 349.66 836.61
  C 340.78 827.26 333.97 804.40 347.12 795.20
  Q 355.75 789.15 364.97 793.76
  A 0.65 0.65 0.0 0 0 365.89 793.32
  Q 367.12 787.82 370.96 783.81
  L 376.50 781.77
  A 2.63 2.38 29.5 0 1 377.17 781.62
  Q 380.73 781.32 383.64 783.57
  A 0.38 0.38 0.0 0 1 383.56 784.22
  Q 383.46 784.27 380.49 783.55
  C 374.03 781.99 370.93 786.39 368.98 791.79
  C 366.15 799.67 369.75 808.10 375.83 813.24
  C 381.14 817.72 391.09 818.14 396.99 814.49
  C 403.48 810.48 407.77 804.44 409.58 796.61
  Q 412.53 783.82 410.82 773.27
  Q 407.91 755.35 396.88 739.35
  C 380.77 716.00 352.32 705.41 325.48 716.33
  C 320.06 718.53 315.23 722.89 311.64 727.14
  Q 307.57 731.94 295.37 746.00
  A 0.77 0.77 0.0 0 0 295.80 747.26
  C 302.19 748.55 308.14 750.29 313.17 755.24
  Q 313.54 756.22 313.39 756.78
  A 1.30 1.23 18.7 0 1 311.67 757.57
  C 304.94 754.84 298.42 752.62 291.52 755.80
  A 6.00 5.95 -76.2 0 0 290.29 756.55
  Q 285.48 760.40 280.28 764.29
  C 279.61 764.79 278.76 766.11 277.85 766.85
  Q 275.14 769.06 272.46 772.38
  Q 271.69 770.21 272.74 769.00
  Q 279.32 761.43 285.82 754.97
  Q 290.72 750.09 293.70 746.11
  C 299.61 738.25 302.88 734.02 309.41 726.90
  C 325.80 709.02 350.36 700.46 373.55 710.70
  C 391.32 718.55 405.65 731.31 414.10 748.79
  C 420.28 761.58 422.18 775.82 419.84 789.80
  C 417.66 802.85 408.81 815.07 395.62 818.33
  C 385.81 820.75 374.57 818.62 369.09 809.46
  Z"
/>
<path fill="#fd8914" d="
  M 750.61 759.50
  L 750.38 755.99
  A 0.02 0.02 0.0 0 0 750.34 755.99
  L 750.29 756.38
  A 0.56 0.55 -74.5 0 1 749.52 756.82
  C 740.41 752.90 732.54 750.33 723.11 752.52
  Q 718.65 753.56 710.90 757.79
  A 0.93 0.93 0.0 0 0 710.42 758.53
  L 710.29 760.30
  L 709.26 761.89
  L 695.74 763.76
  Q 691.29 750.24 689.56 736.10
  A 0.81 0.80 79.2 0 1 690.15 735.23
  C 711.12 729.69 730.06 719.03 748.24 707.40
  A 0.64 0.63 -19.8 0 1 749.21 707.85
  Q 752.23 733.51 750.61 759.50
  Z"
/>
<path fill="#fd8914" d="
  M 370.96 783.81
  C 370.67 782.38 369.40 781.48 368.81 780.59
  C 367.98 779.32 366.97 777.89 366.30 776.58
  Q 359.48 763.13 353.73 754.79
  Q 351.85 752.07 347.75 749.91
  Q 348.81 750.00 348.92 749.87
  A 1.21 1.20 36.8 0 0 348.66 748.08
  Q 334.91 739.07 322.34 748.86
  Q 321.18 749.77 320.01 751.11
  Q 318.94 752.36 317.80 753.57
  Q 315.13 753.29 313.17 755.24
  C 308.14 750.29 302.19 748.55 295.80 747.26
  A 0.77 0.77 0.0 0 1 295.37 746.00
  Q 307.57 731.94 311.64 727.14
  C 315.23 722.89 320.06 718.53 325.48 716.33
  C 352.32 705.41 380.77 716.00 396.88 739.35
  Q 407.91 755.35 410.82 773.27
  Q 412.53 783.82 409.58 796.61
  C 407.77 804.44 403.48 810.48 396.99 814.49
  C 391.09 818.14 381.14 817.72 375.83 813.24
  C 369.75 808.10 366.15 799.67 368.98 791.79
  C 370.93 786.39 374.03 781.99 380.49 783.55
  Q 383.46 784.27 383.56 784.22
  A 0.38 0.38 0.0 0 0 383.64 783.57
  Q 380.73 781.32 377.17 781.62
  A 2.63 2.38 29.5 0 0 376.50 781.77
  L 370.96 783.81
  Z"
/>
<path fill="#fdbe42" d="
  M 347.75 749.91
  C 337.05 744.74 322.55 747.66 320.64 761.38
  C 318.80 774.58 324.79 784.28 332.85 795.74
  Q 334.70 798.37 335.72 801.00
  A 0.76 0.76 0.0 0 1 334.71 801.97
  C 328.51 799.28 322.82 797.60 316.20 798.72
  A 0.26 0.26 0.0 0 1 316.03 798.23
  C 318.99 796.58 321.72 796.60 326.58 795.99
  A 0.55 0.55 0.0 0 0 326.93 795.09
  C 320.74 787.68 316.45 780.68 315.67 770.81
  C 315.21 764.92 314.85 758.57 317.80 753.57
  Q 318.94 752.36 320.01 751.11
  Q 321.18 749.77 322.34 748.86
  Q 334.91 739.07 348.66 748.08
  A 1.21 1.20 36.8 0 1 348.92 749.87
  Q 348.81 750.00 347.75 749.91
  Z"
/>
<path fill="#fa4c35" d="
  M 347.75 749.91
  Q 351.85 752.07 353.73 754.79
  Q 359.48 763.13 366.30 776.58
  C 366.97 777.89 367.98 779.32 368.81 780.59
  C 369.40 781.48 370.67 782.38 370.96 783.81
  Q 367.12 787.82 365.89 793.32
  A 0.65 0.65 0.0 0 1 364.97 793.76
  Q 355.75 789.15 347.12 795.20
  C 333.97 804.40 340.78 827.26 349.66 836.61
  A 0.54 0.53 58.7 0 1 349.45 837.49
  Q 339.96 840.74 335.12 850.03
  C 331.81 856.39 332.12 864.58 334.43 871.44
  Q 332.16 869.55 329.87 867.61
  Q 305.61 847.04 290.11 820.65
  Q 276.93 798.23 272.46 772.38
  Q 275.14 769.06 277.85 766.85
  C 278.76 766.11 279.61 764.79 280.28 764.29
  Q 285.48 760.40 290.29 756.55
  A 6.00 5.95 -76.2 0 1 291.52 755.80
  C 298.42 752.62 304.94 754.84 311.67 757.57
  A 1.30 1.23 18.7 0 0 313.39 756.78
  Q 313.54 756.22 313.17 755.24
  Q 315.13 753.29 317.80 753.57
  C 314.85 758.57 315.21 764.92 315.67 770.81
  C 316.45 780.68 320.74 787.68 326.93 795.09
  A 0.55 0.55 0.0 0 1 326.58 795.99
  C 321.72 796.60 318.99 796.58 316.03 798.23
  A 0.26 0.26 0.0 0 0 316.20 798.72
  C 322.82 797.60 328.51 799.28 334.71 801.97
  A 0.76 0.76 0.0 0 0 335.72 801.00
  Q 334.70 798.37 332.85 795.74
  C 324.79 784.28 318.80 774.58 320.64 761.38
  C 322.55 747.66 337.05 744.74 347.75 749.91
  Z"
/>
<path fill="#fdbe42" d="
  M 750.61 759.50
  L 749.73 766.03
  L 749.31 766.44
  A 0.48 0.47 58.0 0 1 748.53 766.26
  Q 748.38 765.81 747.92 765.34
  C 741.33 758.66 734.09 755.28 724.37 756.43
  Q 717.48 757.24 710.29 760.30
  L 710.42 758.53
  A 0.93 0.93 0.0 0 1 710.90 757.79
  Q 718.65 753.56 723.11 752.52
  C 732.54 750.33 740.41 752.90 749.52 756.82
  A 0.56 0.55 -74.5 0 0 750.29 756.38
  L 750.34 755.99
  A 0.02 0.02 0.0 0 1 750.38 755.99
  L 750.61 759.50
  Z"
/>
<path fill="#fa4c35" d="
  M 749.73 766.03
  Q 745.89 797.59 732.98 826.02
  Q 728.20 836.57 722.48 844.98
  Q 716.26 854.14 709.83 863.12
  A 2.36 2.21 88.2 0 1 709.54 863.45
  L 705.55 867.18
  Q 706.89 859.79 704.26 852.18
  C 702.12 845.97 696.85 839.51 690.13 838.14
  A 0.58 0.58 0.0 0 1 689.83 837.17
  Q 701.99 824.97 698.86 808.33
  A 0.53 0.52 -78.9 0 1 699.66 807.79
  Q 701.00 808.67 702.25 808.05
  C 708.35 805.03 714.00 803.50 720.86 805.43
  A 0.43 0.43 0.0 0 0 721.38 805.17
  L 721.38 805.16
  A 0.41 0.41 0.0 0 0 721.17 804.64
  L 711.12 800.02
  L 713.50 798.36
  A 1.07 1.07 0.0 0 0 713.62 796.69
  Q 711.70 794.90 710.13 792.62
  Q 705.63 786.07 701.62 778.39
  Q 699.48 774.31 698.32 770.58
  Q 701.71 767.71 703.68 767.13
  Q 713.39 764.24 721.49 769.61
  C 723.95 771.23 725.37 773.54 727.45 776.33
  A 0.36 0.36 0.0 0 0 728.07 776.00
  C 725.82 769.56 722.35 764.60 715.23 762.82
  Q 713.61 762.42 709.26 761.89
  L 710.29 760.30
  Q 717.48 757.24 724.37 756.43
  C 734.09 755.28 741.33 758.66 747.92 765.34
  Q 748.38 765.81 748.53 766.26
  A 0.48 0.47 58.0 0 0 749.31 766.44
  L 749.73 766.03
  Z"
/>
<path fill="#fdbe42" d="
  M 709.26 761.89
  Q 713.61 762.42 715.23 762.82
  C 722.35 764.60 725.82 769.56 728.07 776.00
  A 0.36 0.36 0.0 0 1 727.45 776.33
  C 725.37 773.54 723.95 771.23 721.49 769.61
  Q 713.39 764.24 703.68 767.13
  Q 701.71 767.71 698.32 770.58
  L 695.74 763.76
  L 709.26 761.89
  Z"
/>
<path fill="#fa4c35" d="
  M 369.09 809.46
  Q 368.42 809.29 368.31 809.45
  Q 367.96 809.93 368.23 810.46
  Q 372.76 819.25 379.50 824.81
  Q 379.00 826.07 380.19 827.83
  A 2.21 2.20 25.3 0 1 380.57 828.89
  Q 382.03 845.48 384.32 861.98
  Q 386.65 878.76 392.29 893.25
  Q 395.02 900.27 399.33 905.76
  Q 382.49 899.19 373.92 895.32
  Q 357.43 887.88 341.74 876.74
  Q 338.05 869.63 337.78 862.61
  C 337.40 852.34 342.65 844.54 352.48 841.59
  A 3.43 3.42 52.6 0 1 355.29 841.97
  L 369.59 850.92
  A 0.18 0.18 0.0 0 0 369.82 850.66
  L 369.68 850.47
  A 0.22 0.21 -55.1 0 0 369.63 850.18
  Q 359.91 842.82 353.29 832.53
  C 347.71 823.85 344.60 817.76 345.92 807.85
  C 347.23 798.06 355.98 795.62 364.79 796.91
  A 0.81 0.80 86.1 0 1 365.46 797.50
  Q 365.67 798.28 365.80 800.20
  Q 366.03 803.51 369.09 809.46
  Z"
/>
<path fill="#fdbe42" d="
  M 711.12 800.02
  L 721.17 804.64
  A 0.41 0.41 0.0 0 1 721.38 805.16
  L 721.38 805.17
  A 0.43 0.43 0.0 0 1 720.86 805.43
  C 714.00 803.50 708.35 805.03 702.25 808.05
  Q 701.00 808.67 699.66 807.79
  A 0.53 0.52 -78.9 0 0 698.86 808.33
  Q 701.99 824.97 689.83 837.17
  A 0.58 0.58 0.0 0 0 690.13 838.14
  C 696.85 839.51 702.12 845.97 704.26 852.18
  Q 706.89 859.79 705.55 867.18
  L 700.02 873.33
  L 699.31 873.20
  A 1.04 1.04 0.0 0 1 698.52 871.81
  C 699.96 867.89 701.49 862.97 701.18 859.07
  C 700.56 851.13 695.67 845.27 688.42 842.31
  Q 685.31 841.03 682.62 842.87
  Q 676.07 847.33 671.29 850.11
  A 0.30 0.30 0.0 0 1 670.90 850.01
  L 670.89 850.01
  A 0.23 0.23 0.0 0 1 670.94 849.70
  Q 680.03 842.66 686.84 833.31
  Q 690.92 827.71 693.13 821.14
  Q 695.31 814.67 693.07 808.69
  L 711.12 800.02
  Z"
/>
<path fill="#fa4c35" d="
  M 693.07 808.69
  Q 695.31 814.67 693.13 821.14
  Q 690.92 827.71 686.84 833.31
  Q 680.03 842.66 670.94 849.70
  A 0.23 0.23 0.0 0 0 670.89 850.01
  L 670.90 850.01
  A 0.30 0.30 0.0 0 0 671.29 850.11
  Q 676.07 847.33 682.62 842.87
  Q 685.31 841.03 688.42 842.31
  C 695.67 845.27 700.56 851.13 701.18 859.07
  C 701.49 862.97 699.96 867.89 698.52 871.81
  A 1.04 1.04 0.0 0 0 699.31 873.20
  L 700.02 873.33
  L 687.04 885.28
  A 1.90 1.73 -77.5 0 1 686.60 885.59
  Q 684.35 886.67 683.68 887.23
  Q 682.86 887.92 678.66 890.75
  Q 671.48 895.59 662.66 900.65
  Q 655.38 904.83 645.62 908.52
  Q 618.75 918.67 591.33 923.18
  A 0.32 0.32 0.0 0 1 591.11 922.59
  Q 596.13 919.50 600.75 916.49
  Q 617.44 905.65 631.66 887.40
  Q 638.45 878.69 641.77 873.27
  Q 656.89 848.57 663.69 820.18
  A 1.21 1.21 0.0 0 1 664.52 819.30
  Q 679.11 814.87 693.07 808.69
  Z"
/>
</svg>
